<?xml version="1.0" encoding="utf-8" standalone="no"?>
<!DOCTYPE svg PUBLIC "-//W3C//DTD SVG 1.1//EN"
  "http://www.w3.org/Graphics/SVG/1.1/DTD/svg11.dtd">
<svg xmlns:xlink="http://www.w3.org/1999/xlink" width="851.4pt" height="558pt" viewBox="0 0 851.4 558" xmlns="http://www.w3.org/2000/svg" version="1.1">
 <metadata>
  <rdf:RDF xmlns:dc="http://purl.org/dc/elements/1.1/" xmlns:cc="http://creativecommons.org/ns#" xmlns:rdf="http://www.w3.org/1999/02/22-rdf-syntax-ns#">
   <cc:Work>
    <dc:type rdf:resource="http://purl.org/dc/dcmitype/StillImage"/>
    <dc:date>2022-05-30T10:31:33.327413</dc:date>
    <dc:format>image/svg+xml</dc:format>
    <dc:creator>
     <cc:Agent>
      <dc:title>Matplotlib v3.5.1, https://matplotlib.org/</dc:title>
     </cc:Agent>
    </dc:creator>
   </cc:Work>
  </rdf:RDF>
 </metadata>
 <defs>
  <style type="text/css">*{stroke-linejoin: round; stroke-linecap: butt}</style>
 </defs>
 <g id="figure_1">
  <g id="patch_1">
   <path d="M 0 558 
L 851.4 558 
L 851.4 0 
L 0 0 
L 0 558 
z
" style="fill: none"/>
  </g>
  <g id="axes_1">
   <g id="line2d_1">
    <path d="M 45.245455 526.090909 
L 54.137547 524.810396 
L 61.759341 523.511927 
L 69.381135 522.001447 
L 77.002929 520.251433 
L 83.354424 518.588705 
L 89.705919 516.720624 
L 96.057414 514.627796 
L 102.408909 512.289886 
L 108.760404 509.685694 
L 115.111899 506.793267 
L 120.193095 504.256644 
L 125.27429 501.509332 
L 130.355486 498.53942 
L 135.436682 495.334933 
L 140.517878 491.883905 
L 145.599074 488.174461 
L 150.68027 484.194906 
L 155.761466 479.933817 
L 160.842662 475.380146 
L 165.923858 470.52333 
L 171.005054 465.353399 
L 176.08625 459.861097 
L 181.167446 454.038003 
L 186.248642 447.876657 
L 191.329838 441.370686 
L 196.411034 434.514934 
L 201.492229 427.305589 
L 206.573425 419.740314 
L 211.654621 411.818365 
L 216.735817 403.540721 
L 221.817013 394.910191 
L 228.168508 383.633211 
L 234.520003 371.826204 
L 240.871498 359.508201 
L 247.222993 346.7037 
L 253.574488 333.442833 
L 261.196282 316.978306 
L 268.818076 299.981545 
L 277.710168 279.593155 
L 289.142859 252.736485 
L 322.170633 174.592861 
L 329.792427 157.261195 
L 337.414221 140.498881 
L 343.765716 127.07249 
L 350.117211 114.230061 
L 355.198406 104.432886 
L 360.279602 95.104778 
L 365.360798 86.286132 
L 370.441994 78.015722 
L 374.252891 72.194953 
L 378.063788 66.718114 
L 381.874685 61.599217 
L 385.685582 56.851465 
L 389.496479 52.487192 
L 393.307376 48.51781 
L 397.118273 44.953762 
L 400.92917 41.804474 
L 403.469768 39.939549 
L 406.010366 38.264914 
L 408.550964 36.782559 
L 411.091562 35.494249 
L 413.63216 34.401521 
L 416.172758 33.505682 
L 418.713356 32.807802 
L 421.253954 32.308718 
L 423.794552 32.009028 
L 426.335149 31.909091 
L 428.875747 32.009028 
L 431.416345 32.308718 
L 433.956943 32.807802 
L 436.497541 33.505682 
L 439.038139 34.401521 
L 441.578737 35.494249 
L 444.119335 36.782559 
L 446.659933 38.264914 
L 449.200531 39.939549 
L 451.741129 41.804474 
L 455.552026 44.953762 
L 459.362923 48.51781 
L 463.17382 52.487192 
L 466.984717 56.851465 
L 470.795614 61.599217 
L 474.606511 66.718114 
L 478.417408 72.194953 
L 482.228305 78.015722 
L 486.039202 84.165658 
L 491.120398 92.85081 
L 496.201594 102.055281 
L 501.282789 111.739054 
L 506.363985 121.86071 
L 512.71548 135.063683 
L 519.066975 148.799567 
L 526.688769 165.86515 
L 535.580862 186.390418 
L 547.013553 213.396446 
L 573.689832 276.63961 
L 582.581924 297.102793 
L 590.203718 314.180327 
L 597.825512 330.738951 
L 605.447306 346.7037 
L 611.798801 359.508201 
L 618.150296 371.826204 
L 624.501791 383.633211 
L 630.853286 394.910191 
L 637.204781 405.643358 
L 642.285977 413.832268 
L 647.367173 421.66507 
L 652.448368 429.141229 
L 657.529564 436.261897 
L 662.61076 443.029792 
L 667.691956 449.449073 
L 672.773152 455.525214 
L 677.854348 461.264871 
L 682.935544 466.675756 
L 688.01674 471.766511 
L 693.097936 476.54658 
L 698.179132 481.026094 
L 703.260328 485.215748 
L 708.341524 489.126692 
L 713.42272 492.770427 
L 718.503916 496.158702 
L 723.585112 499.303422 
L 728.666307 502.216562 
L 733.747503 504.910089 
L 738.828699 507.395887 
L 745.180194 510.228879 
L 751.531689 512.778081 
L 757.883184 515.065305 
L 764.234679 517.111585 
L 770.586174 518.937076 
L 776.937669 520.560972 
L 784.559463 522.269057 
L 792.181257 523.742351 
L 799.803051 525.008003 
L 806.154545 525.922126 
L 806.154545 525.922126 
" clip-path="url(#p49de1257ec)" style="fill: none; stroke: #000000; stroke-width: 1.5; stroke-linecap: square"/>
   </g>
  </g>
 </g>
 <defs>
  <clipPath id="p49de1257ec">
   <rect x="7.2" y="7.2" width="837" height="543.6"/>
  </clipPath>
 </defs>
</svg>
