<?xml version="1.0" encoding="utf-8" standalone="no"?>
<!DOCTYPE svg PUBLIC "-//W3C//DTD SVG 1.1//EN"
  "http://www.w3.org/Graphics/SVG/1.1/DTD/svg11.dtd">
<svg xmlns:xlink="http://www.w3.org/1999/xlink" width="629.770547pt" height="592.534219pt" viewBox="0 0 629.770547 592.534219" xmlns="http://www.w3.org/2000/svg" version="1.1">
 <metadata>
  <rdf:RDF xmlns:dc="http://purl.org/dc/elements/1.1/" xmlns:cc="http://creativecommons.org/ns#" xmlns:rdf="http://www.w3.org/1999/02/22-rdf-syntax-ns#">
   <cc:Work>
    <dc:type rdf:resource="http://purl.org/dc/dcmitype/StillImage"/>
    <dc:date>2022-04-27T08:54:20.719917</dc:date>
    <dc:format>image/svg+xml</dc:format>
    <dc:creator>
     <cc:Agent>
      <dc:title>Matplotlib v3.5.1, https://matplotlib.org/</dc:title>
     </cc:Agent>
    </dc:creator>
   </cc:Work>
  </rdf:RDF>
 </metadata>
 <defs>
  <style type="text/css">*{stroke-linejoin: round; stroke-linecap: butt}</style>
 </defs>
 <g id="figure_1">
  <g id="patch_1">
   <path d="M 0 592.534219 
L 629.770547 592.534219 
L 629.770547 0 
L 0 0 
z
" style="fill: #ffffff"/>
  </g>
  <g id="axes_1">
   <g id="patch_2">
    <path d="M 53.867031 550.8 
L 611.867031 550.8 
L 611.867031 7.2 
L 53.867031 7.2 
z
" style="fill: #eaeaf2"/>
   </g>
   <g id="matplotlib.axis_1">
    <g id="xtick_1">
     <g id="line2d_1">
      <path d="M 53.867031 550.8 
L 53.867031 7.2 
" clip-path="url(#p104d1128a1)" style="fill: none; stroke: #ffffff; stroke-linecap: round"/>
     </g>
     <g id="text_1">
      <!-- 0.0 -->
      <g style="fill: #262626" transform="translate(46.222031 568.173594)scale(0.11 -0.11)">
       <defs>
        <path id="ArialMT-30" d="M 266 2259 
Q 266 3072 433 3567 
Q 600 4063 929 4331 
Q 1259 4600 1759 4600 
Q 2128 4600 2406 4451 
Q 2684 4303 2865 4023 
Q 3047 3744 3150 3342 
Q 3253 2941 3253 2259 
Q 3253 1453 3087 958 
Q 2922 463 2592 192 
Q 2263 -78 1759 -78 
Q 1097 -78 719 397 
Q 266 969 266 2259 
z
M 844 2259 
Q 844 1131 1108 757 
Q 1372 384 1759 384 
Q 2147 384 2411 759 
Q 2675 1134 2675 2259 
Q 2675 3391 2411 3762 
Q 2147 4134 1753 4134 
Q 1366 4134 1134 3806 
Q 844 3388 844 2259 
z
" transform="scale(0.015625)"/>
        <path id="ArialMT-2e" d="M 581 0 
L 581 641 
L 1222 641 
L 1222 0 
L 581 0 
z
" transform="scale(0.015625)"/>
       </defs>
       <use xlink:href="#ArialMT-30"/>
       <use xlink:href="#ArialMT-2e" x="55.615234"/>
       <use xlink:href="#ArialMT-30" x="83.398438"/>
      </g>
     </g>
    </g>
    <g id="xtick_2">
     <g id="line2d_2">
      <path d="M 123.617031 550.8 
L 123.617031 7.2 
" clip-path="url(#p104d1128a1)" style="fill: none; stroke: #ffffff; stroke-linecap: round"/>
     </g>
     <g id="text_2">
      <!-- 2.5 -->
      <g style="fill: #262626" transform="translate(115.972031 568.173594)scale(0.11 -0.11)">
       <defs>
        <path id="ArialMT-32" d="M 3222 541 
L 3222 0 
L 194 0 
Q 188 203 259 391 
Q 375 700 629 1000 
Q 884 1300 1366 1694 
Q 2113 2306 2375 2664 
Q 2638 3022 2638 3341 
Q 2638 3675 2398 3904 
Q 2159 4134 1775 4134 
Q 1369 4134 1125 3890 
Q 881 3647 878 3216 
L 300 3275 
Q 359 3922 746 4261 
Q 1134 4600 1788 4600 
Q 2447 4600 2831 4234 
Q 3216 3869 3216 3328 
Q 3216 3053 3103 2787 
Q 2991 2522 2730 2228 
Q 2469 1934 1863 1422 
Q 1356 997 1212 845 
Q 1069 694 975 541 
L 3222 541 
z
" transform="scale(0.015625)"/>
        <path id="ArialMT-35" d="M 266 1200 
L 856 1250 
Q 922 819 1161 601 
Q 1400 384 1738 384 
Q 2144 384 2425 690 
Q 2706 997 2706 1503 
Q 2706 1984 2436 2262 
Q 2166 2541 1728 2541 
Q 1456 2541 1237 2417 
Q 1019 2294 894 2097 
L 366 2166 
L 809 4519 
L 3088 4519 
L 3088 3981 
L 1259 3981 
L 1013 2750 
Q 1425 3038 1878 3038 
Q 2478 3038 2890 2622 
Q 3303 2206 3303 1553 
Q 3303 931 2941 478 
Q 2500 -78 1738 -78 
Q 1113 -78 717 272 
Q 322 622 266 1200 
z
" transform="scale(0.015625)"/>
       </defs>
       <use xlink:href="#ArialMT-32"/>
       <use xlink:href="#ArialMT-2e" x="55.615234"/>
       <use xlink:href="#ArialMT-35" x="83.398438"/>
      </g>
     </g>
    </g>
    <g id="xtick_3">
     <g id="line2d_3">
      <path d="M 193.367031 550.8 
L 193.367031 7.2 
" clip-path="url(#p104d1128a1)" style="fill: none; stroke: #ffffff; stroke-linecap: round"/>
     </g>
     <g id="text_3">
      <!-- 5.0 -->
      <g style="fill: #262626" transform="translate(185.722031 568.173594)scale(0.11 -0.11)">
       <use xlink:href="#ArialMT-35"/>
       <use xlink:href="#ArialMT-2e" x="55.615234"/>
       <use xlink:href="#ArialMT-30" x="83.398438"/>
      </g>
     </g>
    </g>
    <g id="xtick_4">
     <g id="line2d_4">
      <path d="M 263.117031 550.8 
L 263.117031 7.2 
" clip-path="url(#p104d1128a1)" style="fill: none; stroke: #ffffff; stroke-linecap: round"/>
     </g>
     <g id="text_4">
      <!-- 7.5 -->
      <g style="fill: #262626" transform="translate(255.472031 568.173594)scale(0.11 -0.11)">
       <defs>
        <path id="ArialMT-37" d="M 303 3981 
L 303 4522 
L 3269 4522 
L 3269 4084 
Q 2831 3619 2401 2847 
Q 1972 2075 1738 1259 
Q 1569 684 1522 0 
L 944 0 
Q 953 541 1156 1306 
Q 1359 2072 1739 2783 
Q 2119 3494 2547 3981 
L 303 3981 
z
" transform="scale(0.015625)"/>
       </defs>
       <use xlink:href="#ArialMT-37"/>
       <use xlink:href="#ArialMT-2e" x="55.615234"/>
       <use xlink:href="#ArialMT-35" x="83.398438"/>
      </g>
     </g>
    </g>
    <g id="xtick_5">
     <g id="line2d_5">
      <path d="M 332.867031 550.8 
L 332.867031 7.2 
" clip-path="url(#p104d1128a1)" style="fill: none; stroke: #ffffff; stroke-linecap: round"/>
     </g>
     <g id="text_5">
      <!-- 10.0 -->
      <g style="fill: #262626" transform="translate(322.163516 568.173594)scale(0.11 -0.11)">
       <defs>
        <path id="ArialMT-31" d="M 2384 0 
L 1822 0 
L 1822 3584 
Q 1619 3391 1289 3197 
Q 959 3003 697 2906 
L 697 3450 
Q 1169 3672 1522 3987 
Q 1875 4303 2022 4600 
L 2384 4600 
L 2384 0 
z
" transform="scale(0.015625)"/>
       </defs>
       <use xlink:href="#ArialMT-31"/>
       <use xlink:href="#ArialMT-30" x="55.615234"/>
       <use xlink:href="#ArialMT-2e" x="111.230469"/>
       <use xlink:href="#ArialMT-30" x="139.013672"/>
      </g>
     </g>
    </g>
    <g id="xtick_6">
     <g id="line2d_6">
      <path d="M 402.617031 550.8 
L 402.617031 7.2 
" clip-path="url(#p104d1128a1)" style="fill: none; stroke: #ffffff; stroke-linecap: round"/>
     </g>
     <g id="text_6">
      <!-- 12.5 -->
      <g style="fill: #262626" transform="translate(391.913516 568.173594)scale(0.11 -0.11)">
       <use xlink:href="#ArialMT-31"/>
       <use xlink:href="#ArialMT-32" x="55.615234"/>
       <use xlink:href="#ArialMT-2e" x="111.230469"/>
       <use xlink:href="#ArialMT-35" x="139.013672"/>
      </g>
     </g>
    </g>
    <g id="xtick_7">
     <g id="line2d_7">
      <path d="M 472.367031 550.8 
L 472.367031 7.2 
" clip-path="url(#p104d1128a1)" style="fill: none; stroke: #ffffff; stroke-linecap: round"/>
     </g>
     <g id="text_7">
      <!-- 15.0 -->
      <g style="fill: #262626" transform="translate(461.663516 568.173594)scale(0.11 -0.11)">
       <use xlink:href="#ArialMT-31"/>
       <use xlink:href="#ArialMT-35" x="55.615234"/>
       <use xlink:href="#ArialMT-2e" x="111.230469"/>
       <use xlink:href="#ArialMT-30" x="139.013672"/>
      </g>
     </g>
    </g>
    <g id="xtick_8">
     <g id="line2d_8">
      <path d="M 542.117031 550.8 
L 542.117031 7.2 
" clip-path="url(#p104d1128a1)" style="fill: none; stroke: #ffffff; stroke-linecap: round"/>
     </g>
     <g id="text_8">
      <!-- 17.5 -->
      <g style="fill: #262626" transform="translate(531.413516 568.173594)scale(0.11 -0.11)">
       <use xlink:href="#ArialMT-31"/>
       <use xlink:href="#ArialMT-37" x="55.615234"/>
       <use xlink:href="#ArialMT-2e" x="111.230469"/>
       <use xlink:href="#ArialMT-35" x="139.013672"/>
      </g>
     </g>
    </g>
    <g id="xtick_9">
     <g id="line2d_9">
      <path d="M 611.867031 550.8 
L 611.867031 7.2 
" clip-path="url(#p104d1128a1)" style="fill: none; stroke: #ffffff; stroke-linecap: round"/>
     </g>
     <g id="text_9">
      <!-- 20.0 -->
      <g style="fill: #262626" transform="translate(601.163516 568.173594)scale(0.11 -0.11)">
       <use xlink:href="#ArialMT-32"/>
       <use xlink:href="#ArialMT-30" x="55.615234"/>
       <use xlink:href="#ArialMT-2e" x="111.230469"/>
       <use xlink:href="#ArialMT-30" x="139.013672"/>
      </g>
     </g>
    </g>
    <g id="text_10">
     <!-- $m/n, n=4$ -->
     <g style="fill: #262626" transform="translate(303.107031 582.949219)scale(0.12 -0.12)">
      <defs>
       <path id="DejaVuSans-Oblique-6d" d="M 5747 2113 
L 5338 0 
L 4763 0 
L 5166 2094 
Q 5191 2228 5203 2325 
Q 5216 2422 5216 2491 
Q 5216 2772 5059 2928 
Q 4903 3084 4622 3084 
Q 4203 3084 3875 2770 
Q 3547 2456 3450 1953 
L 3066 0 
L 2491 0 
L 2900 2094 
Q 2925 2209 2937 2307 
Q 2950 2406 2950 2484 
Q 2950 2769 2794 2926 
Q 2638 3084 2363 3084 
Q 1938 3084 1609 2770 
Q 1281 2456 1184 1953 
L 800 0 
L 225 0 
L 909 3500 
L 1484 3500 
L 1375 2956 
Q 1609 3263 1923 3423 
Q 2238 3584 2597 3584 
Q 2978 3584 3223 3384 
Q 3469 3184 3519 2828 
Q 3781 3197 4126 3390 
Q 4472 3584 4856 3584 
Q 5306 3584 5551 3325 
Q 5797 3066 5797 2591 
Q 5797 2488 5784 2364 
Q 5772 2241 5747 2113 
z
" transform="scale(0.015625)"/>
       <path id="DejaVuSans-2f" d="M 1625 4666 
L 2156 4666 
L 531 -594 
L 0 -594 
L 1625 4666 
z
" transform="scale(0.015625)"/>
       <path id="DejaVuSans-Oblique-6e" d="M 3566 2113 
L 3156 0 
L 2578 0 
L 2988 2091 
Q 3016 2238 3031 2350 
Q 3047 2463 3047 2528 
Q 3047 2791 2881 2937 
Q 2716 3084 2419 3084 
Q 1956 3084 1622 2776 
Q 1288 2469 1184 1941 
L 800 0 
L 225 0 
L 903 3500 
L 1478 3500 
L 1363 2950 
Q 1603 3253 1940 3418 
Q 2278 3584 2650 3584 
Q 3113 3584 3367 3334 
Q 3622 3084 3622 2631 
Q 3622 2519 3608 2391 
Q 3594 2263 3566 2113 
z
" transform="scale(0.015625)"/>
       <path id="DejaVuSans-2c" d="M 750 794 
L 1409 794 
L 1409 256 
L 897 -744 
L 494 -744 
L 750 256 
L 750 794 
z
" transform="scale(0.015625)"/>
       <path id="DejaVuSans-3d" d="M 678 2906 
L 4684 2906 
L 4684 2381 
L 678 2381 
L 678 2906 
z
M 678 1631 
L 4684 1631 
L 4684 1100 
L 678 1100 
L 678 1631 
z
" transform="scale(0.015625)"/>
       <path id="DejaVuSans-34" d="M 2419 4116 
L 825 1625 
L 2419 1625 
L 2419 4116 
z
M 2253 4666 
L 3047 4666 
L 3047 1625 
L 3713 1625 
L 3713 1100 
L 3047 1100 
L 3047 0 
L 2419 0 
L 2419 1100 
L 313 1100 
L 313 1709 
L 2253 4666 
z
" transform="scale(0.015625)"/>
      </defs>
      <use xlink:href="#DejaVuSans-Oblique-6d" transform="translate(0 0.09375)"/>
      <use xlink:href="#DejaVuSans-2f" transform="translate(97.412109 0.09375)"/>
      <use xlink:href="#DejaVuSans-Oblique-6e" transform="translate(131.103516 0.09375)"/>
      <use xlink:href="#DejaVuSans-2c" transform="translate(194.482422 0.09375)"/>
      <use xlink:href="#DejaVuSans-Oblique-6e" transform="translate(245.751953 0.09375)"/>
      <use xlink:href="#DejaVuSans-3d" transform="translate(328.613281 0.09375)"/>
      <use xlink:href="#DejaVuSans-34" transform="translate(431.884766 0.09375)"/>
     </g>
    </g>
   </g>
   <g id="matplotlib.axis_2">
    <g id="ytick_1">
     <g id="line2d_10">
      <path d="M 53.867031 458.538795 
L 611.867031 458.538795 
" clip-path="url(#p104d1128a1)" style="fill: none; stroke: #ffffff; stroke-linecap: round"/>
     </g>
     <g id="text_11">
      <!-- 0.20 -->
      <g style="fill: #262626" transform="translate(22.96 462.475592)scale(0.11 -0.11)">
       <use xlink:href="#ArialMT-30"/>
       <use xlink:href="#ArialMT-2e" x="55.615234"/>
       <use xlink:href="#ArialMT-32" x="83.398438"/>
       <use xlink:href="#ArialMT-30" x="139.013672"/>
      </g>
     </g>
    </g>
    <g id="ytick_2">
     <g id="line2d_11">
      <path d="M 53.867031 364.792341 
L 611.867031 364.792341 
" clip-path="url(#p104d1128a1)" style="fill: none; stroke: #ffffff; stroke-linecap: round"/>
     </g>
     <g id="text_12">
      <!-- 0.25 -->
      <g style="fill: #262626" transform="translate(22.96 368.729138)scale(0.11 -0.11)">
       <use xlink:href="#ArialMT-30"/>
       <use xlink:href="#ArialMT-2e" x="55.615234"/>
       <use xlink:href="#ArialMT-32" x="83.398438"/>
       <use xlink:href="#ArialMT-35" x="139.013672"/>
      </g>
     </g>
    </g>
    <g id="ytick_3">
     <g id="line2d_12">
      <path d="M 53.867031 271.045888 
L 611.867031 271.045888 
" clip-path="url(#p104d1128a1)" style="fill: none; stroke: #ffffff; stroke-linecap: round"/>
     </g>
     <g id="text_13">
      <!-- 0.30 -->
      <g style="fill: #262626" transform="translate(22.96 274.982685)scale(0.11 -0.11)">
       <defs>
        <path id="ArialMT-33" d="M 269 1209 
L 831 1284 
Q 928 806 1161 595 
Q 1394 384 1728 384 
Q 2125 384 2398 659 
Q 2672 934 2672 1341 
Q 2672 1728 2419 1979 
Q 2166 2231 1775 2231 
Q 1616 2231 1378 2169 
L 1441 2663 
Q 1497 2656 1531 2656 
Q 1891 2656 2178 2843 
Q 2466 3031 2466 3422 
Q 2466 3731 2256 3934 
Q 2047 4138 1716 4138 
Q 1388 4138 1169 3931 
Q 950 3725 888 3313 
L 325 3413 
Q 428 3978 793 4289 
Q 1159 4600 1703 4600 
Q 2078 4600 2393 4439 
Q 2709 4278 2876 4000 
Q 3044 3722 3044 3409 
Q 3044 3113 2884 2869 
Q 2725 2625 2413 2481 
Q 2819 2388 3044 2092 
Q 3269 1797 3269 1353 
Q 3269 753 2831 336 
Q 2394 -81 1725 -81 
Q 1122 -81 723 278 
Q 325 638 269 1209 
z
" transform="scale(0.015625)"/>
       </defs>
       <use xlink:href="#ArialMT-30"/>
       <use xlink:href="#ArialMT-2e" x="55.615234"/>
       <use xlink:href="#ArialMT-33" x="83.398438"/>
       <use xlink:href="#ArialMT-30" x="139.013672"/>
      </g>
     </g>
    </g>
    <g id="ytick_4">
     <g id="line2d_13">
      <path d="M 53.867031 177.299435 
L 611.867031 177.299435 
" clip-path="url(#p104d1128a1)" style="fill: none; stroke: #ffffff; stroke-linecap: round"/>
     </g>
     <g id="text_14">
      <!-- 0.35 -->
      <g style="fill: #262626" transform="translate(22.96 181.236232)scale(0.11 -0.11)">
       <use xlink:href="#ArialMT-30"/>
       <use xlink:href="#ArialMT-2e" x="55.615234"/>
       <use xlink:href="#ArialMT-33" x="83.398438"/>
       <use xlink:href="#ArialMT-35" x="139.013672"/>
      </g>
     </g>
    </g>
    <g id="ytick_5">
     <g id="line2d_14">
      <path d="M 53.867031 83.552981 
L 611.867031 83.552981 
" clip-path="url(#p104d1128a1)" style="fill: none; stroke: #ffffff; stroke-linecap: round"/>
     </g>
     <g id="text_15">
      <!-- 0.40 -->
      <g style="fill: #262626" transform="translate(22.96 87.489778)scale(0.11 -0.11)">
       <defs>
        <path id="ArialMT-34" d="M 2069 0 
L 2069 1097 
L 81 1097 
L 81 1613 
L 2172 4581 
L 2631 4581 
L 2631 1613 
L 3250 1613 
L 3250 1097 
L 2631 1097 
L 2631 0 
L 2069 0 
z
M 2069 1613 
L 2069 3678 
L 634 1613 
L 2069 1613 
z
" transform="scale(0.015625)"/>
       </defs>
       <use xlink:href="#ArialMT-30"/>
       <use xlink:href="#ArialMT-2e" x="55.615234"/>
       <use xlink:href="#ArialMT-34" x="83.398438"/>
       <use xlink:href="#ArialMT-30" x="139.013672"/>
      </g>
     </g>
    </g>
    <g id="text_16">
     <!-- $L_{m, n, \Delta}$ -->
     <g style="fill: #262626" transform="translate(15.96 296.46)rotate(-90)scale(0.12 -0.12)">
      <defs>
       <path id="DejaVuSans-Oblique-4c" d="M 1075 4666 
L 1709 4666 
L 909 525 
L 3181 525 
L 3078 0 
L 172 0 
L 1075 4666 
z
" transform="scale(0.015625)"/>
       <path id="DejaVuSans-394" d="M 2188 4044 
L 906 525 
L 3472 525 
L 2188 4044 
z
M 50 0 
L 1831 4666 
L 2547 4666 
L 4325 0 
L 50 0 
z
" transform="scale(0.015625)"/>
      </defs>
      <use xlink:href="#DejaVuSans-Oblique-4c" transform="translate(0 0.09375)"/>
      <use xlink:href="#DejaVuSans-Oblique-6d" transform="translate(55.712891 -16.3125)scale(0.7)"/>
      <use xlink:href="#DejaVuSans-2c" transform="translate(123.901367 -16.3125)scale(0.7)"/>
      <use xlink:href="#DejaVuSans-Oblique-6e" transform="translate(159.790039 -16.3125)scale(0.7)"/>
      <use xlink:href="#DejaVuSans-2c" transform="translate(204.155273 -16.3125)scale(0.7)"/>
      <use xlink:href="#DejaVuSans-394" transform="translate(240.043945 -16.3125)scale(0.7)"/>
     </g>
    </g>
   </g>
   <g id="line2d_15">
    <path d="M 53.867031 445.369783 
L 56.657031 452.495483 
L 59.447031 452.71179 
L 62.237031 457.437057 
L 65.027031 460.465103 
L 67.817031 462.807887 
L 70.607031 459.745775 
L 73.397031 465.271171 
L 76.187031 465.674684 
L 78.977031 471.545349 
L 81.767031 466.072887 
L 84.557031 471.637262 
L 87.347031 471.753385 
L 90.137031 477.908107 
L 92.927031 475.832502 
L 95.717031 476.607995 
L 98.507031 476.418496 
L 101.297031 480.277668 
L 106.877031 482.093269 
L 109.667031 484.656553 
L 112.457031 483.907061 
L 115.247031 485.507773 
L 118.037031 486.200323 
L 120.827031 487.593827 
L 123.617031 489.59877 
L 126.407031 485.654192 
L 129.197031 488.666644 
L 131.987031 490.076574 
L 134.777031 490.797117 
L 137.567031 493.242085 
L 140.357031 492.858642 
L 143.147031 494.660203 
L 145.937031 495.018229 
L 148.727031 494.084309 
L 151.517031 495.324703 
L 154.307031 497.338648 
L 157.097031 495.535218 
L 159.887031 498.790475 
L 162.677031 498.679753 
L 165.467031 499.718864 
L 171.047031 500.533253 
L 173.837031 502.180233 
L 176.627031 501.794352 
L 179.417031 503.098803 
L 182.207031 503.511825 
L 184.997031 503.55 
L 187.787031 503.246274 
L 190.577031 505.142779 
L 193.367031 504.537008 
L 196.157031 507.207741 
L 198.947031 504.558187 
L 201.737031 505.690058 
L 204.527031 506.434398 
L 207.317031 505.045363 
L 210.107031 507.23278 
L 212.897031 507.398344 
L 215.687031 506.723221 
L 218.477031 508.721129 
L 221.267031 508.425104 
L 224.057031 508.541244 
L 226.847031 509.509127 
L 229.637031 509.296971 
L 232.427031 510.358158 
L 235.217031 509.461815 
L 238.007031 509.530401 
L 240.797031 510.844587 
L 243.587031 511.936321 
L 246.377031 511.408483 
L 249.167031 511.087629 
L 251.957031 511.180726 
L 254.747031 511.676635 
L 257.537031 511.90046 
L 260.327031 511.972549 
L 263.117031 512.739365 
L 265.907031 513.03062 
L 268.697031 513.866992 
L 274.277031 514.325058 
L 277.067031 514.307329 
L 279.857031 515.257176 
L 282.647031 514.932485 
L 285.437031 515.352792 
L 288.227031 515.094767 
L 291.017031 514.558381 
L 293.807031 515.931398 
L 296.597031 515.734145 
L 299.387031 516.429728 
L 302.177031 516.398801 
L 304.967031 515.938988 
L 307.757031 515.235633 
L 310.547031 516.522024 
L 313.337031 517.151783 
L 316.127031 516.807578 
L 318.917031 516.576713 
L 321.707031 516.86085 
L 324.497031 517.344819 
L 327.287031 516.093821 
L 332.867031 518.065172 
L 335.657031 517.921868 
L 338.447031 517.927658 
L 341.237031 518.11775 
L 344.027031 517.753192 
L 346.817031 517.994775 
L 349.607031 518.757498 
L 352.397031 518.705879 
L 355.187031 519.310468 
L 357.977031 518.804054 
L 360.767031 518.824069 
L 363.557031 518.465121 
L 366.347031 520.105872 
L 369.137031 519.665328 
L 371.927031 519.923534 
L 374.717031 519.965788 
L 377.507031 519.22952 
L 380.297031 520.022518 
L 383.087031 520.185841 
L 385.877031 519.996868 
L 388.667031 520.531432 
L 391.457031 520.011242 
L 394.247031 520.092791 
L 397.037031 520.545533 
L 402.617031 520.907857 
L 405.407031 520.686755 
L 408.197031 520.625885 
L 410.987031 521.074909 
L 413.777031 521.245606 
L 416.567031 521.219075 
L 419.357031 520.841161 
L 422.147031 521.767184 
L 424.937031 521.808513 
L 427.727031 521.505877 
L 430.517031 521.929665 
L 433.307031 522.175233 
L 436.097031 521.883564 
L 438.887031 521.91794 
L 441.677031 522.165688 
L 444.467031 522.65544 
L 447.257031 522.412504 
L 450.047031 522.71652 
L 455.627031 522.791191 
L 458.417031 523.267753 
L 461.207031 522.794692 
L 463.997031 522.75553 
L 466.787031 523.3173 
L 472.367031 522.696993 
L 475.157031 523.196357 
L 477.947031 523.384266 
L 480.737031 523.092141 
L 483.527031 523.431229 
L 486.317031 523.185143 
L 489.107031 523.500513 
L 491.897031 523.571028 
L 494.687031 523.753663 
L 500.267031 523.192154 
L 503.057031 523.401382 
L 505.847031 523.438433 
L 511.427031 524.324804 
L 517.007031 524.044024 
L 519.797031 524.34281 
L 522.587031 524.181876 
L 530.957031 524.158904 
L 533.747031 524.856194 
L 536.537031 524.575545 
L 539.327031 524.864357 
L 542.117031 524.654737 
L 547.697031 524.637999 
L 550.487031 525.137414 
L 553.277031 524.605758 
L 556.067031 525.062575 
L 558.857031 524.845827 
L 561.647031 525.159934 
L 564.437031 524.62145 
L 570.017031 524.739992 
L 572.807031 525.590182 
L 578.387031 525.22634 
L 581.177031 525.517506 
L 583.967031 525.608081 
L 586.757031 525.162162 
L 589.547031 525.727759 
L 592.337031 525.304433 
L 597.917031 525.601018 
L 600.707031 525.473895 
L 603.497031 525.922292 
L 606.287031 526.090909 
L 609.077031 525.973184 
L 609.077031 525.973184 
" clip-path="url(#p104d1128a1)" style="fill: none; stroke: #edd1cb; stroke-width: 2; stroke-linecap: round"/>
   </g>
   <g id="line2d_16">
    <path d="M 53.867031 449.004163 
L 56.657031 451.321588 
L 59.447031 457.296072 
L 62.237031 452.157343 
L 65.027031 457.83694 
L 67.817031 462.336991 
L 70.607031 465.099138 
L 73.397031 463.954752 
L 76.187031 466.915348 
L 78.977031 473.486706 
L 81.767031 469.309078 
L 84.557031 471.515904 
L 90.137031 475.463756 
L 92.927031 472.815108 
L 95.717031 474.959053 
L 98.507031 479.640405 
L 101.297031 478.055179 
L 104.087031 480.915671 
L 106.877031 481.707272 
L 109.667031 479.348243 
L 112.457031 484.191809 
L 115.247031 483.041525 
L 118.037031 485.090554 
L 120.827031 487.489896 
L 123.617031 487.87176 
L 126.407031 490.245465 
L 129.197031 489.526311 
L 131.987031 490.537327 
L 134.777031 490.444784 
L 137.567031 491.32436 
L 140.357031 493.756998 
L 143.147031 493.506306 
L 145.937031 494.314828 
L 148.727031 495.446112 
L 151.517031 494.511435 
L 154.307031 498.541667 
L 157.097031 493.092349 
L 159.887031 500.155284 
L 162.677031 497.182538 
L 165.467031 497.336152 
L 168.257031 498.705762 
L 171.047031 501.371295 
L 173.837031 500.079774 
L 176.627031 500.605722 
L 182.207031 502.243935 
L 184.997031 503.616154 
L 187.787031 501.708573 
L 190.577031 504.314709 
L 193.367031 504.164803 
L 196.157031 505.569093 
L 198.947031 506.219736 
L 201.737031 505.55411 
L 204.527031 507.085553 
L 207.317031 504.880168 
L 210.107031 506.231935 
L 212.897031 506.326674 
L 215.687031 505.769462 
L 218.477031 506.48661 
L 221.267031 507.857018 
L 224.057031 508.239724 
L 226.847031 508.181278 
L 229.637031 508.623089 
L 235.217031 508.644208 
L 238.007031 508.24228 
L 240.797031 509.377156 
L 243.587031 510.33101 
L 249.167031 510.414651 
L 251.957031 511.084485 
L 254.747031 512.67848 
L 257.537031 511.158005 
L 260.327031 511.543116 
L 263.117031 512.534602 
L 268.697031 512.308684 
L 271.487031 513.04204 
L 274.277031 512.397357 
L 277.067031 512.408424 
L 279.857031 514.112283 
L 282.647031 514.144111 
L 285.437031 513.955069 
L 288.227031 513.290859 
L 291.017031 513.946679 
L 293.807031 513.938821 
L 296.597031 514.441338 
L 299.387031 514.691291 
L 302.177031 514.717535 
L 304.967031 514.883725 
L 307.757031 515.238345 
L 310.547031 515.047305 
L 313.337031 515.475715 
L 316.127031 515.691009 
L 318.917031 515.501675 
L 321.707031 515.469233 
L 324.497031 515.887934 
L 327.287031 516.827846 
L 330.077031 516.5565 
L 332.867031 516.806096 
L 335.657031 516.018245 
L 338.447031 516.587245 
L 341.237031 516.698896 
L 344.027031 517.435037 
L 346.817031 516.475796 
L 349.607031 517.593455 
L 352.397031 517.296154 
L 355.187031 518.135468 
L 357.977031 517.872799 
L 360.767031 517.360584 
L 363.557031 518.024245 
L 366.347031 518.283573 
L 369.137031 518.248976 
L 371.927031 517.961687 
L 374.717031 518.642903 
L 377.507031 518.591687 
L 380.297031 518.686912 
L 383.087031 519.426631 
L 385.877031 519.26696 
L 388.667031 519.712294 
L 391.457031 518.828697 
L 394.247031 519.591733 
L 397.037031 519.747575 
L 399.827031 519.268313 
L 402.617031 519.531735 
L 405.407031 520.086083 
L 408.197031 519.89585 
L 413.777031 520.193939 
L 416.567031 520.75128 
L 419.357031 519.927767 
L 422.147031 520.76332 
L 424.937031 520.540687 
L 427.727031 519.878829 
L 430.517031 520.577478 
L 433.307031 520.92797 
L 436.097031 521.076049 
L 438.887031 520.355775 
L 441.677031 520.957458 
L 447.257031 521.126659 
L 450.047031 521.628554 
L 452.837031 521.132682 
L 455.627031 521.538902 
L 458.417031 521.743134 
L 461.207031 521.222595 
L 463.997031 521.73733 
L 466.787031 522.041018 
L 469.577031 521.733301 
L 475.157031 522.080828 
L 477.947031 521.489804 
L 480.737031 521.486499 
L 483.527031 522.490239 
L 486.317031 521.951476 
L 491.897031 522.341035 
L 494.687031 522.675329 
L 497.477031 521.968633 
L 500.267031 523.085925 
L 503.057031 522.684322 
L 505.847031 522.548108 
L 508.637031 523.035752 
L 511.427031 522.761983 
L 514.217031 522.820564 
L 517.007031 523.071102 
L 519.797031 522.601981 
L 522.587031 523.268156 
L 525.377031 523.006771 
L 528.167031 523.661837 
L 530.957031 523.551559 
L 533.747031 523.141994 
L 536.537031 523.58677 
L 539.327031 523.283216 
L 542.117031 523.321098 
L 544.907031 523.629586 
L 547.697031 523.579389 
L 550.487031 524.303332 
L 556.067031 523.668732 
L 558.857031 524.063296 
L 561.647031 523.562447 
L 564.437031 523.525326 
L 570.017031 523.701963 
L 572.807031 524.112021 
L 575.597031 524.087826 
L 578.387031 524.224312 
L 581.177031 524.238268 
L 583.967031 524.001753 
L 586.757031 524.411357 
L 589.547031 524.127694 
L 592.337031 524.055051 
L 595.127031 524.533966 
L 597.917031 524.465985 
L 600.707031 524.652243 
L 603.497031 524.604749 
L 606.287031 524.405912 
L 609.077031 524.654214 
L 609.077031 524.654214 
" clip-path="url(#p104d1128a1)" style="fill: none; stroke: #e9c4c1; stroke-width: 2; stroke-linecap: round"/>
   </g>
   <g id="line2d_17">
    <path d="M 53.867031 446.854853 
L 59.447031 453.639551 
L 62.237031 454.877389 
L 65.027031 453.209072 
L 67.817031 457.015034 
L 70.607031 459.290365 
L 73.397031 459.899277 
L 76.187031 462.580237 
L 78.977031 463.264048 
L 81.767031 463.162554 
L 84.557031 461.023195 
L 87.347031 464.983656 
L 90.137031 464.371577 
L 92.927031 464.540132 
L 95.717031 467.97245 
L 98.507031 470.310082 
L 101.297031 468.758075 
L 104.087031 466.482324 
L 106.877031 472.878408 
L 109.667031 473.772618 
L 112.457031 473.674638 
L 115.247031 472.221554 
L 118.037031 474.769621 
L 120.827031 471.602983 
L 123.617031 474.57657 
L 126.407031 474.273735 
L 129.197031 473.721007 
L 131.987031 476.971077 
L 134.777031 477.172316 
L 137.567031 475.186604 
L 140.357031 475.606369 
L 143.147031 475.899591 
L 145.937031 475.942386 
L 148.727031 476.464813 
L 151.517031 478.950152 
L 154.307031 476.72528 
L 157.097031 478.048818 
L 159.887031 478.082602 
L 162.677031 479.149543 
L 165.467031 480.023796 
L 168.257031 479.574179 
L 171.047031 479.487507 
L 173.837031 480.796313 
L 176.627031 480.786562 
L 179.417031 481.200827 
L 182.207031 477.487977 
L 184.997031 482.681094 
L 187.787031 480.336381 
L 190.577031 480.736869 
L 193.367031 478.229581 
L 196.157031 480.128299 
L 198.947031 483.194657 
L 201.737031 480.32073 
L 204.527031 480.587015 
L 207.317031 480.520233 
L 210.107031 479.930569 
L 212.897031 480.259149 
L 215.687031 480.963987 
L 218.477031 480.557477 
L 221.267031 482.458418 
L 224.057031 480.588843 
L 226.847031 481.320713 
L 229.637031 479.82889 
L 232.427031 481.641287 
L 235.217031 482.548506 
L 238.007031 482.286471 
L 240.797031 482.9065 
L 243.587031 482.405714 
L 246.377031 480.334769 
L 249.167031 481.227108 
L 251.957031 483.942538 
L 254.747031 480.427658 
L 257.537031 480.16315 
L 260.327031 482.104723 
L 263.117031 482.05694 
L 265.907031 481.669559 
L 268.697031 482.452407 
L 271.487031 481.549567 
L 274.277031 482.245323 
L 277.067031 481.522644 
L 279.857031 483.055417 
L 282.647031 481.161203 
L 285.437031 482.669184 
L 288.227031 482.669358 
L 291.017031 482.254417 
L 293.807031 481.711807 
L 296.597031 481.705125 
L 299.387031 480.73263 
L 302.177031 482.319791 
L 304.967031 479.99988 
L 307.757031 482.303436 
L 310.547031 482.161303 
L 313.337031 483.121724 
L 316.127031 481.92049 
L 318.917031 482.14571 
L 321.707031 483.372395 
L 324.497031 480.561023 
L 327.287031 481.743166 
L 330.077031 481.513602 
L 332.867031 483.00691 
L 335.657031 481.598194 
L 338.447031 481.504952 
L 341.237031 480.989666 
L 344.027031 481.319056 
L 346.817031 482.215554 
L 349.607031 479.903364 
L 352.397031 481.411056 
L 355.187031 481.204699 
L 357.977031 482.362077 
L 363.557031 482.349554 
L 366.347031 480.874873 
L 369.137031 480.047398 
L 371.927031 479.54852 
L 374.717031 480.509907 
L 377.507031 481.997274 
L 380.297031 480.627003 
L 383.087031 481.78825 
L 385.877031 481.850753 
L 388.667031 483.08313 
L 391.457031 480.855064 
L 394.247031 479.025313 
L 397.037031 480.9503 
L 399.827031 482.402739 
L 402.617031 481.788915 
L 405.407031 480.180297 
L 408.197031 481.917317 
L 410.987031 480.016725 
L 413.777031 480.550016 
L 416.567031 481.392805 
L 419.357031 479.800678 
L 422.147031 481.908734 
L 424.937031 480.894844 
L 427.727031 480.628736 
L 430.517031 480.054504 
L 433.307031 481.439794 
L 436.097031 480.252842 
L 438.887031 480.602764 
L 441.677031 481.455328 
L 444.467031 479.867077 
L 447.257031 480.677117 
L 450.047031 479.314193 
L 452.837031 481.237406 
L 455.627031 478.47175 
L 458.417031 479.713782 
L 463.997031 480.918586 
L 466.787031 481.092485 
L 472.367031 480.095949 
L 475.157031 479.65696 
L 477.947031 480.057291 
L 480.737031 481.668884 
L 483.527031 481.044507 
L 486.317031 479.72584 
L 489.107031 480.185504 
L 491.897031 481.808347 
L 494.687031 480.391226 
L 497.477031 480.043263 
L 500.267031 479.399348 
L 505.847031 480.066898 
L 508.637031 479.611097 
L 511.427031 479.373384 
L 514.217031 480.219589 
L 517.007031 479.384582 
L 519.797031 479.442705 
L 522.587031 480.136731 
L 525.377031 479.838592 
L 528.167031 478.627912 
L 530.957031 480.096697 
L 533.747031 480.530352 
L 536.537031 479.101927 
L 539.327031 479.428252 
L 542.117031 479.626834 
L 544.907031 480.276102 
L 550.487031 478.549635 
L 553.277031 479.467084 
L 556.067031 479.447031 
L 558.857031 480.330766 
L 561.647031 478.748756 
L 564.437031 480.465546 
L 567.227031 479.454193 
L 570.017031 478.137035 
L 572.807031 480.030951 
L 575.597031 478.511855 
L 578.387031 479.768674 
L 581.177031 479.423704 
L 583.967031 479.584297 
L 586.757031 480.033198 
L 589.547031 478.512564 
L 595.127031 480.009381 
L 597.917031 480.507737 
L 600.707031 478.868293 
L 603.497031 478.635798 
L 606.287031 478.715553 
L 609.077031 478.479771 
L 609.077031 478.479771 
" clip-path="url(#p104d1128a1)" style="fill: none; stroke: #c8879e; stroke-width: 2; stroke-linecap: round"/>
   </g>
   <g id="line2d_18">
    <path d="M 53.867031 448.218829 
L 56.657031 448.964502 
L 59.447031 447.921662 
L 62.237031 455.048873 
L 65.027031 451.376127 
L 67.817031 450.383511 
L 70.607031 452.568649 
L 73.397031 454.420685 
L 76.187031 455.756666 
L 78.977031 457.705655 
L 81.767031 455.303891 
L 84.557031 453.089415 
L 87.347031 457.612547 
L 92.927031 456.014037 
L 95.717031 454.001734 
L 98.507031 459.874828 
L 101.297031 458.295909 
L 104.087031 458.120729 
L 106.877031 459.582309 
L 109.667031 455.538654 
L 112.457031 459.347252 
L 115.247031 459.007406 
L 118.037031 457.384916 
L 120.827031 454.889246 
L 123.617031 458.872734 
L 126.407031 459.53665 
L 129.197031 452.872583 
L 131.987031 456.553461 
L 134.777031 454.732667 
L 137.567031 454.949903 
L 140.357031 452.355835 
L 143.147031 452.395256 
L 145.937031 456.421393 
L 148.727031 456.177106 
L 151.517031 455.554893 
L 154.307031 453.798355 
L 157.097031 453.746277 
L 159.887031 456.849678 
L 162.677031 452.878868 
L 165.467031 450.86583 
L 168.257031 450.632671 
L 171.047031 451.510066 
L 173.837031 451.218982 
L 176.627031 452.380312 
L 179.417031 448.68953 
L 182.207031 450.659421 
L 184.997031 450.032028 
L 187.787031 450.778544 
L 190.577031 448.938264 
L 193.367031 450.834065 
L 196.157031 448.458984 
L 198.947031 448.620943 
L 201.737031 448.192671 
L 204.527031 450.15234 
L 207.317031 448.636211 
L 210.107031 445.82305 
L 212.897031 446.032714 
L 215.687031 446.670252 
L 218.477031 445.969603 
L 221.267031 444.267397 
L 224.057031 447.071432 
L 226.847031 444.704808 
L 229.637031 449.100916 
L 232.427031 444.366227 
L 235.217031 445.167188 
L 238.007031 444.56345 
L 240.797031 443.724712 
L 243.587031 444.668051 
L 246.377031 440.726575 
L 249.167031 443.781749 
L 251.957031 439.243834 
L 254.747031 444.717612 
L 257.537031 439.547185 
L 260.327031 442.440813 
L 263.117031 439.650403 
L 265.907031 443.960706 
L 268.697031 437.567253 
L 271.487031 438.876317 
L 274.277031 436.786399 
L 277.067031 438.185654 
L 279.857031 438.474193 
L 282.647031 439.707557 
L 285.437031 437.731252 
L 288.227031 437.403819 
L 291.017031 436.854116 
L 293.807031 438.888164 
L 296.597031 439.312345 
L 299.387031 438.822001 
L 302.177031 439.685465 
L 304.967031 435.616369 
L 307.757031 436.635479 
L 310.547031 438.571175 
L 313.337031 434.755553 
L 316.127031 434.705232 
L 318.917031 437.017802 
L 321.707031 434.844155 
L 324.497031 433.385507 
L 327.287031 433.875533 
L 332.867031 435.324755 
L 335.657031 435.391536 
L 338.447031 431.854229 
L 341.237031 430.841619 
L 344.027031 430.599626 
L 346.817031 430.593235 
L 349.607031 432.838675 
L 352.397031 432.219542 
L 355.187031 430.623377 
L 357.977031 432.783843 
L 360.767031 431.403951 
L 363.557031 431.569485 
L 366.347031 431.614803 
L 369.137031 429.453499 
L 371.927031 430.689106 
L 374.717031 429.751862 
L 377.507031 430.457522 
L 380.297031 428.205174 
L 383.087031 428.834056 
L 385.877031 427.257676 
L 388.667031 428.551246 
L 391.457031 426.686693 
L 394.247031 429.893865 
L 397.037031 426.213805 
L 399.827031 427.704239 
L 402.617031 429.739836 
L 405.407031 428.261798 
L 408.197031 429.214723 
L 410.987031 426.96446 
L 413.777031 426.808622 
L 416.567031 426.869964 
L 419.357031 426.725917 
L 422.147031 425.370729 
L 424.937031 428.126134 
L 427.727031 425.239674 
L 430.517031 426.184848 
L 433.307031 427.443902 
L 436.097031 425.1347 
L 438.887031 425.807358 
L 444.467031 422.690993 
L 447.257031 425.59805 
L 450.047031 424.908468 
L 452.837031 423.536442 
L 455.627031 426.167828 
L 458.417031 425.028681 
L 461.207031 424.139703 
L 463.997031 423.889292 
L 466.787031 424.958586 
L 469.577031 424.652155 
L 472.367031 422.576497 
L 475.157031 424.543959 
L 477.947031 422.473168 
L 480.737031 420.740133 
L 483.527031 423.044952 
L 486.317031 420.980841 
L 489.107031 422.57286 
L 491.897031 421.453835 
L 494.687031 422.755817 
L 497.477031 422.881554 
L 500.267031 423.588482 
L 503.057031 423.145726 
L 505.847031 420.922574 
L 508.637031 420.059812 
L 511.427031 419.011154 
L 517.007031 421.22139 
L 519.797031 420.457263 
L 522.587031 422.340884 
L 525.377031 420.966654 
L 528.167031 419.166143 
L 530.957031 420.572192 
L 533.747031 421.031496 
L 536.537031 418.720931 
L 539.327031 420.767329 
L 542.117031 420.142802 
L 544.907031 419.773919 
L 547.697031 419.735727 
L 550.487031 418.589008 
L 553.277031 420.465007 
L 556.067031 418.136586 
L 558.857031 419.306407 
L 561.647031 420.607714 
L 564.437031 419.506562 
L 567.227031 417.053286 
L 570.017031 419.442473 
L 572.807031 418.645006 
L 575.597031 418.61465 
L 578.387031 417.376961 
L 581.177031 416.499799 
L 583.967031 417.254442 
L 586.757031 416.931774 
L 589.547031 417.037742 
L 592.337031 417.450525 
L 595.127031 418.543235 
L 597.917031 416.946704 
L 600.707031 416.522375 
L 603.497031 414.404759 
L 606.287031 415.707692 
L 609.077031 415.326129 
L 609.077031 415.326129 
" clip-path="url(#p104d1128a1)" style="fill: none; stroke: #a9678f; stroke-width: 2; stroke-linecap: round"/>
   </g>
   <g id="line2d_19">
    <path d="M 53.867031 449.824578 
L 56.657031 451.665244 
L 59.447031 447.97342 
L 62.237031 454.441465 
L 65.027031 445.229669 
L 67.817031 449.278733 
L 70.607031 445.584264 
L 73.397031 445.479515 
L 76.187031 448.440155 
L 78.977031 446.97141 
L 81.767031 443.816033 
L 84.557031 442.226395 
L 87.347031 443.127413 
L 90.137031 439.262303 
L 92.927031 442.734451 
L 95.717031 439.99259 
L 98.507031 436.526897 
L 101.297031 441.041857 
L 104.087031 437.463486 
L 106.877031 441.396822 
L 109.667031 435.05854 
L 112.457031 438.014523 
L 115.247031 434.209222 
L 118.037031 430.126617 
L 120.827031 432.885331 
L 123.617031 423.390917 
L 126.407031 430.325589 
L 131.987031 426.828386 
L 134.777031 426.618656 
L 137.567031 421.783229 
L 140.357031 425.992141 
L 143.147031 420.505283 
L 145.937031 420.820534 
L 148.727031 417.718888 
L 151.517031 417.931196 
L 154.307031 419.090103 
L 157.097031 419.889652 
L 159.887031 417.31779 
L 162.677031 415.568214 
L 165.467031 414.214058 
L 168.257031 414.267702 
L 171.047031 411.464895 
L 173.837031 412.635623 
L 176.627031 406.07276 
L 179.417031 404.877709 
L 182.207031 408.004581 
L 184.997031 406.495729 
L 187.787031 409.380677 
L 190.577031 408.404982 
L 193.367031 402.157316 
L 196.157031 407.360618 
L 198.947031 403.953048 
L 201.737031 405.196826 
L 204.527031 399.416389 
L 207.317031 400.269113 
L 210.107031 396.816402 
L 212.897031 400.901305 
L 215.687031 395.896833 
L 218.477031 394.786456 
L 221.267031 395.709388 
L 224.057031 393.452282 
L 226.847031 390.978701 
L 229.637031 387.648044 
L 232.427031 390.474513 
L 235.217031 391.903018 
L 238.007031 387.542551 
L 243.587031 384.179244 
L 246.377031 386.036265 
L 249.167031 383.017693 
L 251.957031 385.549029 
L 254.747031 384.621 
L 257.537031 383.289067 
L 260.327031 381.123064 
L 263.117031 379.871976 
L 265.907031 379.088314 
L 268.697031 376.178612 
L 271.487031 380.826827 
L 274.277031 375.710428 
L 277.067031 378.023456 
L 279.857031 373.545874 
L 282.647031 376.052011 
L 285.437031 374.960657 
L 288.227031 373.262217 
L 291.017031 373.02754 
L 293.807031 374.895146 
L 296.597031 373.874197 
L 299.387031 369.294436 
L 302.177031 372.584167 
L 304.967031 366.287731 
L 307.757031 368.366972 
L 310.547031 370.600017 
L 313.337031 367.496179 
L 316.127031 363.852084 
L 318.917031 365.330521 
L 321.707031 363.002055 
L 324.497031 361.453217 
L 327.287031 365.624786 
L 330.077031 364.339206 
L 332.867031 362.563656 
L 335.657031 365.146772 
L 338.447031 361.255587 
L 341.237031 359.180997 
L 344.027031 360.500758 
L 346.817031 360.916835 
L 349.607031 357.12581 
L 352.397031 359.104357 
L 355.187031 362.073097 
L 357.977031 359.888443 
L 360.767031 358.569298 
L 363.557031 356.814432 
L 366.347031 352.319127 
L 369.137031 359.280382 
L 371.927031 355.856384 
L 374.717031 354.754563 
L 377.507031 354.555693 
L 380.297031 352.551549 
L 383.087031 350.768112 
L 385.877031 352.058451 
L 388.667031 350.627579 
L 391.457031 351.067766 
L 394.247031 350.661376 
L 397.037031 351.269831 
L 399.827031 352.515423 
L 402.617031 349.557477 
L 405.407031 348.180548 
L 408.197031 349.228339 
L 410.987031 347.093537 
L 413.777031 345.170096 
L 416.567031 346.197246 
L 419.357031 346.679717 
L 422.147031 345.829425 
L 424.937031 344.843532 
L 427.727031 346.260506 
L 430.517031 343.135314 
L 433.307031 344.908868 
L 436.097031 342.369989 
L 438.887031 342.979411 
L 441.677031 343.389659 
L 444.467031 342.473914 
L 447.257031 343.650448 
L 450.047031 340.586373 
L 452.837031 341.608724 
L 455.627031 342.279834 
L 458.417031 341.197438 
L 461.207031 340.68357 
L 463.997031 336.95327 
L 466.787031 339.282355 
L 469.577031 338.570439 
L 472.367031 337.351179 
L 475.157031 339.922461 
L 477.947031 336.297883 
L 480.737031 337.978039 
L 483.527031 335.675417 
L 486.317031 338.174033 
L 489.107031 336.145105 
L 491.897031 333.134128 
L 494.687031 332.925161 
L 497.477031 333.173443 
L 500.267031 334.426688 
L 503.057031 332.7128 
L 505.847031 332.257682 
L 508.637031 333.885958 
L 511.427031 331.358745 
L 514.217031 331.817034 
L 517.007031 330.585104 
L 519.797031 333.052896 
L 522.587031 332.841037 
L 525.377031 329.170942 
L 528.167031 331.071547 
L 530.957031 328.164368 
L 533.747031 330.38991 
L 536.537031 328.63033 
L 539.327031 329.901977 
L 542.117031 327.648374 
L 544.907031 330.001149 
L 547.697031 325.089873 
L 550.487031 324.305877 
L 553.277031 327.60955 
L 556.067031 326.923041 
L 558.857031 325.898545 
L 561.647031 323.948474 
L 564.437031 330.592392 
L 567.227031 325.645724 
L 570.017031 324.271432 
L 572.807031 326.2222 
L 575.597031 323.860187 
L 578.387031 326.988372 
L 581.177031 325.802877 
L 583.967031 326.132618 
L 586.757031 323.672131 
L 589.547031 324.717443 
L 592.337031 323.145071 
L 595.127031 324.489996 
L 597.917031 323.705443 
L 600.707031 320.193674 
L 603.497031 319.253207 
L 606.287031 324.463712 
L 609.077031 321.45499 
L 609.077031 321.45499 
" clip-path="url(#p104d1128a1)" style="fill: none; stroke: #834c7d; stroke-width: 2; stroke-linecap: round"/>
   </g>
   <g id="line2d_20">
    <path d="M 53.867031 444.271724 
L 56.657031 440.694082 
L 59.447031 441.85096 
L 62.237031 442.764722 
L 65.027031 440.697082 
L 67.817031 438.789242 
L 70.607031 429.919261 
L 73.397031 430.820394 
L 76.187031 428.435701 
L 78.977031 422.611616 
L 81.767031 415.676632 
L 84.557031 419.404115 
L 90.137031 402.179415 
L 92.927031 402.750943 
L 95.717031 394.054587 
L 98.507031 395.061785 
L 101.297031 397.256574 
L 104.087031 384.752118 
L 106.877031 385.841113 
L 109.667031 375.303203 
L 112.457031 376.319061 
L 115.247031 372.101863 
L 118.037031 366.763549 
L 123.617031 353.038562 
L 126.407031 355.457772 
L 129.197031 345.329627 
L 131.987031 338.886354 
L 134.777031 343.07878 
L 137.567031 332.102298 
L 140.357031 331.778677 
L 143.147031 332.429132 
L 145.937031 326.410469 
L 148.727031 324.598049 
L 151.517031 320.954055 
L 154.307031 315.414794 
L 157.097031 312.134793 
L 159.887031 309.799241 
L 162.677031 308.780791 
L 165.467031 300.097649 
L 168.257031 302.075109 
L 171.047031 293.701208 
L 176.627031 278.987266 
L 179.417031 277.789873 
L 182.207031 278.223247 
L 184.997031 276.992524 
L 187.787031 270.904333 
L 190.577031 269.963032 
L 193.367031 261.203347 
L 196.157031 260.877581 
L 198.947031 262.258586 
L 201.737031 252.231093 
L 204.527031 247.042444 
L 207.317031 247.016052 
L 210.107031 244.319652 
L 212.897031 242.746449 
L 215.687031 239.581319 
L 218.477031 233.71805 
L 221.267031 235.288503 
L 224.057031 228.850912 
L 226.847031 224.055481 
L 229.637031 226.324452 
L 232.427031 220.287093 
L 235.217031 218.137552 
L 238.007031 217.895838 
L 240.797031 211.244106 
L 243.587031 205.727858 
L 246.377031 207.505192 
L 249.167031 200.294591 
L 251.957031 203.391815 
L 254.747031 203.001754 
L 257.537031 187.253267 
L 260.327031 186.478292 
L 263.117031 190.572798 
L 265.907031 184.854957 
L 268.697031 189.099991 
L 271.487031 183.906136 
L 274.277031 187.002075 
L 277.067031 177.727724 
L 279.857031 180.199228 
L 282.647031 171.175061 
L 285.437031 177.989469 
L 288.227031 174.113261 
L 291.017031 169.60946 
L 293.807031 170.617523 
L 296.597031 163.610686 
L 299.387031 161.013351 
L 302.177031 160.802796 
L 304.967031 157.889961 
L 307.757031 156.391804 
L 310.547031 154.351827 
L 313.337031 153.562298 
L 316.127031 146.601138 
L 318.917031 149.857228 
L 321.707031 144.166419 
L 324.497031 145.363533 
L 327.287031 140.181331 
L 330.077031 141.705994 
L 332.867031 144.033258 
L 338.447031 138.459357 
L 341.237031 126.923952 
L 346.817031 135.859793 
L 349.607031 125.158112 
L 352.397031 125.594553 
L 355.187031 120.310396 
L 357.977031 127.559285 
L 360.767031 122.696749 
L 363.557031 118.335579 
L 366.347031 108.832641 
L 369.137031 118.815882 
L 371.927031 111.327786 
L 374.717031 115.396546 
L 377.507031 114.131396 
L 380.297031 114.704023 
L 383.087031 110.278348 
L 385.877031 109.381062 
L 388.667031 107.025035 
L 391.457031 102.128104 
L 394.247031 103.49609 
L 397.037031 103.955171 
L 399.827031 101.116035 
L 402.617031 96.81377 
L 405.407031 105.636943 
L 408.197031 93.800863 
L 410.987031 99.874569 
L 413.777031 99.035103 
L 416.567031 92.402975 
L 419.357031 91.651481 
L 422.147031 93.34018 
L 424.937031 97.758091 
L 427.727031 91.619318 
L 430.517031 88.376546 
L 433.307031 89.315122 
L 436.097031 91.293236 
L 438.887031 86.207433 
L 441.677031 86.94119 
L 444.467031 81.017475 
L 447.257031 82.190194 
L 450.047031 83.136518 
L 452.837031 81.669656 
L 455.627031 80.808932 
L 458.417031 73.644145 
L 461.207031 76.487511 
L 463.997031 85.234932 
L 466.787031 73.234228 
L 469.577031 76.05142 
L 472.367031 73.820755 
L 475.157031 70.554784 
L 477.947031 70.304419 
L 480.737031 69.35124 
L 483.527031 70.021873 
L 486.317031 66.746376 
L 489.107031 66.962756 
L 491.897031 65.802209 
L 494.687031 66.922693 
L 497.477031 62.81614 
L 500.267031 68.583669 
L 503.057031 64.157311 
L 505.847031 58.89097 
L 508.637031 61.624533 
L 511.427031 60.006948 
L 514.217031 60.775741 
L 517.007031 64.336771 
L 519.797031 59.164369 
L 522.587031 60.234823 
L 525.377031 53.915673 
L 528.167031 57.673438 
L 530.957031 54.260456 
L 533.747031 52.704969 
L 536.537031 54.637184 
L 539.327031 52.266922 
L 542.117031 49.163159 
L 544.907031 54.225296 
L 547.697031 51.586348 
L 550.487031 45.727563 
L 553.277031 42.753973 
L 556.067031 47.866752 
L 558.857031 46.809382 
L 561.647031 45.049275 
L 564.437031 47.893854 
L 567.227031 42.423897 
L 570.017031 41.90651 
L 572.807031 42.746151 
L 575.597031 43.12869 
L 578.387031 41.872959 
L 581.177031 41.75163 
L 583.967031 37.377834 
L 586.757031 43.001806 
L 589.547031 35.563385 
L 592.337031 41.506777 
L 595.127031 39.115792 
L 597.917031 34.946536 
L 600.707031 37.674815 
L 603.497031 36.013925 
L 606.287031 35.812083 
L 609.077031 31.909091 
L 609.077031 31.909091 
" clip-path="url(#p104d1128a1)" style="fill: none; stroke: #2d1e3e; stroke-width: 2; stroke-linecap: round"/>
   </g>
   <g id="line2d_21"/>
   <g id="line2d_22"/>
   <g id="line2d_23"/>
   <g id="line2d_24"/>
   <g id="line2d_25"/>
   <g id="line2d_26"/>
   <g id="patch_3">
    <path d="M 53.867031 550.8 
L 53.867031 7.2 
" style="fill: none; stroke: #ffffff; stroke-width: 1.25; stroke-linejoin: miter; stroke-linecap: square"/>
   </g>
   <g id="patch_4">
    <path d="M 611.867031 550.8 
L 611.867031 7.2 
" style="fill: none; stroke: #ffffff; stroke-width: 1.25; stroke-linejoin: miter; stroke-linecap: square"/>
   </g>
   <g id="patch_5">
    <path d="M 53.867031 550.8 
L 611.867031 550.8 
" style="fill: none; stroke: #ffffff; stroke-width: 1.25; stroke-linejoin: miter; stroke-linecap: square"/>
   </g>
   <g id="patch_6">
    <path d="M 53.867031 7.2 
L 611.867031 7.2 
" style="fill: none; stroke: #ffffff; stroke-width: 1.25; stroke-linejoin: miter; stroke-linecap: square"/>
   </g>
   <g id="legend_1">
    <g id="patch_7">
     <path d="M 61.567031 125.833438 
L 109.001094 125.833438 
Q 111.201094 125.833438 111.201094 123.633438 
L 111.201094 14.9 
Q 111.201094 12.7 109.001094 12.7 
L 61.567031 12.7 
Q 59.367031 12.7 59.367031 14.9 
L 59.367031 123.633438 
Q 59.367031 125.833438 61.567031 125.833438 
z
" style="fill: #eaeaf2; opacity: 0.8; stroke: #cccccc; stroke-linejoin: miter"/>
    </g>
    <g id="text_17">
     <!-- Theta -->
     <g style="fill: #262626" transform="translate(69.942813 25.689375)scale(0.12 -0.12)">
      <defs>
       <path id="ArialMT-54" d="M 1659 0 
L 1659 4041 
L 150 4041 
L 150 4581 
L 3781 4581 
L 3781 4041 
L 2266 4041 
L 2266 0 
L 1659 0 
z
" transform="scale(0.015625)"/>
       <path id="ArialMT-68" d="M 422 0 
L 422 4581 
L 984 4581 
L 984 2938 
Q 1378 3394 1978 3394 
Q 2347 3394 2619 3248 
Q 2891 3103 3008 2847 
Q 3125 2591 3125 2103 
L 3125 0 
L 2563 0 
L 2563 2103 
Q 2563 2525 2380 2717 
Q 2197 2909 1863 2909 
Q 1613 2909 1392 2779 
Q 1172 2650 1078 2428 
Q 984 2206 984 1816 
L 984 0 
L 422 0 
z
" transform="scale(0.015625)"/>
       <path id="ArialMT-65" d="M 2694 1069 
L 3275 997 
Q 3138 488 2766 206 
Q 2394 -75 1816 -75 
Q 1088 -75 661 373 
Q 234 822 234 1631 
Q 234 2469 665 2931 
Q 1097 3394 1784 3394 
Q 2450 3394 2872 2941 
Q 3294 2488 3294 1666 
Q 3294 1616 3291 1516 
L 816 1516 
Q 847 969 1125 678 
Q 1403 388 1819 388 
Q 2128 388 2347 550 
Q 2566 713 2694 1069 
z
M 847 1978 
L 2700 1978 
Q 2663 2397 2488 2606 
Q 2219 2931 1791 2931 
Q 1403 2931 1139 2672 
Q 875 2413 847 1978 
z
" transform="scale(0.015625)"/>
       <path id="ArialMT-74" d="M 1650 503 
L 1731 6 
Q 1494 -44 1306 -44 
Q 1000 -44 831 53 
Q 663 150 594 308 
Q 525 466 525 972 
L 525 2881 
L 113 2881 
L 113 3319 
L 525 3319 
L 525 4141 
L 1084 4478 
L 1084 3319 
L 1650 3319 
L 1650 2881 
L 1084 2881 
L 1084 941 
Q 1084 700 1114 631 
Q 1144 563 1211 522 
Q 1278 481 1403 481 
Q 1497 481 1650 503 
z
" transform="scale(0.015625)"/>
       <path id="ArialMT-61" d="M 2588 409 
Q 2275 144 1986 34 
Q 1697 -75 1366 -75 
Q 819 -75 525 192 
Q 231 459 231 875 
Q 231 1119 342 1320 
Q 453 1522 633 1644 
Q 813 1766 1038 1828 
Q 1203 1872 1538 1913 
Q 2219 1994 2541 2106 
Q 2544 2222 2544 2253 
Q 2544 2597 2384 2738 
Q 2169 2928 1744 2928 
Q 1347 2928 1158 2789 
Q 969 2650 878 2297 
L 328 2372 
Q 403 2725 575 2942 
Q 747 3159 1072 3276 
Q 1397 3394 1825 3394 
Q 2250 3394 2515 3294 
Q 2781 3194 2906 3042 
Q 3031 2891 3081 2659 
Q 3109 2516 3109 2141 
L 3109 1391 
Q 3109 606 3145 398 
Q 3181 191 3288 0 
L 2700 0 
Q 2613 175 2588 409 
z
M 2541 1666 
Q 2234 1541 1622 1453 
Q 1275 1403 1131 1340 
Q 988 1278 909 1158 
Q 831 1038 831 891 
Q 831 666 1001 516 
Q 1172 366 1500 366 
Q 1825 366 2078 508 
Q 2331 650 2450 897 
Q 2541 1088 2541 1459 
L 2541 1666 
z
" transform="scale(0.015625)"/>
      </defs>
      <use xlink:href="#ArialMT-54"/>
      <use xlink:href="#ArialMT-68" x="61.083984"/>
      <use xlink:href="#ArialMT-65" x="116.699219"/>
      <use xlink:href="#ArialMT-74" x="172.314453"/>
      <use xlink:href="#ArialMT-61" x="200.097656"/>
     </g>
    </g>
    <g id="line2d_27">
     <path d="M 63.767031 37.597969 
L 74.767031 37.597969 
L 85.767031 37.597969 
" style="fill: none; stroke: #edd1cb; stroke-width: 1.5; stroke-linecap: round"/>
    </g>
    <g id="text_18">
     <!-- 0 -->
     <g style="fill: #262626" transform="translate(94.567031 41.447969)scale(0.11 -0.11)">
      <use xlink:href="#ArialMT-30"/>
     </g>
    </g>
    <g id="line2d_28">
     <path d="M 63.767031 53.157813 
L 74.767031 53.157813 
L 85.767031 53.157813 
" style="fill: none; stroke: #e9c4c1; stroke-width: 1.5; stroke-linecap: round"/>
    </g>
    <g id="text_19">
     <!-- 5 -->
     <g style="fill: #262626" transform="translate(94.567031 57.007813)scale(0.11 -0.11)">
      <use xlink:href="#ArialMT-35"/>
     </g>
    </g>
    <g id="line2d_29">
     <path d="M 63.767031 68.717656 
L 74.767031 68.717656 
L 85.767031 68.717656 
" style="fill: none; stroke: #c8879e; stroke-width: 1.5; stroke-linecap: round"/>
    </g>
    <g id="text_20">
     <!-- 30 -->
     <g style="fill: #262626" transform="translate(94.567031 72.567656)scale(0.11 -0.11)">
      <use xlink:href="#ArialMT-33"/>
      <use xlink:href="#ArialMT-30" x="55.615234"/>
     </g>
    </g>
    <g id="line2d_30">
     <path d="M 63.767031 84.2775 
L 74.767031 84.2775 
L 85.767031 84.2775 
" style="fill: none; stroke: #a9678f; stroke-width: 1.5; stroke-linecap: round"/>
    </g>
    <g id="text_21">
     <!-- 45 -->
     <g style="fill: #262626" transform="translate(94.567031 88.1275)scale(0.11 -0.11)">
      <use xlink:href="#ArialMT-34"/>
      <use xlink:href="#ArialMT-35" x="55.615234"/>
     </g>
    </g>
    <g id="line2d_31">
     <path d="M 63.767031 99.837344 
L 74.767031 99.837344 
L 85.767031 99.837344 
" style="fill: none; stroke: #834c7d; stroke-width: 1.5; stroke-linecap: round"/>
    </g>
    <g id="text_22">
     <!-- 60 -->
     <g style="fill: #262626" transform="translate(94.567031 103.687344)scale(0.11 -0.11)">
      <defs>
       <path id="ArialMT-36" d="M 3184 3459 
L 2625 3416 
Q 2550 3747 2413 3897 
Q 2184 4138 1850 4138 
Q 1581 4138 1378 3988 
Q 1113 3794 959 3422 
Q 806 3050 800 2363 
Q 1003 2672 1297 2822 
Q 1591 2972 1913 2972 
Q 2475 2972 2870 2558 
Q 3266 2144 3266 1488 
Q 3266 1056 3080 686 
Q 2894 316 2569 119 
Q 2244 -78 1831 -78 
Q 1128 -78 684 439 
Q 241 956 241 2144 
Q 241 3472 731 4075 
Q 1159 4600 1884 4600 
Q 2425 4600 2770 4297 
Q 3116 3994 3184 3459 
z
M 888 1484 
Q 888 1194 1011 928 
Q 1134 663 1356 523 
Q 1578 384 1822 384 
Q 2178 384 2434 671 
Q 2691 959 2691 1453 
Q 2691 1928 2437 2201 
Q 2184 2475 1800 2475 
Q 1419 2475 1153 2201 
Q 888 1928 888 1484 
z
" transform="scale(0.015625)"/>
      </defs>
      <use xlink:href="#ArialMT-36"/>
      <use xlink:href="#ArialMT-30" x="55.615234"/>
     </g>
    </g>
    <g id="line2d_32">
     <path d="M 63.767031 115.397188 
L 74.767031 115.397188 
L 85.767031 115.397188 
" style="fill: none; stroke: #2d1e3e; stroke-width: 1.5; stroke-linecap: round"/>
    </g>
    <g id="text_23">
     <!-- 90 -->
     <g style="fill: #262626" transform="translate(94.567031 119.247188)scale(0.11 -0.11)">
      <defs>
       <path id="ArialMT-39" d="M 350 1059 
L 891 1109 
Q 959 728 1153 556 
Q 1347 384 1650 384 
Q 1909 384 2104 503 
Q 2300 622 2425 820 
Q 2550 1019 2634 1356 
Q 2719 1694 2719 2044 
Q 2719 2081 2716 2156 
Q 2547 1888 2255 1720 
Q 1963 1553 1622 1553 
Q 1053 1553 659 1965 
Q 266 2378 266 3053 
Q 266 3750 677 4175 
Q 1088 4600 1706 4600 
Q 2153 4600 2523 4359 
Q 2894 4119 3086 3673 
Q 3278 3228 3278 2384 
Q 3278 1506 3087 986 
Q 2897 466 2520 194 
Q 2144 -78 1638 -78 
Q 1100 -78 759 220 
Q 419 519 350 1059 
z
M 2653 3081 
Q 2653 3566 2395 3850 
Q 2138 4134 1775 4134 
Q 1400 4134 1122 3828 
Q 844 3522 844 3034 
Q 844 2597 1108 2323 
Q 1372 2050 1759 2050 
Q 2150 2050 2401 2323 
Q 2653 2597 2653 3081 
z
" transform="scale(0.015625)"/>
      </defs>
      <use xlink:href="#ArialMT-39"/>
      <use xlink:href="#ArialMT-30" x="55.615234"/>
     </g>
    </g>
   </g>
  </g>
 </g>
 <defs>
  <clipPath id="p104d1128a1">
   <rect x="53.867031" y="7.2" width="558" height="543.6"/>
  </clipPath>
 </defs>
</svg>
