<?xml version="1.0" encoding="utf-8" standalone="no"?>
<!DOCTYPE svg PUBLIC "-//W3C//DTD SVG 1.1//EN"
  "http://www.w3.org/Graphics/SVG/1.1/DTD/svg11.dtd">
<svg xmlns:xlink="http://www.w3.org/1999/xlink" width="635.887578pt" height="592.534219pt" viewBox="0 0 635.887578 592.534219" xmlns="http://www.w3.org/2000/svg" version="1.1">
 <metadata>
  <rdf:RDF xmlns:dc="http://purl.org/dc/elements/1.1/" xmlns:cc="http://creativecommons.org/ns#" xmlns:rdf="http://www.w3.org/1999/02/22-rdf-syntax-ns#">
   <cc:Work>
    <dc:type rdf:resource="http://purl.org/dc/dcmitype/StillImage"/>
    <dc:date>2022-04-27T08:56:54.477550</dc:date>
    <dc:format>image/svg+xml</dc:format>
    <dc:creator>
     <cc:Agent>
      <dc:title>Matplotlib v3.5.1, https://matplotlib.org/</dc:title>
     </cc:Agent>
    </dc:creator>
   </cc:Work>
  </rdf:RDF>
 </metadata>
 <defs>
  <style type="text/css">*{stroke-linejoin: round; stroke-linecap: butt}</style>
 </defs>
 <g id="figure_1">
  <g id="patch_1">
   <path d="M -0 592.534219 
L 635.887578 592.534219 
L 635.887578 0 
L -0 0 
z
" style="fill: #ffffff"/>
  </g>
  <g id="axes_1">
   <g id="patch_2">
    <path d="M 59.984063 550.8 
L 617.984063 550.8 
L 617.984063 7.2 
L 59.984063 7.2 
z
" style="fill: #eaeaf2"/>
   </g>
   <g id="matplotlib.axis_1">
    <g id="xtick_1">
     <g id="line2d_1">
      <path d="M 59.984063 550.8 
L 59.984063 7.2 
" clip-path="url(#pd50d78092d)" style="fill: none; stroke: #ffffff; stroke-linecap: round"/>
     </g>
     <g id="text_1">
      <!-- 0.0 -->
      <g style="fill: #262626" transform="translate(52.339062 568.173594)scale(0.11 -0.11)">
       <defs>
        <path id="ArialMT-30" d="M 266 2259 
Q 266 3072 433 3567 
Q 600 4063 929 4331 
Q 1259 4600 1759 4600 
Q 2128 4600 2406 4451 
Q 2684 4303 2865 4023 
Q 3047 3744 3150 3342 
Q 3253 2941 3253 2259 
Q 3253 1453 3087 958 
Q 2922 463 2592 192 
Q 2263 -78 1759 -78 
Q 1097 -78 719 397 
Q 266 969 266 2259 
z
M 844 2259 
Q 844 1131 1108 757 
Q 1372 384 1759 384 
Q 2147 384 2411 759 
Q 2675 1134 2675 2259 
Q 2675 3391 2411 3762 
Q 2147 4134 1753 4134 
Q 1366 4134 1134 3806 
Q 844 3388 844 2259 
z
" transform="scale(0.015625)"/>
        <path id="ArialMT-2e" d="M 581 0 
L 581 641 
L 1222 641 
L 1222 0 
L 581 0 
z
" transform="scale(0.015625)"/>
       </defs>
       <use xlink:href="#ArialMT-30"/>
       <use xlink:href="#ArialMT-2e" x="55.615234"/>
       <use xlink:href="#ArialMT-30" x="83.398438"/>
      </g>
     </g>
    </g>
    <g id="xtick_2">
     <g id="line2d_2">
      <path d="M 129.734062 550.8 
L 129.734062 7.2 
" clip-path="url(#pd50d78092d)" style="fill: none; stroke: #ffffff; stroke-linecap: round"/>
     </g>
     <g id="text_2">
      <!-- 2.5 -->
      <g style="fill: #262626" transform="translate(122.089062 568.173594)scale(0.11 -0.11)">
       <defs>
        <path id="ArialMT-32" d="M 3222 541 
L 3222 0 
L 194 0 
Q 188 203 259 391 
Q 375 700 629 1000 
Q 884 1300 1366 1694 
Q 2113 2306 2375 2664 
Q 2638 3022 2638 3341 
Q 2638 3675 2398 3904 
Q 2159 4134 1775 4134 
Q 1369 4134 1125 3890 
Q 881 3647 878 3216 
L 300 3275 
Q 359 3922 746 4261 
Q 1134 4600 1788 4600 
Q 2447 4600 2831 4234 
Q 3216 3869 3216 3328 
Q 3216 3053 3103 2787 
Q 2991 2522 2730 2228 
Q 2469 1934 1863 1422 
Q 1356 997 1212 845 
Q 1069 694 975 541 
L 3222 541 
z
" transform="scale(0.015625)"/>
        <path id="ArialMT-35" d="M 266 1200 
L 856 1250 
Q 922 819 1161 601 
Q 1400 384 1738 384 
Q 2144 384 2425 690 
Q 2706 997 2706 1503 
Q 2706 1984 2436 2262 
Q 2166 2541 1728 2541 
Q 1456 2541 1237 2417 
Q 1019 2294 894 2097 
L 366 2166 
L 809 4519 
L 3088 4519 
L 3088 3981 
L 1259 3981 
L 1013 2750 
Q 1425 3038 1878 3038 
Q 2478 3038 2890 2622 
Q 3303 2206 3303 1553 
Q 3303 931 2941 478 
Q 2500 -78 1738 -78 
Q 1113 -78 717 272 
Q 322 622 266 1200 
z
" transform="scale(0.015625)"/>
       </defs>
       <use xlink:href="#ArialMT-32"/>
       <use xlink:href="#ArialMT-2e" x="55.615234"/>
       <use xlink:href="#ArialMT-35" x="83.398438"/>
      </g>
     </g>
    </g>
    <g id="xtick_3">
     <g id="line2d_3">
      <path d="M 199.484062 550.8 
L 199.484062 7.2 
" clip-path="url(#pd50d78092d)" style="fill: none; stroke: #ffffff; stroke-linecap: round"/>
     </g>
     <g id="text_3">
      <!-- 5.0 -->
      <g style="fill: #262626" transform="translate(191.839062 568.173594)scale(0.11 -0.11)">
       <use xlink:href="#ArialMT-35"/>
       <use xlink:href="#ArialMT-2e" x="55.615234"/>
       <use xlink:href="#ArialMT-30" x="83.398438"/>
      </g>
     </g>
    </g>
    <g id="xtick_4">
     <g id="line2d_4">
      <path d="M 269.234063 550.8 
L 269.234063 7.2 
" clip-path="url(#pd50d78092d)" style="fill: none; stroke: #ffffff; stroke-linecap: round"/>
     </g>
     <g id="text_4">
      <!-- 7.5 -->
      <g style="fill: #262626" transform="translate(261.589063 568.173594)scale(0.11 -0.11)">
       <defs>
        <path id="ArialMT-37" d="M 303 3981 
L 303 4522 
L 3269 4522 
L 3269 4084 
Q 2831 3619 2401 2847 
Q 1972 2075 1738 1259 
Q 1569 684 1522 0 
L 944 0 
Q 953 541 1156 1306 
Q 1359 2072 1739 2783 
Q 2119 3494 2547 3981 
L 303 3981 
z
" transform="scale(0.015625)"/>
       </defs>
       <use xlink:href="#ArialMT-37"/>
       <use xlink:href="#ArialMT-2e" x="55.615234"/>
       <use xlink:href="#ArialMT-35" x="83.398438"/>
      </g>
     </g>
    </g>
    <g id="xtick_5">
     <g id="line2d_5">
      <path d="M 338.984062 550.8 
L 338.984062 7.2 
" clip-path="url(#pd50d78092d)" style="fill: none; stroke: #ffffff; stroke-linecap: round"/>
     </g>
     <g id="text_5">
      <!-- 10.0 -->
      <g style="fill: #262626" transform="translate(328.280547 568.173594)scale(0.11 -0.11)">
       <defs>
        <path id="ArialMT-31" d="M 2384 0 
L 1822 0 
L 1822 3584 
Q 1619 3391 1289 3197 
Q 959 3003 697 2906 
L 697 3450 
Q 1169 3672 1522 3987 
Q 1875 4303 2022 4600 
L 2384 4600 
L 2384 0 
z
" transform="scale(0.015625)"/>
       </defs>
       <use xlink:href="#ArialMT-31"/>
       <use xlink:href="#ArialMT-30" x="55.615234"/>
       <use xlink:href="#ArialMT-2e" x="111.230469"/>
       <use xlink:href="#ArialMT-30" x="139.013672"/>
      </g>
     </g>
    </g>
    <g id="xtick_6">
     <g id="line2d_6">
      <path d="M 408.734062 550.8 
L 408.734062 7.2 
" clip-path="url(#pd50d78092d)" style="fill: none; stroke: #ffffff; stroke-linecap: round"/>
     </g>
     <g id="text_6">
      <!-- 12.5 -->
      <g style="fill: #262626" transform="translate(398.030547 568.173594)scale(0.11 -0.11)">
       <use xlink:href="#ArialMT-31"/>
       <use xlink:href="#ArialMT-32" x="55.615234"/>
       <use xlink:href="#ArialMT-2e" x="111.230469"/>
       <use xlink:href="#ArialMT-35" x="139.013672"/>
      </g>
     </g>
    </g>
    <g id="xtick_7">
     <g id="line2d_7">
      <path d="M 478.484063 550.8 
L 478.484063 7.2 
" clip-path="url(#pd50d78092d)" style="fill: none; stroke: #ffffff; stroke-linecap: round"/>
     </g>
     <g id="text_7">
      <!-- 15.0 -->
      <g style="fill: #262626" transform="translate(467.780547 568.173594)scale(0.11 -0.11)">
       <use xlink:href="#ArialMT-31"/>
       <use xlink:href="#ArialMT-35" x="55.615234"/>
       <use xlink:href="#ArialMT-2e" x="111.230469"/>
       <use xlink:href="#ArialMT-30" x="139.013672"/>
      </g>
     </g>
    </g>
    <g id="xtick_8">
     <g id="line2d_8">
      <path d="M 548.234063 550.8 
L 548.234063 7.2 
" clip-path="url(#pd50d78092d)" style="fill: none; stroke: #ffffff; stroke-linecap: round"/>
     </g>
     <g id="text_8">
      <!-- 17.5 -->
      <g style="fill: #262626" transform="translate(537.530547 568.173594)scale(0.11 -0.11)">
       <use xlink:href="#ArialMT-31"/>
       <use xlink:href="#ArialMT-37" x="55.615234"/>
       <use xlink:href="#ArialMT-2e" x="111.230469"/>
       <use xlink:href="#ArialMT-35" x="139.013672"/>
      </g>
     </g>
    </g>
    <g id="xtick_9">
     <g id="line2d_9">
      <path d="M 617.984063 550.8 
L 617.984063 7.2 
" clip-path="url(#pd50d78092d)" style="fill: none; stroke: #ffffff; stroke-linecap: round"/>
     </g>
     <g id="text_9">
      <!-- 20.0 -->
      <g style="fill: #262626" transform="translate(607.280547 568.173594)scale(0.11 -0.11)">
       <use xlink:href="#ArialMT-32"/>
       <use xlink:href="#ArialMT-30" x="55.615234"/>
       <use xlink:href="#ArialMT-2e" x="111.230469"/>
       <use xlink:href="#ArialMT-30" x="139.013672"/>
      </g>
     </g>
    </g>
    <g id="text_10">
     <!-- $m/n, n=4$ -->
     <g style="fill: #262626" transform="translate(309.224063 582.949219)scale(0.12 -0.12)">
      <defs>
       <path id="DejaVuSans-Oblique-6d" d="M 5747 2113 
L 5338 0 
L 4763 0 
L 5166 2094 
Q 5191 2228 5203 2325 
Q 5216 2422 5216 2491 
Q 5216 2772 5059 2928 
Q 4903 3084 4622 3084 
Q 4203 3084 3875 2770 
Q 3547 2456 3450 1953 
L 3066 0 
L 2491 0 
L 2900 2094 
Q 2925 2209 2937 2307 
Q 2950 2406 2950 2484 
Q 2950 2769 2794 2926 
Q 2638 3084 2363 3084 
Q 1938 3084 1609 2770 
Q 1281 2456 1184 1953 
L 800 0 
L 225 0 
L 909 3500 
L 1484 3500 
L 1375 2956 
Q 1609 3263 1923 3423 
Q 2238 3584 2597 3584 
Q 2978 3584 3223 3384 
Q 3469 3184 3519 2828 
Q 3781 3197 4126 3390 
Q 4472 3584 4856 3584 
Q 5306 3584 5551 3325 
Q 5797 3066 5797 2591 
Q 5797 2488 5784 2364 
Q 5772 2241 5747 2113 
z
" transform="scale(0.015625)"/>
       <path id="DejaVuSans-2f" d="M 1625 4666 
L 2156 4666 
L 531 -594 
L 0 -594 
L 1625 4666 
z
" transform="scale(0.015625)"/>
       <path id="DejaVuSans-Oblique-6e" d="M 3566 2113 
L 3156 0 
L 2578 0 
L 2988 2091 
Q 3016 2238 3031 2350 
Q 3047 2463 3047 2528 
Q 3047 2791 2881 2937 
Q 2716 3084 2419 3084 
Q 1956 3084 1622 2776 
Q 1288 2469 1184 1941 
L 800 0 
L 225 0 
L 903 3500 
L 1478 3500 
L 1363 2950 
Q 1603 3253 1940 3418 
Q 2278 3584 2650 3584 
Q 3113 3584 3367 3334 
Q 3622 3084 3622 2631 
Q 3622 2519 3608 2391 
Q 3594 2263 3566 2113 
z
" transform="scale(0.015625)"/>
       <path id="DejaVuSans-2c" d="M 750 794 
L 1409 794 
L 1409 256 
L 897 -744 
L 494 -744 
L 750 256 
L 750 794 
z
" transform="scale(0.015625)"/>
       <path id="DejaVuSans-3d" d="M 678 2906 
L 4684 2906 
L 4684 2381 
L 678 2381 
L 678 2906 
z
M 678 1631 
L 4684 1631 
L 4684 1100 
L 678 1100 
L 678 1631 
z
" transform="scale(0.015625)"/>
       <path id="DejaVuSans-34" d="M 2419 4116 
L 825 1625 
L 2419 1625 
L 2419 4116 
z
M 2253 4666 
L 3047 4666 
L 3047 1625 
L 3713 1625 
L 3713 1100 
L 3047 1100 
L 3047 0 
L 2419 0 
L 2419 1100 
L 313 1100 
L 313 1709 
L 2253 4666 
z
" transform="scale(0.015625)"/>
      </defs>
      <use xlink:href="#DejaVuSans-Oblique-6d" transform="translate(0 0.09375)"/>
      <use xlink:href="#DejaVuSans-2f" transform="translate(97.412109 0.09375)"/>
      <use xlink:href="#DejaVuSans-Oblique-6e" transform="translate(131.103516 0.09375)"/>
      <use xlink:href="#DejaVuSans-2c" transform="translate(194.482422 0.09375)"/>
      <use xlink:href="#DejaVuSans-Oblique-6e" transform="translate(245.751953 0.09375)"/>
      <use xlink:href="#DejaVuSans-3d" transform="translate(328.613281 0.09375)"/>
      <use xlink:href="#DejaVuSans-34" transform="translate(431.884766 0.09375)"/>
     </g>
    </g>
   </g>
   <g id="matplotlib.axis_2">
    <g id="ytick_1">
     <g id="line2d_10">
      <path d="M 59.984063 511.570519 
L 617.984063 511.570519 
" clip-path="url(#pd50d78092d)" style="fill: none; stroke: #ffffff; stroke-linecap: round"/>
     </g>
     <g id="text_11">
      <!-- 0.200 -->
      <g style="fill: #262626" transform="translate(22.96 515.507316)scale(0.11 -0.11)">
       <use xlink:href="#ArialMT-30"/>
       <use xlink:href="#ArialMT-2e" x="55.615234"/>
       <use xlink:href="#ArialMT-32" x="83.398438"/>
       <use xlink:href="#ArialMT-30" x="139.013672"/>
       <use xlink:href="#ArialMT-30" x="194.628906"/>
      </g>
     </g>
    </g>
    <g id="ytick_2">
     <g id="line2d_11">
      <path d="M 59.984063 409.684169 
L 617.984063 409.684169 
" clip-path="url(#pd50d78092d)" style="fill: none; stroke: #ffffff; stroke-linecap: round"/>
     </g>
     <g id="text_12">
      <!-- 0.205 -->
      <g style="fill: #262626" transform="translate(22.96 413.620966)scale(0.11 -0.11)">
       <use xlink:href="#ArialMT-30"/>
       <use xlink:href="#ArialMT-2e" x="55.615234"/>
       <use xlink:href="#ArialMT-32" x="83.398438"/>
       <use xlink:href="#ArialMT-30" x="139.013672"/>
       <use xlink:href="#ArialMT-35" x="194.628906"/>
      </g>
     </g>
    </g>
    <g id="ytick_3">
     <g id="line2d_12">
      <path d="M 59.984063 307.79782 
L 617.984063 307.79782 
" clip-path="url(#pd50d78092d)" style="fill: none; stroke: #ffffff; stroke-linecap: round"/>
     </g>
     <g id="text_13">
      <!-- 0.210 -->
      <g style="fill: #262626" transform="translate(22.96 311.734616)scale(0.11 -0.11)">
       <use xlink:href="#ArialMT-30"/>
       <use xlink:href="#ArialMT-2e" x="55.615234"/>
       <use xlink:href="#ArialMT-32" x="83.398438"/>
       <use xlink:href="#ArialMT-31" x="139.013672"/>
       <use xlink:href="#ArialMT-30" x="194.628906"/>
      </g>
     </g>
    </g>
    <g id="ytick_4">
     <g id="line2d_13">
      <path d="M 59.984063 205.91147 
L 617.984063 205.91147 
" clip-path="url(#pd50d78092d)" style="fill: none; stroke: #ffffff; stroke-linecap: round"/>
     </g>
     <g id="text_14">
      <!-- 0.215 -->
      <g style="fill: #262626" transform="translate(22.96 209.848267)scale(0.11 -0.11)">
       <use xlink:href="#ArialMT-30"/>
       <use xlink:href="#ArialMT-2e" x="55.615234"/>
       <use xlink:href="#ArialMT-32" x="83.398438"/>
       <use xlink:href="#ArialMT-31" x="139.013672"/>
       <use xlink:href="#ArialMT-35" x="194.628906"/>
      </g>
     </g>
    </g>
    <g id="ytick_5">
     <g id="line2d_14">
      <path d="M 59.984063 104.02512 
L 617.984063 104.02512 
" clip-path="url(#pd50d78092d)" style="fill: none; stroke: #ffffff; stroke-linecap: round"/>
     </g>
     <g id="text_15">
      <!-- 0.220 -->
      <g style="fill: #262626" transform="translate(22.96 107.961917)scale(0.11 -0.11)">
       <use xlink:href="#ArialMT-30"/>
       <use xlink:href="#ArialMT-2e" x="55.615234"/>
       <use xlink:href="#ArialMT-32" x="83.398438"/>
       <use xlink:href="#ArialMT-32" x="139.013672"/>
       <use xlink:href="#ArialMT-30" x="194.628906"/>
      </g>
     </g>
    </g>
    <g id="text_16">
     <!-- $L_{m, n, \Delta}$ -->
     <g style="fill: #262626" transform="translate(15.96 296.46)rotate(-90)scale(0.12 -0.12)">
      <defs>
       <path id="DejaVuSans-Oblique-4c" d="M 1075 4666 
L 1709 4666 
L 909 525 
L 3181 525 
L 3078 0 
L 172 0 
L 1075 4666 
z
" transform="scale(0.015625)"/>
       <path id="DejaVuSans-394" d="M 2188 4044 
L 906 525 
L 3472 525 
L 2188 4044 
z
M 50 0 
L 1831 4666 
L 2547 4666 
L 4325 0 
L 50 0 
z
" transform="scale(0.015625)"/>
      </defs>
      <use xlink:href="#DejaVuSans-Oblique-4c" transform="translate(0 0.09375)"/>
      <use xlink:href="#DejaVuSans-Oblique-6d" transform="translate(55.712891 -16.3125)scale(0.7)"/>
      <use xlink:href="#DejaVuSans-2c" transform="translate(123.901367 -16.3125)scale(0.7)"/>
      <use xlink:href="#DejaVuSans-Oblique-6e" transform="translate(159.790039 -16.3125)scale(0.7)"/>
      <use xlink:href="#DejaVuSans-2c" transform="translate(204.155273 -16.3125)scale(0.7)"/>
      <use xlink:href="#DejaVuSans-394" transform="translate(240.043945 -16.3125)scale(0.7)"/>
     </g>
    </g>
   </g>
   <g id="line2d_15">
    <path d="M 59.984063 399.410153 
L 62.774062 407.514341 
L 65.564063 396.180456 
L 68.354062 473.641041 
L 71.144063 433.724577 
L 73.934062 422.93654 
L 76.724063 446.685248 
L 79.514063 466.813719 
L 82.304063 481.33354 
L 85.094063 502.51572 
L 87.884062 476.412649 
L 90.674063 452.34509 
L 93.464063 501.503791 
L 96.254063 493.441515 
L 99.044063 484.130728 
L 101.834063 462.260431 
L 104.624063 526.090909 
L 107.414062 508.930765 
L 110.204063 507.026857 
L 112.994063 522.911734 
L 115.784063 478.964129 
L 118.574062 520.357063 
L 121.364063 516.663517 
L 124.154063 499.029829 
L 126.944063 471.906171 
L 129.734062 515.199866 
L 132.524063 522.415494 
L 135.314063 449.988492 
L 138.104063 489.993339 
L 140.894063 470.204428 
L 143.684063 472.565412 
L 146.474063 444.372328 
L 149.264063 444.800768 
L 152.054063 488.557987 
L 154.844063 485.903006 
L 157.634062 479.140617 
L 160.424063 460.050056 
L 163.214063 459.484054 
L 166.004063 493.212706 
L 168.794063 450.056798 
L 171.584063 428.178522 
L 174.374063 425.64449 
L 177.164062 435.180263 
L 179.954062 432.016685 
L 182.744063 444.638352 
L 185.534063 404.525872 
L 188.324063 425.935215 
L 191.114063 419.116529 
L 193.904063 427.229879 
L 196.694063 407.229184 
L 199.484062 427.833294 
L 202.274063 402.020226 
L 205.064063 403.780443 
L 207.854063 399.125866 
L 210.644063 420.424115 
L 213.434063 403.946378 
L 216.224063 373.372132 
L 219.014063 375.650823 
L 221.804063 382.579776 
L 224.594063 374.964916 
L 227.384062 356.464855 
L 230.174063 386.93991 
L 232.964063 361.218763 
L 235.754063 408.996934 
L 238.544063 357.538969 
L 241.334063 366.244039 
L 244.124063 359.682439 
L 246.914062 350.566793 
L 249.704063 360.819279 
L 252.494063 317.982172 
L 255.284063 351.186686 
L 258.074063 301.867325 
L 260.864063 361.357922 
L 263.654063 305.164224 
L 266.444063 336.613015 
L 269.234063 306.286032 
L 272.024063 353.131649 
L 274.814063 283.645756 
L 277.604063 297.873044 
L 280.394063 275.15921 
L 283.184063 290.366716 
L 285.974063 293.502642 
L 288.764063 306.907193 
L 291.554063 285.428144 
L 294.344063 281.869507 
L 297.134063 275.895172 
L 299.924062 298.001798 
L 302.714063 302.611921 
L 305.504063 297.282716 
L 308.294063 306.667091 
L 311.084063 262.442979 
L 313.874063 273.518969 
L 316.664063 294.556663 
L 319.454063 253.08739 
L 322.244063 252.540483 
L 325.034063 277.674156 
L 327.824063 254.050343 
L 330.614063 238.19733 
L 333.404063 243.523074 
L 338.984062 259.273633 
L 341.774063 259.999432 
L 344.564063 221.554961 
L 347.354063 210.549627 
L 350.144063 207.919577 
L 352.934063 207.850117 
L 355.724063 232.2542 
L 358.514063 225.525289 
L 361.304063 208.177709 
L 364.094063 231.658273 
L 366.884063 216.661213 
L 369.674063 218.460277 
L 372.464063 218.952815 
L 375.254063 195.463139 
L 378.044063 208.892067 
L 380.834063 198.70583 
L 383.624063 206.37515 
L 386.414063 181.895974 
L 389.204063 188.730855 
L 391.994063 171.598301 
L 394.784063 185.657187 
L 397.574063 165.392691 
L 400.364063 200.249162 
L 403.154063 160.253202 
L 405.944063 176.451667 
L 408.734062 198.575132 
L 411.524063 182.511386 
L 414.314063 192.868046 
L 417.104063 168.411544 
L 419.894063 166.71785 
L 422.684063 167.384527 
L 425.474063 165.818987 
L 428.264063 151.090408 
L 431.054063 181.036945 
L 433.844063 149.66607 
L 436.634063 159.938494 
L 439.424063 173.622252 
L 442.214063 148.525185 
L 445.004063 155.835828 
L 450.584063 121.966266 
L 453.374063 153.561007 
L 456.164063 146.066425 
L 458.954063 131.154855 
L 461.744063 159.753514 
L 464.534063 147.372933 
L 467.324063 137.711268 
L 470.114063 134.989723 
L 472.904063 146.61112 
L 475.694063 143.280744 
L 478.484063 120.721893 
L 481.274063 142.104839 
L 484.064063 119.598888 
L 486.854063 100.763757 
L 489.644063 125.813201 
L 492.434063 103.37984 
L 495.224063 120.682369 
L 498.014063 108.520483 
L 500.804063 122.6708 
L 503.594063 124.037344 
L 506.384063 131.720437 
L 509.174063 126.908441 
L 511.964063 102.746577 
L 514.754063 93.369838 
L 517.544063 81.972714 
L 523.124063 105.994202 
L 525.914062 97.689447 
L 528.704063 118.161181 
L 531.494063 103.225651 
L 534.284063 83.657181 
L 537.074063 98.938531 
L 539.864063 103.930382 
L 542.654063 78.818488 
L 545.444063 101.059332 
L 548.234063 94.271792 
L 551.024063 90.262668 
L 553.814063 89.847582 
L 556.604063 77.384712 
L 559.394063 97.773611 
L 562.184063 72.467663 
L 564.974063 85.181615 
L 567.764063 99.324596 
L 570.554063 87.356959 
L 573.344063 60.694047 
L 576.134063 86.660418 
L 578.924063 77.99331 
L 581.714063 77.6634 
L 584.504063 64.211831 
L 587.294063 54.678583 
L 590.084063 62.880265 
L 592.874063 59.373412 
L 595.664063 60.525107 
L 598.454063 65.011351 
L 601.244063 76.887234 
L 604.034063 59.535677 
L 606.824063 54.923951 
L 609.614063 31.909091 
L 612.404063 46.06974 
L 615.194063 41.922801 
L 615.194063 41.922801 
" clip-path="url(#pd50d78092d)" style="fill: none; stroke: #4c72b0; stroke-width: 2; stroke-linecap: round"/>
   </g>
   <g id="patch_3">
    <path d="M 59.984063 550.8 
L 59.984063 7.2 
" style="fill: none; stroke: #ffffff; stroke-width: 1.25; stroke-linejoin: miter; stroke-linecap: square"/>
   </g>
   <g id="patch_4">
    <path d="M 617.984063 550.8 
L 617.984063 7.2 
" style="fill: none; stroke: #ffffff; stroke-width: 1.25; stroke-linejoin: miter; stroke-linecap: square"/>
   </g>
   <g id="patch_5">
    <path d="M 59.984063 550.8 
L 617.984063 550.8 
" style="fill: none; stroke: #ffffff; stroke-width: 1.25; stroke-linejoin: miter; stroke-linecap: square"/>
   </g>
   <g id="patch_6">
    <path d="M 59.984063 7.2 
L 617.984063 7.2 
" style="fill: none; stroke: #ffffff; stroke-width: 1.25; stroke-linejoin: miter; stroke-linecap: square"/>
   </g>
  </g>
 </g>
 <defs>
  <clipPath id="pd50d78092d">
   <rect x="59.984063" y="7.2" width="558" height="543.6"/>
  </clipPath>
 </defs>
</svg>
