<?xml version="1.0" encoding="utf-8" standalone="no"?>
<!DOCTYPE svg PUBLIC "-//W3C//DTD SVG 1.1//EN"
  "http://www.w3.org/Graphics/SVG/1.1/DTD/svg11.dtd">
<svg xmlns:xlink="http://www.w3.org/1999/xlink" width="1183.184062pt" height="607.269844pt" viewBox="0 0 1183.184062 607.269844" xmlns="http://www.w3.org/2000/svg" version="1.1">
 <metadata>
  <rdf:RDF xmlns:dc="http://purl.org/dc/elements/1.1/" xmlns:cc="http://creativecommons.org/ns#" xmlns:rdf="http://www.w3.org/1999/02/22-rdf-syntax-ns#">
   <cc:Work>
    <dc:type rdf:resource="http://purl.org/dc/dcmitype/StillImage"/>
    <dc:date>2022-03-15T14:02:40.262651</dc:date>
    <dc:format>image/svg+xml</dc:format>
    <dc:creator>
     <cc:Agent>
      <dc:title>Matplotlib v3.5.1, https://matplotlib.org/</dc:title>
     </cc:Agent>
    </dc:creator>
   </cc:Work>
  </rdf:RDF>
 </metadata>
 <defs>
  <style type="text/css">*{stroke-linejoin: round; stroke-linecap: butt}</style>
 </defs>
 <g id="figure_1">
  <g id="patch_1">
   <path d="M 0 607.269844 
L 1183.184062 607.269844 
L 1183.184062 0 
L 0 0 
z
" style="fill: #ffffff"/>
  </g>
  <g id="axes_1">
   <g id="patch_2">
    <path d="M 53.867031 565.535625 
L 561.139759 565.535625 
L 561.139759 21.935625 
L 53.867031 21.935625 
z
" style="fill: #eaeaf2"/>
   </g>
   <g id="matplotlib.axis_1">
    <g id="xtick_1">
     <g id="line2d_1">
      <path d="M 53.867031 565.535625 
L 53.867031 21.935625 
" clip-path="url(#p1d26b8792b)" style="fill: none; stroke: #ffffff; stroke-linecap: round"/>
     </g>
     <g id="text_1">
      <!-- 0 -->
      <g style="fill: #262626" transform="translate(50.808516 582.909219)scale(0.11 -0.11)">
       <defs>
        <path id="ArialMT-30" d="M 266 2259 
Q 266 3072 433 3567 
Q 600 4063 929 4331 
Q 1259 4600 1759 4600 
Q 2128 4600 2406 4451 
Q 2684 4303 2865 4023 
Q 3047 3744 3150 3342 
Q 3253 2941 3253 2259 
Q 3253 1453 3087 958 
Q 2922 463 2592 192 
Q 2263 -78 1759 -78 
Q 1097 -78 719 397 
Q 266 969 266 2259 
z
M 844 2259 
Q 844 1131 1108 757 
Q 1372 384 1759 384 
Q 2147 384 2411 759 
Q 2675 1134 2675 2259 
Q 2675 3391 2411 3762 
Q 2147 4134 1753 4134 
Q 1366 4134 1134 3806 
Q 844 3388 844 2259 
z
" transform="scale(0.015625)"/>
       </defs>
       <use xlink:href="#ArialMT-30"/>
      </g>
     </g>
    </g>
    <g id="xtick_2">
     <g id="line2d_2">
      <path d="M 117.276122 565.535625 
L 117.276122 21.935625 
" clip-path="url(#p1d26b8792b)" style="fill: none; stroke: #ffffff; stroke-linecap: round"/>
     </g>
     <g id="text_2">
      <!-- 5 -->
      <g style="fill: #262626" transform="translate(114.217607 582.909219)scale(0.11 -0.11)">
       <defs>
        <path id="ArialMT-35" d="M 266 1200 
L 856 1250 
Q 922 819 1161 601 
Q 1400 384 1738 384 
Q 2144 384 2425 690 
Q 2706 997 2706 1503 
Q 2706 1984 2436 2262 
Q 2166 2541 1728 2541 
Q 1456 2541 1237 2417 
Q 1019 2294 894 2097 
L 366 2166 
L 809 4519 
L 3088 4519 
L 3088 3981 
L 1259 3981 
L 1013 2750 
Q 1425 3038 1878 3038 
Q 2478 3038 2890 2622 
Q 3303 2206 3303 1553 
Q 3303 931 2941 478 
Q 2500 -78 1738 -78 
Q 1113 -78 717 272 
Q 322 622 266 1200 
z
" transform="scale(0.015625)"/>
       </defs>
       <use xlink:href="#ArialMT-35"/>
      </g>
     </g>
    </g>
    <g id="xtick_3">
     <g id="line2d_3">
      <path d="M 180.685213 565.535625 
L 180.685213 21.935625 
" clip-path="url(#p1d26b8792b)" style="fill: none; stroke: #ffffff; stroke-linecap: round"/>
     </g>
     <g id="text_3">
      <!-- 10 -->
      <g style="fill: #262626" transform="translate(174.568182 582.909219)scale(0.11 -0.11)">
       <defs>
        <path id="ArialMT-31" d="M 2384 0 
L 1822 0 
L 1822 3584 
Q 1619 3391 1289 3197 
Q 959 3003 697 2906 
L 697 3450 
Q 1169 3672 1522 3987 
Q 1875 4303 2022 4600 
L 2384 4600 
L 2384 0 
z
" transform="scale(0.015625)"/>
       </defs>
       <use xlink:href="#ArialMT-31"/>
       <use xlink:href="#ArialMT-30" x="55.615234"/>
      </g>
     </g>
    </g>
    <g id="xtick_4">
     <g id="line2d_4">
      <path d="M 244.094304 565.535625 
L 244.094304 21.935625 
" clip-path="url(#p1d26b8792b)" style="fill: none; stroke: #ffffff; stroke-linecap: round"/>
     </g>
     <g id="text_4">
      <!-- 15 -->
      <g style="fill: #262626" transform="translate(237.977273 582.909219)scale(0.11 -0.11)">
       <use xlink:href="#ArialMT-31"/>
       <use xlink:href="#ArialMT-35" x="55.615234"/>
      </g>
     </g>
    </g>
    <g id="xtick_5">
     <g id="line2d_5">
      <path d="M 307.503395 565.535625 
L 307.503395 21.935625 
" clip-path="url(#p1d26b8792b)" style="fill: none; stroke: #ffffff; stroke-linecap: round"/>
     </g>
     <g id="text_5">
      <!-- 20 -->
      <g style="fill: #262626" transform="translate(301.386364 582.909219)scale(0.11 -0.11)">
       <defs>
        <path id="ArialMT-32" d="M 3222 541 
L 3222 0 
L 194 0 
Q 188 203 259 391 
Q 375 700 629 1000 
Q 884 1300 1366 1694 
Q 2113 2306 2375 2664 
Q 2638 3022 2638 3341 
Q 2638 3675 2398 3904 
Q 2159 4134 1775 4134 
Q 1369 4134 1125 3890 
Q 881 3647 878 3216 
L 300 3275 
Q 359 3922 746 4261 
Q 1134 4600 1788 4600 
Q 2447 4600 2831 4234 
Q 3216 3869 3216 3328 
Q 3216 3053 3103 2787 
Q 2991 2522 2730 2228 
Q 2469 1934 1863 1422 
Q 1356 997 1212 845 
Q 1069 694 975 541 
L 3222 541 
z
" transform="scale(0.015625)"/>
       </defs>
       <use xlink:href="#ArialMT-32"/>
       <use xlink:href="#ArialMT-30" x="55.615234"/>
      </g>
     </g>
    </g>
    <g id="xtick_6">
     <g id="line2d_6">
      <path d="M 370.912486 565.535625 
L 370.912486 21.935625 
" clip-path="url(#p1d26b8792b)" style="fill: none; stroke: #ffffff; stroke-linecap: round"/>
     </g>
     <g id="text_6">
      <!-- 25 -->
      <g style="fill: #262626" transform="translate(364.795455 582.909219)scale(0.11 -0.11)">
       <use xlink:href="#ArialMT-32"/>
       <use xlink:href="#ArialMT-35" x="55.615234"/>
      </g>
     </g>
    </g>
    <g id="xtick_7">
     <g id="line2d_7">
      <path d="M 434.321577 565.535625 
L 434.321577 21.935625 
" clip-path="url(#p1d26b8792b)" style="fill: none; stroke: #ffffff; stroke-linecap: round"/>
     </g>
     <g id="text_7">
      <!-- 30 -->
      <g style="fill: #262626" transform="translate(428.204545 582.909219)scale(0.11 -0.11)">
       <defs>
        <path id="ArialMT-33" d="M 269 1209 
L 831 1284 
Q 928 806 1161 595 
Q 1394 384 1728 384 
Q 2125 384 2398 659 
Q 2672 934 2672 1341 
Q 2672 1728 2419 1979 
Q 2166 2231 1775 2231 
Q 1616 2231 1378 2169 
L 1441 2663 
Q 1497 2656 1531 2656 
Q 1891 2656 2178 2843 
Q 2466 3031 2466 3422 
Q 2466 3731 2256 3934 
Q 2047 4138 1716 4138 
Q 1388 4138 1169 3931 
Q 950 3725 888 3313 
L 325 3413 
Q 428 3978 793 4289 
Q 1159 4600 1703 4600 
Q 2078 4600 2393 4439 
Q 2709 4278 2876 4000 
Q 3044 3722 3044 3409 
Q 3044 3113 2884 2869 
Q 2725 2625 2413 2481 
Q 2819 2388 3044 2092 
Q 3269 1797 3269 1353 
Q 3269 753 2831 336 
Q 2394 -81 1725 -81 
Q 1122 -81 723 278 
Q 325 638 269 1209 
z
" transform="scale(0.015625)"/>
       </defs>
       <use xlink:href="#ArialMT-33"/>
       <use xlink:href="#ArialMT-30" x="55.615234"/>
      </g>
     </g>
    </g>
    <g id="xtick_8">
     <g id="line2d_8">
      <path d="M 497.730668 565.535625 
L 497.730668 21.935625 
" clip-path="url(#p1d26b8792b)" style="fill: none; stroke: #ffffff; stroke-linecap: round"/>
     </g>
     <g id="text_8">
      <!-- 35 -->
      <g style="fill: #262626" transform="translate(491.613636 582.909219)scale(0.11 -0.11)">
       <use xlink:href="#ArialMT-33"/>
       <use xlink:href="#ArialMT-35" x="55.615234"/>
      </g>
     </g>
    </g>
    <g id="xtick_9">
     <g id="line2d_9">
      <path d="M 561.139759 565.535625 
L 561.139759 21.935625 
" clip-path="url(#p1d26b8792b)" style="fill: none; stroke: #ffffff; stroke-linecap: round"/>
     </g>
     <g id="text_9">
      <!-- 40 -->
      <g style="fill: #262626" transform="translate(555.022727 582.909219)scale(0.11 -0.11)">
       <defs>
        <path id="ArialMT-34" d="M 2069 0 
L 2069 1097 
L 81 1097 
L 81 1613 
L 2172 4581 
L 2631 4581 
L 2631 1613 
L 3250 1613 
L 3250 1097 
L 2631 1097 
L 2631 0 
L 2069 0 
z
M 2069 1613 
L 2069 3678 
L 634 1613 
L 2069 1613 
z
" transform="scale(0.015625)"/>
       </defs>
       <use xlink:href="#ArialMT-34"/>
       <use xlink:href="#ArialMT-30" x="55.615234"/>
      </g>
     </g>
    </g>
    <g id="text_10">
     <!-- $m/n, n = 100$ -->
     <g style="fill: #262626" transform="translate(270.123395 597.684844)scale(0.12 -0.12)">
      <defs>
       <path id="DejaVuSans-Oblique-6d" d="M 5747 2113 
L 5338 0 
L 4763 0 
L 5166 2094 
Q 5191 2228 5203 2325 
Q 5216 2422 5216 2491 
Q 5216 2772 5059 2928 
Q 4903 3084 4622 3084 
Q 4203 3084 3875 2770 
Q 3547 2456 3450 1953 
L 3066 0 
L 2491 0 
L 2900 2094 
Q 2925 2209 2937 2307 
Q 2950 2406 2950 2484 
Q 2950 2769 2794 2926 
Q 2638 3084 2363 3084 
Q 1938 3084 1609 2770 
Q 1281 2456 1184 1953 
L 800 0 
L 225 0 
L 909 3500 
L 1484 3500 
L 1375 2956 
Q 1609 3263 1923 3423 
Q 2238 3584 2597 3584 
Q 2978 3584 3223 3384 
Q 3469 3184 3519 2828 
Q 3781 3197 4126 3390 
Q 4472 3584 4856 3584 
Q 5306 3584 5551 3325 
Q 5797 3066 5797 2591 
Q 5797 2488 5784 2364 
Q 5772 2241 5747 2113 
z
" transform="scale(0.015625)"/>
       <path id="DejaVuSans-2f" d="M 1625 4666 
L 2156 4666 
L 531 -594 
L 0 -594 
L 1625 4666 
z
" transform="scale(0.015625)"/>
       <path id="DejaVuSans-Oblique-6e" d="M 3566 2113 
L 3156 0 
L 2578 0 
L 2988 2091 
Q 3016 2238 3031 2350 
Q 3047 2463 3047 2528 
Q 3047 2791 2881 2937 
Q 2716 3084 2419 3084 
Q 1956 3084 1622 2776 
Q 1288 2469 1184 1941 
L 800 0 
L 225 0 
L 903 3500 
L 1478 3500 
L 1363 2950 
Q 1603 3253 1940 3418 
Q 2278 3584 2650 3584 
Q 3113 3584 3367 3334 
Q 3622 3084 3622 2631 
Q 3622 2519 3608 2391 
Q 3594 2263 3566 2113 
z
" transform="scale(0.015625)"/>
       <path id="DejaVuSans-2c" d="M 750 794 
L 1409 794 
L 1409 256 
L 897 -744 
L 494 -744 
L 750 256 
L 750 794 
z
" transform="scale(0.015625)"/>
       <path id="DejaVuSans-3d" d="M 678 2906 
L 4684 2906 
L 4684 2381 
L 678 2381 
L 678 2906 
z
M 678 1631 
L 4684 1631 
L 4684 1100 
L 678 1100 
L 678 1631 
z
" transform="scale(0.015625)"/>
       <path id="DejaVuSans-31" d="M 794 531 
L 1825 531 
L 1825 4091 
L 703 3866 
L 703 4441 
L 1819 4666 
L 2450 4666 
L 2450 531 
L 3481 531 
L 3481 0 
L 794 0 
L 794 531 
z
" transform="scale(0.015625)"/>
       <path id="DejaVuSans-30" d="M 2034 4250 
Q 1547 4250 1301 3770 
Q 1056 3291 1056 2328 
Q 1056 1369 1301 889 
Q 1547 409 2034 409 
Q 2525 409 2770 889 
Q 3016 1369 3016 2328 
Q 3016 3291 2770 3770 
Q 2525 4250 2034 4250 
z
M 2034 4750 
Q 2819 4750 3233 4129 
Q 3647 3509 3647 2328 
Q 3647 1150 3233 529 
Q 2819 -91 2034 -91 
Q 1250 -91 836 529 
Q 422 1150 422 2328 
Q 422 3509 836 4129 
Q 1250 4750 2034 4750 
z
" transform="scale(0.015625)"/>
      </defs>
      <use xlink:href="#DejaVuSans-Oblique-6d" transform="translate(0 0.78125)"/>
      <use xlink:href="#DejaVuSans-2f" transform="translate(97.412109 0.78125)"/>
      <use xlink:href="#DejaVuSans-Oblique-6e" transform="translate(131.103516 0.78125)"/>
      <use xlink:href="#DejaVuSans-2c" transform="translate(194.482422 0.78125)"/>
      <use xlink:href="#DejaVuSans-Oblique-6e" transform="translate(245.751953 0.78125)"/>
      <use xlink:href="#DejaVuSans-3d" transform="translate(328.613281 0.78125)"/>
      <use xlink:href="#DejaVuSans-31" transform="translate(431.884766 0.78125)"/>
      <use xlink:href="#DejaVuSans-30" transform="translate(495.507812 0.78125)"/>
      <use xlink:href="#DejaVuSans-30" transform="translate(559.130859 0.78125)"/>
     </g>
    </g>
   </g>
   <g id="matplotlib.axis_2">
    <g id="ytick_1">
     <g id="line2d_10">
      <path d="M 53.867031 565.535625 
L 561.139759 565.535625 
" clip-path="url(#p1d26b8792b)" style="fill: none; stroke: #ffffff; stroke-linecap: round"/>
     </g>
     <g id="text_11">
      <!-- 0.32 -->
      <g style="fill: #262626" transform="translate(22.96 569.472422)scale(0.11 -0.11)">
       <defs>
        <path id="ArialMT-2e" d="M 581 0 
L 581 641 
L 1222 641 
L 1222 0 
L 581 0 
z
" transform="scale(0.015625)"/>
       </defs>
       <use xlink:href="#ArialMT-30"/>
       <use xlink:href="#ArialMT-2e" x="55.615234"/>
       <use xlink:href="#ArialMT-33" x="83.398438"/>
       <use xlink:href="#ArialMT-32" x="139.013672"/>
      </g>
     </g>
    </g>
    <g id="ytick_2">
     <g id="line2d_11">
      <path d="M 53.867031 487.878482 
L 561.139759 487.878482 
" clip-path="url(#p1d26b8792b)" style="fill: none; stroke: #ffffff; stroke-linecap: round"/>
     </g>
     <g id="text_12">
      <!-- 0.33 -->
      <g style="fill: #262626" transform="translate(22.96 491.815279)scale(0.11 -0.11)">
       <use xlink:href="#ArialMT-30"/>
       <use xlink:href="#ArialMT-2e" x="55.615234"/>
       <use xlink:href="#ArialMT-33" x="83.398438"/>
       <use xlink:href="#ArialMT-33" x="139.013672"/>
      </g>
     </g>
    </g>
    <g id="ytick_3">
     <g id="line2d_12">
      <path d="M 53.867031 410.221339 
L 561.139759 410.221339 
" clip-path="url(#p1d26b8792b)" style="fill: none; stroke: #ffffff; stroke-linecap: round"/>
     </g>
     <g id="text_13">
      <!-- 0.34 -->
      <g style="fill: #262626" transform="translate(22.96 414.158136)scale(0.11 -0.11)">
       <use xlink:href="#ArialMT-30"/>
       <use xlink:href="#ArialMT-2e" x="55.615234"/>
       <use xlink:href="#ArialMT-33" x="83.398438"/>
       <use xlink:href="#ArialMT-34" x="139.013672"/>
      </g>
     </g>
    </g>
    <g id="ytick_4">
     <g id="line2d_13">
      <path d="M 53.867031 332.564196 
L 561.139759 332.564196 
" clip-path="url(#p1d26b8792b)" style="fill: none; stroke: #ffffff; stroke-linecap: round"/>
     </g>
     <g id="text_14">
      <!-- 0.35 -->
      <g style="fill: #262626" transform="translate(22.96 336.500993)scale(0.11 -0.11)">
       <use xlink:href="#ArialMT-30"/>
       <use xlink:href="#ArialMT-2e" x="55.615234"/>
       <use xlink:href="#ArialMT-33" x="83.398438"/>
       <use xlink:href="#ArialMT-35" x="139.013672"/>
      </g>
     </g>
    </g>
    <g id="ytick_5">
     <g id="line2d_14">
      <path d="M 53.867031 254.907054 
L 561.139759 254.907054 
" clip-path="url(#p1d26b8792b)" style="fill: none; stroke: #ffffff; stroke-linecap: round"/>
     </g>
     <g id="text_15">
      <!-- 0.36 -->
      <g style="fill: #262626" transform="translate(22.96 258.84385)scale(0.11 -0.11)">
       <defs>
        <path id="ArialMT-36" d="M 3184 3459 
L 2625 3416 
Q 2550 3747 2413 3897 
Q 2184 4138 1850 4138 
Q 1581 4138 1378 3988 
Q 1113 3794 959 3422 
Q 806 3050 800 2363 
Q 1003 2672 1297 2822 
Q 1591 2972 1913 2972 
Q 2475 2972 2870 2558 
Q 3266 2144 3266 1488 
Q 3266 1056 3080 686 
Q 2894 316 2569 119 
Q 2244 -78 1831 -78 
Q 1128 -78 684 439 
Q 241 956 241 2144 
Q 241 3472 731 4075 
Q 1159 4600 1884 4600 
Q 2425 4600 2770 4297 
Q 3116 3994 3184 3459 
z
M 888 1484 
Q 888 1194 1011 928 
Q 1134 663 1356 523 
Q 1578 384 1822 384 
Q 2178 384 2434 671 
Q 2691 959 2691 1453 
Q 2691 1928 2437 2201 
Q 2184 2475 1800 2475 
Q 1419 2475 1153 2201 
Q 888 1928 888 1484 
z
" transform="scale(0.015625)"/>
       </defs>
       <use xlink:href="#ArialMT-30"/>
       <use xlink:href="#ArialMT-2e" x="55.615234"/>
       <use xlink:href="#ArialMT-33" x="83.398438"/>
       <use xlink:href="#ArialMT-36" x="139.013672"/>
      </g>
     </g>
    </g>
    <g id="ytick_6">
     <g id="line2d_15">
      <path d="M 53.867031 177.249911 
L 561.139759 177.249911 
" clip-path="url(#p1d26b8792b)" style="fill: none; stroke: #ffffff; stroke-linecap: round"/>
     </g>
     <g id="text_16">
      <!-- 0.37 -->
      <g style="fill: #262626" transform="translate(22.96 181.186708)scale(0.11 -0.11)">
       <defs>
        <path id="ArialMT-37" d="M 303 3981 
L 303 4522 
L 3269 4522 
L 3269 4084 
Q 2831 3619 2401 2847 
Q 1972 2075 1738 1259 
Q 1569 684 1522 0 
L 944 0 
Q 953 541 1156 1306 
Q 1359 2072 1739 2783 
Q 2119 3494 2547 3981 
L 303 3981 
z
" transform="scale(0.015625)"/>
       </defs>
       <use xlink:href="#ArialMT-30"/>
       <use xlink:href="#ArialMT-2e" x="55.615234"/>
       <use xlink:href="#ArialMT-33" x="83.398438"/>
       <use xlink:href="#ArialMT-37" x="139.013672"/>
      </g>
     </g>
    </g>
    <g id="ytick_7">
     <g id="line2d_16">
      <path d="M 53.867031 99.592768 
L 561.139759 99.592768 
" clip-path="url(#p1d26b8792b)" style="fill: none; stroke: #ffffff; stroke-linecap: round"/>
     </g>
     <g id="text_17">
      <!-- 0.38 -->
      <g style="fill: #262626" transform="translate(22.96 103.529565)scale(0.11 -0.11)">
       <defs>
        <path id="ArialMT-38" d="M 1131 2484 
Q 781 2613 612 2850 
Q 444 3088 444 3419 
Q 444 3919 803 4259 
Q 1163 4600 1759 4600 
Q 2359 4600 2725 4251 
Q 3091 3903 3091 3403 
Q 3091 3084 2923 2848 
Q 2756 2613 2416 2484 
Q 2838 2347 3058 2040 
Q 3278 1734 3278 1309 
Q 3278 722 2862 322 
Q 2447 -78 1769 -78 
Q 1091 -78 675 323 
Q 259 725 259 1325 
Q 259 1772 486 2073 
Q 713 2375 1131 2484 
z
M 1019 3438 
Q 1019 3113 1228 2906 
Q 1438 2700 1772 2700 
Q 2097 2700 2305 2904 
Q 2513 3109 2513 3406 
Q 2513 3716 2298 3927 
Q 2084 4138 1766 4138 
Q 1444 4138 1231 3931 
Q 1019 3725 1019 3438 
z
M 838 1322 
Q 838 1081 952 856 
Q 1066 631 1291 507 
Q 1516 384 1775 384 
Q 2178 384 2440 643 
Q 2703 903 2703 1303 
Q 2703 1709 2433 1975 
Q 2163 2241 1756 2241 
Q 1359 2241 1098 1978 
Q 838 1716 838 1322 
z
" transform="scale(0.015625)"/>
       </defs>
       <use xlink:href="#ArialMT-30"/>
       <use xlink:href="#ArialMT-2e" x="55.615234"/>
       <use xlink:href="#ArialMT-33" x="83.398438"/>
       <use xlink:href="#ArialMT-38" x="139.013672"/>
      </g>
     </g>
    </g>
    <g id="ytick_8">
     <g id="line2d_17">
      <path d="M 53.867031 21.935625 
L 561.139759 21.935625 
" clip-path="url(#p1d26b8792b)" style="fill: none; stroke: #ffffff; stroke-linecap: round"/>
     </g>
     <g id="text_18">
      <!-- 0.39 -->
      <g style="fill: #262626" transform="translate(22.96 25.872422)scale(0.11 -0.11)">
       <defs>
        <path id="ArialMT-39" d="M 350 1059 
L 891 1109 
Q 959 728 1153 556 
Q 1347 384 1650 384 
Q 1909 384 2104 503 
Q 2300 622 2425 820 
Q 2550 1019 2634 1356 
Q 2719 1694 2719 2044 
Q 2719 2081 2716 2156 
Q 2547 1888 2255 1720 
Q 1963 1553 1622 1553 
Q 1053 1553 659 1965 
Q 266 2378 266 3053 
Q 266 3750 677 4175 
Q 1088 4600 1706 4600 
Q 2153 4600 2523 4359 
Q 2894 4119 3086 3673 
Q 3278 3228 3278 2384 
Q 3278 1506 3087 986 
Q 2897 466 2520 194 
Q 2144 -78 1638 -78 
Q 1100 -78 759 220 
Q 419 519 350 1059 
z
M 2653 3081 
Q 2653 3566 2395 3850 
Q 2138 4134 1775 4134 
Q 1400 4134 1122 3828 
Q 844 3522 844 3034 
Q 844 2597 1108 2323 
Q 1372 2050 1759 2050 
Q 2150 2050 2401 2323 
Q 2653 2597 2653 3081 
z
" transform="scale(0.015625)"/>
       </defs>
       <use xlink:href="#ArialMT-30"/>
       <use xlink:href="#ArialMT-2e" x="55.615234"/>
       <use xlink:href="#ArialMT-33" x="83.398438"/>
       <use xlink:href="#ArialMT-39" x="139.013672"/>
      </g>
     </g>
    </g>
    <g id="text_19">
     <!-- $L_{m, n, \Delta}$ -->
     <g style="fill: #262626" transform="translate(15.96 311.195625)rotate(-90)scale(0.12 -0.12)">
      <defs>
       <path id="DejaVuSans-Oblique-4c" d="M 1075 4666 
L 1709 4666 
L 909 525 
L 3181 525 
L 3078 0 
L 172 0 
L 1075 4666 
z
" transform="scale(0.015625)"/>
       <path id="DejaVuSans-394" d="M 2188 4044 
L 906 525 
L 3472 525 
L 2188 4044 
z
M 50 0 
L 1831 4666 
L 2547 4666 
L 4325 0 
L 50 0 
z
" transform="scale(0.015625)"/>
      </defs>
      <use xlink:href="#DejaVuSans-Oblique-4c" transform="translate(0 0.09375)"/>
      <use xlink:href="#DejaVuSans-Oblique-6d" transform="translate(55.712891 -16.3125)scale(0.7)"/>
      <use xlink:href="#DejaVuSans-2c" transform="translate(123.901367 -16.3125)scale(0.7)"/>
      <use xlink:href="#DejaVuSans-Oblique-6e" transform="translate(159.790039 -16.3125)scale(0.7)"/>
      <use xlink:href="#DejaVuSans-2c" transform="translate(204.155273 -16.3125)scale(0.7)"/>
      <use xlink:href="#DejaVuSans-394" transform="translate(240.043945 -16.3125)scale(0.7)"/>
     </g>
    </g>
   </g>
   <g id="PolyCollection_1">
    <defs>
     <path id="mdfe6b7967e" d="M 53.867031 -272.395347 
L 53.867031 -198.014365 
L 85.571577 -67.540658 
L 117.276122 -74.92294 
L 148.980668 -114.532937 
L 180.685213 -160.74379 
L 212.389759 -174.139647 
L 244.094304 -217.045219 
L 307.503395 -348.256669 
L 434.321577 -367.700076 
L 561.139759 -346.921937 
L 561.139759 -406.941201 
L 561.139759 -406.941201 
L 434.321577 -417.206504 
L 307.503395 -388.672358 
L 244.094304 -254.708933 
L 212.389759 -209.861933 
L 180.685213 -205.396647 
L 148.980668 -160.554501 
L 117.276122 -123.274219 
L 85.571577 -121.915219 
L 53.867031 -272.395347 
z
" style="stroke: #4c72b0; stroke-opacity: 0.2"/>
    </defs>
    <g clip-path="url(#p1d26b8792b)">
     <use xlink:href="#mdfe6b7967e" x="0" y="607.269844" style="fill: #4c72b0; fill-opacity: 0.2; stroke: #4c72b0; stroke-opacity: 0.2"/>
    </g>
   </g>
   <g id="line2d_18">
    <path d="M 53.867031 372.169339 
L 85.571577 513.311196 
L 117.276122 508.651768 
L 148.980668 469.629054 
L 180.685213 424.199625 
L 212.389759 414.686625 
L 244.094304 370.422054 
L 307.503395 237.822482 
L 434.321577 216.466768 
L 561.139759 230.639196 
" clip-path="url(#p1d26b8792b)" style="fill: none; stroke: #4c72b0; stroke-width: 2; stroke-linecap: round"/>
   </g>
   <g id="line2d_19"/>
   <g id="patch_3">
    <path d="M 53.867031 565.535625 
L 53.867031 21.935625 
" style="fill: none; stroke: #ffffff; stroke-width: 1.25; stroke-linejoin: miter; stroke-linecap: square"/>
   </g>
   <g id="patch_4">
    <path d="M 561.139759 565.535625 
L 561.139759 21.935625 
" style="fill: none; stroke: #ffffff; stroke-width: 1.25; stroke-linejoin: miter; stroke-linecap: square"/>
   </g>
   <g id="patch_5">
    <path d="M 53.867031 565.535625 
L 561.139759 565.535625 
" style="fill: none; stroke: #ffffff; stroke-width: 1.25; stroke-linejoin: miter; stroke-linecap: square"/>
   </g>
   <g id="patch_6">
    <path d="M 53.867031 21.935625 
L 561.139759 21.935625 
" style="fill: none; stroke: #ffffff; stroke-width: 1.25; stroke-linejoin: miter; stroke-linecap: square"/>
   </g>
   <g id="text_20">
    <!-- Bird vs. Cat - Deer vs. Dog -->
    <g style="fill: #262626" transform="translate(236.15402 15.935625)scale(0.12 -0.12)">
     <defs>
      <path id="ArialMT-42" d="M 469 0 
L 469 4581 
L 2188 4581 
Q 2713 4581 3030 4442 
Q 3347 4303 3526 4014 
Q 3706 3725 3706 3409 
Q 3706 3116 3547 2856 
Q 3388 2597 3066 2438 
Q 3481 2316 3704 2022 
Q 3928 1728 3928 1328 
Q 3928 1006 3792 729 
Q 3656 453 3456 303 
Q 3256 153 2954 76 
Q 2653 0 2216 0 
L 469 0 
z
M 1075 2656 
L 2066 2656 
Q 2469 2656 2644 2709 
Q 2875 2778 2992 2937 
Q 3109 3097 3109 3338 
Q 3109 3566 3000 3739 
Q 2891 3913 2687 3977 
Q 2484 4041 1991 4041 
L 1075 4041 
L 1075 2656 
z
M 1075 541 
L 2216 541 
Q 2509 541 2628 563 
Q 2838 600 2978 687 
Q 3119 775 3209 942 
Q 3300 1109 3300 1328 
Q 3300 1584 3169 1773 
Q 3038 1963 2805 2039 
Q 2572 2116 2134 2116 
L 1075 2116 
L 1075 541 
z
" transform="scale(0.015625)"/>
      <path id="ArialMT-69" d="M 425 3934 
L 425 4581 
L 988 4581 
L 988 3934 
L 425 3934 
z
M 425 0 
L 425 3319 
L 988 3319 
L 988 0 
L 425 0 
z
" transform="scale(0.015625)"/>
      <path id="ArialMT-72" d="M 416 0 
L 416 3319 
L 922 3319 
L 922 2816 
Q 1116 3169 1280 3281 
Q 1444 3394 1641 3394 
Q 1925 3394 2219 3213 
L 2025 2691 
Q 1819 2813 1613 2813 
Q 1428 2813 1281 2702 
Q 1134 2591 1072 2394 
Q 978 2094 978 1738 
L 978 0 
L 416 0 
z
" transform="scale(0.015625)"/>
      <path id="ArialMT-64" d="M 2575 0 
L 2575 419 
Q 2259 -75 1647 -75 
Q 1250 -75 917 144 
Q 584 363 401 755 
Q 219 1147 219 1656 
Q 219 2153 384 2558 
Q 550 2963 881 3178 
Q 1213 3394 1622 3394 
Q 1922 3394 2156 3267 
Q 2391 3141 2538 2938 
L 2538 4581 
L 3097 4581 
L 3097 0 
L 2575 0 
z
M 797 1656 
Q 797 1019 1065 703 
Q 1334 388 1700 388 
Q 2069 388 2326 689 
Q 2584 991 2584 1609 
Q 2584 2291 2321 2609 
Q 2059 2928 1675 2928 
Q 1300 2928 1048 2622 
Q 797 2316 797 1656 
z
" transform="scale(0.015625)"/>
      <path id="ArialMT-20" transform="scale(0.015625)"/>
      <path id="ArialMT-76" d="M 1344 0 
L 81 3319 
L 675 3319 
L 1388 1331 
Q 1503 1009 1600 663 
Q 1675 925 1809 1294 
L 2547 3319 
L 3125 3319 
L 1869 0 
L 1344 0 
z
" transform="scale(0.015625)"/>
      <path id="ArialMT-73" d="M 197 991 
L 753 1078 
Q 800 744 1014 566 
Q 1228 388 1613 388 
Q 2000 388 2187 545 
Q 2375 703 2375 916 
Q 2375 1106 2209 1216 
Q 2094 1291 1634 1406 
Q 1016 1563 777 1677 
Q 538 1791 414 1992 
Q 291 2194 291 2438 
Q 291 2659 392 2848 
Q 494 3038 669 3163 
Q 800 3259 1026 3326 
Q 1253 3394 1513 3394 
Q 1903 3394 2198 3281 
Q 2494 3169 2634 2976 
Q 2775 2784 2828 2463 
L 2278 2388 
Q 2241 2644 2061 2787 
Q 1881 2931 1553 2931 
Q 1166 2931 1000 2803 
Q 834 2675 834 2503 
Q 834 2394 903 2306 
Q 972 2216 1119 2156 
Q 1203 2125 1616 2013 
Q 2213 1853 2448 1751 
Q 2684 1650 2818 1456 
Q 2953 1263 2953 975 
Q 2953 694 2789 445 
Q 2625 197 2315 61 
Q 2006 -75 1616 -75 
Q 969 -75 630 194 
Q 291 463 197 991 
z
" transform="scale(0.015625)"/>
      <path id="ArialMT-43" d="M 3763 1606 
L 4369 1453 
Q 4178 706 3683 314 
Q 3188 -78 2472 -78 
Q 1731 -78 1267 223 
Q 803 525 561 1097 
Q 319 1669 319 2325 
Q 319 3041 592 3573 
Q 866 4106 1370 4382 
Q 1875 4659 2481 4659 
Q 3169 4659 3637 4309 
Q 4106 3959 4291 3325 
L 3694 3184 
Q 3534 3684 3231 3912 
Q 2928 4141 2469 4141 
Q 1941 4141 1586 3887 
Q 1231 3634 1087 3207 
Q 944 2781 944 2328 
Q 944 1744 1114 1308 
Q 1284 872 1643 656 
Q 2003 441 2422 441 
Q 2931 441 3284 734 
Q 3638 1028 3763 1606 
z
" transform="scale(0.015625)"/>
      <path id="ArialMT-61" d="M 2588 409 
Q 2275 144 1986 34 
Q 1697 -75 1366 -75 
Q 819 -75 525 192 
Q 231 459 231 875 
Q 231 1119 342 1320 
Q 453 1522 633 1644 
Q 813 1766 1038 1828 
Q 1203 1872 1538 1913 
Q 2219 1994 2541 2106 
Q 2544 2222 2544 2253 
Q 2544 2597 2384 2738 
Q 2169 2928 1744 2928 
Q 1347 2928 1158 2789 
Q 969 2650 878 2297 
L 328 2372 
Q 403 2725 575 2942 
Q 747 3159 1072 3276 
Q 1397 3394 1825 3394 
Q 2250 3394 2515 3294 
Q 2781 3194 2906 3042 
Q 3031 2891 3081 2659 
Q 3109 2516 3109 2141 
L 3109 1391 
Q 3109 606 3145 398 
Q 3181 191 3288 0 
L 2700 0 
Q 2613 175 2588 409 
z
M 2541 1666 
Q 2234 1541 1622 1453 
Q 1275 1403 1131 1340 
Q 988 1278 909 1158 
Q 831 1038 831 891 
Q 831 666 1001 516 
Q 1172 366 1500 366 
Q 1825 366 2078 508 
Q 2331 650 2450 897 
Q 2541 1088 2541 1459 
L 2541 1666 
z
" transform="scale(0.015625)"/>
      <path id="ArialMT-74" d="M 1650 503 
L 1731 6 
Q 1494 -44 1306 -44 
Q 1000 -44 831 53 
Q 663 150 594 308 
Q 525 466 525 972 
L 525 2881 
L 113 2881 
L 113 3319 
L 525 3319 
L 525 4141 
L 1084 4478 
L 1084 3319 
L 1650 3319 
L 1650 2881 
L 1084 2881 
L 1084 941 
Q 1084 700 1114 631 
Q 1144 563 1211 522 
Q 1278 481 1403 481 
Q 1497 481 1650 503 
z
" transform="scale(0.015625)"/>
      <path id="ArialMT-2d" d="M 203 1375 
L 203 1941 
L 1931 1941 
L 1931 1375 
L 203 1375 
z
" transform="scale(0.015625)"/>
      <path id="ArialMT-44" d="M 494 0 
L 494 4581 
L 2072 4581 
Q 2606 4581 2888 4516 
Q 3281 4425 3559 4188 
Q 3922 3881 4101 3404 
Q 4281 2928 4281 2316 
Q 4281 1794 4159 1391 
Q 4038 988 3847 723 
Q 3656 459 3429 307 
Q 3203 156 2883 78 
Q 2563 0 2147 0 
L 494 0 
z
M 1100 541 
L 2078 541 
Q 2531 541 2789 625 
Q 3047 709 3200 863 
Q 3416 1078 3536 1442 
Q 3656 1806 3656 2325 
Q 3656 3044 3420 3430 
Q 3184 3816 2847 3947 
Q 2603 4041 2063 4041 
L 1100 4041 
L 1100 541 
z
" transform="scale(0.015625)"/>
      <path id="ArialMT-65" d="M 2694 1069 
L 3275 997 
Q 3138 488 2766 206 
Q 2394 -75 1816 -75 
Q 1088 -75 661 373 
Q 234 822 234 1631 
Q 234 2469 665 2931 
Q 1097 3394 1784 3394 
Q 2450 3394 2872 2941 
Q 3294 2488 3294 1666 
Q 3294 1616 3291 1516 
L 816 1516 
Q 847 969 1125 678 
Q 1403 388 1819 388 
Q 2128 388 2347 550 
Q 2566 713 2694 1069 
z
M 847 1978 
L 2700 1978 
Q 2663 2397 2488 2606 
Q 2219 2931 1791 2931 
Q 1403 2931 1139 2672 
Q 875 2413 847 1978 
z
" transform="scale(0.015625)"/>
      <path id="ArialMT-6f" d="M 213 1659 
Q 213 2581 725 3025 
Q 1153 3394 1769 3394 
Q 2453 3394 2887 2945 
Q 3322 2497 3322 1706 
Q 3322 1066 3130 698 
Q 2938 331 2570 128 
Q 2203 -75 1769 -75 
Q 1072 -75 642 372 
Q 213 819 213 1659 
z
M 791 1659 
Q 791 1022 1069 705 
Q 1347 388 1769 388 
Q 2188 388 2466 706 
Q 2744 1025 2744 1678 
Q 2744 2294 2464 2611 
Q 2184 2928 1769 2928 
Q 1347 2928 1069 2612 
Q 791 2297 791 1659 
z
" transform="scale(0.015625)"/>
      <path id="ArialMT-67" d="M 319 -275 
L 866 -356 
Q 900 -609 1056 -725 
Q 1266 -881 1628 -881 
Q 2019 -881 2231 -725 
Q 2444 -569 2519 -288 
Q 2563 -116 2559 434 
Q 2191 0 1641 0 
Q 956 0 581 494 
Q 206 988 206 1678 
Q 206 2153 378 2554 
Q 550 2956 876 3175 
Q 1203 3394 1644 3394 
Q 2231 3394 2613 2919 
L 2613 3319 
L 3131 3319 
L 3131 450 
Q 3131 -325 2973 -648 
Q 2816 -972 2473 -1159 
Q 2131 -1347 1631 -1347 
Q 1038 -1347 672 -1080 
Q 306 -813 319 -275 
z
M 784 1719 
Q 784 1066 1043 766 
Q 1303 466 1694 466 
Q 2081 466 2343 764 
Q 2606 1063 2606 1700 
Q 2606 2309 2336 2618 
Q 2066 2928 1684 2928 
Q 1309 2928 1046 2623 
Q 784 2319 784 1719 
z
" transform="scale(0.015625)"/>
     </defs>
     <use xlink:href="#ArialMT-42"/>
     <use xlink:href="#ArialMT-69" x="66.699219"/>
     <use xlink:href="#ArialMT-72" x="88.916016"/>
     <use xlink:href="#ArialMT-64" x="122.216797"/>
     <use xlink:href="#ArialMT-20" x="177.832031"/>
     <use xlink:href="#ArialMT-76" x="205.615234"/>
     <use xlink:href="#ArialMT-73" x="255.615234"/>
     <use xlink:href="#ArialMT-2e" x="305.615234"/>
     <use xlink:href="#ArialMT-20" x="333.398438"/>
     <use xlink:href="#ArialMT-43" x="361.181641"/>
     <use xlink:href="#ArialMT-61" x="433.398438"/>
     <use xlink:href="#ArialMT-74" x="489.013672"/>
     <use xlink:href="#ArialMT-20" x="516.796875"/>
     <use xlink:href="#ArialMT-2d" x="544.580078"/>
     <use xlink:href="#ArialMT-20" x="577.880859"/>
     <use xlink:href="#ArialMT-44" x="605.664062"/>
     <use xlink:href="#ArialMT-65" x="677.880859"/>
     <use xlink:href="#ArialMT-65" x="733.496094"/>
     <use xlink:href="#ArialMT-72" x="789.111328"/>
     <use xlink:href="#ArialMT-20" x="822.412109"/>
     <use xlink:href="#ArialMT-76" x="850.195312"/>
     <use xlink:href="#ArialMT-73" x="900.195312"/>
     <use xlink:href="#ArialMT-2e" x="950.195312"/>
     <use xlink:href="#ArialMT-20" x="977.978516"/>
     <use xlink:href="#ArialMT-44" x="1005.761719"/>
     <use xlink:href="#ArialMT-6f" x="1077.978516"/>
     <use xlink:href="#ArialMT-67" x="1133.59375"/>
    </g>
   </g>
   <g id="legend_1">
    <g id="patch_7">
     <path d="M 512.122727 62.769844 
L 553.439759 62.769844 
Q 555.639759 62.769844 555.639759 60.569844 
L 555.639759 29.635625 
Q 555.639759 27.435625 553.439759 27.435625 
L 512.122727 27.435625 
Q 509.922727 27.435625 509.922727 29.635625 
L 509.922727 60.569844 
Q 509.922727 62.769844 512.122727 62.769844 
z
" style="fill: #eaeaf2; opacity: 0.8; stroke: #cccccc; stroke-linejoin: miter"/>
    </g>
    <g id="text_21">
     <!-- Task -->
     <g style="fill: #262626" transform="translate(520.447493 40.425)scale(0.12 -0.12)">
      <defs>
       <path id="ArialMT-54" d="M 1659 0 
L 1659 4041 
L 150 4041 
L 150 4581 
L 3781 4581 
L 3781 4041 
L 2266 4041 
L 2266 0 
L 1659 0 
z
" transform="scale(0.015625)"/>
       <path id="ArialMT-6b" d="M 425 0 
L 425 4581 
L 988 4581 
L 988 1969 
L 2319 3319 
L 3047 3319 
L 1778 2088 
L 3175 0 
L 2481 0 
L 1384 1697 
L 988 1316 
L 988 0 
L 425 0 
z
" transform="scale(0.015625)"/>
      </defs>
      <use xlink:href="#ArialMT-54"/>
      <use xlink:href="#ArialMT-61" x="49.958984"/>
      <use xlink:href="#ArialMT-73" x="105.574219"/>
      <use xlink:href="#ArialMT-6b" x="155.574219"/>
     </g>
    </g>
    <g id="line2d_20">
     <path d="M 514.322727 52.333594 
L 525.322727 52.333594 
L 536.322727 52.333594 
" style="fill: none; stroke: #4c72b0; stroke-width: 1.5; stroke-linecap: round"/>
    </g>
    <g id="text_22">
     <!-- 0 -->
     <g style="fill: #262626" transform="translate(545.122727 56.183594)scale(0.11 -0.11)">
      <use xlink:href="#ArialMT-30"/>
     </g>
    </g>
   </g>
  </g>
  <g id="axes_2">
   <g id="patch_8">
    <path d="M 662.594304 565.535625 
L 1169.867031 565.535625 
L 1169.867031 21.935625 
L 662.594304 21.935625 
z
" style="fill: #eaeaf2"/>
   </g>
   <g id="matplotlib.axis_3">
    <g id="xtick_10">
     <g id="line2d_21">
      <path d="M 662.594304 565.535625 
L 662.594304 21.935625 
" clip-path="url(#p5560ad8d58)" style="fill: none; stroke: #ffffff; stroke-linecap: round"/>
     </g>
     <g id="text_23">
      <!-- 0 -->
      <g style="fill: #262626" transform="translate(659.535788 582.909219)scale(0.11 -0.11)">
       <use xlink:href="#ArialMT-30"/>
      </g>
     </g>
    </g>
    <g id="xtick_11">
     <g id="line2d_22">
      <path d="M 726.003395 565.535625 
L 726.003395 21.935625 
" clip-path="url(#p5560ad8d58)" style="fill: none; stroke: #ffffff; stroke-linecap: round"/>
     </g>
     <g id="text_24">
      <!-- 5 -->
      <g style="fill: #262626" transform="translate(722.944879 582.909219)scale(0.11 -0.11)">
       <use xlink:href="#ArialMT-35"/>
      </g>
     </g>
    </g>
    <g id="xtick_12">
     <g id="line2d_23">
      <path d="M 789.412486 565.535625 
L 789.412486 21.935625 
" clip-path="url(#p5560ad8d58)" style="fill: none; stroke: #ffffff; stroke-linecap: round"/>
     </g>
     <g id="text_25">
      <!-- 10 -->
      <g style="fill: #262626" transform="translate(783.295455 582.909219)scale(0.11 -0.11)">
       <use xlink:href="#ArialMT-31"/>
       <use xlink:href="#ArialMT-30" x="55.615234"/>
      </g>
     </g>
    </g>
    <g id="xtick_13">
     <g id="line2d_24">
      <path d="M 852.821577 565.535625 
L 852.821577 21.935625 
" clip-path="url(#p5560ad8d58)" style="fill: none; stroke: #ffffff; stroke-linecap: round"/>
     </g>
     <g id="text_26">
      <!-- 15 -->
      <g style="fill: #262626" transform="translate(846.704545 582.909219)scale(0.11 -0.11)">
       <use xlink:href="#ArialMT-31"/>
       <use xlink:href="#ArialMT-35" x="55.615234"/>
      </g>
     </g>
    </g>
    <g id="xtick_14">
     <g id="line2d_25">
      <path d="M 916.230668 565.535625 
L 916.230668 21.935625 
" clip-path="url(#p5560ad8d58)" style="fill: none; stroke: #ffffff; stroke-linecap: round"/>
     </g>
     <g id="text_27">
      <!-- 20 -->
      <g style="fill: #262626" transform="translate(910.113636 582.909219)scale(0.11 -0.11)">
       <use xlink:href="#ArialMT-32"/>
       <use xlink:href="#ArialMT-30" x="55.615234"/>
      </g>
     </g>
    </g>
    <g id="xtick_15">
     <g id="line2d_26">
      <path d="M 979.639759 565.535625 
L 979.639759 21.935625 
" clip-path="url(#p5560ad8d58)" style="fill: none; stroke: #ffffff; stroke-linecap: round"/>
     </g>
     <g id="text_28">
      <!-- 25 -->
      <g style="fill: #262626" transform="translate(973.522727 582.909219)scale(0.11 -0.11)">
       <use xlink:href="#ArialMT-32"/>
       <use xlink:href="#ArialMT-35" x="55.615234"/>
      </g>
     </g>
    </g>
    <g id="xtick_16">
     <g id="line2d_27">
      <path d="M 1043.048849 565.535625 
L 1043.048849 21.935625 
" clip-path="url(#p5560ad8d58)" style="fill: none; stroke: #ffffff; stroke-linecap: round"/>
     </g>
     <g id="text_29">
      <!-- 30 -->
      <g style="fill: #262626" transform="translate(1036.931818 582.909219)scale(0.11 -0.11)">
       <use xlink:href="#ArialMT-33"/>
       <use xlink:href="#ArialMT-30" x="55.615234"/>
      </g>
     </g>
    </g>
    <g id="xtick_17">
     <g id="line2d_28">
      <path d="M 1106.45794 565.535625 
L 1106.45794 21.935625 
" clip-path="url(#p5560ad8d58)" style="fill: none; stroke: #ffffff; stroke-linecap: round"/>
     </g>
     <g id="text_30">
      <!-- 35 -->
      <g style="fill: #262626" transform="translate(1100.340909 582.909219)scale(0.11 -0.11)">
       <use xlink:href="#ArialMT-33"/>
       <use xlink:href="#ArialMT-35" x="55.615234"/>
      </g>
     </g>
    </g>
    <g id="xtick_18">
     <g id="line2d_29">
      <path d="M 1169.867031 565.535625 
L 1169.867031 21.935625 
" clip-path="url(#p5560ad8d58)" style="fill: none; stroke: #ffffff; stroke-linecap: round"/>
     </g>
     <g id="text_31">
      <!-- 40 -->
      <g style="fill: #262626" transform="translate(1163.75 582.909219)scale(0.11 -0.11)">
       <use xlink:href="#ArialMT-34"/>
       <use xlink:href="#ArialMT-30" x="55.615234"/>
      </g>
     </g>
    </g>
    <g id="text_32">
     <!-- $m/n, n=100$ -->
     <g style="fill: #262626" transform="translate(878.850668 597.684844)scale(0.12 -0.12)">
      <use xlink:href="#DejaVuSans-Oblique-6d" transform="translate(0 0.78125)"/>
      <use xlink:href="#DejaVuSans-2f" transform="translate(97.412109 0.78125)"/>
      <use xlink:href="#DejaVuSans-Oblique-6e" transform="translate(131.103516 0.78125)"/>
      <use xlink:href="#DejaVuSans-2c" transform="translate(194.482422 0.78125)"/>
      <use xlink:href="#DejaVuSans-Oblique-6e" transform="translate(245.751953 0.78125)"/>
      <use xlink:href="#DejaVuSans-3d" transform="translate(328.613281 0.78125)"/>
      <use xlink:href="#DejaVuSans-31" transform="translate(431.884766 0.78125)"/>
      <use xlink:href="#DejaVuSans-30" transform="translate(495.507812 0.78125)"/>
      <use xlink:href="#DejaVuSans-30" transform="translate(559.130859 0.78125)"/>
     </g>
    </g>
   </g>
   <g id="matplotlib.axis_4">
    <g id="ytick_9">
     <g id="line2d_30">
      <path d="M 662.594304 565.535625 
L 1169.867031 565.535625 
" clip-path="url(#p5560ad8d58)" style="fill: none; stroke: #ffffff; stroke-linecap: round"/>
     </g>
     <g id="text_33">
      <!-- 0.32 -->
      <g style="fill: #262626" transform="translate(631.687273 569.472422)scale(0.11 -0.11)">
       <use xlink:href="#ArialMT-30"/>
       <use xlink:href="#ArialMT-2e" x="55.615234"/>
       <use xlink:href="#ArialMT-33" x="83.398438"/>
       <use xlink:href="#ArialMT-32" x="139.013672"/>
      </g>
     </g>
    </g>
    <g id="ytick_10">
     <g id="line2d_31">
      <path d="M 662.594304 487.878482 
L 1169.867031 487.878482 
" clip-path="url(#p5560ad8d58)" style="fill: none; stroke: #ffffff; stroke-linecap: round"/>
     </g>
     <g id="text_34">
      <!-- 0.33 -->
      <g style="fill: #262626" transform="translate(631.687273 491.815279)scale(0.11 -0.11)">
       <use xlink:href="#ArialMT-30"/>
       <use xlink:href="#ArialMT-2e" x="55.615234"/>
       <use xlink:href="#ArialMT-33" x="83.398438"/>
       <use xlink:href="#ArialMT-33" x="139.013672"/>
      </g>
     </g>
    </g>
    <g id="ytick_11">
     <g id="line2d_32">
      <path d="M 662.594304 410.221339 
L 1169.867031 410.221339 
" clip-path="url(#p5560ad8d58)" style="fill: none; stroke: #ffffff; stroke-linecap: round"/>
     </g>
     <g id="text_35">
      <!-- 0.34 -->
      <g style="fill: #262626" transform="translate(631.687273 414.158136)scale(0.11 -0.11)">
       <use xlink:href="#ArialMT-30"/>
       <use xlink:href="#ArialMT-2e" x="55.615234"/>
       <use xlink:href="#ArialMT-33" x="83.398438"/>
       <use xlink:href="#ArialMT-34" x="139.013672"/>
      </g>
     </g>
    </g>
    <g id="ytick_12">
     <g id="line2d_33">
      <path d="M 662.594304 332.564196 
L 1169.867031 332.564196 
" clip-path="url(#p5560ad8d58)" style="fill: none; stroke: #ffffff; stroke-linecap: round"/>
     </g>
     <g id="text_36">
      <!-- 0.35 -->
      <g style="fill: #262626" transform="translate(631.687273 336.500993)scale(0.11 -0.11)">
       <use xlink:href="#ArialMT-30"/>
       <use xlink:href="#ArialMT-2e" x="55.615234"/>
       <use xlink:href="#ArialMT-33" x="83.398438"/>
       <use xlink:href="#ArialMT-35" x="139.013672"/>
      </g>
     </g>
    </g>
    <g id="ytick_13">
     <g id="line2d_34">
      <path d="M 662.594304 254.907054 
L 1169.867031 254.907054 
" clip-path="url(#p5560ad8d58)" style="fill: none; stroke: #ffffff; stroke-linecap: round"/>
     </g>
     <g id="text_37">
      <!-- 0.36 -->
      <g style="fill: #262626" transform="translate(631.687273 258.84385)scale(0.11 -0.11)">
       <use xlink:href="#ArialMT-30"/>
       <use xlink:href="#ArialMT-2e" x="55.615234"/>
       <use xlink:href="#ArialMT-33" x="83.398438"/>
       <use xlink:href="#ArialMT-36" x="139.013672"/>
      </g>
     </g>
    </g>
    <g id="ytick_14">
     <g id="line2d_35">
      <path d="M 662.594304 177.249911 
L 1169.867031 177.249911 
" clip-path="url(#p5560ad8d58)" style="fill: none; stroke: #ffffff; stroke-linecap: round"/>
     </g>
     <g id="text_38">
      <!-- 0.37 -->
      <g style="fill: #262626" transform="translate(631.687273 181.186708)scale(0.11 -0.11)">
       <use xlink:href="#ArialMT-30"/>
       <use xlink:href="#ArialMT-2e" x="55.615234"/>
       <use xlink:href="#ArialMT-33" x="83.398438"/>
       <use xlink:href="#ArialMT-37" x="139.013672"/>
      </g>
     </g>
    </g>
    <g id="ytick_15">
     <g id="line2d_36">
      <path d="M 662.594304 99.592768 
L 1169.867031 99.592768 
" clip-path="url(#p5560ad8d58)" style="fill: none; stroke: #ffffff; stroke-linecap: round"/>
     </g>
     <g id="text_39">
      <!-- 0.38 -->
      <g style="fill: #262626" transform="translate(631.687273 103.529565)scale(0.11 -0.11)">
       <use xlink:href="#ArialMT-30"/>
       <use xlink:href="#ArialMT-2e" x="55.615234"/>
       <use xlink:href="#ArialMT-33" x="83.398438"/>
       <use xlink:href="#ArialMT-38" x="139.013672"/>
      </g>
     </g>
    </g>
    <g id="ytick_16">
     <g id="line2d_37">
      <path d="M 662.594304 21.935625 
L 1169.867031 21.935625 
" clip-path="url(#p5560ad8d58)" style="fill: none; stroke: #ffffff; stroke-linecap: round"/>
     </g>
     <g id="text_40">
      <!-- 0.39 -->
      <g style="fill: #262626" transform="translate(631.687273 25.872422)scale(0.11 -0.11)">
       <use xlink:href="#ArialMT-30"/>
       <use xlink:href="#ArialMT-2e" x="55.615234"/>
       <use xlink:href="#ArialMT-33" x="83.398438"/>
       <use xlink:href="#ArialMT-39" x="139.013672"/>
      </g>
     </g>
    </g>
    <g id="text_41">
     <!-- $L_{m, n, \alpha}$ -->
     <g style="fill: #262626" transform="translate(624.687273 311.075625)rotate(-90)scale(0.12 -0.12)">
      <defs>
       <path id="DejaVuSans-Oblique-3b1" d="M 2619 1628 
L 2622 2350 
Q 2625 3088 2069 3091 
Q 1653 3094 1394 2747 
Q 1069 2319 959 1747 
Q 825 1059 994 731 
Q 1169 397 1547 397 
Q 1966 397 2319 1063 
L 2619 1628 
z
M 2166 3578 
Q 3141 3594 3128 2584 
Q 3128 2584 3616 3500 
L 4128 3500 
L 3119 1603 
L 3109 919 
Q 3109 766 3194 638 
Q 3291 488 3391 488 
L 3669 488 
L 3575 0 
L 3228 0 
Q 2934 0 2722 263 
Q 2622 394 2619 669 
Q 2416 334 2066 50 
Q 1900 -81 1453 -78 
Q 722 -72 456 397 
Q 184 884 353 1747 
Q 534 2675 1009 3097 
Q 1544 3569 2166 3578 
z
" transform="scale(0.015625)"/>
      </defs>
      <use xlink:href="#DejaVuSans-Oblique-4c" transform="translate(0 0.09375)"/>
      <use xlink:href="#DejaVuSans-Oblique-6d" transform="translate(55.712891 -16.3125)scale(0.7)"/>
      <use xlink:href="#DejaVuSans-2c" transform="translate(123.901367 -16.3125)scale(0.7)"/>
      <use xlink:href="#DejaVuSans-Oblique-6e" transform="translate(159.790039 -16.3125)scale(0.7)"/>
      <use xlink:href="#DejaVuSans-2c" transform="translate(204.155273 -16.3125)scale(0.7)"/>
      <use xlink:href="#DejaVuSans-Oblique-3b1" transform="translate(240.043945 -16.3125)scale(0.7)"/>
     </g>
    </g>
   </g>
   <g id="line2d_38">
    <path d="M 662.594304 243.258482 
L 693.320215 608.269844 
M 703.791604 608.269844 
L 726.003395 581.067054 
L 757.70794 483.995625 
L 789.412486 406.338482 
L 821.117031 417.987054 
L 852.821577 383.041339 
L 916.230668 200.547054 
L 1043.048849 223.844196 
L 1169.867031 243.258482 
" clip-path="url(#p5560ad8d58)" style="fill: none; stroke: #000000; stroke-opacity: 0.5; stroke-width: 0.7; stroke-linecap: round"/>
   </g>
   <g id="line2d_39">
    <path d="M 662.594304 472.347054 
L 694.298849 421.869911 
L 726.003395 507.292768 
L 757.70794 515.058482 
L 789.412486 379.158482 
L 821.117031 410.221339 
L 852.821577 363.627054 
L 916.230668 204.429911 
L 1043.048849 64.647054 
L 1169.867031 227.727054 
" clip-path="url(#p5560ad8d58)" style="fill: none; stroke: #000000; stroke-opacity: 0.5; stroke-width: 0.7; stroke-linecap: round"/>
   </g>
   <g id="line2d_40">
    <path d="M 662.594304 402.455625 
L 694.298849 565.535625 
L 726.003395 507.292768 
L 757.70794 538.355625 
L 789.412486 344.212768 
L 821.117031 456.815625 
L 852.821577 344.212768 
L 916.230668 235.492768 
L 1043.048849 278.204196 
L 1169.867031 204.429911 
" clip-path="url(#p5560ad8d58)" style="fill: none; stroke: #000000; stroke-opacity: 0.5; stroke-width: 0.7; stroke-linecap: round"/>
   </g>
   <g id="line2d_41">
    <path d="M 662.594304 518.941339 
L 694.298849 464.581339 
L 726.003395 449.049911 
L 757.70794 402.455625 
L 789.412486 452.932768 
L 821.117031 375.275625 
L 852.821577 410.221339 
L 916.230668 181.132768 
L 1043.048849 274.321339 
L 1169.867031 208.312768 
" clip-path="url(#p5560ad8d58)" style="fill: none; stroke: #000000; stroke-opacity: 0.5; stroke-width: 0.7; stroke-linecap: round"/>
   </g>
   <g id="line2d_42">
    <path d="M 662.594304 317.032768 
L 694.298849 522.824196 
L 726.003395 499.527054 
L 757.70794 390.807054 
L 789.412486 449.049911 
L 821.117031 344.212768 
L 852.821577 317.032768 
L 916.230668 216.078482 
L 1043.048849 204.429911 
L 1169.867031 219.961339 
" clip-path="url(#p5560ad8d58)" style="fill: none; stroke: #000000; stroke-opacity: 0.5; stroke-width: 0.7; stroke-linecap: round"/>
   </g>
   <g id="line2d_43">
    <path d="M 662.594304 483.995625 
L 694.298849 561.652768 
L 726.003395 445.167054 
L 757.70794 410.221339 
L 789.412486 499.527054 
L 821.117031 375.275625 
L 852.821577 375.275625 
L 916.230668 239.375625 
L 1043.048849 188.898482 
L 1169.867031 185.015625 
" clip-path="url(#p5560ad8d58)" style="fill: none; stroke: #000000; stroke-opacity: 0.5; stroke-width: 0.7; stroke-linecap: round"/>
   </g>
   <g id="line2d_44">
    <path d="M 662.594304 297.618482 
L 694.298849 553.887054 
L 726.003395 487.878482 
L 757.70794 499.527054 
L 789.412486 398.572768 
L 821.117031 367.509911 
L 852.821577 309.267054 
L 916.230668 239.375625 
L 1043.048849 251.024196 
L 1169.867031 289.852768 
" clip-path="url(#p5560ad8d58)" style="fill: none; stroke: #000000; stroke-opacity: 0.5; stroke-width: 0.7; stroke-linecap: round"/>
   </g>
   <g id="line2d_45">
    <path d="M 662.594304 208.312768 
L 694.298849 515.058482 
L 726.003395 542.238482 
L 757.70794 550.004196 
L 789.412486 367.509911 
L 821.117031 460.698482 
L 852.821577 452.932768 
L 916.230668 239.375625 
L 1043.048849 185.015625 
L 1169.867031 320.915625 
" clip-path="url(#p5560ad8d58)" style="fill: none; stroke: #000000; stroke-opacity: 0.5; stroke-width: 0.7; stroke-linecap: round"/>
   </g>
   <g id="line2d_46">
    <path d="M 662.594304 320.915625 
L 694.298849 511.175625 
L 726.003395 557.769911 
L 757.70794 437.401339 
L 789.412486 421.869911 
L 821.117031 441.284196 
L 852.821577 367.509911 
L 916.230668 278.204196 
L 1043.048849 243.258482 
L 1169.867031 212.195625 
" clip-path="url(#p5560ad8d58)" style="fill: none; stroke: #000000; stroke-opacity: 0.5; stroke-width: 0.7; stroke-linecap: round"/>
   </g>
   <g id="line2d_47">
    <path d="M 662.594304 456.815625 
L 694.298849 534.472768 
L 726.003395 476.229911 
L 757.70794 526.707054 
L 789.412486 480.112768 
L 821.117031 491.761339 
L 852.821577 375.275625 
L 916.230668 204.429911 
L 1043.048849 153.952768 
L 1169.867031 115.124196 
" clip-path="url(#p5560ad8d58)" style="fill: none; stroke: #000000; stroke-opacity: 0.5; stroke-width: 0.7; stroke-linecap: round"/>
   </g>
   <g id="line2d_48">
    <path d="M 662.594304 348.095625 
L 694.298849 557.769911 
L 726.003395 410.221339 
L 757.70794 452.932768 
L 789.412486 410.221339 
L 821.117031 429.635625 
L 852.821577 367.509911 
L 916.230668 262.672768 
L 1043.048849 235.492768 
L 1169.867031 320.915625 
" clip-path="url(#p5560ad8d58)" style="fill: none; stroke: #000000; stroke-opacity: 0.5; stroke-width: 0.7; stroke-linecap: round"/>
   </g>
   <g id="line2d_49">
    <path d="M 662.594304 285.969911 
L 694.298849 417.987054 
L 726.003395 421.869911 
L 757.70794 522.824196 
L 789.412486 429.635625 
L 821.117031 386.924196 
L 852.821577 340.329911 
L 916.230668 313.149911 
L 1043.048849 258.789911 
L 1169.867031 371.392768 
" clip-path="url(#p5560ad8d58)" style="fill: none; stroke: #000000; stroke-opacity: 0.5; stroke-width: 0.7; stroke-linecap: round"/>
   </g>
   <g id="line2d_50">
    <path d="M 662.594304 375.275625 
L 694.298849 410.221339 
L 726.003395 414.104196 
L 757.70794 472.347054 
L 789.412486 456.815625 
L 821.117031 355.861339 
L 852.821577 379.158482 
L 916.230668 204.429911 
L 1043.048849 169.484196 
L 1169.867031 115.124196 
" clip-path="url(#p5560ad8d58)" style="fill: none; stroke: #000000; stroke-opacity: 0.5; stroke-width: 0.7; stroke-linecap: round"/>
   </g>
   <g id="line2d_51">
    <path d="M 662.594304 406.338482 
L 694.298849 573.301339 
L 726.003395 557.769911 
L 757.70794 425.752768 
L 789.412486 348.095625 
L 821.117031 414.104196 
L 852.821577 336.447054 
L 916.230668 185.015625 
L 1043.048849 192.781339 
L 1169.867031 181.132768 
" clip-path="url(#p5560ad8d58)" style="fill: none; stroke: #000000; stroke-opacity: 0.5; stroke-width: 0.7; stroke-linecap: round"/>
   </g>
   <g id="line2d_52">
    <path d="M 662.594304 363.627054 
L 694.298849 542.238482 
L 726.003395 600.481339 
L 757.70794 383.041339 
L 789.412486 499.527054 
L 821.117031 394.689911 
L 852.821577 367.509911 
L 916.230668 227.727054 
L 1043.048849 212.195625 
L 1169.867031 165.601339 
" clip-path="url(#p5560ad8d58)" style="fill: none; stroke: #000000; stroke-opacity: 0.5; stroke-width: 0.7; stroke-linecap: round"/>
   </g>
   <g id="line2d_53">
    <path d="M 662.594304 394.689911 
L 694.298849 414.104196 
L 726.003395 530.589911 
L 757.70794 421.869911 
L 789.412486 398.572768 
L 821.117031 441.284196 
L 852.821577 383.041339 
L 916.230668 196.664196 
L 1043.048849 138.421339 
L 1169.867031 320.915625 
" clip-path="url(#p5560ad8d58)" style="fill: none; stroke: #000000; stroke-opacity: 0.5; stroke-width: 0.7; stroke-linecap: round"/>
   </g>
   <g id="line2d_54">
    <path d="M 662.594304 324.798482 
L 694.298849 526.707054 
L 726.003395 542.238482 
L 757.70794 476.229911 
L 789.412486 344.212768 
L 821.117031 425.752768 
L 852.821577 320.915625 
L 916.230668 192.781339 
L 1043.048849 293.735625 
L 1169.867031 153.952768 
" clip-path="url(#p5560ad8d58)" style="fill: none; stroke: #000000; stroke-opacity: 0.5; stroke-width: 0.7; stroke-linecap: round"/>
   </g>
   <g id="line2d_55">
    <path d="M 662.594304 359.744196 
L 694.298849 588.832768 
L 726.003395 515.058482 
L 757.70794 561.652768 
L 789.412486 480.112768 
L 821.117031 402.455625 
L 852.821577 472.347054 
L 916.230668 309.267054 
L 1043.048849 278.204196 
L 1169.867031 227.727054 
" clip-path="url(#p5560ad8d58)" style="fill: none; stroke: #000000; stroke-opacity: 0.5; stroke-width: 0.7; stroke-linecap: round"/>
   </g>
   <g id="line2d_56">
    <path d="M 662.594304 317.032768 
L 694.298849 425.752768 
L 726.003395 553.887054 
L 757.70794 445.167054 
L 789.412486 445.167054 
L 821.117031 402.455625 
L 852.821577 433.518482 
L 916.230668 270.438482 
L 1043.048849 262.672768 
L 1169.867031 282.087054 
" clip-path="url(#p5560ad8d58)" style="fill: none; stroke: #000000; stroke-opacity: 0.5; stroke-width: 0.7; stroke-linecap: round"/>
   </g>
   <g id="line2d_57">
    <path d="M 662.594304 546.121339 
L 694.298849 538.355625 
L 726.003395 573.301339 
L 757.70794 476.229911 
L 789.412486 472.347054 
L 821.117031 499.527054 
L 852.821577 309.267054 
L 916.230668 355.861339 
L 1043.048849 219.961339 
L 1169.867031 247.141339 
" clip-path="url(#p5560ad8d58)" style="fill: none; stroke: #000000; stroke-opacity: 0.5; stroke-width: 0.7; stroke-linecap: round"/>
   </g>
   <g id="line2d_58">
    <path d="M 662.594304 372.169339 
L 694.298849 513.311196 
L 726.003395 508.651768 
L 757.70794 469.629054 
L 789.412486 424.199625 
L 821.117031 414.686625 
L 852.821577 370.422054 
L 916.230668 237.822482 
L 1043.048849 216.466768 
L 1169.867031 230.639196 
" clip-path="url(#p5560ad8d58)" style="fill: none; stroke: #c44e52; stroke-width: 3; stroke-linecap: round"/>
   </g>
   <g id="LineCollection_1">
    <path d="M 662.594304 412.361764 
L 662.594304 335.864625 
" clip-path="url(#p5560ad8d58)" style="fill: none; stroke: #c44e52; stroke-width: 1.5; stroke-linecap: round"/>
    <path d="M 694.298849 541.660907 
L 694.298849 482.631771 
" clip-path="url(#p5560ad8d58)" style="fill: none; stroke: #c44e52; stroke-width: 1.5; stroke-linecap: round"/>
    <path d="M 726.003395 532.919625 
L 726.003395 483.995625 
" clip-path="url(#p5560ad8d58)" style="fill: none; stroke: #c44e52; stroke-width: 1.5; stroke-linecap: round"/>
    <path d="M 757.70794 496.037336 
L 757.70794 445.943625 
" clip-path="url(#p5560ad8d58)" style="fill: none; stroke: #c44e52; stroke-width: 1.5; stroke-linecap: round"/>
    <path d="M 789.412486 446.341618 
L 789.412486 401.484911 
" clip-path="url(#p5560ad8d58)" style="fill: none; stroke: #c44e52; stroke-width: 1.5; stroke-linecap: round"/>
    <path d="M 821.117031 431.975046 
L 821.117031 396.820629 
" clip-path="url(#p5560ad8d58)" style="fill: none; stroke: #c44e52; stroke-width: 1.5; stroke-linecap: round"/>
    <path d="M 852.821577 390.807054 
L 852.821577 352.366768 
" clip-path="url(#p5560ad8d58)" style="fill: none; stroke: #c44e52; stroke-width: 1.5; stroke-linecap: round"/>
    <path d="M 916.230668 259.382046 
L 916.230668 219.378911 
" clip-path="url(#p5560ad8d58)" style="fill: none; stroke: #c44e52; stroke-width: 1.5; stroke-linecap: round"/>
    <path d="M 1043.048849 238.016625 
L 1043.048849 190.830204 
" clip-path="url(#p5560ad8d58)" style="fill: none; stroke: #c44e52; stroke-width: 1.5; stroke-linecap: round"/>
    <path d="M 1169.867031 260.925482 
L 1169.867031 201.896346 
" clip-path="url(#p5560ad8d58)" style="fill: none; stroke: #c44e52; stroke-width: 1.5; stroke-linecap: round"/>
   </g>
   <g id="line2d_59"/>
   <g id="patch_9">
    <path d="M 662.594304 565.535625 
L 662.594304 21.935625 
" style="fill: none; stroke: #ffffff; stroke-width: 1.25; stroke-linejoin: miter; stroke-linecap: square"/>
   </g>
   <g id="patch_10">
    <path d="M 1169.867031 565.535625 
L 1169.867031 21.935625 
" style="fill: none; stroke: #ffffff; stroke-width: 1.25; stroke-linejoin: miter; stroke-linecap: square"/>
   </g>
   <g id="patch_11">
    <path d="M 662.594304 565.535625 
L 1169.867031 565.535625 
" style="fill: none; stroke: #ffffff; stroke-width: 1.25; stroke-linejoin: miter; stroke-linecap: square"/>
   </g>
   <g id="patch_12">
    <path d="M 662.594304 21.935625 
L 1169.867031 21.935625 
" style="fill: none; stroke: #ffffff; stroke-width: 1.25; stroke-linejoin: miter; stroke-linecap: square"/>
   </g>
   <g id="text_42">
    <!-- Bird vs. Cat - Deer vs. Dog -->
    <g style="fill: #262626" transform="translate(844.881293 15.935625)scale(0.12 -0.12)">
     <use xlink:href="#ArialMT-42"/>
     <use xlink:href="#ArialMT-69" x="66.699219"/>
     <use xlink:href="#ArialMT-72" x="88.916016"/>
     <use xlink:href="#ArialMT-64" x="122.216797"/>
     <use xlink:href="#ArialMT-20" x="177.832031"/>
     <use xlink:href="#ArialMT-76" x="205.615234"/>
     <use xlink:href="#ArialMT-73" x="255.615234"/>
     <use xlink:href="#ArialMT-2e" x="305.615234"/>
     <use xlink:href="#ArialMT-20" x="333.398438"/>
     <use xlink:href="#ArialMT-43" x="361.181641"/>
     <use xlink:href="#ArialMT-61" x="433.398438"/>
     <use xlink:href="#ArialMT-74" x="489.013672"/>
     <use xlink:href="#ArialMT-20" x="516.796875"/>
     <use xlink:href="#ArialMT-2d" x="544.580078"/>
     <use xlink:href="#ArialMT-20" x="577.880859"/>
     <use xlink:href="#ArialMT-44" x="605.664062"/>
     <use xlink:href="#ArialMT-65" x="677.880859"/>
     <use xlink:href="#ArialMT-65" x="733.496094"/>
     <use xlink:href="#ArialMT-72" x="789.111328"/>
     <use xlink:href="#ArialMT-20" x="822.412109"/>
     <use xlink:href="#ArialMT-76" x="850.195312"/>
     <use xlink:href="#ArialMT-73" x="900.195312"/>
     <use xlink:href="#ArialMT-2e" x="950.195312"/>
     <use xlink:href="#ArialMT-20" x="977.978516"/>
     <use xlink:href="#ArialMT-44" x="1005.761719"/>
     <use xlink:href="#ArialMT-6f" x="1077.978516"/>
     <use xlink:href="#ArialMT-67" x="1133.59375"/>
    </g>
   </g>
  </g>
 </g>
 <defs>
  <clipPath id="p1d26b8792b">
   <rect x="53.867031" y="21.935625" width="507.272727" height="543.6"/>
  </clipPath>
  <clipPath id="p5560ad8d58">
   <rect x="662.594304" y="21.935625" width="507.272727" height="543.6"/>
  </clipPath>
 </defs>
</svg>
