<?xml version="1.0" encoding="utf-8" standalone="no"?>
<!DOCTYPE svg PUBLIC "-//W3C//DTD SVG 1.1//EN"
  "http://www.w3.org/Graphics/SVG/1.1/DTD/svg11.dtd">
<svg xmlns:xlink="http://www.w3.org/1999/xlink" width="1183.184062pt" height="607.269844pt" viewBox="0 0 1183.184062 607.269844" xmlns="http://www.w3.org/2000/svg" version="1.1">
 <metadata>
  <rdf:RDF xmlns:dc="http://purl.org/dc/elements/1.1/" xmlns:cc="http://creativecommons.org/ns#" xmlns:rdf="http://www.w3.org/1999/02/22-rdf-syntax-ns#">
   <cc:Work>
    <dc:type rdf:resource="http://purl.org/dc/dcmitype/StillImage"/>
    <dc:date>2022-03-24T15:33:42.838403</dc:date>
    <dc:format>image/svg+xml</dc:format>
    <dc:creator>
     <cc:Agent>
      <dc:title>Matplotlib v3.5.1, https://matplotlib.org/</dc:title>
     </cc:Agent>
    </dc:creator>
   </cc:Work>
  </rdf:RDF>
 </metadata>
 <defs>
  <style type="text/css">*{stroke-linejoin: round; stroke-linecap: butt}</style>
 </defs>
 <g id="figure_1">
  <g id="patch_1">
   <path d="M 0 607.269844 
L 1183.184062 607.269844 
L 1183.184062 0 
L 0 0 
z
" style="fill: #ffffff"/>
  </g>
  <g id="axes_1">
   <g id="patch_2">
    <path d="M 53.867031 565.535625 
L 561.139759 565.535625 
L 561.139759 21.935625 
L 53.867031 21.935625 
z
" style="fill: #eaeaf2"/>
   </g>
   <g id="matplotlib.axis_1">
    <g id="xtick_1">
     <g id="line2d_1">
      <path d="M 53.867031 565.535625 
L 53.867031 21.935625 
" clip-path="url(#pa7a8bb8fa0)" style="fill: none; stroke: #ffffff; stroke-linecap: round"/>
     </g>
     <g id="text_1">
      <!-- 0 -->
      <g style="fill: #262626" transform="translate(50.808516 582.909219)scale(0.11 -0.11)">
       <defs>
        <path id="ArialMT-30" d="M 266 2259 
Q 266 3072 433 3567 
Q 600 4063 929 4331 
Q 1259 4600 1759 4600 
Q 2128 4600 2406 4451 
Q 2684 4303 2865 4023 
Q 3047 3744 3150 3342 
Q 3253 2941 3253 2259 
Q 3253 1453 3087 958 
Q 2922 463 2592 192 
Q 2263 -78 1759 -78 
Q 1097 -78 719 397 
Q 266 969 266 2259 
z
M 844 2259 
Q 844 1131 1108 757 
Q 1372 384 1759 384 
Q 2147 384 2411 759 
Q 2675 1134 2675 2259 
Q 2675 3391 2411 3762 
Q 2147 4134 1753 4134 
Q 1366 4134 1134 3806 
Q 844 3388 844 2259 
z
" transform="scale(0.015625)"/>
       </defs>
       <use xlink:href="#ArialMT-30"/>
      </g>
     </g>
    </g>
    <g id="xtick_2">
     <g id="line2d_2">
      <path d="M 117.276122 565.535625 
L 117.276122 21.935625 
" clip-path="url(#pa7a8bb8fa0)" style="fill: none; stroke: #ffffff; stroke-linecap: round"/>
     </g>
     <g id="text_2">
      <!-- 5 -->
      <g style="fill: #262626" transform="translate(114.217607 582.909219)scale(0.11 -0.11)">
       <defs>
        <path id="ArialMT-35" d="M 266 1200 
L 856 1250 
Q 922 819 1161 601 
Q 1400 384 1738 384 
Q 2144 384 2425 690 
Q 2706 997 2706 1503 
Q 2706 1984 2436 2262 
Q 2166 2541 1728 2541 
Q 1456 2541 1237 2417 
Q 1019 2294 894 2097 
L 366 2166 
L 809 4519 
L 3088 4519 
L 3088 3981 
L 1259 3981 
L 1013 2750 
Q 1425 3038 1878 3038 
Q 2478 3038 2890 2622 
Q 3303 2206 3303 1553 
Q 3303 931 2941 478 
Q 2500 -78 1738 -78 
Q 1113 -78 717 272 
Q 322 622 266 1200 
z
" transform="scale(0.015625)"/>
       </defs>
       <use xlink:href="#ArialMT-35"/>
      </g>
     </g>
    </g>
    <g id="xtick_3">
     <g id="line2d_3">
      <path d="M 180.685213 565.535625 
L 180.685213 21.935625 
" clip-path="url(#pa7a8bb8fa0)" style="fill: none; stroke: #ffffff; stroke-linecap: round"/>
     </g>
     <g id="text_3">
      <!-- 10 -->
      <g style="fill: #262626" transform="translate(174.568182 582.909219)scale(0.11 -0.11)">
       <defs>
        <path id="ArialMT-31" d="M 2384 0 
L 1822 0 
L 1822 3584 
Q 1619 3391 1289 3197 
Q 959 3003 697 2906 
L 697 3450 
Q 1169 3672 1522 3987 
Q 1875 4303 2022 4600 
L 2384 4600 
L 2384 0 
z
" transform="scale(0.015625)"/>
       </defs>
       <use xlink:href="#ArialMT-31"/>
       <use xlink:href="#ArialMT-30" x="55.615234"/>
      </g>
     </g>
    </g>
    <g id="xtick_4">
     <g id="line2d_4">
      <path d="M 244.094304 565.535625 
L 244.094304 21.935625 
" clip-path="url(#pa7a8bb8fa0)" style="fill: none; stroke: #ffffff; stroke-linecap: round"/>
     </g>
     <g id="text_4">
      <!-- 15 -->
      <g style="fill: #262626" transform="translate(237.977273 582.909219)scale(0.11 -0.11)">
       <use xlink:href="#ArialMT-31"/>
       <use xlink:href="#ArialMT-35" x="55.615234"/>
      </g>
     </g>
    </g>
    <g id="xtick_5">
     <g id="line2d_5">
      <path d="M 307.503395 565.535625 
L 307.503395 21.935625 
" clip-path="url(#pa7a8bb8fa0)" style="fill: none; stroke: #ffffff; stroke-linecap: round"/>
     </g>
     <g id="text_5">
      <!-- 20 -->
      <g style="fill: #262626" transform="translate(301.386364 582.909219)scale(0.11 -0.11)">
       <defs>
        <path id="ArialMT-32" d="M 3222 541 
L 3222 0 
L 194 0 
Q 188 203 259 391 
Q 375 700 629 1000 
Q 884 1300 1366 1694 
Q 2113 2306 2375 2664 
Q 2638 3022 2638 3341 
Q 2638 3675 2398 3904 
Q 2159 4134 1775 4134 
Q 1369 4134 1125 3890 
Q 881 3647 878 3216 
L 300 3275 
Q 359 3922 746 4261 
Q 1134 4600 1788 4600 
Q 2447 4600 2831 4234 
Q 3216 3869 3216 3328 
Q 3216 3053 3103 2787 
Q 2991 2522 2730 2228 
Q 2469 1934 1863 1422 
Q 1356 997 1212 845 
Q 1069 694 975 541 
L 3222 541 
z
" transform="scale(0.015625)"/>
       </defs>
       <use xlink:href="#ArialMT-32"/>
       <use xlink:href="#ArialMT-30" x="55.615234"/>
      </g>
     </g>
    </g>
    <g id="xtick_6">
     <g id="line2d_6">
      <path d="M 370.912486 565.535625 
L 370.912486 21.935625 
" clip-path="url(#pa7a8bb8fa0)" style="fill: none; stroke: #ffffff; stroke-linecap: round"/>
     </g>
     <g id="text_6">
      <!-- 25 -->
      <g style="fill: #262626" transform="translate(364.795455 582.909219)scale(0.11 -0.11)">
       <use xlink:href="#ArialMT-32"/>
       <use xlink:href="#ArialMT-35" x="55.615234"/>
      </g>
     </g>
    </g>
    <g id="xtick_7">
     <g id="line2d_7">
      <path d="M 434.321577 565.535625 
L 434.321577 21.935625 
" clip-path="url(#pa7a8bb8fa0)" style="fill: none; stroke: #ffffff; stroke-linecap: round"/>
     </g>
     <g id="text_7">
      <!-- 30 -->
      <g style="fill: #262626" transform="translate(428.204545 582.909219)scale(0.11 -0.11)">
       <defs>
        <path id="ArialMT-33" d="M 269 1209 
L 831 1284 
Q 928 806 1161 595 
Q 1394 384 1728 384 
Q 2125 384 2398 659 
Q 2672 934 2672 1341 
Q 2672 1728 2419 1979 
Q 2166 2231 1775 2231 
Q 1616 2231 1378 2169 
L 1441 2663 
Q 1497 2656 1531 2656 
Q 1891 2656 2178 2843 
Q 2466 3031 2466 3422 
Q 2466 3731 2256 3934 
Q 2047 4138 1716 4138 
Q 1388 4138 1169 3931 
Q 950 3725 888 3313 
L 325 3413 
Q 428 3978 793 4289 
Q 1159 4600 1703 4600 
Q 2078 4600 2393 4439 
Q 2709 4278 2876 4000 
Q 3044 3722 3044 3409 
Q 3044 3113 2884 2869 
Q 2725 2625 2413 2481 
Q 2819 2388 3044 2092 
Q 3269 1797 3269 1353 
Q 3269 753 2831 336 
Q 2394 -81 1725 -81 
Q 1122 -81 723 278 
Q 325 638 269 1209 
z
" transform="scale(0.015625)"/>
       </defs>
       <use xlink:href="#ArialMT-33"/>
       <use xlink:href="#ArialMT-30" x="55.615234"/>
      </g>
     </g>
    </g>
    <g id="xtick_8">
     <g id="line2d_8">
      <path d="M 497.730668 565.535625 
L 497.730668 21.935625 
" clip-path="url(#pa7a8bb8fa0)" style="fill: none; stroke: #ffffff; stroke-linecap: round"/>
     </g>
     <g id="text_8">
      <!-- 35 -->
      <g style="fill: #262626" transform="translate(491.613636 582.909219)scale(0.11 -0.11)">
       <use xlink:href="#ArialMT-33"/>
       <use xlink:href="#ArialMT-35" x="55.615234"/>
      </g>
     </g>
    </g>
    <g id="xtick_9">
     <g id="line2d_9">
      <path d="M 561.139759 565.535625 
L 561.139759 21.935625 
" clip-path="url(#pa7a8bb8fa0)" style="fill: none; stroke: #ffffff; stroke-linecap: round"/>
     </g>
     <g id="text_9">
      <!-- 40 -->
      <g style="fill: #262626" transform="translate(555.022727 582.909219)scale(0.11 -0.11)">
       <defs>
        <path id="ArialMT-34" d="M 2069 0 
L 2069 1097 
L 81 1097 
L 81 1613 
L 2172 4581 
L 2631 4581 
L 2631 1613 
L 3250 1613 
L 3250 1097 
L 2631 1097 
L 2631 0 
L 2069 0 
z
M 2069 1613 
L 2069 3678 
L 634 1613 
L 2069 1613 
z
" transform="scale(0.015625)"/>
       </defs>
       <use xlink:href="#ArialMT-34"/>
       <use xlink:href="#ArialMT-30" x="55.615234"/>
      </g>
     </g>
    </g>
    <g id="text_10">
     <!-- $m/n, n = 100$ -->
     <g style="fill: #262626" transform="translate(270.123395 597.684844)scale(0.12 -0.12)">
      <defs>
       <path id="DejaVuSans-Oblique-6d" d="M 5747 2113 
L 5338 0 
L 4763 0 
L 5166 2094 
Q 5191 2228 5203 2325 
Q 5216 2422 5216 2491 
Q 5216 2772 5059 2928 
Q 4903 3084 4622 3084 
Q 4203 3084 3875 2770 
Q 3547 2456 3450 1953 
L 3066 0 
L 2491 0 
L 2900 2094 
Q 2925 2209 2937 2307 
Q 2950 2406 2950 2484 
Q 2950 2769 2794 2926 
Q 2638 3084 2363 3084 
Q 1938 3084 1609 2770 
Q 1281 2456 1184 1953 
L 800 0 
L 225 0 
L 909 3500 
L 1484 3500 
L 1375 2956 
Q 1609 3263 1923 3423 
Q 2238 3584 2597 3584 
Q 2978 3584 3223 3384 
Q 3469 3184 3519 2828 
Q 3781 3197 4126 3390 
Q 4472 3584 4856 3584 
Q 5306 3584 5551 3325 
Q 5797 3066 5797 2591 
Q 5797 2488 5784 2364 
Q 5772 2241 5747 2113 
z
" transform="scale(0.015625)"/>
       <path id="DejaVuSans-2f" d="M 1625 4666 
L 2156 4666 
L 531 -594 
L 0 -594 
L 1625 4666 
z
" transform="scale(0.015625)"/>
       <path id="DejaVuSans-Oblique-6e" d="M 3566 2113 
L 3156 0 
L 2578 0 
L 2988 2091 
Q 3016 2238 3031 2350 
Q 3047 2463 3047 2528 
Q 3047 2791 2881 2937 
Q 2716 3084 2419 3084 
Q 1956 3084 1622 2776 
Q 1288 2469 1184 1941 
L 800 0 
L 225 0 
L 903 3500 
L 1478 3500 
L 1363 2950 
Q 1603 3253 1940 3418 
Q 2278 3584 2650 3584 
Q 3113 3584 3367 3334 
Q 3622 3084 3622 2631 
Q 3622 2519 3608 2391 
Q 3594 2263 3566 2113 
z
" transform="scale(0.015625)"/>
       <path id="DejaVuSans-2c" d="M 750 794 
L 1409 794 
L 1409 256 
L 897 -744 
L 494 -744 
L 750 256 
L 750 794 
z
" transform="scale(0.015625)"/>
       <path id="DejaVuSans-3d" d="M 678 2906 
L 4684 2906 
L 4684 2381 
L 678 2381 
L 678 2906 
z
M 678 1631 
L 4684 1631 
L 4684 1100 
L 678 1100 
L 678 1631 
z
" transform="scale(0.015625)"/>
       <path id="DejaVuSans-31" d="M 794 531 
L 1825 531 
L 1825 4091 
L 703 3866 
L 703 4441 
L 1819 4666 
L 2450 4666 
L 2450 531 
L 3481 531 
L 3481 0 
L 794 0 
L 794 531 
z
" transform="scale(0.015625)"/>
       <path id="DejaVuSans-30" d="M 2034 4250 
Q 1547 4250 1301 3770 
Q 1056 3291 1056 2328 
Q 1056 1369 1301 889 
Q 1547 409 2034 409 
Q 2525 409 2770 889 
Q 3016 1369 3016 2328 
Q 3016 3291 2770 3770 
Q 2525 4250 2034 4250 
z
M 2034 4750 
Q 2819 4750 3233 4129 
Q 3647 3509 3647 2328 
Q 3647 1150 3233 529 
Q 2819 -91 2034 -91 
Q 1250 -91 836 529 
Q 422 1150 422 2328 
Q 422 3509 836 4129 
Q 1250 4750 2034 4750 
z
" transform="scale(0.015625)"/>
      </defs>
      <use xlink:href="#DejaVuSans-Oblique-6d" transform="translate(0 0.78125)"/>
      <use xlink:href="#DejaVuSans-2f" transform="translate(97.412109 0.78125)"/>
      <use xlink:href="#DejaVuSans-Oblique-6e" transform="translate(131.103516 0.78125)"/>
      <use xlink:href="#DejaVuSans-2c" transform="translate(194.482422 0.78125)"/>
      <use xlink:href="#DejaVuSans-Oblique-6e" transform="translate(245.751953 0.78125)"/>
      <use xlink:href="#DejaVuSans-3d" transform="translate(328.613281 0.78125)"/>
      <use xlink:href="#DejaVuSans-31" transform="translate(431.884766 0.78125)"/>
      <use xlink:href="#DejaVuSans-30" transform="translate(495.507812 0.78125)"/>
      <use xlink:href="#DejaVuSans-30" transform="translate(559.130859 0.78125)"/>
     </g>
    </g>
   </g>
   <g id="matplotlib.axis_2">
    <g id="ytick_1">
     <g id="line2d_10">
      <path d="M 53.867031 564.668639 
L 561.139759 564.668639 
" clip-path="url(#pa7a8bb8fa0)" style="fill: none; stroke: #ffffff; stroke-linecap: round"/>
     </g>
     <g id="text_11">
      <!-- 0.12 -->
      <g style="fill: #262626" transform="translate(22.96 568.605436)scale(0.11 -0.11)">
       <defs>
        <path id="ArialMT-2e" d="M 581 0 
L 581 641 
L 1222 641 
L 1222 0 
L 581 0 
z
" transform="scale(0.015625)"/>
       </defs>
       <use xlink:href="#ArialMT-30"/>
       <use xlink:href="#ArialMT-2e" x="55.615234"/>
       <use xlink:href="#ArialMT-31" x="83.398438"/>
       <use xlink:href="#ArialMT-32" x="139.013672"/>
      </g>
     </g>
    </g>
    <g id="ytick_2">
     <g id="line2d_11">
      <path d="M 53.867031 477.970075 
L 561.139759 477.970075 
" clip-path="url(#pa7a8bb8fa0)" style="fill: none; stroke: #ffffff; stroke-linecap: round"/>
     </g>
     <g id="text_12">
      <!-- 0.14 -->
      <g style="fill: #262626" transform="translate(22.96 481.906872)scale(0.11 -0.11)">
       <use xlink:href="#ArialMT-30"/>
       <use xlink:href="#ArialMT-2e" x="55.615234"/>
       <use xlink:href="#ArialMT-31" x="83.398438"/>
       <use xlink:href="#ArialMT-34" x="139.013672"/>
      </g>
     </g>
    </g>
    <g id="ytick_3">
     <g id="line2d_12">
      <path d="M 53.867031 391.27151 
L 561.139759 391.27151 
" clip-path="url(#pa7a8bb8fa0)" style="fill: none; stroke: #ffffff; stroke-linecap: round"/>
     </g>
     <g id="text_13">
      <!-- 0.16 -->
      <g style="fill: #262626" transform="translate(22.96 395.208307)scale(0.11 -0.11)">
       <defs>
        <path id="ArialMT-36" d="M 3184 3459 
L 2625 3416 
Q 2550 3747 2413 3897 
Q 2184 4138 1850 4138 
Q 1581 4138 1378 3988 
Q 1113 3794 959 3422 
Q 806 3050 800 2363 
Q 1003 2672 1297 2822 
Q 1591 2972 1913 2972 
Q 2475 2972 2870 2558 
Q 3266 2144 3266 1488 
Q 3266 1056 3080 686 
Q 2894 316 2569 119 
Q 2244 -78 1831 -78 
Q 1128 -78 684 439 
Q 241 956 241 2144 
Q 241 3472 731 4075 
Q 1159 4600 1884 4600 
Q 2425 4600 2770 4297 
Q 3116 3994 3184 3459 
z
M 888 1484 
Q 888 1194 1011 928 
Q 1134 663 1356 523 
Q 1578 384 1822 384 
Q 2178 384 2434 671 
Q 2691 959 2691 1453 
Q 2691 1928 2437 2201 
Q 2184 2475 1800 2475 
Q 1419 2475 1153 2201 
Q 888 1928 888 1484 
z
" transform="scale(0.015625)"/>
       </defs>
       <use xlink:href="#ArialMT-30"/>
       <use xlink:href="#ArialMT-2e" x="55.615234"/>
       <use xlink:href="#ArialMT-31" x="83.398438"/>
       <use xlink:href="#ArialMT-36" x="139.013672"/>
      </g>
     </g>
    </g>
    <g id="ytick_4">
     <g id="line2d_13">
      <path d="M 53.867031 304.572946 
L 561.139759 304.572946 
" clip-path="url(#pa7a8bb8fa0)" style="fill: none; stroke: #ffffff; stroke-linecap: round"/>
     </g>
     <g id="text_14">
      <!-- 0.18 -->
      <g style="fill: #262626" transform="translate(22.96 308.509742)scale(0.11 -0.11)">
       <defs>
        <path id="ArialMT-38" d="M 1131 2484 
Q 781 2613 612 2850 
Q 444 3088 444 3419 
Q 444 3919 803 4259 
Q 1163 4600 1759 4600 
Q 2359 4600 2725 4251 
Q 3091 3903 3091 3403 
Q 3091 3084 2923 2848 
Q 2756 2613 2416 2484 
Q 2838 2347 3058 2040 
Q 3278 1734 3278 1309 
Q 3278 722 2862 322 
Q 2447 -78 1769 -78 
Q 1091 -78 675 323 
Q 259 725 259 1325 
Q 259 1772 486 2073 
Q 713 2375 1131 2484 
z
M 1019 3438 
Q 1019 3113 1228 2906 
Q 1438 2700 1772 2700 
Q 2097 2700 2305 2904 
Q 2513 3109 2513 3406 
Q 2513 3716 2298 3927 
Q 2084 4138 1766 4138 
Q 1444 4138 1231 3931 
Q 1019 3725 1019 3438 
z
M 838 1322 
Q 838 1081 952 856 
Q 1066 631 1291 507 
Q 1516 384 1775 384 
Q 2178 384 2440 643 
Q 2703 903 2703 1303 
Q 2703 1709 2433 1975 
Q 2163 2241 1756 2241 
Q 1359 2241 1098 1978 
Q 838 1716 838 1322 
z
" transform="scale(0.015625)"/>
       </defs>
       <use xlink:href="#ArialMT-30"/>
       <use xlink:href="#ArialMT-2e" x="55.615234"/>
       <use xlink:href="#ArialMT-31" x="83.398438"/>
       <use xlink:href="#ArialMT-38" x="139.013672"/>
      </g>
     </g>
    </g>
    <g id="ytick_5">
     <g id="line2d_14">
      <path d="M 53.867031 217.874381 
L 561.139759 217.874381 
" clip-path="url(#pa7a8bb8fa0)" style="fill: none; stroke: #ffffff; stroke-linecap: round"/>
     </g>
     <g id="text_15">
      <!-- 0.20 -->
      <g style="fill: #262626" transform="translate(22.96 221.811178)scale(0.11 -0.11)">
       <use xlink:href="#ArialMT-30"/>
       <use xlink:href="#ArialMT-2e" x="55.615234"/>
       <use xlink:href="#ArialMT-32" x="83.398438"/>
       <use xlink:href="#ArialMT-30" x="139.013672"/>
      </g>
     </g>
    </g>
    <g id="ytick_6">
     <g id="line2d_15">
      <path d="M 53.867031 131.175816 
L 561.139759 131.175816 
" clip-path="url(#pa7a8bb8fa0)" style="fill: none; stroke: #ffffff; stroke-linecap: round"/>
     </g>
     <g id="text_16">
      <!-- 0.22 -->
      <g style="fill: #262626" transform="translate(22.96 135.112613)scale(0.11 -0.11)">
       <use xlink:href="#ArialMT-30"/>
       <use xlink:href="#ArialMT-2e" x="55.615234"/>
       <use xlink:href="#ArialMT-32" x="83.398438"/>
       <use xlink:href="#ArialMT-32" x="139.013672"/>
      </g>
     </g>
    </g>
    <g id="ytick_7">
     <g id="line2d_16">
      <path d="M 53.867031 44.477252 
L 561.139759 44.477252 
" clip-path="url(#pa7a8bb8fa0)" style="fill: none; stroke: #ffffff; stroke-linecap: round"/>
     </g>
     <g id="text_17">
      <!-- 0.24 -->
      <g style="fill: #262626" transform="translate(22.96 48.414049)scale(0.11 -0.11)">
       <use xlink:href="#ArialMT-30"/>
       <use xlink:href="#ArialMT-2e" x="55.615234"/>
       <use xlink:href="#ArialMT-32" x="83.398438"/>
       <use xlink:href="#ArialMT-34" x="139.013672"/>
      </g>
     </g>
    </g>
    <g id="text_18">
     <!-- $L_{m, n, \Delta}$ -->
     <g style="fill: #262626" transform="translate(15.96 311.195625)rotate(-90)scale(0.12 -0.12)">
      <defs>
       <path id="DejaVuSans-Oblique-4c" d="M 1075 4666 
L 1709 4666 
L 909 525 
L 3181 525 
L 3078 0 
L 172 0 
L 1075 4666 
z
" transform="scale(0.015625)"/>
       <path id="DejaVuSans-394" d="M 2188 4044 
L 906 525 
L 3472 525 
L 2188 4044 
z
M 50 0 
L 1831 4666 
L 2547 4666 
L 4325 0 
L 50 0 
z
" transform="scale(0.015625)"/>
      </defs>
      <use xlink:href="#DejaVuSans-Oblique-4c" transform="translate(0 0.09375)"/>
      <use xlink:href="#DejaVuSans-Oblique-6d" transform="translate(55.712891 -16.3125)scale(0.7)"/>
      <use xlink:href="#DejaVuSans-2c" transform="translate(123.901367 -16.3125)scale(0.7)"/>
      <use xlink:href="#DejaVuSans-Oblique-6e" transform="translate(159.790039 -16.3125)scale(0.7)"/>
      <use xlink:href="#DejaVuSans-2c" transform="translate(204.155273 -16.3125)scale(0.7)"/>
      <use xlink:href="#DejaVuSans-394" transform="translate(240.043945 -16.3125)scale(0.7)"/>
     </g>
    </g>
   </g>
   <g id="PolyCollection_1">
    <defs>
     <path id="m9952e2ca69" d="M 53.867031 -426.903429 
L 53.867031 -321.104087 
L 85.571577 -236.144913 
L 117.276122 -152.26947 
L 148.980668 -175.900247 
L 180.685213 -142.299135 
L 212.389759 -201.69307 
L 244.094304 -199.50935 
L 307.503395 -202.771384 
L 434.321577 -232.248896 
L 561.139759 -281.022257 
L 561.139759 -361.657341 
L 561.139759 -361.657341 
L 434.321577 -298.817137 
L 307.503395 -314.406623 
L 244.094304 -285.405953 
L 212.389759 -262.609649 
L 180.685213 -209.934853 
L 148.980668 -257.830391 
L 117.276122 -234.454291 
L 85.571577 -308.126396 
L 53.867031 -426.903429 
z
" style="stroke: #4c72b0; stroke-opacity: 0.2"/>
    </defs>
    <g clip-path="url(#pa7a8bb8fa0)">
     <use xlink:href="#m9952e2ca69" x="0" y="607.269844" style="fill: #4c72b0; fill-opacity: 0.2; stroke: #4c72b0; stroke-opacity: 0.2"/>
    </g>
   </g>
   <g id="line2d_17">
    <path d="M 53.867031 234.130362 
L 85.571577 333.400218 
L 117.276122 417.497826 
L 148.980668 397.34041 
L 180.685213 428.768639 
L 212.389759 375.015529 
L 244.094304 363.961462 
L 307.503395 350.956678 
L 434.321577 347.055242 
L 561.139759 287.233233 
" clip-path="url(#pa7a8bb8fa0)" style="fill: none; stroke: #4c72b0; stroke-width: 2; stroke-linecap: round"/>
   </g>
   <g id="line2d_18"/>
   <g id="patch_3">
    <path d="M 53.867031 565.535625 
L 53.867031 21.935625 
" style="fill: none; stroke: #ffffff; stroke-width: 1.25; stroke-linejoin: miter; stroke-linecap: square"/>
   </g>
   <g id="patch_4">
    <path d="M 561.139759 565.535625 
L 561.139759 21.935625 
" style="fill: none; stroke: #ffffff; stroke-width: 1.25; stroke-linejoin: miter; stroke-linecap: square"/>
   </g>
   <g id="patch_5">
    <path d="M 53.867031 565.535625 
L 561.139759 565.535625 
" style="fill: none; stroke: #ffffff; stroke-width: 1.25; stroke-linejoin: miter; stroke-linecap: square"/>
   </g>
   <g id="patch_6">
    <path d="M 53.867031 21.935625 
L 561.139759 21.935625 
" style="fill: none; stroke: #ffffff; stroke-width: 1.25; stroke-linejoin: miter; stroke-linecap: square"/>
   </g>
   <g id="text_19">
    <!-- Frog vs. Horse - Bird vs. Cat -->
    <g style="fill: #262626" transform="translate(231.824645 15.935625)scale(0.12 -0.12)">
     <defs>
      <path id="ArialMT-46" d="M 525 0 
L 525 4581 
L 3616 4581 
L 3616 4041 
L 1131 4041 
L 1131 2622 
L 3281 2622 
L 3281 2081 
L 1131 2081 
L 1131 0 
L 525 0 
z
" transform="scale(0.015625)"/>
      <path id="ArialMT-72" d="M 416 0 
L 416 3319 
L 922 3319 
L 922 2816 
Q 1116 3169 1280 3281 
Q 1444 3394 1641 3394 
Q 1925 3394 2219 3213 
L 2025 2691 
Q 1819 2813 1613 2813 
Q 1428 2813 1281 2702 
Q 1134 2591 1072 2394 
Q 978 2094 978 1738 
L 978 0 
L 416 0 
z
" transform="scale(0.015625)"/>
      <path id="ArialMT-6f" d="M 213 1659 
Q 213 2581 725 3025 
Q 1153 3394 1769 3394 
Q 2453 3394 2887 2945 
Q 3322 2497 3322 1706 
Q 3322 1066 3130 698 
Q 2938 331 2570 128 
Q 2203 -75 1769 -75 
Q 1072 -75 642 372 
Q 213 819 213 1659 
z
M 791 1659 
Q 791 1022 1069 705 
Q 1347 388 1769 388 
Q 2188 388 2466 706 
Q 2744 1025 2744 1678 
Q 2744 2294 2464 2611 
Q 2184 2928 1769 2928 
Q 1347 2928 1069 2612 
Q 791 2297 791 1659 
z
" transform="scale(0.015625)"/>
      <path id="ArialMT-67" d="M 319 -275 
L 866 -356 
Q 900 -609 1056 -725 
Q 1266 -881 1628 -881 
Q 2019 -881 2231 -725 
Q 2444 -569 2519 -288 
Q 2563 -116 2559 434 
Q 2191 0 1641 0 
Q 956 0 581 494 
Q 206 988 206 1678 
Q 206 2153 378 2554 
Q 550 2956 876 3175 
Q 1203 3394 1644 3394 
Q 2231 3394 2613 2919 
L 2613 3319 
L 3131 3319 
L 3131 450 
Q 3131 -325 2973 -648 
Q 2816 -972 2473 -1159 
Q 2131 -1347 1631 -1347 
Q 1038 -1347 672 -1080 
Q 306 -813 319 -275 
z
M 784 1719 
Q 784 1066 1043 766 
Q 1303 466 1694 466 
Q 2081 466 2343 764 
Q 2606 1063 2606 1700 
Q 2606 2309 2336 2618 
Q 2066 2928 1684 2928 
Q 1309 2928 1046 2623 
Q 784 2319 784 1719 
z
" transform="scale(0.015625)"/>
      <path id="ArialMT-20" transform="scale(0.015625)"/>
      <path id="ArialMT-76" d="M 1344 0 
L 81 3319 
L 675 3319 
L 1388 1331 
Q 1503 1009 1600 663 
Q 1675 925 1809 1294 
L 2547 3319 
L 3125 3319 
L 1869 0 
L 1344 0 
z
" transform="scale(0.015625)"/>
      <path id="ArialMT-73" d="M 197 991 
L 753 1078 
Q 800 744 1014 566 
Q 1228 388 1613 388 
Q 2000 388 2187 545 
Q 2375 703 2375 916 
Q 2375 1106 2209 1216 
Q 2094 1291 1634 1406 
Q 1016 1563 777 1677 
Q 538 1791 414 1992 
Q 291 2194 291 2438 
Q 291 2659 392 2848 
Q 494 3038 669 3163 
Q 800 3259 1026 3326 
Q 1253 3394 1513 3394 
Q 1903 3394 2198 3281 
Q 2494 3169 2634 2976 
Q 2775 2784 2828 2463 
L 2278 2388 
Q 2241 2644 2061 2787 
Q 1881 2931 1553 2931 
Q 1166 2931 1000 2803 
Q 834 2675 834 2503 
Q 834 2394 903 2306 
Q 972 2216 1119 2156 
Q 1203 2125 1616 2013 
Q 2213 1853 2448 1751 
Q 2684 1650 2818 1456 
Q 2953 1263 2953 975 
Q 2953 694 2789 445 
Q 2625 197 2315 61 
Q 2006 -75 1616 -75 
Q 969 -75 630 194 
Q 291 463 197 991 
z
" transform="scale(0.015625)"/>
      <path id="ArialMT-48" d="M 513 0 
L 513 4581 
L 1119 4581 
L 1119 2700 
L 3500 2700 
L 3500 4581 
L 4106 4581 
L 4106 0 
L 3500 0 
L 3500 2159 
L 1119 2159 
L 1119 0 
L 513 0 
z
" transform="scale(0.015625)"/>
      <path id="ArialMT-65" d="M 2694 1069 
L 3275 997 
Q 3138 488 2766 206 
Q 2394 -75 1816 -75 
Q 1088 -75 661 373 
Q 234 822 234 1631 
Q 234 2469 665 2931 
Q 1097 3394 1784 3394 
Q 2450 3394 2872 2941 
Q 3294 2488 3294 1666 
Q 3294 1616 3291 1516 
L 816 1516 
Q 847 969 1125 678 
Q 1403 388 1819 388 
Q 2128 388 2347 550 
Q 2566 713 2694 1069 
z
M 847 1978 
L 2700 1978 
Q 2663 2397 2488 2606 
Q 2219 2931 1791 2931 
Q 1403 2931 1139 2672 
Q 875 2413 847 1978 
z
" transform="scale(0.015625)"/>
      <path id="ArialMT-2d" d="M 203 1375 
L 203 1941 
L 1931 1941 
L 1931 1375 
L 203 1375 
z
" transform="scale(0.015625)"/>
      <path id="ArialMT-42" d="M 469 0 
L 469 4581 
L 2188 4581 
Q 2713 4581 3030 4442 
Q 3347 4303 3526 4014 
Q 3706 3725 3706 3409 
Q 3706 3116 3547 2856 
Q 3388 2597 3066 2438 
Q 3481 2316 3704 2022 
Q 3928 1728 3928 1328 
Q 3928 1006 3792 729 
Q 3656 453 3456 303 
Q 3256 153 2954 76 
Q 2653 0 2216 0 
L 469 0 
z
M 1075 2656 
L 2066 2656 
Q 2469 2656 2644 2709 
Q 2875 2778 2992 2937 
Q 3109 3097 3109 3338 
Q 3109 3566 3000 3739 
Q 2891 3913 2687 3977 
Q 2484 4041 1991 4041 
L 1075 4041 
L 1075 2656 
z
M 1075 541 
L 2216 541 
Q 2509 541 2628 563 
Q 2838 600 2978 687 
Q 3119 775 3209 942 
Q 3300 1109 3300 1328 
Q 3300 1584 3169 1773 
Q 3038 1963 2805 2039 
Q 2572 2116 2134 2116 
L 1075 2116 
L 1075 541 
z
" transform="scale(0.015625)"/>
      <path id="ArialMT-69" d="M 425 3934 
L 425 4581 
L 988 4581 
L 988 3934 
L 425 3934 
z
M 425 0 
L 425 3319 
L 988 3319 
L 988 0 
L 425 0 
z
" transform="scale(0.015625)"/>
      <path id="ArialMT-64" d="M 2575 0 
L 2575 419 
Q 2259 -75 1647 -75 
Q 1250 -75 917 144 
Q 584 363 401 755 
Q 219 1147 219 1656 
Q 219 2153 384 2558 
Q 550 2963 881 3178 
Q 1213 3394 1622 3394 
Q 1922 3394 2156 3267 
Q 2391 3141 2538 2938 
L 2538 4581 
L 3097 4581 
L 3097 0 
L 2575 0 
z
M 797 1656 
Q 797 1019 1065 703 
Q 1334 388 1700 388 
Q 2069 388 2326 689 
Q 2584 991 2584 1609 
Q 2584 2291 2321 2609 
Q 2059 2928 1675 2928 
Q 1300 2928 1048 2622 
Q 797 2316 797 1656 
z
" transform="scale(0.015625)"/>
      <path id="ArialMT-43" d="M 3763 1606 
L 4369 1453 
Q 4178 706 3683 314 
Q 3188 -78 2472 -78 
Q 1731 -78 1267 223 
Q 803 525 561 1097 
Q 319 1669 319 2325 
Q 319 3041 592 3573 
Q 866 4106 1370 4382 
Q 1875 4659 2481 4659 
Q 3169 4659 3637 4309 
Q 4106 3959 4291 3325 
L 3694 3184 
Q 3534 3684 3231 3912 
Q 2928 4141 2469 4141 
Q 1941 4141 1586 3887 
Q 1231 3634 1087 3207 
Q 944 2781 944 2328 
Q 944 1744 1114 1308 
Q 1284 872 1643 656 
Q 2003 441 2422 441 
Q 2931 441 3284 734 
Q 3638 1028 3763 1606 
z
" transform="scale(0.015625)"/>
      <path id="ArialMT-61" d="M 2588 409 
Q 2275 144 1986 34 
Q 1697 -75 1366 -75 
Q 819 -75 525 192 
Q 231 459 231 875 
Q 231 1119 342 1320 
Q 453 1522 633 1644 
Q 813 1766 1038 1828 
Q 1203 1872 1538 1913 
Q 2219 1994 2541 2106 
Q 2544 2222 2544 2253 
Q 2544 2597 2384 2738 
Q 2169 2928 1744 2928 
Q 1347 2928 1158 2789 
Q 969 2650 878 2297 
L 328 2372 
Q 403 2725 575 2942 
Q 747 3159 1072 3276 
Q 1397 3394 1825 3394 
Q 2250 3394 2515 3294 
Q 2781 3194 2906 3042 
Q 3031 2891 3081 2659 
Q 3109 2516 3109 2141 
L 3109 1391 
Q 3109 606 3145 398 
Q 3181 191 3288 0 
L 2700 0 
Q 2613 175 2588 409 
z
M 2541 1666 
Q 2234 1541 1622 1453 
Q 1275 1403 1131 1340 
Q 988 1278 909 1158 
Q 831 1038 831 891 
Q 831 666 1001 516 
Q 1172 366 1500 366 
Q 1825 366 2078 508 
Q 2331 650 2450 897 
Q 2541 1088 2541 1459 
L 2541 1666 
z
" transform="scale(0.015625)"/>
      <path id="ArialMT-74" d="M 1650 503 
L 1731 6 
Q 1494 -44 1306 -44 
Q 1000 -44 831 53 
Q 663 150 594 308 
Q 525 466 525 972 
L 525 2881 
L 113 2881 
L 113 3319 
L 525 3319 
L 525 4141 
L 1084 4478 
L 1084 3319 
L 1650 3319 
L 1650 2881 
L 1084 2881 
L 1084 941 
Q 1084 700 1114 631 
Q 1144 563 1211 522 
Q 1278 481 1403 481 
Q 1497 481 1650 503 
z
" transform="scale(0.015625)"/>
     </defs>
     <use xlink:href="#ArialMT-46"/>
     <use xlink:href="#ArialMT-72" x="61.083984"/>
     <use xlink:href="#ArialMT-6f" x="94.384766"/>
     <use xlink:href="#ArialMT-67" x="150"/>
     <use xlink:href="#ArialMT-20" x="205.615234"/>
     <use xlink:href="#ArialMT-76" x="233.398438"/>
     <use xlink:href="#ArialMT-73" x="283.398438"/>
     <use xlink:href="#ArialMT-2e" x="333.398438"/>
     <use xlink:href="#ArialMT-20" x="361.181641"/>
     <use xlink:href="#ArialMT-48" x="388.964844"/>
     <use xlink:href="#ArialMT-6f" x="461.181641"/>
     <use xlink:href="#ArialMT-72" x="516.796875"/>
     <use xlink:href="#ArialMT-73" x="550.097656"/>
     <use xlink:href="#ArialMT-65" x="600.097656"/>
     <use xlink:href="#ArialMT-20" x="655.712891"/>
     <use xlink:href="#ArialMT-2d" x="683.496094"/>
     <use xlink:href="#ArialMT-20" x="716.796875"/>
     <use xlink:href="#ArialMT-42" x="744.580078"/>
     <use xlink:href="#ArialMT-69" x="811.279297"/>
     <use xlink:href="#ArialMT-72" x="833.496094"/>
     <use xlink:href="#ArialMT-64" x="866.796875"/>
     <use xlink:href="#ArialMT-20" x="922.412109"/>
     <use xlink:href="#ArialMT-76" x="950.195312"/>
     <use xlink:href="#ArialMT-73" x="1000.195312"/>
     <use xlink:href="#ArialMT-2e" x="1050.195312"/>
     <use xlink:href="#ArialMT-20" x="1077.978516"/>
     <use xlink:href="#ArialMT-43" x="1105.761719"/>
     <use xlink:href="#ArialMT-61" x="1177.978516"/>
     <use xlink:href="#ArialMT-74" x="1233.59375"/>
    </g>
   </g>
   <g id="legend_1">
    <g id="patch_7">
     <path d="M 512.122727 62.769844 
L 553.439759 62.769844 
Q 555.639759 62.769844 555.639759 60.569844 
L 555.639759 29.635625 
Q 555.639759 27.435625 553.439759 27.435625 
L 512.122727 27.435625 
Q 509.922727 27.435625 509.922727 29.635625 
L 509.922727 60.569844 
Q 509.922727 62.769844 512.122727 62.769844 
z
" style="fill: #eaeaf2; opacity: 0.8; stroke: #cccccc; stroke-linejoin: miter"/>
    </g>
    <g id="text_20">
     <!-- Task -->
     <g style="fill: #262626" transform="translate(520.447493 40.425)scale(0.12 -0.12)">
      <defs>
       <path id="ArialMT-54" d="M 1659 0 
L 1659 4041 
L 150 4041 
L 150 4581 
L 3781 4581 
L 3781 4041 
L 2266 4041 
L 2266 0 
L 1659 0 
z
" transform="scale(0.015625)"/>
       <path id="ArialMT-6b" d="M 425 0 
L 425 4581 
L 988 4581 
L 988 1969 
L 2319 3319 
L 3047 3319 
L 1778 2088 
L 3175 0 
L 2481 0 
L 1384 1697 
L 988 1316 
L 988 0 
L 425 0 
z
" transform="scale(0.015625)"/>
      </defs>
      <use xlink:href="#ArialMT-54"/>
      <use xlink:href="#ArialMT-61" x="49.958984"/>
      <use xlink:href="#ArialMT-73" x="105.574219"/>
      <use xlink:href="#ArialMT-6b" x="155.574219"/>
     </g>
    </g>
    <g id="line2d_19">
     <path d="M 514.322727 52.333594 
L 525.322727 52.333594 
L 536.322727 52.333594 
" style="fill: none; stroke: #4c72b0; stroke-width: 1.5; stroke-linecap: round"/>
    </g>
    <g id="text_21">
     <!-- 0 -->
     <g style="fill: #262626" transform="translate(545.122727 56.183594)scale(0.11 -0.11)">
      <use xlink:href="#ArialMT-30"/>
     </g>
    </g>
   </g>
  </g>
  <g id="axes_2">
   <g id="patch_8">
    <path d="M 662.594304 565.535625 
L 1169.867031 565.535625 
L 1169.867031 21.935625 
L 662.594304 21.935625 
z
" style="fill: #eaeaf2"/>
   </g>
   <g id="matplotlib.axis_3">
    <g id="xtick_10">
     <g id="line2d_20">
      <path d="M 662.594304 565.535625 
L 662.594304 21.935625 
" clip-path="url(#pc0d43a91fa)" style="fill: none; stroke: #ffffff; stroke-linecap: round"/>
     </g>
     <g id="text_22">
      <!-- 0 -->
      <g style="fill: #262626" transform="translate(659.535788 582.909219)scale(0.11 -0.11)">
       <use xlink:href="#ArialMT-30"/>
      </g>
     </g>
    </g>
    <g id="xtick_11">
     <g id="line2d_21">
      <path d="M 726.003395 565.535625 
L 726.003395 21.935625 
" clip-path="url(#pc0d43a91fa)" style="fill: none; stroke: #ffffff; stroke-linecap: round"/>
     </g>
     <g id="text_23">
      <!-- 5 -->
      <g style="fill: #262626" transform="translate(722.944879 582.909219)scale(0.11 -0.11)">
       <use xlink:href="#ArialMT-35"/>
      </g>
     </g>
    </g>
    <g id="xtick_12">
     <g id="line2d_22">
      <path d="M 789.412486 565.535625 
L 789.412486 21.935625 
" clip-path="url(#pc0d43a91fa)" style="fill: none; stroke: #ffffff; stroke-linecap: round"/>
     </g>
     <g id="text_24">
      <!-- 10 -->
      <g style="fill: #262626" transform="translate(783.295455 582.909219)scale(0.11 -0.11)">
       <use xlink:href="#ArialMT-31"/>
       <use xlink:href="#ArialMT-30" x="55.615234"/>
      </g>
     </g>
    </g>
    <g id="xtick_13">
     <g id="line2d_23">
      <path d="M 852.821577 565.535625 
L 852.821577 21.935625 
" clip-path="url(#pc0d43a91fa)" style="fill: none; stroke: #ffffff; stroke-linecap: round"/>
     </g>
     <g id="text_25">
      <!-- 15 -->
      <g style="fill: #262626" transform="translate(846.704545 582.909219)scale(0.11 -0.11)">
       <use xlink:href="#ArialMT-31"/>
       <use xlink:href="#ArialMT-35" x="55.615234"/>
      </g>
     </g>
    </g>
    <g id="xtick_14">
     <g id="line2d_24">
      <path d="M 916.230668 565.535625 
L 916.230668 21.935625 
" clip-path="url(#pc0d43a91fa)" style="fill: none; stroke: #ffffff; stroke-linecap: round"/>
     </g>
     <g id="text_26">
      <!-- 20 -->
      <g style="fill: #262626" transform="translate(910.113636 582.909219)scale(0.11 -0.11)">
       <use xlink:href="#ArialMT-32"/>
       <use xlink:href="#ArialMT-30" x="55.615234"/>
      </g>
     </g>
    </g>
    <g id="xtick_15">
     <g id="line2d_25">
      <path d="M 979.639759 565.535625 
L 979.639759 21.935625 
" clip-path="url(#pc0d43a91fa)" style="fill: none; stroke: #ffffff; stroke-linecap: round"/>
     </g>
     <g id="text_27">
      <!-- 25 -->
      <g style="fill: #262626" transform="translate(973.522727 582.909219)scale(0.11 -0.11)">
       <use xlink:href="#ArialMT-32"/>
       <use xlink:href="#ArialMT-35" x="55.615234"/>
      </g>
     </g>
    </g>
    <g id="xtick_16">
     <g id="line2d_26">
      <path d="M 1043.048849 565.535625 
L 1043.048849 21.935625 
" clip-path="url(#pc0d43a91fa)" style="fill: none; stroke: #ffffff; stroke-linecap: round"/>
     </g>
     <g id="text_28">
      <!-- 30 -->
      <g style="fill: #262626" transform="translate(1036.931818 582.909219)scale(0.11 -0.11)">
       <use xlink:href="#ArialMT-33"/>
       <use xlink:href="#ArialMT-30" x="55.615234"/>
      </g>
     </g>
    </g>
    <g id="xtick_17">
     <g id="line2d_27">
      <path d="M 1106.45794 565.535625 
L 1106.45794 21.935625 
" clip-path="url(#pc0d43a91fa)" style="fill: none; stroke: #ffffff; stroke-linecap: round"/>
     </g>
     <g id="text_29">
      <!-- 35 -->
      <g style="fill: #262626" transform="translate(1100.340909 582.909219)scale(0.11 -0.11)">
       <use xlink:href="#ArialMT-33"/>
       <use xlink:href="#ArialMT-35" x="55.615234"/>
      </g>
     </g>
    </g>
    <g id="xtick_18">
     <g id="line2d_28">
      <path d="M 1169.867031 565.535625 
L 1169.867031 21.935625 
" clip-path="url(#pc0d43a91fa)" style="fill: none; stroke: #ffffff; stroke-linecap: round"/>
     </g>
     <g id="text_30">
      <!-- 40 -->
      <g style="fill: #262626" transform="translate(1163.75 582.909219)scale(0.11 -0.11)">
       <use xlink:href="#ArialMT-34"/>
       <use xlink:href="#ArialMT-30" x="55.615234"/>
      </g>
     </g>
    </g>
    <g id="text_31">
     <!-- $m/n, n=100$ -->
     <g style="fill: #262626" transform="translate(878.850668 597.684844)scale(0.12 -0.12)">
      <use xlink:href="#DejaVuSans-Oblique-6d" transform="translate(0 0.78125)"/>
      <use xlink:href="#DejaVuSans-2f" transform="translate(97.412109 0.78125)"/>
      <use xlink:href="#DejaVuSans-Oblique-6e" transform="translate(131.103516 0.78125)"/>
      <use xlink:href="#DejaVuSans-2c" transform="translate(194.482422 0.78125)"/>
      <use xlink:href="#DejaVuSans-Oblique-6e" transform="translate(245.751953 0.78125)"/>
      <use xlink:href="#DejaVuSans-3d" transform="translate(328.613281 0.78125)"/>
      <use xlink:href="#DejaVuSans-31" transform="translate(431.884766 0.78125)"/>
      <use xlink:href="#DejaVuSans-30" transform="translate(495.507812 0.78125)"/>
      <use xlink:href="#DejaVuSans-30" transform="translate(559.130859 0.78125)"/>
     </g>
    </g>
   </g>
   <g id="matplotlib.axis_4">
    <g id="ytick_8">
     <g id="line2d_29">
      <path d="M 662.594304 564.668639 
L 1169.867031 564.668639 
" clip-path="url(#pc0d43a91fa)" style="fill: none; stroke: #ffffff; stroke-linecap: round"/>
     </g>
     <g id="text_32">
      <!-- 0.12 -->
      <g style="fill: #262626" transform="translate(631.687273 568.605436)scale(0.11 -0.11)">
       <use xlink:href="#ArialMT-30"/>
       <use xlink:href="#ArialMT-2e" x="55.615234"/>
       <use xlink:href="#ArialMT-31" x="83.398438"/>
       <use xlink:href="#ArialMT-32" x="139.013672"/>
      </g>
     </g>
    </g>
    <g id="ytick_9">
     <g id="line2d_30">
      <path d="M 662.594304 477.970075 
L 1169.867031 477.970075 
" clip-path="url(#pc0d43a91fa)" style="fill: none; stroke: #ffffff; stroke-linecap: round"/>
     </g>
     <g id="text_33">
      <!-- 0.14 -->
      <g style="fill: #262626" transform="translate(631.687273 481.906872)scale(0.11 -0.11)">
       <use xlink:href="#ArialMT-30"/>
       <use xlink:href="#ArialMT-2e" x="55.615234"/>
       <use xlink:href="#ArialMT-31" x="83.398438"/>
       <use xlink:href="#ArialMT-34" x="139.013672"/>
      </g>
     </g>
    </g>
    <g id="ytick_10">
     <g id="line2d_31">
      <path d="M 662.594304 391.27151 
L 1169.867031 391.27151 
" clip-path="url(#pc0d43a91fa)" style="fill: none; stroke: #ffffff; stroke-linecap: round"/>
     </g>
     <g id="text_34">
      <!-- 0.16 -->
      <g style="fill: #262626" transform="translate(631.687273 395.208307)scale(0.11 -0.11)">
       <use xlink:href="#ArialMT-30"/>
       <use xlink:href="#ArialMT-2e" x="55.615234"/>
       <use xlink:href="#ArialMT-31" x="83.398438"/>
       <use xlink:href="#ArialMT-36" x="139.013672"/>
      </g>
     </g>
    </g>
    <g id="ytick_11">
     <g id="line2d_32">
      <path d="M 662.594304 304.572946 
L 1169.867031 304.572946 
" clip-path="url(#pc0d43a91fa)" style="fill: none; stroke: #ffffff; stroke-linecap: round"/>
     </g>
     <g id="text_35">
      <!-- 0.18 -->
      <g style="fill: #262626" transform="translate(631.687273 308.509742)scale(0.11 -0.11)">
       <use xlink:href="#ArialMT-30"/>
       <use xlink:href="#ArialMT-2e" x="55.615234"/>
       <use xlink:href="#ArialMT-31" x="83.398438"/>
       <use xlink:href="#ArialMT-38" x="139.013672"/>
      </g>
     </g>
    </g>
    <g id="ytick_12">
     <g id="line2d_33">
      <path d="M 662.594304 217.874381 
L 1169.867031 217.874381 
" clip-path="url(#pc0d43a91fa)" style="fill: none; stroke: #ffffff; stroke-linecap: round"/>
     </g>
     <g id="text_36">
      <!-- 0.20 -->
      <g style="fill: #262626" transform="translate(631.687273 221.811178)scale(0.11 -0.11)">
       <use xlink:href="#ArialMT-30"/>
       <use xlink:href="#ArialMT-2e" x="55.615234"/>
       <use xlink:href="#ArialMT-32" x="83.398438"/>
       <use xlink:href="#ArialMT-30" x="139.013672"/>
      </g>
     </g>
    </g>
    <g id="ytick_13">
     <g id="line2d_34">
      <path d="M 662.594304 131.175816 
L 1169.867031 131.175816 
" clip-path="url(#pc0d43a91fa)" style="fill: none; stroke: #ffffff; stroke-linecap: round"/>
     </g>
     <g id="text_37">
      <!-- 0.22 -->
      <g style="fill: #262626" transform="translate(631.687273 135.112613)scale(0.11 -0.11)">
       <use xlink:href="#ArialMT-30"/>
       <use xlink:href="#ArialMT-2e" x="55.615234"/>
       <use xlink:href="#ArialMT-32" x="83.398438"/>
       <use xlink:href="#ArialMT-32" x="139.013672"/>
      </g>
     </g>
    </g>
    <g id="ytick_14">
     <g id="line2d_35">
      <path d="M 662.594304 44.477252 
L 1169.867031 44.477252 
" clip-path="url(#pc0d43a91fa)" style="fill: none; stroke: #ffffff; stroke-linecap: round"/>
     </g>
     <g id="text_38">
      <!-- 0.24 -->
      <g style="fill: #262626" transform="translate(631.687273 48.414049)scale(0.11 -0.11)">
       <use xlink:href="#ArialMT-30"/>
       <use xlink:href="#ArialMT-2e" x="55.615234"/>
       <use xlink:href="#ArialMT-32" x="83.398438"/>
       <use xlink:href="#ArialMT-34" x="139.013672"/>
      </g>
     </g>
    </g>
    <g id="text_39">
     <!-- $L_{m, n}$ -->
     <g style="fill: #262626" transform="translate(624.687273 306.155625)rotate(-90)scale(0.12 -0.12)">
      <use xlink:href="#DejaVuSans-Oblique-4c" transform="translate(0 0.09375)"/>
      <use xlink:href="#DejaVuSans-Oblique-6d" transform="translate(55.712891 -16.3125)scale(0.7)"/>
      <use xlink:href="#DejaVuSans-2c" transform="translate(123.901367 -16.3125)scale(0.7)"/>
      <use xlink:href="#DejaVuSans-Oblique-6e" transform="translate(159.790039 -16.3125)scale(0.7)"/>
     </g>
    </g>
   </g>
   <g id="line2d_36">
    <path d="M 662.594304 220.041845 
L 694.298849 369.596869 
L 726.003395 380.43419 
L 757.70794 412.946151 
L 789.412486 380.43419 
L 821.117031 443.290649 
L 852.821577 410.778687 
L 916.230668 369.596869 
L 1043.048849 313.242802 
L 1169.867031 354.42462 
" clip-path="url(#pc0d43a91fa)" style="fill: none; stroke: #000000; stroke-opacity: 0.5; stroke-width: 0.7; stroke-linecap: round"/>
   </g>
   <g id="line2d_37">
    <path d="M 662.594304 172.357635 
L 694.298849 438.955721 
L 726.003395 382.601654 
L 757.70794 428.1184 
L 789.412486 430.285864 
L 821.117031 347.922228 
L 852.821577 300.238017 
L 916.230668 441.123185 
L 1043.048849 373.931797 
L 1169.867031 209.204525 
" clip-path="url(#pc0d43a91fa)" style="fill: none; stroke: #000000; stroke-opacity: 0.5; stroke-width: 0.7; stroke-linecap: round"/>
   </g>
   <g id="line2d_38">
    <path d="M 662.594304 46.644716 
L 694.298849 339.252371 
L 726.003395 467.132754 
L 757.70794 235.214094 
L 789.412486 404.276295 
L 821.117031 408.611223 
L 852.821577 404.276295 
L 916.230668 326.247587 
L 1043.048849 378.266725 
L 1169.867031 302.405481 
" clip-path="url(#pc0d43a91fa)" style="fill: none; stroke: #000000; stroke-opacity: 0.5; stroke-width: 0.7; stroke-linecap: round"/>
   </g>
   <g id="line2d_39">
    <path d="M 662.594304 278.563376 
L 694.298849 291.568161 
L 726.003395 441.123185 
L 757.70794 441.123185 
L 789.412486 363.094477 
L 821.117031 319.745194 
L 852.821577 334.917443 
L 916.230668 142.013137 
L 1043.048849 391.27151 
L 1169.867031 278.563376 
" clip-path="url(#pc0d43a91fa)" style="fill: none; stroke: #000000; stroke-opacity: 0.5; stroke-width: 0.7; stroke-linecap: round"/>
   </g>
   <g id="line2d_40">
    <path d="M 662.594304 317.57773 
L 694.298849 313.242802 
L 726.003395 469.300218 
L 757.70794 378.266725 
L 789.412486 423.783472 
L 821.117031 300.238017 
L 852.821577 373.931797 
L 916.230668 501.81218 
L 1043.048849 352.257156 
L 1169.867031 363.094477 
" clip-path="url(#pc0d43a91fa)" style="fill: none; stroke: #000000; stroke-opacity: 0.5; stroke-width: 0.7; stroke-linecap: round"/>
   </g>
   <g id="line2d_41">
    <path d="M 662.594304 328.415051 
L 694.298849 291.568161 
L 726.003395 434.620792 
L 757.70794 456.295434 
L 789.412486 395.606438 
L 821.117031 432.453328 
L 852.821577 254.721271 
L 916.230668 395.606438 
L 1043.048849 345.754764 
L 1169.867031 332.749979 
" clip-path="url(#pc0d43a91fa)" style="fill: none; stroke: #000000; stroke-opacity: 0.5; stroke-width: 0.7; stroke-linecap: round"/>
   </g>
   <g id="line2d_42">
    <path d="M 662.594304 332.749979 
L 694.298849 428.1184 
L 726.003395 477.970075 
L 757.70794 415.113615 
L 789.412486 540.826534 
L 821.117031 417.28108 
L 852.821577 380.43419 
L 916.230668 341.419836 
L 1043.048849 386.936582 
L 1169.867031 202.702132 
" clip-path="url(#pc0d43a91fa)" style="fill: none; stroke: #000000; stroke-opacity: 0.5; stroke-width: 0.7; stroke-linecap: round"/>
   </g>
   <g id="line2d_43">
    <path d="M 662.594304 178.860027 
L 694.298849 321.912658 
L 726.003395 469.300218 
L 757.70794 432.453328 
L 789.412486 438.955721 
L 821.117031 382.601654 
L 852.821577 395.606438 
L 916.230668 261.223663 
L 1043.048849 393.438974 
L 1169.867031 328.415051 
" clip-path="url(#pc0d43a91fa)" style="fill: none; stroke: #000000; stroke-opacity: 0.5; stroke-width: 0.7; stroke-linecap: round"/>
   </g>
   <g id="line2d_44">
    <path d="M 662.594304 194.032276 
L 694.298849 272.060984 
L 726.003395 259.056199 
L 757.70794 449.793041 
L 789.412486 523.486821 
L 821.117031 341.419836 
L 852.821577 272.060984 
L 916.230668 402.108831 
L 1043.048849 324.080123 
L 1169.867031 334.917443 
" clip-path="url(#pc0d43a91fa)" style="fill: none; stroke: #000000; stroke-opacity: 0.5; stroke-width: 0.7; stroke-linecap: round"/>
   </g>
   <g id="line2d_45">
    <path d="M 662.594304 272.060984 
L 694.298849 267.726056 
L 726.003395 393.438974 
L 757.70794 324.080123 
L 789.412486 386.936582 
L 821.117031 356.592084 
L 852.821577 512.649501 
L 916.230668 328.415051 
L 1043.048849 211.371989 
L 1169.867031 165.855242 
" clip-path="url(#pc0d43a91fa)" style="fill: none; stroke: #000000; stroke-opacity: 0.5; stroke-width: 0.7; stroke-linecap: round"/>
   </g>
   <g id="line2d_46">
    <path d="M 662.594304 234.130362 
L 694.298849 333.400218 
L 726.003395 417.497826 
L 757.70794 397.34041 
L 789.412486 428.768639 
L 821.117031 375.015529 
L 852.821577 363.961462 
L 916.230668 350.956678 
L 1043.048849 347.055242 
L 1169.867031 287.233233 
" clip-path="url(#pc0d43a91fa)" style="fill: none; stroke: #c44e52; stroke-width: 3; stroke-linecap: round"/>
   </g>
   <g id="LineCollection_1">
    <path d="M 662.594304 282.681558 
L 662.594304 177.976785 
" clip-path="url(#pc0d43a91fa)" style="fill: none; stroke: #c44e52; stroke-width: 1.5; stroke-linecap: round"/>
    <path d="M 694.298849 372.864321 
L 694.298849 300.010434 
" clip-path="url(#pc0d43a91fa)" style="fill: none; stroke: #c44e52; stroke-width: 1.5; stroke-linecap: round"/>
    <path d="M 726.003395 452.827491 
L 726.003395 371.325422 
" clip-path="url(#pc0d43a91fa)" style="fill: none; stroke: #c44e52; stroke-width: 1.5; stroke-linecap: round"/>
    <path d="M 757.70794 431.158269 
L 757.70794 352.864046 
" clip-path="url(#pc0d43a91fa)" style="fill: none; stroke: #c44e52; stroke-width: 1.5; stroke-linecap: round"/>
    <path d="M 789.412486 465.837694 
L 789.412486 397.34041 
" clip-path="url(#pc0d43a91fa)" style="fill: none; stroke: #c44e52; stroke-width: 1.5; stroke-linecap: round"/>
    <path d="M 821.117031 402.981235 
L 821.117031 348.133556 
" clip-path="url(#pc0d43a91fa)" style="fill: none; stroke: #c44e52; stroke-width: 1.5; stroke-linecap: round"/>
    <path d="M 852.821577 409.266881 
L 852.821577 321.457491 
" clip-path="url(#pc0d43a91fa)" style="fill: none; stroke: #c44e52; stroke-width: 1.5; stroke-linecap: round"/>
    <path d="M 916.230668 409.722048 
L 916.230668 286.577575 
" clip-path="url(#pc0d43a91fa)" style="fill: none; stroke: #c44e52; stroke-width: 1.5; stroke-linecap: round"/>
    <path d="M 1043.048849 375.449022 
L 1043.048849 311.725577 
" clip-path="url(#pc0d43a91fa)" style="fill: none; stroke: #c44e52; stroke-width: 1.5; stroke-linecap: round"/>
    <path d="M 1169.867031 327.992395 
L 1169.867031 242.350469 
" clip-path="url(#pc0d43a91fa)" style="fill: none; stroke: #c44e52; stroke-width: 1.5; stroke-linecap: round"/>
   </g>
   <g id="line2d_47"/>
   <g id="patch_9">
    <path d="M 662.594304 565.535625 
L 662.594304 21.935625 
" style="fill: none; stroke: #ffffff; stroke-width: 1.25; stroke-linejoin: miter; stroke-linecap: square"/>
   </g>
   <g id="patch_10">
    <path d="M 1169.867031 565.535625 
L 1169.867031 21.935625 
" style="fill: none; stroke: #ffffff; stroke-width: 1.25; stroke-linejoin: miter; stroke-linecap: square"/>
   </g>
   <g id="patch_11">
    <path d="M 662.594304 565.535625 
L 1169.867031 565.535625 
" style="fill: none; stroke: #ffffff; stroke-width: 1.25; stroke-linejoin: miter; stroke-linecap: square"/>
   </g>
   <g id="patch_12">
    <path d="M 662.594304 21.935625 
L 1169.867031 21.935625 
" style="fill: none; stroke: #ffffff; stroke-width: 1.25; stroke-linejoin: miter; stroke-linecap: square"/>
   </g>
   <g id="text_40">
    <!-- Frog vs. Horse - Bird vs. Cat -->
    <g style="fill: #262626" transform="translate(840.551918 15.935625)scale(0.12 -0.12)">
     <use xlink:href="#ArialMT-46"/>
     <use xlink:href="#ArialMT-72" x="61.083984"/>
     <use xlink:href="#ArialMT-6f" x="94.384766"/>
     <use xlink:href="#ArialMT-67" x="150"/>
     <use xlink:href="#ArialMT-20" x="205.615234"/>
     <use xlink:href="#ArialMT-76" x="233.398438"/>
     <use xlink:href="#ArialMT-73" x="283.398438"/>
     <use xlink:href="#ArialMT-2e" x="333.398438"/>
     <use xlink:href="#ArialMT-20" x="361.181641"/>
     <use xlink:href="#ArialMT-48" x="388.964844"/>
     <use xlink:href="#ArialMT-6f" x="461.181641"/>
     <use xlink:href="#ArialMT-72" x="516.796875"/>
     <use xlink:href="#ArialMT-73" x="550.097656"/>
     <use xlink:href="#ArialMT-65" x="600.097656"/>
     <use xlink:href="#ArialMT-20" x="655.712891"/>
     <use xlink:href="#ArialMT-2d" x="683.496094"/>
     <use xlink:href="#ArialMT-20" x="716.796875"/>
     <use xlink:href="#ArialMT-42" x="744.580078"/>
     <use xlink:href="#ArialMT-69" x="811.279297"/>
     <use xlink:href="#ArialMT-72" x="833.496094"/>
     <use xlink:href="#ArialMT-64" x="866.796875"/>
     <use xlink:href="#ArialMT-20" x="922.412109"/>
     <use xlink:href="#ArialMT-76" x="950.195312"/>
     <use xlink:href="#ArialMT-73" x="1000.195312"/>
     <use xlink:href="#ArialMT-2e" x="1050.195312"/>
     <use xlink:href="#ArialMT-20" x="1077.978516"/>
     <use xlink:href="#ArialMT-43" x="1105.761719"/>
     <use xlink:href="#ArialMT-61" x="1177.978516"/>
     <use xlink:href="#ArialMT-74" x="1233.59375"/>
    </g>
   </g>
  </g>
 </g>
 <defs>
  <clipPath id="pa7a8bb8fa0">
   <rect x="53.867031" y="21.935625" width="507.272727" height="543.6"/>
  </clipPath>
  <clipPath id="pc0d43a91fa">
   <rect x="662.594304" y="21.935625" width="507.272727" height="543.6"/>
  </clipPath>
 </defs>
</svg>
