<?xml version="1.0" encoding="utf-8" standalone="no"?>
<!DOCTYPE svg PUBLIC "-//W3C//DTD SVG 1.1//EN"
  "http://www.w3.org/Graphics/SVG/1.1/DTD/svg11.dtd">
<svg xmlns:xlink="http://www.w3.org/1999/xlink" width="632.829062pt" height="592.534219pt" viewBox="0 0 632.829062 592.534219" xmlns="http://www.w3.org/2000/svg" version="1.1">
 <metadata>
  <rdf:RDF xmlns:dc="http://purl.org/dc/elements/1.1/" xmlns:cc="http://creativecommons.org/ns#" xmlns:rdf="http://www.w3.org/1999/02/22-rdf-syntax-ns#">
   <cc:Work>
    <dc:type rdf:resource="http://purl.org/dc/dcmitype/StillImage"/>
    <dc:date>2022-03-15T17:47:05.299843</dc:date>
    <dc:format>image/svg+xml</dc:format>
    <dc:creator>
     <cc:Agent>
      <dc:title>Matplotlib v3.5.1, https://matplotlib.org/</dc:title>
     </cc:Agent>
    </dc:creator>
   </cc:Work>
  </rdf:RDF>
 </metadata>
 <defs>
  <style type="text/css">*{stroke-linejoin: round; stroke-linecap: butt}</style>
 </defs>
 <g id="figure_1">
  <g id="patch_1">
   <path d="M -0 592.534219 
L 632.829062 592.534219 
L 632.829062 0 
L -0 0 
z
" style="fill: #ffffff"/>
  </g>
  <g id="axes_1">
   <g id="patch_2">
    <path d="M 59.984063 550.8 
L 617.984063 550.8 
L 617.984063 7.2 
L 59.984063 7.2 
z
" style="fill: #eaeaf2"/>
   </g>
   <g id="matplotlib.axis_1">
    <g id="xtick_1">
     <g id="line2d_1">
      <path d="M 59.984063 550.8 
L 59.984063 7.2 
" clip-path="url(#pb3928c6562)" style="fill: none; stroke: #ffffff; stroke-linecap: round"/>
     </g>
     <g id="text_1">
      <!-- 0.0 -->
      <g style="fill: #262626" transform="translate(52.339062 568.173594)scale(0.11 -0.11)">
       <defs>
        <path id="ArialMT-30" d="M 266 2259 
Q 266 3072 433 3567 
Q 600 4063 929 4331 
Q 1259 4600 1759 4600 
Q 2128 4600 2406 4451 
Q 2684 4303 2865 4023 
Q 3047 3744 3150 3342 
Q 3253 2941 3253 2259 
Q 3253 1453 3087 958 
Q 2922 463 2592 192 
Q 2263 -78 1759 -78 
Q 1097 -78 719 397 
Q 266 969 266 2259 
z
M 844 2259 
Q 844 1131 1108 757 
Q 1372 384 1759 384 
Q 2147 384 2411 759 
Q 2675 1134 2675 2259 
Q 2675 3391 2411 3762 
Q 2147 4134 1753 4134 
Q 1366 4134 1134 3806 
Q 844 3388 844 2259 
z
" transform="scale(0.015625)"/>
        <path id="ArialMT-2e" d="M 581 0 
L 581 641 
L 1222 641 
L 1222 0 
L 581 0 
z
" transform="scale(0.015625)"/>
       </defs>
       <use xlink:href="#ArialMT-30"/>
       <use xlink:href="#ArialMT-2e" x="55.615234"/>
       <use xlink:href="#ArialMT-30" x="83.398438"/>
      </g>
     </g>
    </g>
    <g id="xtick_2">
     <g id="line2d_2">
      <path d="M 129.734062 550.8 
L 129.734062 7.2 
" clip-path="url(#pb3928c6562)" style="fill: none; stroke: #ffffff; stroke-linecap: round"/>
     </g>
     <g id="text_2">
      <!-- 0.5 -->
      <g style="fill: #262626" transform="translate(122.089062 568.173594)scale(0.11 -0.11)">
       <defs>
        <path id="ArialMT-35" d="M 266 1200 
L 856 1250 
Q 922 819 1161 601 
Q 1400 384 1738 384 
Q 2144 384 2425 690 
Q 2706 997 2706 1503 
Q 2706 1984 2436 2262 
Q 2166 2541 1728 2541 
Q 1456 2541 1237 2417 
Q 1019 2294 894 2097 
L 366 2166 
L 809 4519 
L 3088 4519 
L 3088 3981 
L 1259 3981 
L 1013 2750 
Q 1425 3038 1878 3038 
Q 2478 3038 2890 2622 
Q 3303 2206 3303 1553 
Q 3303 931 2941 478 
Q 2500 -78 1738 -78 
Q 1113 -78 717 272 
Q 322 622 266 1200 
z
" transform="scale(0.015625)"/>
       </defs>
       <use xlink:href="#ArialMT-30"/>
       <use xlink:href="#ArialMT-2e" x="55.615234"/>
       <use xlink:href="#ArialMT-35" x="83.398438"/>
      </g>
     </g>
    </g>
    <g id="xtick_3">
     <g id="line2d_3">
      <path d="M 199.484062 550.8 
L 199.484062 7.2 
" clip-path="url(#pb3928c6562)" style="fill: none; stroke: #ffffff; stroke-linecap: round"/>
     </g>
     <g id="text_3">
      <!-- 1.0 -->
      <g style="fill: #262626" transform="translate(191.839062 568.173594)scale(0.11 -0.11)">
       <defs>
        <path id="ArialMT-31" d="M 2384 0 
L 1822 0 
L 1822 3584 
Q 1619 3391 1289 3197 
Q 959 3003 697 2906 
L 697 3450 
Q 1169 3672 1522 3987 
Q 1875 4303 2022 4600 
L 2384 4600 
L 2384 0 
z
" transform="scale(0.015625)"/>
       </defs>
       <use xlink:href="#ArialMT-31"/>
       <use xlink:href="#ArialMT-2e" x="55.615234"/>
       <use xlink:href="#ArialMT-30" x="83.398438"/>
      </g>
     </g>
    </g>
    <g id="xtick_4">
     <g id="line2d_4">
      <path d="M 269.234062 550.8 
L 269.234062 7.2 
" clip-path="url(#pb3928c6562)" style="fill: none; stroke: #ffffff; stroke-linecap: round"/>
     </g>
     <g id="text_4">
      <!-- 1.5 -->
      <g style="fill: #262626" transform="translate(261.589063 568.173594)scale(0.11 -0.11)">
       <use xlink:href="#ArialMT-31"/>
       <use xlink:href="#ArialMT-2e" x="55.615234"/>
       <use xlink:href="#ArialMT-35" x="83.398438"/>
      </g>
     </g>
    </g>
    <g id="xtick_5">
     <g id="line2d_5">
      <path d="M 338.984062 550.8 
L 338.984062 7.2 
" clip-path="url(#pb3928c6562)" style="fill: none; stroke: #ffffff; stroke-linecap: round"/>
     </g>
     <g id="text_5">
      <!-- 2.0 -->
      <g style="fill: #262626" transform="translate(331.339063 568.173594)scale(0.11 -0.11)">
       <defs>
        <path id="ArialMT-32" d="M 3222 541 
L 3222 0 
L 194 0 
Q 188 203 259 391 
Q 375 700 629 1000 
Q 884 1300 1366 1694 
Q 2113 2306 2375 2664 
Q 2638 3022 2638 3341 
Q 2638 3675 2398 3904 
Q 2159 4134 1775 4134 
Q 1369 4134 1125 3890 
Q 881 3647 878 3216 
L 300 3275 
Q 359 3922 746 4261 
Q 1134 4600 1788 4600 
Q 2447 4600 2831 4234 
Q 3216 3869 3216 3328 
Q 3216 3053 3103 2787 
Q 2991 2522 2730 2228 
Q 2469 1934 1863 1422 
Q 1356 997 1212 845 
Q 1069 694 975 541 
L 3222 541 
z
" transform="scale(0.015625)"/>
       </defs>
       <use xlink:href="#ArialMT-32"/>
       <use xlink:href="#ArialMT-2e" x="55.615234"/>
       <use xlink:href="#ArialMT-30" x="83.398438"/>
      </g>
     </g>
    </g>
    <g id="xtick_6">
     <g id="line2d_6">
      <path d="M 408.734062 550.8 
L 408.734062 7.2 
" clip-path="url(#pb3928c6562)" style="fill: none; stroke: #ffffff; stroke-linecap: round"/>
     </g>
     <g id="text_6">
      <!-- 2.5 -->
      <g style="fill: #262626" transform="translate(401.089063 568.173594)scale(0.11 -0.11)">
       <use xlink:href="#ArialMT-32"/>
       <use xlink:href="#ArialMT-2e" x="55.615234"/>
       <use xlink:href="#ArialMT-35" x="83.398438"/>
      </g>
     </g>
    </g>
    <g id="xtick_7">
     <g id="line2d_7">
      <path d="M 478.484062 550.8 
L 478.484062 7.2 
" clip-path="url(#pb3928c6562)" style="fill: none; stroke: #ffffff; stroke-linecap: round"/>
     </g>
     <g id="text_7">
      <!-- 3.0 -->
      <g style="fill: #262626" transform="translate(470.839063 568.173594)scale(0.11 -0.11)">
       <defs>
        <path id="ArialMT-33" d="M 269 1209 
L 831 1284 
Q 928 806 1161 595 
Q 1394 384 1728 384 
Q 2125 384 2398 659 
Q 2672 934 2672 1341 
Q 2672 1728 2419 1979 
Q 2166 2231 1775 2231 
Q 1616 2231 1378 2169 
L 1441 2663 
Q 1497 2656 1531 2656 
Q 1891 2656 2178 2843 
Q 2466 3031 2466 3422 
Q 2466 3731 2256 3934 
Q 2047 4138 1716 4138 
Q 1388 4138 1169 3931 
Q 950 3725 888 3313 
L 325 3413 
Q 428 3978 793 4289 
Q 1159 4600 1703 4600 
Q 2078 4600 2393 4439 
Q 2709 4278 2876 4000 
Q 3044 3722 3044 3409 
Q 3044 3113 2884 2869 
Q 2725 2625 2413 2481 
Q 2819 2388 3044 2092 
Q 3269 1797 3269 1353 
Q 3269 753 2831 336 
Q 2394 -81 1725 -81 
Q 1122 -81 723 278 
Q 325 638 269 1209 
z
" transform="scale(0.015625)"/>
       </defs>
       <use xlink:href="#ArialMT-33"/>
       <use xlink:href="#ArialMT-2e" x="55.615234"/>
       <use xlink:href="#ArialMT-30" x="83.398438"/>
      </g>
     </g>
    </g>
    <g id="xtick_8">
     <g id="line2d_8">
      <path d="M 548.234063 550.8 
L 548.234063 7.2 
" clip-path="url(#pb3928c6562)" style="fill: none; stroke: #ffffff; stroke-linecap: round"/>
     </g>
     <g id="text_8">
      <!-- 3.5 -->
      <g style="fill: #262626" transform="translate(540.589063 568.173594)scale(0.11 -0.11)">
       <use xlink:href="#ArialMT-33"/>
       <use xlink:href="#ArialMT-2e" x="55.615234"/>
       <use xlink:href="#ArialMT-35" x="83.398438"/>
      </g>
     </g>
    </g>
    <g id="xtick_9">
     <g id="line2d_9">
      <path d="M 617.984063 550.8 
L 617.984063 7.2 
" clip-path="url(#pb3928c6562)" style="fill: none; stroke: #ffffff; stroke-linecap: round"/>
     </g>
     <g id="text_9">
      <!-- 4.0 -->
      <g style="fill: #262626" transform="translate(610.339063 568.173594)scale(0.11 -0.11)">
       <defs>
        <path id="ArialMT-34" d="M 2069 0 
L 2069 1097 
L 81 1097 
L 81 1613 
L 2172 4581 
L 2631 4581 
L 2631 1613 
L 3250 1613 
L 3250 1097 
L 2631 1097 
L 2631 0 
L 2069 0 
z
M 2069 1613 
L 2069 3678 
L 634 1613 
L 2069 1613 
z
" transform="scale(0.015625)"/>
       </defs>
       <use xlink:href="#ArialMT-34"/>
       <use xlink:href="#ArialMT-2e" x="55.615234"/>
       <use xlink:href="#ArialMT-30" x="83.398438"/>
      </g>
     </g>
    </g>
    <g id="text_10">
     <!-- $m/n, n=5$ -->
     <g style="fill: #262626" transform="translate(309.224063 582.949219)scale(0.12 -0.12)">
      <defs>
       <path id="DejaVuSans-Oblique-6d" d="M 5747 2113 
L 5338 0 
L 4763 0 
L 5166 2094 
Q 5191 2228 5203 2325 
Q 5216 2422 5216 2491 
Q 5216 2772 5059 2928 
Q 4903 3084 4622 3084 
Q 4203 3084 3875 2770 
Q 3547 2456 3450 1953 
L 3066 0 
L 2491 0 
L 2900 2094 
Q 2925 2209 2937 2307 
Q 2950 2406 2950 2484 
Q 2950 2769 2794 2926 
Q 2638 3084 2363 3084 
Q 1938 3084 1609 2770 
Q 1281 2456 1184 1953 
L 800 0 
L 225 0 
L 909 3500 
L 1484 3500 
L 1375 2956 
Q 1609 3263 1923 3423 
Q 2238 3584 2597 3584 
Q 2978 3584 3223 3384 
Q 3469 3184 3519 2828 
Q 3781 3197 4126 3390 
Q 4472 3584 4856 3584 
Q 5306 3584 5551 3325 
Q 5797 3066 5797 2591 
Q 5797 2488 5784 2364 
Q 5772 2241 5747 2113 
z
" transform="scale(0.015625)"/>
       <path id="DejaVuSans-2f" d="M 1625 4666 
L 2156 4666 
L 531 -594 
L 0 -594 
L 1625 4666 
z
" transform="scale(0.015625)"/>
       <path id="DejaVuSans-Oblique-6e" d="M 3566 2113 
L 3156 0 
L 2578 0 
L 2988 2091 
Q 3016 2238 3031 2350 
Q 3047 2463 3047 2528 
Q 3047 2791 2881 2937 
Q 2716 3084 2419 3084 
Q 1956 3084 1622 2776 
Q 1288 2469 1184 1941 
L 800 0 
L 225 0 
L 903 3500 
L 1478 3500 
L 1363 2950 
Q 1603 3253 1940 3418 
Q 2278 3584 2650 3584 
Q 3113 3584 3367 3334 
Q 3622 3084 3622 2631 
Q 3622 2519 3608 2391 
Q 3594 2263 3566 2113 
z
" transform="scale(0.015625)"/>
       <path id="DejaVuSans-2c" d="M 750 794 
L 1409 794 
L 1409 256 
L 897 -744 
L 494 -744 
L 750 256 
L 750 794 
z
" transform="scale(0.015625)"/>
       <path id="DejaVuSans-3d" d="M 678 2906 
L 4684 2906 
L 4684 2381 
L 678 2381 
L 678 2906 
z
M 678 1631 
L 4684 1631 
L 4684 1100 
L 678 1100 
L 678 1631 
z
" transform="scale(0.015625)"/>
       <path id="DejaVuSans-35" d="M 691 4666 
L 3169 4666 
L 3169 4134 
L 1269 4134 
L 1269 2991 
Q 1406 3038 1543 3061 
Q 1681 3084 1819 3084 
Q 2600 3084 3056 2656 
Q 3513 2228 3513 1497 
Q 3513 744 3044 326 
Q 2575 -91 1722 -91 
Q 1428 -91 1123 -41 
Q 819 9 494 109 
L 494 744 
Q 775 591 1075 516 
Q 1375 441 1709 441 
Q 2250 441 2565 725 
Q 2881 1009 2881 1497 
Q 2881 1984 2565 2268 
Q 2250 2553 1709 2553 
Q 1456 2553 1204 2497 
Q 953 2441 691 2322 
L 691 4666 
z
" transform="scale(0.015625)"/>
      </defs>
      <use xlink:href="#DejaVuSans-Oblique-6d" transform="translate(0 0.09375)"/>
      <use xlink:href="#DejaVuSans-2f" transform="translate(97.412109 0.09375)"/>
      <use xlink:href="#DejaVuSans-Oblique-6e" transform="translate(131.103516 0.09375)"/>
      <use xlink:href="#DejaVuSans-2c" transform="translate(194.482422 0.09375)"/>
      <use xlink:href="#DejaVuSans-Oblique-6e" transform="translate(245.751953 0.09375)"/>
      <use xlink:href="#DejaVuSans-3d" transform="translate(328.613281 0.09375)"/>
      <use xlink:href="#DejaVuSans-35" transform="translate(431.884766 0.09375)"/>
     </g>
    </g>
   </g>
   <g id="matplotlib.axis_2">
    <g id="ytick_1">
     <g id="line2d_10">
      <path d="M 59.984063 515.228509 
L 617.984063 515.228509 
" clip-path="url(#pb3928c6562)" style="fill: none; stroke: #ffffff; stroke-linecap: round"/>
     </g>
     <g id="text_11">
      <!-- 0.175 -->
      <g style="fill: #262626" transform="translate(22.96 519.165306)scale(0.11 -0.11)">
       <defs>
        <path id="ArialMT-37" d="M 303 3981 
L 303 4522 
L 3269 4522 
L 3269 4084 
Q 2831 3619 2401 2847 
Q 1972 2075 1738 1259 
Q 1569 684 1522 0 
L 944 0 
Q 953 541 1156 1306 
Q 1359 2072 1739 2783 
Q 2119 3494 2547 3981 
L 303 3981 
z
" transform="scale(0.015625)"/>
       </defs>
       <use xlink:href="#ArialMT-30"/>
       <use xlink:href="#ArialMT-2e" x="55.615234"/>
       <use xlink:href="#ArialMT-31" x="83.398438"/>
       <use xlink:href="#ArialMT-37" x="139.013672"/>
       <use xlink:href="#ArialMT-35" x="194.628906"/>
      </g>
     </g>
    </g>
    <g id="ytick_2">
     <g id="line2d_11">
      <path d="M 59.984063 453.707472 
L 617.984063 453.707472 
" clip-path="url(#pb3928c6562)" style="fill: none; stroke: #ffffff; stroke-linecap: round"/>
     </g>
     <g id="text_12">
      <!-- 0.200 -->
      <g style="fill: #262626" transform="translate(22.96 457.644269)scale(0.11 -0.11)">
       <use xlink:href="#ArialMT-30"/>
       <use xlink:href="#ArialMT-2e" x="55.615234"/>
       <use xlink:href="#ArialMT-32" x="83.398438"/>
       <use xlink:href="#ArialMT-30" x="139.013672"/>
       <use xlink:href="#ArialMT-30" x="194.628906"/>
      </g>
     </g>
    </g>
    <g id="ytick_3">
     <g id="line2d_12">
      <path d="M 59.984063 392.186435 
L 617.984063 392.186435 
" clip-path="url(#pb3928c6562)" style="fill: none; stroke: #ffffff; stroke-linecap: round"/>
     </g>
     <g id="text_13">
      <!-- 0.225 -->
      <g style="fill: #262626" transform="translate(22.96 396.123232)scale(0.11 -0.11)">
       <use xlink:href="#ArialMT-30"/>
       <use xlink:href="#ArialMT-2e" x="55.615234"/>
       <use xlink:href="#ArialMT-32" x="83.398438"/>
       <use xlink:href="#ArialMT-32" x="139.013672"/>
       <use xlink:href="#ArialMT-35" x="194.628906"/>
      </g>
     </g>
    </g>
    <g id="ytick_4">
     <g id="line2d_13">
      <path d="M 59.984063 330.665398 
L 617.984063 330.665398 
" clip-path="url(#pb3928c6562)" style="fill: none; stroke: #ffffff; stroke-linecap: round"/>
     </g>
     <g id="text_14">
      <!-- 0.250 -->
      <g style="fill: #262626" transform="translate(22.96 334.602195)scale(0.11 -0.11)">
       <use xlink:href="#ArialMT-30"/>
       <use xlink:href="#ArialMT-2e" x="55.615234"/>
       <use xlink:href="#ArialMT-32" x="83.398438"/>
       <use xlink:href="#ArialMT-35" x="139.013672"/>
       <use xlink:href="#ArialMT-30" x="194.628906"/>
      </g>
     </g>
    </g>
    <g id="ytick_5">
     <g id="line2d_14">
      <path d="M 59.984063 269.144361 
L 617.984063 269.144361 
" clip-path="url(#pb3928c6562)" style="fill: none; stroke: #ffffff; stroke-linecap: round"/>
     </g>
     <g id="text_15">
      <!-- 0.275 -->
      <g style="fill: #262626" transform="translate(22.96 273.081158)scale(0.11 -0.11)">
       <use xlink:href="#ArialMT-30"/>
       <use xlink:href="#ArialMT-2e" x="55.615234"/>
       <use xlink:href="#ArialMT-32" x="83.398438"/>
       <use xlink:href="#ArialMT-37" x="139.013672"/>
       <use xlink:href="#ArialMT-35" x="194.628906"/>
      </g>
     </g>
    </g>
    <g id="ytick_6">
     <g id="line2d_15">
      <path d="M 59.984063 207.623324 
L 617.984063 207.623324 
" clip-path="url(#pb3928c6562)" style="fill: none; stroke: #ffffff; stroke-linecap: round"/>
     </g>
     <g id="text_16">
      <!-- 0.300 -->
      <g style="fill: #262626" transform="translate(22.96 211.56012)scale(0.11 -0.11)">
       <use xlink:href="#ArialMT-30"/>
       <use xlink:href="#ArialMT-2e" x="55.615234"/>
       <use xlink:href="#ArialMT-33" x="83.398438"/>
       <use xlink:href="#ArialMT-30" x="139.013672"/>
       <use xlink:href="#ArialMT-30" x="194.628906"/>
      </g>
     </g>
    </g>
    <g id="ytick_7">
     <g id="line2d_16">
      <path d="M 59.984063 146.102287 
L 617.984063 146.102287 
" clip-path="url(#pb3928c6562)" style="fill: none; stroke: #ffffff; stroke-linecap: round"/>
     </g>
     <g id="text_17">
      <!-- 0.325 -->
      <g style="fill: #262626" transform="translate(22.96 150.039083)scale(0.11 -0.11)">
       <use xlink:href="#ArialMT-30"/>
       <use xlink:href="#ArialMT-2e" x="55.615234"/>
       <use xlink:href="#ArialMT-33" x="83.398438"/>
       <use xlink:href="#ArialMT-32" x="139.013672"/>
       <use xlink:href="#ArialMT-35" x="194.628906"/>
      </g>
     </g>
    </g>
    <g id="ytick_8">
     <g id="line2d_17">
      <path d="M 59.984063 84.58125 
L 617.984063 84.58125 
" clip-path="url(#pb3928c6562)" style="fill: none; stroke: #ffffff; stroke-linecap: round"/>
     </g>
     <g id="text_18">
      <!-- 0.350 -->
      <g style="fill: #262626" transform="translate(22.96 88.518046)scale(0.11 -0.11)">
       <use xlink:href="#ArialMT-30"/>
       <use xlink:href="#ArialMT-2e" x="55.615234"/>
       <use xlink:href="#ArialMT-33" x="83.398438"/>
       <use xlink:href="#ArialMT-35" x="139.013672"/>
       <use xlink:href="#ArialMT-30" x="194.628906"/>
      </g>
     </g>
    </g>
    <g id="ytick_9">
     <g id="line2d_18">
      <path d="M 59.984063 23.060213 
L 617.984063 23.060213 
" clip-path="url(#pb3928c6562)" style="fill: none; stroke: #ffffff; stroke-linecap: round"/>
     </g>
     <g id="text_19">
      <!-- 0.375 -->
      <g style="fill: #262626" transform="translate(22.96 26.997009)scale(0.11 -0.11)">
       <use xlink:href="#ArialMT-30"/>
       <use xlink:href="#ArialMT-2e" x="55.615234"/>
       <use xlink:href="#ArialMT-33" x="83.398438"/>
       <use xlink:href="#ArialMT-37" x="139.013672"/>
       <use xlink:href="#ArialMT-35" x="194.628906"/>
      </g>
     </g>
    </g>
    <g id="text_20">
     <!-- $L_{m, n, \Delta}$ -->
     <g style="fill: #262626" transform="translate(15.96 296.46)rotate(-90)scale(0.12 -0.12)">
      <defs>
       <path id="DejaVuSans-Oblique-4c" d="M 1075 4666 
L 1709 4666 
L 909 525 
L 3181 525 
L 3078 0 
L 172 0 
L 1075 4666 
z
" transform="scale(0.015625)"/>
       <path id="DejaVuSans-394" d="M 2188 4044 
L 906 525 
L 3472 525 
L 2188 4044 
z
M 50 0 
L 1831 4666 
L 2547 4666 
L 4325 0 
L 50 0 
z
" transform="scale(0.015625)"/>
      </defs>
      <use xlink:href="#DejaVuSans-Oblique-4c" transform="translate(0 0.09375)"/>
      <use xlink:href="#DejaVuSans-Oblique-6d" transform="translate(55.712891 -16.3125)scale(0.7)"/>
      <use xlink:href="#DejaVuSans-2c" transform="translate(123.901367 -16.3125)scale(0.7)"/>
      <use xlink:href="#DejaVuSans-Oblique-6e" transform="translate(159.790039 -16.3125)scale(0.7)"/>
      <use xlink:href="#DejaVuSans-2c" transform="translate(204.155273 -16.3125)scale(0.7)"/>
      <use xlink:href="#DejaVuSans-394" transform="translate(240.043945 -16.3125)scale(0.7)"/>
     </g>
    </g>
   </g>
   <g id="PolyCollection_1">
    <defs>
     <path id="m49681eb55e" d="M 59.984063 -131.628909 
L 59.984063 -121.462557 
L 87.884062 -120.615413 
L 115.784063 -100.448448 
L 143.684063 -99.672175 
L 171.584063 -91.497321 
L 199.484062 -90.347924 
L 227.384062 -82.714394 
L 255.284062 -84.318432 
L 283.184063 -79.867261 
L 311.084063 -77.751799 
L 338.984062 -76.00331 
L 366.884063 -74.601122 
L 394.784063 -73.100132 
L 422.684062 -71.190396 
L 450.584062 -71.596004 
L 478.484062 -70.038845 
L 506.384063 -69.892671 
L 534.284063 -69.064044 
L 562.184062 -68.158516 
L 590.084063 -67.614609 
L 617.984063 -66.44331 
L 617.984063 -68.961181 
L 617.984063 -68.961181 
L 590.084063 -70.368782 
L 562.184062 -70.917489 
L 534.284063 -72.064179 
L 506.384063 -72.986995 
L 478.484062 -73.004467 
L 450.584062 -74.842469 
L 422.684062 -74.207572 
L 394.784063 -76.479175 
L 366.884063 -78.272882 
L 338.984062 -79.925091 
L 311.084063 -81.851007 
L 283.184063 -84.452793 
L 255.284062 -89.331965 
L 227.384062 -87.658962 
L 199.484062 -96.314295 
L 171.584063 -97.261043 
L 143.684063 -107.057284 
L 115.784063 -107.877359 
L 87.884062 -130.451396 
L 59.984063 -131.628909 
z
" style="stroke: #4c72b0; stroke-opacity: 0.2"/>
    </defs>
    <g clip-path="url(#pb3928c6562)">
     <use xlink:href="#m49681eb55e" x="0" y="592.534219" style="fill: #4c72b0; fill-opacity: 0.2; stroke: #4c72b0; stroke-opacity: 0.2"/>
    </g>
   </g>
   <g id="PolyCollection_2">
    <defs>
     <path id="m674522a534" d="M 59.984063 -131.767823 
L 59.984063 -121.668468 
L 87.884062 -120.595603 
L 115.784063 -99.562606 
L 143.684063 -99.875195 
L 171.584063 -89.314432 
L 199.484062 -90.632889 
L 227.384062 -85.620278 
L 255.284062 -81.872601 
L 283.184063 -79.403947 
L 311.084063 -78.8334 
L 338.984062 -75.17942 
L 366.884063 -75.029186 
L 394.784063 -72.612393 
L 422.684062 -73.052576 
L 450.584062 -71.003187 
L 478.484062 -70.196154 
L 506.384063 -71.018014 
L 534.284063 -71.266682 
L 562.184062 -69.506688 
L 590.084063 -69.08896 
L 617.984063 -67.139851 
L 617.984063 -69.723919 
L 617.984063 -69.723919 
L 590.084063 -71.899303 
L 562.184062 -72.553887 
L 534.284063 -74.382476 
L 506.384063 -74.188501 
L 478.484062 -73.230741 
L 450.584062 -74.229658 
L 422.684062 -76.748022 
L 394.784063 -76.100328 
L 366.884063 -78.987326 
L 338.984062 -78.903104 
L 311.084063 -83.157714 
L 283.184063 -84.017225 
L 255.284062 -86.635191 
L 227.384062 -90.709975 
L 199.484062 -96.459485 
L 171.584063 -95.295015 
L 143.684063 -107.695503 
L 115.784063 -107.188077 
L 87.884062 -130.659337 
L 59.984063 -131.767823 
z
" style="stroke: #dd8452; stroke-opacity: 0.2"/>
    </defs>
    <g clip-path="url(#pb3928c6562)">
     <use xlink:href="#m674522a534" x="0" y="592.534219" style="fill: #dd8452; fill-opacity: 0.2; stroke: #dd8452; stroke-opacity: 0.2"/>
    </g>
   </g>
   <g id="PolyCollection_3">
    <defs>
     <path id="m032fbe8c36" d="M 59.984063 -131.702734 
L 59.984063 -121.30248 
L 87.884062 -120.842733 
L 115.784063 -99.371706 
L 143.684063 -100.715634 
L 171.584063 -90.273606 
L 199.484062 -91.512086 
L 227.384062 -85.431347 
L 255.284062 -83.166942 
L 283.184063 -81.698312 
L 311.084063 -81.60886 
L 338.984062 -79.955975 
L 366.884063 -80.376163 
L 394.784063 -76.299041 
L 422.684062 -77.5585 
L 450.584062 -75.572724 
L 478.484062 -74.172259 
L 506.384063 -73.5648 
L 534.284063 -73.080445 
L 562.184062 -72.961279 
L 590.084063 -72.534077 
L 617.984063 -72.045969 
L 617.984063 -75.347803 
L 617.984063 -75.347803 
L 590.084063 -75.63566 
L 562.184062 -76.331524 
L 534.284063 -76.479052 
L 506.384063 -76.81631 
L 478.484062 -77.887638 
L 450.584062 -79.185916 
L 422.684062 -81.629901 
L 394.784063 -80.545162 
L 366.884063 -84.798726 
L 338.984062 -84.117996 
L 311.084063 -86.409101 
L 283.184063 -86.554537 
L 255.284062 -88.33311 
L 227.384062 -90.752055 
L 199.484062 -97.564711 
L 171.584063 -96.528635 
L 143.684063 -108.925062 
L 115.784063 -107.124895 
L 87.884062 -130.32294 
L 59.984063 -131.702734 
z
" style="stroke: #55a868; stroke-opacity: 0.2"/>
    </defs>
    <g clip-path="url(#pb3928c6562)">
     <use xlink:href="#m032fbe8c36" x="0" y="592.534219" style="fill: #55a868; fill-opacity: 0.2; stroke: #55a868; stroke-opacity: 0.2"/>
    </g>
   </g>
   <g id="PolyCollection_4">
    <defs>
     <path id="m46f1dca34c" d="M 59.984063 -131.936945 
L 59.984063 -121.048951 
L 87.884062 -120.982324 
L 115.784063 -101.661827 
L 143.684063 -106.0743 
L 171.584063 -103.204713 
L 199.484062 -99.911123 
L 227.384062 -102.652254 
L 255.284062 -102.786432 
L 283.184063 -107.014957 
L 311.084063 -104.42406 
L 338.984062 -107.732538 
L 366.884063 -105.203962 
L 394.784063 -107.362982 
L 422.684062 -105.778446 
L 450.584062 -105.292368 
L 478.484062 -106.191067 
L 506.384063 -108.769168 
L 534.284063 -105.942522 
L 562.184062 -109.665406 
L 590.084063 -110.555308 
L 617.984063 -108.564487 
L 617.984063 -114.334053 
L 617.984063 -114.334053 
L 590.084063 -116.431059 
L 562.184062 -115.752482 
L 534.284063 -112.279927 
L 506.384063 -115.392215 
L 478.484062 -112.409614 
L 450.584062 -111.651798 
L 422.684062 -112.112221 
L 394.784063 -114.329931 
L 366.884063 -112.42241 
L 338.984062 -114.380748 
L 311.084063 -111.573358 
L 283.184063 -114.708409 
L 255.284062 -110.111557 
L 227.384062 -109.859382 
L 199.484062 -107.05107 
L 171.584063 -110.83566 
L 143.684063 -114.698565 
L 115.784063 -109.148568 
L 87.884062 -130.93569 
L 59.984063 -131.936945 
z
" style="stroke: #c44e52; stroke-opacity: 0.2"/>
    </defs>
    <g clip-path="url(#pb3928c6562)">
     <use xlink:href="#m46f1dca34c" x="0" y="592.534219" style="fill: #c44e52; fill-opacity: 0.2; stroke: #c44e52; stroke-opacity: 0.2"/>
    </g>
   </g>
   <g id="PolyCollection_5">
    <defs>
     <path id="m9c9a426194" d="M 59.984063 -131.877823 
L 59.984063 -121.33404 
L 87.884062 -120.60317 
L 115.784063 -106.731222 
L 143.684063 -103.892395 
L 171.584063 -114.337375 
L 199.484062 -110.220511 
L 227.384062 -113.778395 
L 255.284062 -112.862347 
L 283.184063 -112.950753 
L 311.084063 -113.339504 
L 338.984062 -119.184249 
L 366.884063 -118.58731 
L 394.784063 -122.026336 
L 422.684062 -123.017625 
L 450.584062 -122.366178 
L 478.484062 -122.818173 
L 506.384063 -125.633807 
L 534.284063 -121.965061 
L 562.184062 -124.985129 
L 590.084063 -128.746525 
L 617.984063 -131.557052 
L 617.984063 -138.015469 
L 617.984063 -138.015469 
L 590.084063 -135.534387 
L 562.184062 -131.758411 
L 534.284063 -128.617023 
L 506.384063 -132.581685 
L 478.484062 -130.157203 
L 450.584062 -129.287664 
L 422.684062 -130.324601 
L 394.784063 -129.827819 
L 366.884063 -125.819416 
L 338.984062 -127.088472 
L 311.084063 -121.925442 
L 283.184063 -120.54774 
L 255.284062 -121.239913 
L 227.384062 -121.184236 
L 199.484062 -118.394565 
L 171.584063 -123.38792 
L 143.684063 -112.104531 
L 115.784063 -114.590596 
L 87.884062 -130.669857 
L 59.984063 -131.877823 
z
" style="stroke: #8172b3; stroke-opacity: 0.2"/>
    </defs>
    <g clip-path="url(#pb3928c6562)">
     <use xlink:href="#m9c9a426194" x="0" y="592.534219" style="fill: #8172b3; fill-opacity: 0.2; stroke: #8172b3; stroke-opacity: 0.2"/>
    </g>
   </g>
   <g id="PolyCollection_6">
    <defs>
     <path id="maa1a845e12" d="M 59.984063 -132.080289 
L 59.984063 -121.946913 
L 87.884062 -120.612275 
L 115.784063 -110.157821 
L 143.684063 -111.691294 
L 171.584063 -117.803286 
L 199.484062 -115.492925 
L 227.384062 -122.31407 
L 255.284062 -122.749947 
L 283.184063 -129.346048 
L 311.084063 -127.181922 
L 338.984062 -139.810345 
L 366.884063 -136.982777 
L 394.784063 -138.799309 
L 422.684062 -142.089146 
L 450.584062 -140.753094 
L 478.484062 -142.878584 
L 506.384063 -145.31211 
L 534.284063 -144.74138 
L 562.184062 -150.037726 
L 590.084063 -149.242812 
L 617.984063 -154.91296 
L 617.984063 -162.247683 
L 617.984063 -162.247683 
L 590.084063 -156.870683 
L 562.184062 -158.223715 
L 534.284063 -152.329569 
L 506.384063 -153.464263 
L 478.484062 -150.95402 
L 450.584062 -148.643782 
L 422.684062 -150.666225 
L 394.784063 -147.767476 
L 366.884063 -145.815968 
L 338.984062 -148.727266 
L 311.084063 -136.120129 
L 283.184063 -139.140566 
L 255.284062 -131.569849 
L 227.384062 -130.625378 
L 199.484062 -124.256412 
L 171.584063 -126.386701 
L 143.684063 -121.289622 
L 115.784063 -119.3837 
L 87.884062 -131.228222 
L 59.984063 -132.080289 
z
" style="stroke: #937860; stroke-opacity: 0.2"/>
    </defs>
    <g clip-path="url(#pb3928c6562)">
     <use xlink:href="#maa1a845e12" x="0" y="592.534219" style="fill: #937860; fill-opacity: 0.2; stroke: #937860; stroke-opacity: 0.2"/>
    </g>
   </g>
   <g id="PolyCollection_7">
    <defs>
     <path id="mc1369f9cdf" d="M 59.984063 -131.648657 
L 59.984063 -121.768132 
L 87.884062 -120.311068 
L 115.784063 -115.789149 
L 143.684063 -116.754291 
L 171.584063 -127.824263 
L 199.484062 -123.757846 
L 227.384062 -137.861913 
L 255.284062 -134.523966 
L 283.184063 -144.79884 
L 311.084063 -145.021854 
L 338.984062 -153.549839 
L 366.884063 -151.962596 
L 394.784063 -161.030858 
L 422.684062 -161.564738 
L 450.584062 -164.548324 
L 478.484062 -166.402445 
L 506.384063 -167.085328 
L 534.284063 -165.163288 
L 562.184062 -174.20608 
L 590.084063 -171.798516 
L 617.984063 -178.942585 
L 617.984063 -186.835427 
L 617.984063 -186.835427 
L 590.084063 -180.15215 
L 562.184062 -183.333834 
L 534.284063 -173.906288 
L 506.384063 -176.001572 
L 478.484062 -175.030708 
L 450.584062 -173.518275 
L 422.684062 -170.970566 
L 394.784063 -171.094408 
L 366.884063 -161.435359 
L 338.984062 -163.032937 
L 311.084063 -154.701574 
L 283.184063 -154.255116 
L 255.284062 -144.411504 
L 227.384062 -147.882767 
L 199.484062 -133.022237 
L 171.584063 -137.687931 
L 143.684063 -126.442439 
L 115.784063 -125.639713 
L 87.884062 -130.802989 
L 59.984063 -131.648657 
z
" style="stroke: #da8bc3; stroke-opacity: 0.2"/>
    </defs>
    <g clip-path="url(#pb3928c6562)">
     <use xlink:href="#mc1369f9cdf" x="0" y="592.534219" style="fill: #da8bc3; fill-opacity: 0.2; stroke: #da8bc3; stroke-opacity: 0.2"/>
    </g>
   </g>
   <g id="PolyCollection_8">
    <defs>
     <path id="meed52e0e54" d="M 59.984063 -131.597533 
L 59.984063 -121.373967 
L 87.884062 -120.536358 
L 115.784063 -125.080425 
L 143.684063 -123.286226 
L 171.584063 -147.30896 
L 199.484062 -143.792295 
L 227.384062 -168.828404 
L 255.284062 -168.46992 
L 283.184063 -182.144509 
L 311.084063 -182.079912 
L 338.984062 -201.141405 
L 366.884063 -199.707904 
L 394.784063 -210.495741 
L 422.684062 -209.340683 
L 450.584062 -212.693272 
L 478.484062 -212.939725 
L 506.384063 -221.571681 
L 534.284063 -221.164042 
L 562.184062 -229.134462 
L 590.084063 -229.571999 
L 617.984063 -231.18342 
L 617.984063 -240.26817 
L 617.984063 -240.26817 
L 590.084063 -239.35489 
L 562.184062 -238.550564 
L 534.284063 -230.939427 
L 506.384063 -230.828751 
L 478.484062 -223.59806 
L 450.584062 -222.318423 
L 422.684062 -219.314043 
L 394.784063 -220.498631 
L 366.884063 -210.077336 
L 338.984062 -211.828902 
L 311.084063 -193.420884 
L 283.184063 -193.23343 
L 255.284062 -179.704154 
L 227.384062 -180.198414 
L 199.484062 -155.17867 
L 171.584063 -158.951078 
L 143.684063 -133.775255 
L 115.784063 -135.704431 
L 87.884062 -130.841501 
L 59.984063 -131.597533 
z
" style="stroke: #8c8c8c; stroke-opacity: 0.2"/>
    </defs>
    <g clip-path="url(#pb3928c6562)">
     <use xlink:href="#meed52e0e54" x="0" y="592.534219" style="fill: #8c8c8c; fill-opacity: 0.2; stroke: #8c8c8c; stroke-opacity: 0.2"/>
    </g>
   </g>
   <g id="PolyCollection_9">
    <defs>
     <path id="m003ea6ea7c" d="M 59.984063 -131.900463 
L 59.984063 -121.37409 
L 87.884062 -120.908622 
L 115.784063 -154.381541 
L 143.684063 -150.456376 
L 171.584063 -218.399102 
L 199.484062 -208.004631 
L 227.384062 -265.253524 
L 255.284062 -258.515678 
L 283.184063 -290.484409 
L 311.084063 -294.529663 
L 338.984062 -321.118317 
L 366.884063 -322.006127 
L 394.784063 -336.352648 
L 422.684062 -337.483712 
L 450.584062 -358.192124 
L 478.484062 -354.164834 
L 506.384063 -373.506741 
L 534.284063 -367.015594 
L 562.184062 -380.099458 
L 590.084063 -381.005294 
L 617.984063 -384.921169 
L 617.984063 -393.957687 
L 617.984063 -393.957687 
L 590.084063 -390.992557 
L 562.184062 -389.803848 
L 534.284063 -377.649998 
L 506.384063 -383.742734 
L 478.484062 -365.0938 
L 450.584062 -369.199222 
L 422.684062 -349.523626 
L 394.784063 -347.80928 
L 366.884063 -334.315687 
L 338.984062 -333.058812 
L 311.084063 -307.030922 
L 283.184063 -303.37608 
L 255.284062 -272.417034 
L 227.384062 -278.665172 
L 199.484062 -221.181883 
L 171.584063 -233.100169 
L 143.684063 -163.506526 
L 115.784063 -168.371856 
L 87.884062 -130.426542 
L 59.984063 -131.900463 
z
" style="stroke: #ccb974; stroke-opacity: 0.2"/>
    </defs>
    <g clip-path="url(#pb3928c6562)">
     <use xlink:href="#m003ea6ea7c" x="0" y="592.534219" style="fill: #ccb974; fill-opacity: 0.2; stroke: #ccb974; stroke-opacity: 0.2"/>
    </g>
   </g>
   <g id="PolyCollection_10">
    <defs>
     <path id="m5171dc4ff9" d="M 59.984063 -131.845709 
L 59.984063 -121.641399 
L 87.884062 -120.707018 
L 115.784063 -194.866875 
L 143.684063 -194.428045 
L 171.584063 -295.798903 
L 199.484062 -286.600032 
L 227.384062 -372.571621 
L 255.284062 -368.053762 
L 283.184063 -416.936225 
L 311.084063 -418.653523 
L 338.984062 -461.205717 
L 366.884063 -453.658685 
L 394.784063 -482.118502 
L 422.684062 -486.311591 
L 450.584062 -501.325431 
L 478.484062 -507.77505 
L 506.384063 -522.552157 
L 534.284063 -525.202299 
L 562.184062 -539.473334 
L 590.084063 -540.62064 
L 617.984063 -550.202726 
L 617.984063 -560.625128 
L 617.984063 -560.625128 
L 590.084063 -551.242062 
L 562.184062 -550.16446 
L 534.284063 -536.517187 
L 506.384063 -533.524434 
L 478.484062 -519.101319 
L 450.584062 -512.618356 
L 422.684062 -498.123199 
L 394.784063 -493.894428 
L 366.884063 -466.773863 
L 338.984062 -474.292164 
L 311.084063 -432.917606 
L 283.184063 -431.258753 
L 255.284062 -382.738895 
L 227.384062 -387.490042 
L 199.484062 -301.540785 
L 171.584063 -311.319984 
L 143.684063 -208.425496 
L 115.784063 -210.080843 
L 87.884062 -130.539863 
L 59.984063 -131.845709 
z
" style="stroke: #64b5cd; stroke-opacity: 0.2"/>
    </defs>
    <g clip-path="url(#pb3928c6562)">
     <use xlink:href="#m5171dc4ff9" x="0" y="592.534219" style="fill: #64b5cd; fill-opacity: 0.2; stroke: #64b5cd; stroke-opacity: 0.2"/>
    </g>
   </g>
   <g id="line2d_19">
    <path d="M 59.984063 465.974766 
L 87.884062 466.836061 
L 115.784063 488.592361 
L 143.684063 489.333074 
L 171.584063 498.194564 
L 199.484062 499.225657 
L 227.384062 507.380885 
L 255.284062 505.6706 
L 283.184063 510.520919 
L 311.084063 512.647086 
L 338.984062 514.583768 
L 366.884063 516.141481 
L 394.784063 517.773019 
L 422.684062 519.830282 
L 450.584062 519.338114 
L 478.484062 520.981956 
L 506.384063 521.100076 
L 534.284063 522.035196 
L 562.184062 523.026915 
L 590.084063 523.573222 
L 617.984063 524.783956 
" clip-path="url(#pb3928c6562)" style="fill: none; stroke: #4c72b0; stroke-width: 2; stroke-linecap: round"/>
   </g>
   <g id="line2d_20">
    <path d="M 59.984063 465.974766 
L 87.884062 466.836061 
L 115.784063 489.229718 
L 143.684063 488.936878 
L 171.584063 500.283818 
L 199.484062 498.888521 
L 227.384062 504.509083 
L 255.284062 508.41936 
L 283.184063 510.894967 
L 311.084063 511.593846 
L 338.984062 515.531192 
L 366.884063 515.52381 
L 394.784063 518.233196 
L 422.684062 517.672124 
L 450.584062 519.936098 
L 478.484062 520.834306 
L 506.384063 520.012385 
L 534.284063 519.741692 
L 562.184062 521.528263 
L 590.084063 522.07457 
L 617.984063 524.085077 
" clip-path="url(#pb3928c6562)" style="fill: none; stroke: #dd8452; stroke-width: 2; stroke-linecap: round"/>
   </g>
   <g id="line2d_21">
    <path d="M 59.984063 465.974766 
L 87.884062 466.836061 
L 115.784063 489.303544 
L 143.684063 487.504669 
L 171.584063 499.03125 
L 199.484062 498.005079 
L 227.384062 504.482014 
L 255.284062 506.829657 
L 283.184063 508.409517 
L 311.084063 508.539942 
L 338.984062 510.501232 
L 366.884063 509.890944 
L 394.784063 514.106365 
L 422.684062 513.026056 
L 450.584062 515.169449 
L 478.484062 516.513068 
L 506.384063 517.33745 
L 534.284063 517.812392 
L 562.184062 517.915748 
L 590.084063 518.555566 
L 617.984063 518.845946 
" clip-path="url(#pb3928c6562)" style="fill: none; stroke: #55a868; stroke-width: 2; stroke-linecap: round"/>
   </g>
   <g id="line2d_22">
    <path d="M 59.984063 465.974766 
L 87.884062 466.836061 
L 115.784063 487.130621 
L 143.684063 481.992384 
L 171.584063 485.609821 
L 199.484062 489.037773 
L 227.384062 486.227492 
L 255.284062 486.19304 
L 283.184063 482.0982 
L 311.084063 484.627945 
L 338.984062 481.546971 
L 366.884063 483.564861 
L 394.784063 481.711848 
L 422.684062 483.569783 
L 450.584062 484.138237 
L 478.484062 483.126832 
L 506.384063 480.49127 
L 534.284063 483.276943 
L 562.184062 479.831765 
L 590.084063 479.177181 
L 617.984063 481.123707 
" clip-path="url(#pb3928c6562)" style="fill: none; stroke: #c44e52; stroke-width: 2; stroke-linecap: round"/>
   </g>
   <g id="line2d_23">
    <path d="M 59.984063 465.974766 
L 87.884062 466.836061 
L 115.784063 481.802899 
L 143.684063 484.70177 
L 171.584063 473.728878 
L 199.484062 478.256826 
L 227.384062 475.148784 
L 255.284062 475.542518 
L 283.184063 475.766455 
L 311.084063 474.860865 
L 338.984062 469.584821 
L 366.884063 470.345221 
L 394.784063 466.587516 
L 422.684062 465.947697 
L 450.584062 466.754853 
L 478.484062 466.033827 
L 506.384063 463.600054 
L 534.284063 467.36022 
L 562.184062 464.323542 
L 590.084063 460.314831 
L 617.984063 457.765399 
" clip-path="url(#pb3928c6562)" style="fill: none; stroke: #8172b3; stroke-width: 2; stroke-linecap: round"/>
   </g>
   <g id="line2d_24">
    <path d="M 59.984063 465.974766 
L 87.884062 466.836061 
L 115.784063 477.715441 
L 143.684063 476.189719 
L 171.584063 470.512558 
L 199.484062 472.577204 
L 227.384062 465.991992 
L 255.284062 465.443225 
L 283.184063 458.407679 
L 311.084063 460.885746 
L 338.984062 448.325611 
L 366.884063 451.418889 
L 394.784063 449.152454 
L 422.684062 446.364321 
L 450.584062 447.833443 
L 478.484062 445.692511 
L 506.384063 443.088941 
L 534.284063 443.923166 
L 562.184062 438.373968 
L 590.084063 439.478886 
L 617.984063 434.19546 
" clip-path="url(#pb3928c6562)" style="fill: none; stroke: #937860; stroke-width: 2; stroke-linecap: round"/>
   </g>
   <g id="line2d_25">
    <path d="M 59.984063 465.974766 
L 87.884062 466.836061 
L 115.784063 471.89309 
L 143.684063 471.019492 
L 171.584063 460.021991 
L 199.484062 463.961798 
L 227.384062 449.482207 
L 255.284062 453.232529 
L 283.184063 443.187374 
L 311.084063 442.522947 
L 338.984062 434.151164 
L 366.884063 435.996796 
L 394.784063 426.333071 
L 422.684062 426.478261 
L 450.584062 423.623685 
L 478.484062 421.842035 
L 506.384063 420.724813 
L 534.284063 423.08476 
L 562.184062 413.63759 
L 590.084063 416.703798 
L 617.984063 409.643644 
" clip-path="url(#pb3928c6562)" style="fill: none; stroke: #da8bc3; stroke-width: 2; stroke-linecap: round"/>
   </g>
   <g id="line2d_26">
    <path d="M 59.984063 465.974766 
L 87.884062 466.836061 
L 115.784063 462.290887 
L 143.684063 463.801843 
L 171.584063 439.446895 
L 199.484062 443.179992 
L 227.384062 418.185225 
L 255.284062 418.613411 
L 283.184063 404.803169 
L 311.084063 404.74657 
L 338.984062 386.095852 
L 366.884063 387.616652 
L 394.784063 377.155615 
L 422.684062 377.847111 
L 450.584062 375.081126 
L 478.484062 374.426542 
L 506.384063 366.099054 
L 534.284063 366.593683 
L 562.184062 358.679617 
L 590.084063 358.36709 
L 617.984063 356.888124 
" clip-path="url(#pb3928c6562)" style="fill: none; stroke: #8c8c8c; stroke-width: 2; stroke-linecap: round"/>
   </g>
   <g id="line2d_27">
    <path d="M 59.984063 465.974766 
L 87.884062 466.836061 
L 115.784063 430.964375 
L 143.684063 435.430802 
L 171.584063 366.99234 
L 199.484062 377.829885 
L 227.384062 320.590713 
L 255.284062 327.035656 
L 283.184063 295.98968 
L 311.084063 291.71766 
L 338.984062 265.558915 
L 366.884063 263.988898 
L 394.784063 250.422279 
L 422.684062 248.822732 
L 450.584062 228.533094 
L 478.484062 232.782967 
L 506.384063 213.790192 
L 534.284063 220.092407 
L 562.184062 207.539655 
L 590.084063 206.387981 
L 617.984063 203.009246 
" clip-path="url(#pb3928c6562)" style="fill: none; stroke: #ccb974; stroke-width: 2; stroke-linecap: round"/>
   </g>
   <g id="line2d_28">
    <path d="M 59.984063 465.974766 
L 87.884062 466.836061 
L 115.784063 390.006129 
L 143.684063 391.455565 
L 171.584063 288.93937 
L 199.484062 298.755666 
L 227.384062 212.896907 
L 255.284062 217.3215 
L 283.184063 168.267086 
L 311.084063 166.967762 
L 338.984062 124.813547 
L 366.884063 132.555354 
L 394.784063 104.41071 
L 422.684062 100.475825 
L 450.584062 85.787062 
L 478.484062 78.889323 
L 506.384063 64.530313 
L 534.284063 61.727415 
L 562.184062 47.405317 
L 590.084063 46.248722 
L 617.984063 37.104235 
" clip-path="url(#pb3928c6562)" style="fill: none; stroke: #64b5cd; stroke-width: 2; stroke-linecap: round"/>
   </g>
   <g id="line2d_29"/>
   <g id="line2d_30"/>
   <g id="line2d_31"/>
   <g id="line2d_32"/>
   <g id="line2d_33"/>
   <g id="line2d_34"/>
   <g id="line2d_35"/>
   <g id="line2d_36"/>
   <g id="line2d_37"/>
   <g id="line2d_38"/>
   <g id="patch_3">
    <path d="M 59.984063 550.8 
L 59.984063 7.2 
" style="fill: none; stroke: #ffffff; stroke-width: 1.25; stroke-linejoin: miter; stroke-linecap: square"/>
   </g>
   <g id="patch_4">
    <path d="M 617.984063 550.8 
L 617.984063 7.2 
" style="fill: none; stroke: #ffffff; stroke-width: 1.25; stroke-linejoin: miter; stroke-linecap: square"/>
   </g>
   <g id="patch_5">
    <path d="M 59.984063 550.8 
L 617.984063 550.8 
" style="fill: none; stroke: #ffffff; stroke-width: 1.25; stroke-linejoin: miter; stroke-linecap: square"/>
   </g>
   <g id="patch_6">
    <path d="M 59.984063 7.2 
L 617.984063 7.2 
" style="fill: none; stroke: #ffffff; stroke-width: 1.25; stroke-linejoin: miter; stroke-linecap: square"/>
   </g>
   <g id="legend_1">
    <g id="patch_7">
     <path d="M 67.684062 188.072812 
L 118.174062 188.072812 
Q 120.374062 188.072812 120.374062 185.872812 
L 120.374062 14.9 
Q 120.374062 12.7 118.174062 12.7 
L 67.684062 12.7 
Q 65.484062 12.7 65.484062 14.9 
L 65.484062 185.872812 
Q 65.484062 188.072812 67.684062 188.072812 
z
" style="fill: #eaeaf2; opacity: 0.8; stroke: #cccccc; stroke-linejoin: miter"/>
    </g>
    <g id="text_21">
     <!-- Delta -->
     <g style="fill: #262626" transform="translate(78.922813 25.689375)scale(0.12 -0.12)">
      <defs>
       <path id="ArialMT-44" d="M 494 0 
L 494 4581 
L 2072 4581 
Q 2606 4581 2888 4516 
Q 3281 4425 3559 4188 
Q 3922 3881 4101 3404 
Q 4281 2928 4281 2316 
Q 4281 1794 4159 1391 
Q 4038 988 3847 723 
Q 3656 459 3429 307 
Q 3203 156 2883 78 
Q 2563 0 2147 0 
L 494 0 
z
M 1100 541 
L 2078 541 
Q 2531 541 2789 625 
Q 3047 709 3200 863 
Q 3416 1078 3536 1442 
Q 3656 1806 3656 2325 
Q 3656 3044 3420 3430 
Q 3184 3816 2847 3947 
Q 2603 4041 2063 4041 
L 1100 4041 
L 1100 541 
z
" transform="scale(0.015625)"/>
       <path id="ArialMT-65" d="M 2694 1069 
L 3275 997 
Q 3138 488 2766 206 
Q 2394 -75 1816 -75 
Q 1088 -75 661 373 
Q 234 822 234 1631 
Q 234 2469 665 2931 
Q 1097 3394 1784 3394 
Q 2450 3394 2872 2941 
Q 3294 2488 3294 1666 
Q 3294 1616 3291 1516 
L 816 1516 
Q 847 969 1125 678 
Q 1403 388 1819 388 
Q 2128 388 2347 550 
Q 2566 713 2694 1069 
z
M 847 1978 
L 2700 1978 
Q 2663 2397 2488 2606 
Q 2219 2931 1791 2931 
Q 1403 2931 1139 2672 
Q 875 2413 847 1978 
z
" transform="scale(0.015625)"/>
       <path id="ArialMT-6c" d="M 409 0 
L 409 4581 
L 972 4581 
L 972 0 
L 409 0 
z
" transform="scale(0.015625)"/>
       <path id="ArialMT-74" d="M 1650 503 
L 1731 6 
Q 1494 -44 1306 -44 
Q 1000 -44 831 53 
Q 663 150 594 308 
Q 525 466 525 972 
L 525 2881 
L 113 2881 
L 113 3319 
L 525 3319 
L 525 4141 
L 1084 4478 
L 1084 3319 
L 1650 3319 
L 1650 2881 
L 1084 2881 
L 1084 941 
Q 1084 700 1114 631 
Q 1144 563 1211 522 
Q 1278 481 1403 481 
Q 1497 481 1650 503 
z
" transform="scale(0.015625)"/>
       <path id="ArialMT-61" d="M 2588 409 
Q 2275 144 1986 34 
Q 1697 -75 1366 -75 
Q 819 -75 525 192 
Q 231 459 231 875 
Q 231 1119 342 1320 
Q 453 1522 633 1644 
Q 813 1766 1038 1828 
Q 1203 1872 1538 1913 
Q 2219 1994 2541 2106 
Q 2544 2222 2544 2253 
Q 2544 2597 2384 2738 
Q 2169 2928 1744 2928 
Q 1347 2928 1158 2789 
Q 969 2650 878 2297 
L 328 2372 
Q 403 2725 575 2942 
Q 747 3159 1072 3276 
Q 1397 3394 1825 3394 
Q 2250 3394 2515 3294 
Q 2781 3194 2906 3042 
Q 3031 2891 3081 2659 
Q 3109 2516 3109 2141 
L 3109 1391 
Q 3109 606 3145 398 
Q 3181 191 3288 0 
L 2700 0 
Q 2613 175 2588 409 
z
M 2541 1666 
Q 2234 1541 1622 1453 
Q 1275 1403 1131 1340 
Q 988 1278 909 1158 
Q 831 1038 831 891 
Q 831 666 1001 516 
Q 1172 366 1500 366 
Q 1825 366 2078 508 
Q 2331 650 2450 897 
Q 2541 1088 2541 1459 
L 2541 1666 
z
" transform="scale(0.015625)"/>
      </defs>
      <use xlink:href="#ArialMT-44"/>
      <use xlink:href="#ArialMT-65" x="72.216797"/>
      <use xlink:href="#ArialMT-6c" x="127.832031"/>
      <use xlink:href="#ArialMT-74" x="150.048828"/>
      <use xlink:href="#ArialMT-61" x="177.832031"/>
     </g>
    </g>
    <g id="line2d_39">
     <path d="M 69.884062 37.597969 
L 80.884062 37.597969 
L 91.884062 37.597969 
" style="fill: none; stroke: #4c72b0; stroke-width: 1.5; stroke-linecap: round"/>
    </g>
    <g id="text_22">
     <!-- 0 -->
     <g style="fill: #262626" transform="translate(100.684062 41.447969)scale(0.11 -0.11)">
      <use xlink:href="#ArialMT-30"/>
     </g>
    </g>
    <g id="line2d_40">
     <path d="M 69.884062 53.157812 
L 80.884062 53.157812 
L 91.884062 53.157812 
" style="fill: none; stroke: #dd8452; stroke-width: 1.5; stroke-linecap: round"/>
    </g>
    <g id="text_23">
     <!-- 0.1 -->
     <g style="fill: #262626" transform="translate(100.684062 57.007812)scale(0.11 -0.11)">
      <use xlink:href="#ArialMT-30"/>
      <use xlink:href="#ArialMT-2e" x="55.615234"/>
      <use xlink:href="#ArialMT-31" x="83.398438"/>
     </g>
    </g>
    <g id="line2d_41">
     <path d="M 69.884062 68.717656 
L 80.884062 68.717656 
L 91.884062 68.717656 
" style="fill: none; stroke: #55a868; stroke-width: 1.5; stroke-linecap: round"/>
    </g>
    <g id="text_24">
     <!-- 0.2 -->
     <g style="fill: #262626" transform="translate(100.684062 72.567656)scale(0.11 -0.11)">
      <use xlink:href="#ArialMT-30"/>
      <use xlink:href="#ArialMT-2e" x="55.615234"/>
      <use xlink:href="#ArialMT-32" x="83.398438"/>
     </g>
    </g>
    <g id="line2d_42">
     <path d="M 69.884062 84.2775 
L 80.884062 84.2775 
L 91.884062 84.2775 
" style="fill: none; stroke: #c44e52; stroke-width: 1.5; stroke-linecap: round"/>
    </g>
    <g id="text_25">
     <!-- 0.5 -->
     <g style="fill: #262626" transform="translate(100.684062 88.1275)scale(0.11 -0.11)">
      <use xlink:href="#ArialMT-30"/>
      <use xlink:href="#ArialMT-2e" x="55.615234"/>
      <use xlink:href="#ArialMT-35" x="83.398438"/>
     </g>
    </g>
    <g id="line2d_43">
     <path d="M 69.884062 99.837344 
L 80.884062 99.837344 
L 91.884062 99.837344 
" style="fill: none; stroke: #8172b3; stroke-width: 1.5; stroke-linecap: round"/>
    </g>
    <g id="text_26">
     <!-- 0.6 -->
     <g style="fill: #262626" transform="translate(100.684062 103.687344)scale(0.11 -0.11)">
      <defs>
       <path id="ArialMT-36" d="M 3184 3459 
L 2625 3416 
Q 2550 3747 2413 3897 
Q 2184 4138 1850 4138 
Q 1581 4138 1378 3988 
Q 1113 3794 959 3422 
Q 806 3050 800 2363 
Q 1003 2672 1297 2822 
Q 1591 2972 1913 2972 
Q 2475 2972 2870 2558 
Q 3266 2144 3266 1488 
Q 3266 1056 3080 686 
Q 2894 316 2569 119 
Q 2244 -78 1831 -78 
Q 1128 -78 684 439 
Q 241 956 241 2144 
Q 241 3472 731 4075 
Q 1159 4600 1884 4600 
Q 2425 4600 2770 4297 
Q 3116 3994 3184 3459 
z
M 888 1484 
Q 888 1194 1011 928 
Q 1134 663 1356 523 
Q 1578 384 1822 384 
Q 2178 384 2434 671 
Q 2691 959 2691 1453 
Q 2691 1928 2437 2201 
Q 2184 2475 1800 2475 
Q 1419 2475 1153 2201 
Q 888 1928 888 1484 
z
" transform="scale(0.015625)"/>
      </defs>
      <use xlink:href="#ArialMT-30"/>
      <use xlink:href="#ArialMT-2e" x="55.615234"/>
      <use xlink:href="#ArialMT-36" x="83.398438"/>
     </g>
    </g>
    <g id="line2d_44">
     <path d="M 69.884062 115.397188 
L 80.884062 115.397188 
L 91.884062 115.397188 
" style="fill: none; stroke: #937860; stroke-width: 1.5; stroke-linecap: round"/>
    </g>
    <g id="text_27">
     <!-- 0.7 -->
     <g style="fill: #262626" transform="translate(100.684062 119.247187)scale(0.11 -0.11)">
      <use xlink:href="#ArialMT-30"/>
      <use xlink:href="#ArialMT-2e" x="55.615234"/>
      <use xlink:href="#ArialMT-37" x="83.398438"/>
     </g>
    </g>
    <g id="line2d_45">
     <path d="M 69.884062 130.957031 
L 80.884062 130.957031 
L 91.884062 130.957031 
" style="fill: none; stroke: #da8bc3; stroke-width: 1.5; stroke-linecap: round"/>
    </g>
    <g id="text_28">
     <!-- 0.8 -->
     <g style="fill: #262626" transform="translate(100.684062 134.807031)scale(0.11 -0.11)">
      <defs>
       <path id="ArialMT-38" d="M 1131 2484 
Q 781 2613 612 2850 
Q 444 3088 444 3419 
Q 444 3919 803 4259 
Q 1163 4600 1759 4600 
Q 2359 4600 2725 4251 
Q 3091 3903 3091 3403 
Q 3091 3084 2923 2848 
Q 2756 2613 2416 2484 
Q 2838 2347 3058 2040 
Q 3278 1734 3278 1309 
Q 3278 722 2862 322 
Q 2447 -78 1769 -78 
Q 1091 -78 675 323 
Q 259 725 259 1325 
Q 259 1772 486 2073 
Q 713 2375 1131 2484 
z
M 1019 3438 
Q 1019 3113 1228 2906 
Q 1438 2700 1772 2700 
Q 2097 2700 2305 2904 
Q 2513 3109 2513 3406 
Q 2513 3716 2298 3927 
Q 2084 4138 1766 4138 
Q 1444 4138 1231 3931 
Q 1019 3725 1019 3438 
z
M 838 1322 
Q 838 1081 952 856 
Q 1066 631 1291 507 
Q 1516 384 1775 384 
Q 2178 384 2440 643 
Q 2703 903 2703 1303 
Q 2703 1709 2433 1975 
Q 2163 2241 1756 2241 
Q 1359 2241 1098 1978 
Q 838 1716 838 1322 
z
" transform="scale(0.015625)"/>
      </defs>
      <use xlink:href="#ArialMT-30"/>
      <use xlink:href="#ArialMT-2e" x="55.615234"/>
      <use xlink:href="#ArialMT-38" x="83.398438"/>
     </g>
    </g>
    <g id="line2d_46">
     <path d="M 69.884062 146.516875 
L 80.884062 146.516875 
L 91.884062 146.516875 
" style="fill: none; stroke: #8c8c8c; stroke-width: 1.5; stroke-linecap: round"/>
    </g>
    <g id="text_29">
     <!-- 1 -->
     <g style="fill: #262626" transform="translate(100.684062 150.366875)scale(0.11 -0.11)">
      <use xlink:href="#ArialMT-31"/>
     </g>
    </g>
    <g id="line2d_47">
     <path d="M 69.884062 162.076719 
L 80.884062 162.076719 
L 91.884062 162.076719 
" style="fill: none; stroke: #ccb974; stroke-width: 1.5; stroke-linecap: round"/>
    </g>
    <g id="text_30">
     <!-- 1.5 -->
     <g style="fill: #262626" transform="translate(100.684062 165.926719)scale(0.11 -0.11)">
      <use xlink:href="#ArialMT-31"/>
      <use xlink:href="#ArialMT-2e" x="55.615234"/>
      <use xlink:href="#ArialMT-35" x="83.398438"/>
     </g>
    </g>
    <g id="line2d_48">
     <path d="M 69.884062 177.636562 
L 80.884062 177.636562 
L 91.884062 177.636562 
" style="fill: none; stroke: #64b5cd; stroke-width: 1.5; stroke-linecap: round"/>
    </g>
    <g id="text_31">
     <!-- 2 -->
     <g style="fill: #262626" transform="translate(100.684062 181.486562)scale(0.11 -0.11)">
      <use xlink:href="#ArialMT-32"/>
     </g>
    </g>
   </g>
  </g>
 </g>
 <defs>
  <clipPath id="pb3928c6562">
   <rect x="59.984063" y="7.2" width="558" height="543.6"/>
  </clipPath>
 </defs>
</svg>
