<?xml version="1.0" encoding="utf-8" standalone="no"?>
<!DOCTYPE svg PUBLIC "-//W3C//DTD SVG 1.1//EN"
  "http://www.w3.org/Graphics/SVG/1.1/DTD/svg11.dtd">
<svg xmlns:xlink="http://www.w3.org/1999/xlink" width="1203.617188pt" height="604.477344pt" viewBox="0 0 1203.617188 604.477344" xmlns="http://www.w3.org/2000/svg" version="1.1">
 <metadata>
  <rdf:RDF xmlns:dc="http://purl.org/dc/elements/1.1/" xmlns:cc="http://creativecommons.org/ns#" xmlns:rdf="http://www.w3.org/1999/02/22-rdf-syntax-ns#">
   <cc:Work>
    <dc:type rdf:resource="http://purl.org/dc/dcmitype/StillImage"/>
    <dc:date>2022-03-15T17:49:56.396025</dc:date>
    <dc:format>image/svg+xml</dc:format>
    <dc:creator>
     <cc:Agent>
      <dc:title>Matplotlib v3.5.1, https://matplotlib.org/</dc:title>
     </cc:Agent>
    </dc:creator>
   </cc:Work>
  </rdf:RDF>
 </metadata>
 <defs>
  <style type="text/css">*{stroke-linejoin: round; stroke-linecap: butt}</style>
 </defs>
 <g id="figure_1">
  <g id="patch_1">
   <path d="M -0 604.477344 
L 1203.617188 604.477344 
L 1203.617188 0 
L -0 0 
z
" style="fill: #ffffff"/>
  </g>
  <g id="axes_1">
   <g id="patch_2">
    <path d="M 72.465625 554.599219 
L 1188.465625 554.599219 
L 1188.465625 10.999219 
L 72.465625 10.999219 
z
" style="fill: #ffffff"/>
   </g>
   <g id="matplotlib.axis_1">
    <g id="xtick_1">
     <g id="line2d_1">
      <defs>
       <path id="m04f4df6fff" d="M 0 0 
L 0 3.5 
" style="stroke: #000000; stroke-width: 0.8"/>
      </defs>
      <g>
       <use xlink:href="#m04f4df6fff" x="72.465625" y="554.599219" style="stroke: #000000; stroke-width: 0.8"/>
      </g>
     </g>
     <g id="text_1">
      <!-- 0.0 -->
      <g transform="translate(64.514063 569.197656)scale(0.1 -0.1)">
       <defs>
        <path id="DejaVuSans-30" d="M 2034 4250 
Q 1547 4250 1301 3770 
Q 1056 3291 1056 2328 
Q 1056 1369 1301 889 
Q 1547 409 2034 409 
Q 2525 409 2770 889 
Q 3016 1369 3016 2328 
Q 3016 3291 2770 3770 
Q 2525 4250 2034 4250 
z
M 2034 4750 
Q 2819 4750 3233 4129 
Q 3647 3509 3647 2328 
Q 3647 1150 3233 529 
Q 2819 -91 2034 -91 
Q 1250 -91 836 529 
Q 422 1150 422 2328 
Q 422 3509 836 4129 
Q 1250 4750 2034 4750 
z
" transform="scale(0.015625)"/>
        <path id="DejaVuSans-2e" d="M 684 794 
L 1344 794 
L 1344 0 
L 684 0 
L 684 794 
z
" transform="scale(0.015625)"/>
       </defs>
       <use xlink:href="#DejaVuSans-30"/>
       <use xlink:href="#DejaVuSans-2e" x="63.623047"/>
       <use xlink:href="#DejaVuSans-30" x="95.410156"/>
      </g>
     </g>
    </g>
    <g id="xtick_2">
     <g id="line2d_2">
      <g>
       <use xlink:href="#m04f4df6fff" x="211.965625" y="554.599219" style="stroke: #000000; stroke-width: 0.8"/>
      </g>
     </g>
     <g id="text_2">
      <!-- 0.5 -->
      <g transform="translate(204.014063 569.197656)scale(0.1 -0.1)">
       <defs>
        <path id="DejaVuSans-35" d="M 691 4666 
L 3169 4666 
L 3169 4134 
L 1269 4134 
L 1269 2991 
Q 1406 3038 1543 3061 
Q 1681 3084 1819 3084 
Q 2600 3084 3056 2656 
Q 3513 2228 3513 1497 
Q 3513 744 3044 326 
Q 2575 -91 1722 -91 
Q 1428 -91 1123 -41 
Q 819 9 494 109 
L 494 744 
Q 775 591 1075 516 
Q 1375 441 1709 441 
Q 2250 441 2565 725 
Q 2881 1009 2881 1497 
Q 2881 1984 2565 2268 
Q 2250 2553 1709 2553 
Q 1456 2553 1204 2497 
Q 953 2441 691 2322 
L 691 4666 
z
" transform="scale(0.015625)"/>
       </defs>
       <use xlink:href="#DejaVuSans-30"/>
       <use xlink:href="#DejaVuSans-2e" x="63.623047"/>
       <use xlink:href="#DejaVuSans-35" x="95.410156"/>
      </g>
     </g>
    </g>
    <g id="xtick_3">
     <g id="line2d_3">
      <g>
       <use xlink:href="#m04f4df6fff" x="351.465625" y="554.599219" style="stroke: #000000; stroke-width: 0.8"/>
      </g>
     </g>
     <g id="text_3">
      <!-- 1.0 -->
      <g transform="translate(343.514063 569.197656)scale(0.1 -0.1)">
       <defs>
        <path id="DejaVuSans-31" d="M 794 531 
L 1825 531 
L 1825 4091 
L 703 3866 
L 703 4441 
L 1819 4666 
L 2450 4666 
L 2450 531 
L 3481 531 
L 3481 0 
L 794 0 
L 794 531 
z
" transform="scale(0.015625)"/>
       </defs>
       <use xlink:href="#DejaVuSans-31"/>
       <use xlink:href="#DejaVuSans-2e" x="63.623047"/>
       <use xlink:href="#DejaVuSans-30" x="95.410156"/>
      </g>
     </g>
    </g>
    <g id="xtick_4">
     <g id="line2d_4">
      <g>
       <use xlink:href="#m04f4df6fff" x="490.965625" y="554.599219" style="stroke: #000000; stroke-width: 0.8"/>
      </g>
     </g>
     <g id="text_4">
      <!-- 1.5 -->
      <g transform="translate(483.014063 569.197656)scale(0.1 -0.1)">
       <use xlink:href="#DejaVuSans-31"/>
       <use xlink:href="#DejaVuSans-2e" x="63.623047"/>
       <use xlink:href="#DejaVuSans-35" x="95.410156"/>
      </g>
     </g>
    </g>
    <g id="xtick_5">
     <g id="line2d_5">
      <g>
       <use xlink:href="#m04f4df6fff" x="630.465625" y="554.599219" style="stroke: #000000; stroke-width: 0.8"/>
      </g>
     </g>
     <g id="text_5">
      <!-- 2.0 -->
      <g transform="translate(622.514063 569.197656)scale(0.1 -0.1)">
       <defs>
        <path id="DejaVuSans-32" d="M 1228 531 
L 3431 531 
L 3431 0 
L 469 0 
L 469 531 
Q 828 903 1448 1529 
Q 2069 2156 2228 2338 
Q 2531 2678 2651 2914 
Q 2772 3150 2772 3378 
Q 2772 3750 2511 3984 
Q 2250 4219 1831 4219 
Q 1534 4219 1204 4116 
Q 875 4013 500 3803 
L 500 4441 
Q 881 4594 1212 4672 
Q 1544 4750 1819 4750 
Q 2544 4750 2975 4387 
Q 3406 4025 3406 3419 
Q 3406 3131 3298 2873 
Q 3191 2616 2906 2266 
Q 2828 2175 2409 1742 
Q 1991 1309 1228 531 
z
" transform="scale(0.015625)"/>
       </defs>
       <use xlink:href="#DejaVuSans-32"/>
       <use xlink:href="#DejaVuSans-2e" x="63.623047"/>
       <use xlink:href="#DejaVuSans-30" x="95.410156"/>
      </g>
     </g>
    </g>
    <g id="xtick_6">
     <g id="line2d_6">
      <g>
       <use xlink:href="#m04f4df6fff" x="769.965625" y="554.599219" style="stroke: #000000; stroke-width: 0.8"/>
      </g>
     </g>
     <g id="text_6">
      <!-- 2.5 -->
      <g transform="translate(762.014063 569.197656)scale(0.1 -0.1)">
       <use xlink:href="#DejaVuSans-32"/>
       <use xlink:href="#DejaVuSans-2e" x="63.623047"/>
       <use xlink:href="#DejaVuSans-35" x="95.410156"/>
      </g>
     </g>
    </g>
    <g id="xtick_7">
     <g id="line2d_7">
      <g>
       <use xlink:href="#m04f4df6fff" x="909.465625" y="554.599219" style="stroke: #000000; stroke-width: 0.8"/>
      </g>
     </g>
     <g id="text_7">
      <!-- 3.0 -->
      <g transform="translate(901.514063 569.197656)scale(0.1 -0.1)">
       <defs>
        <path id="DejaVuSans-33" d="M 2597 2516 
Q 3050 2419 3304 2112 
Q 3559 1806 3559 1356 
Q 3559 666 3084 287 
Q 2609 -91 1734 -91 
Q 1441 -91 1130 -33 
Q 819 25 488 141 
L 488 750 
Q 750 597 1062 519 
Q 1375 441 1716 441 
Q 2309 441 2620 675 
Q 2931 909 2931 1356 
Q 2931 1769 2642 2001 
Q 2353 2234 1838 2234 
L 1294 2234 
L 1294 2753 
L 1863 2753 
Q 2328 2753 2575 2939 
Q 2822 3125 2822 3475 
Q 2822 3834 2567 4026 
Q 2313 4219 1838 4219 
Q 1578 4219 1281 4162 
Q 984 4106 628 3988 
L 628 4550 
Q 988 4650 1302 4700 
Q 1616 4750 1894 4750 
Q 2613 4750 3031 4423 
Q 3450 4097 3450 3541 
Q 3450 3153 3228 2886 
Q 3006 2619 2597 2516 
z
" transform="scale(0.015625)"/>
       </defs>
       <use xlink:href="#DejaVuSans-33"/>
       <use xlink:href="#DejaVuSans-2e" x="63.623047"/>
       <use xlink:href="#DejaVuSans-30" x="95.410156"/>
      </g>
     </g>
    </g>
    <g id="xtick_8">
     <g id="line2d_8">
      <g>
       <use xlink:href="#m04f4df6fff" x="1048.965625" y="554.599219" style="stroke: #000000; stroke-width: 0.8"/>
      </g>
     </g>
     <g id="text_8">
      <!-- 3.5 -->
      <g transform="translate(1041.014063 569.197656)scale(0.1 -0.1)">
       <use xlink:href="#DejaVuSans-33"/>
       <use xlink:href="#DejaVuSans-2e" x="63.623047"/>
       <use xlink:href="#DejaVuSans-35" x="95.410156"/>
      </g>
     </g>
    </g>
    <g id="xtick_9">
     <g id="line2d_9">
      <g>
       <use xlink:href="#m04f4df6fff" x="1188.465625" y="554.599219" style="stroke: #000000; stroke-width: 0.8"/>
      </g>
     </g>
     <g id="text_9">
      <!-- 4.0 -->
      <g transform="translate(1180.514063 569.197656)scale(0.1 -0.1)">
       <defs>
        <path id="DejaVuSans-34" d="M 2419 4116 
L 825 1625 
L 2419 1625 
L 2419 4116 
z
M 2253 4666 
L 3047 4666 
L 3047 1625 
L 3713 1625 
L 3713 1100 
L 3047 1100 
L 3047 0 
L 2419 0 
L 2419 1100 
L 313 1100 
L 313 1709 
L 2253 4666 
z
" transform="scale(0.015625)"/>
       </defs>
       <use xlink:href="#DejaVuSans-34"/>
       <use xlink:href="#DejaVuSans-2e" x="63.623047"/>
       <use xlink:href="#DejaVuSans-30" x="95.410156"/>
      </g>
     </g>
    </g>
    <g id="text_10">
     <!-- $\frac{m}{n}, n = 5$ -->
     <g transform="translate(592.265625 591.877344)scale(0.2 -0.2)">
      <defs>
       <path id="DejaVuSans-Oblique-6d" d="M 5747 2113 
L 5338 0 
L 4763 0 
L 5166 2094 
Q 5191 2228 5203 2325 
Q 5216 2422 5216 2491 
Q 5216 2772 5059 2928 
Q 4903 3084 4622 3084 
Q 4203 3084 3875 2770 
Q 3547 2456 3450 1953 
L 3066 0 
L 2491 0 
L 2900 2094 
Q 2925 2209 2937 2307 
Q 2950 2406 2950 2484 
Q 2950 2769 2794 2926 
Q 2638 3084 2363 3084 
Q 1938 3084 1609 2770 
Q 1281 2456 1184 1953 
L 800 0 
L 225 0 
L 909 3500 
L 1484 3500 
L 1375 2956 
Q 1609 3263 1923 3423 
Q 2238 3584 2597 3584 
Q 2978 3584 3223 3384 
Q 3469 3184 3519 2828 
Q 3781 3197 4126 3390 
Q 4472 3584 4856 3584 
Q 5306 3584 5551 3325 
Q 5797 3066 5797 2591 
Q 5797 2488 5784 2364 
Q 5772 2241 5747 2113 
z
" transform="scale(0.015625)"/>
       <path id="DejaVuSans-Oblique-6e" d="M 3566 2113 
L 3156 0 
L 2578 0 
L 2988 2091 
Q 3016 2238 3031 2350 
Q 3047 2463 3047 2528 
Q 3047 2791 2881 2937 
Q 2716 3084 2419 3084 
Q 1956 3084 1622 2776 
Q 1288 2469 1184 1941 
L 800 0 
L 225 0 
L 903 3500 
L 1478 3500 
L 1363 2950 
Q 1603 3253 1940 3418 
Q 2278 3584 2650 3584 
Q 3113 3584 3367 3334 
Q 3622 3084 3622 2631 
Q 3622 2519 3608 2391 
Q 3594 2263 3566 2113 
z
" transform="scale(0.015625)"/>
       <path id="DejaVuSans-2c" d="M 750 794 
L 1409 794 
L 1409 256 
L 897 -744 
L 494 -744 
L 750 256 
L 750 794 
z
" transform="scale(0.015625)"/>
       <path id="DejaVuSans-3d" d="M 678 2906 
L 4684 2906 
L 4684 2381 
L 678 2381 
L 678 2906 
z
M 678 1631 
L 4684 1631 
L 4684 1100 
L 678 1100 
L 678 1631 
z
" transform="scale(0.015625)"/>
      </defs>
      <use xlink:href="#DejaVuSans-Oblique-6d" transform="translate(0 43.8)scale(0.7)"/>
      <use xlink:href="#DejaVuSans-Oblique-6e" transform="translate(12 -26.65)scale(0.7)"/>
      <use xlink:href="#DejaVuSans-2c" transform="translate(80.688477 0.003125)"/>
      <use xlink:href="#DejaVuSans-Oblique-6e" transform="translate(131.958008 0.003125)"/>
      <use xlink:href="#DejaVuSans-3d" transform="translate(214.819336 0.003125)"/>
      <use xlink:href="#DejaVuSans-35" transform="translate(318.09082 0.003125)"/>
      <path d="M 0 18.8 
L 0 25.05 
L 68.188477 25.05 
L 68.188477 18.8 
L 0 18.8 
z
"/>
     </g>
    </g>
   </g>
   <g id="matplotlib.axis_2">
    <g id="ytick_1">
     <g id="line2d_10">
      <defs>
       <path id="m47d66d7a6b" d="M 0 0 
L -3.5 0 
" style="stroke: #000000; stroke-width: 0.8"/>
      </defs>
      <g>
       <use xlink:href="#m47d66d7a6b" x="72.465625" y="528.713504" style="stroke: #000000; stroke-width: 0.8"/>
      </g>
     </g>
     <g id="text_11">
      <!-- 1.00 -->
      <g transform="translate(43.2 532.512723)scale(0.1 -0.1)">
       <use xlink:href="#DejaVuSans-31"/>
       <use xlink:href="#DejaVuSans-2e" x="63.623047"/>
       <use xlink:href="#DejaVuSans-30" x="95.410156"/>
       <use xlink:href="#DejaVuSans-30" x="159.033203"/>
      </g>
     </g>
    </g>
    <g id="ytick_2">
     <g id="line2d_11">
      <g>
       <use xlink:href="#m47d66d7a6b" x="72.465625" y="463.999219" style="stroke: #000000; stroke-width: 0.8"/>
      </g>
     </g>
     <g id="text_12">
      <!-- 1.05 -->
      <g transform="translate(43.2 467.798438)scale(0.1 -0.1)">
       <use xlink:href="#DejaVuSans-31"/>
       <use xlink:href="#DejaVuSans-2e" x="63.623047"/>
       <use xlink:href="#DejaVuSans-30" x="95.410156"/>
       <use xlink:href="#DejaVuSans-35" x="159.033203"/>
      </g>
     </g>
    </g>
    <g id="ytick_3">
     <g id="line2d_12">
      <g>
       <use xlink:href="#m47d66d7a6b" x="72.465625" y="399.284933" style="stroke: #000000; stroke-width: 0.8"/>
      </g>
     </g>
     <g id="text_13">
      <!-- 1.10 -->
      <g transform="translate(43.2 403.084152)scale(0.1 -0.1)">
       <use xlink:href="#DejaVuSans-31"/>
       <use xlink:href="#DejaVuSans-2e" x="63.623047"/>
       <use xlink:href="#DejaVuSans-31" x="95.410156"/>
       <use xlink:href="#DejaVuSans-30" x="159.033203"/>
      </g>
     </g>
    </g>
    <g id="ytick_4">
     <g id="line2d_13">
      <g>
       <use xlink:href="#m47d66d7a6b" x="72.465625" y="334.570647" style="stroke: #000000; stroke-width: 0.8"/>
      </g>
     </g>
     <g id="text_14">
      <!-- 1.15 -->
      <g transform="translate(43.2 338.369866)scale(0.1 -0.1)">
       <use xlink:href="#DejaVuSans-31"/>
       <use xlink:href="#DejaVuSans-2e" x="63.623047"/>
       <use xlink:href="#DejaVuSans-31" x="95.410156"/>
       <use xlink:href="#DejaVuSans-35" x="159.033203"/>
      </g>
     </g>
    </g>
    <g id="ytick_5">
     <g id="line2d_14">
      <g>
       <use xlink:href="#m47d66d7a6b" x="72.465625" y="269.856362" style="stroke: #000000; stroke-width: 0.8"/>
      </g>
     </g>
     <g id="text_15">
      <!-- 1.20 -->
      <g transform="translate(43.2 273.65558)scale(0.1 -0.1)">
       <use xlink:href="#DejaVuSans-31"/>
       <use xlink:href="#DejaVuSans-2e" x="63.623047"/>
       <use xlink:href="#DejaVuSans-32" x="95.410156"/>
       <use xlink:href="#DejaVuSans-30" x="159.033203"/>
      </g>
     </g>
    </g>
    <g id="ytick_6">
     <g id="line2d_15">
      <g>
       <use xlink:href="#m47d66d7a6b" x="72.465625" y="205.142076" style="stroke: #000000; stroke-width: 0.8"/>
      </g>
     </g>
     <g id="text_16">
      <!-- 1.25 -->
      <g transform="translate(43.2 208.941295)scale(0.1 -0.1)">
       <use xlink:href="#DejaVuSans-31"/>
       <use xlink:href="#DejaVuSans-2e" x="63.623047"/>
       <use xlink:href="#DejaVuSans-32" x="95.410156"/>
       <use xlink:href="#DejaVuSans-35" x="159.033203"/>
      </g>
     </g>
    </g>
    <g id="ytick_7">
     <g id="line2d_16">
      <g>
       <use xlink:href="#m47d66d7a6b" x="72.465625" y="140.42779" style="stroke: #000000; stroke-width: 0.8"/>
      </g>
     </g>
     <g id="text_17">
      <!-- 1.30 -->
      <g transform="translate(43.2 144.227009)scale(0.1 -0.1)">
       <use xlink:href="#DejaVuSans-31"/>
       <use xlink:href="#DejaVuSans-2e" x="63.623047"/>
       <use xlink:href="#DejaVuSans-33" x="95.410156"/>
       <use xlink:href="#DejaVuSans-30" x="159.033203"/>
      </g>
     </g>
    </g>
    <g id="ytick_8">
     <g id="line2d_17">
      <g>
       <use xlink:href="#m47d66d7a6b" x="72.465625" y="75.713504" style="stroke: #000000; stroke-width: 0.8"/>
      </g>
     </g>
     <g id="text_18">
      <!-- 1.35 -->
      <g transform="translate(43.2 79.512723)scale(0.1 -0.1)">
       <use xlink:href="#DejaVuSans-31"/>
       <use xlink:href="#DejaVuSans-2e" x="63.623047"/>
       <use xlink:href="#DejaVuSans-33" x="95.410156"/>
       <use xlink:href="#DejaVuSans-35" x="159.033203"/>
      </g>
     </g>
    </g>
    <g id="ytick_9">
     <g id="line2d_18">
      <g>
       <use xlink:href="#m47d66d7a6b" x="72.465625" y="10.999219" style="stroke: #000000; stroke-width: 0.8"/>
      </g>
     </g>
     <g id="text_19">
      <!-- 1.40 -->
      <g transform="translate(43.2 14.798438)scale(0.1 -0.1)">
       <use xlink:href="#DejaVuSans-31"/>
       <use xlink:href="#DejaVuSans-2e" x="63.623047"/>
       <use xlink:href="#DejaVuSans-34" x="95.410156"/>
       <use xlink:href="#DejaVuSans-30" x="159.033203"/>
      </g>
     </g>
    </g>
    <g id="text_20">
     <!-- $\frac{\mathbb{E}[L_{n, m, \Delta}]}{L^\ast}$ -->
     <g transform="translate(30.2 314.399219)rotate(-90)scale(0.2 -0.2)">
      <defs>
       <path id="STIXNonUnicode-Italic-e156" d="M 4250 4179 
L 4192 3942 
L 2150 3942 
L 1709 2266 
L 3514 2266 
L 3443 2029 
L 1645 2029 
L 1165 237 
L 3443 237 
L 3392 0 
L 109 0 
L 1229 4179 
L 4250 4179 
z
M 1914 3942 
L 1414 3942 
L 416 237 
L 928 237 
L 1914 3942 
z
" transform="scale(0.015625)"/>
       <path id="DejaVuSans-5b" d="M 550 4863 
L 1875 4863 
L 1875 4416 
L 1125 4416 
L 1125 -397 
L 1875 -397 
L 1875 -844 
L 550 -844 
L 550 4863 
z
" transform="scale(0.015625)"/>
       <path id="DejaVuSans-Oblique-4c" d="M 1075 4666 
L 1709 4666 
L 909 525 
L 3181 525 
L 3078 0 
L 172 0 
L 1075 4666 
z
" transform="scale(0.015625)"/>
       <path id="DejaVuSans-394" d="M 2188 4044 
L 906 525 
L 3472 525 
L 2188 4044 
z
M 50 0 
L 1831 4666 
L 2547 4666 
L 4325 0 
L 50 0 
z
" transform="scale(0.015625)"/>
       <path id="DejaVuSans-5d" d="M 1947 4863 
L 1947 -844 
L 622 -844 
L 622 -397 
L 1369 -397 
L 1369 4416 
L 622 4416 
L 622 4863 
L 1947 4863 
z
" transform="scale(0.015625)"/>
       <path id="DejaVuSans-2217" d="M 2153 2006 
L 816 2778 
L 1081 3238 
L 2419 2466 
L 2419 4013 
L 2944 4013 
L 2944 2466 
L 4281 3238 
L 4547 2778 
L 3209 2006 
L 4547 1234 
L 4281 775 
L 2944 1547 
L 2944 0 
L 2419 0 
L 2419 1547 
L 1081 775 
L 816 1234 
L 2153 2006 
z
" transform="scale(0.015625)"/>
      </defs>
      <use xlink:href="#STIXNonUnicode-Italic-e156" transform="translate(0 61.810938)scale(0.7)"/>
      <use xlink:href="#DejaVuSans-5b" transform="translate(44.729996 61.810938)scale(0.7)"/>
      <use xlink:href="#DejaVuSans-Oblique-4c" transform="translate(72.039566 61.810938)scale(0.7)"/>
      <use xlink:href="#DejaVuSans-Oblique-6e" transform="translate(111.038589 50.326562)scale(0.49)"/>
      <use xlink:href="#DejaVuSans-2c" transform="translate(142.094254 50.326562)scale(0.49)"/>
      <use xlink:href="#DejaVuSans-Oblique-6d" transform="translate(167.216324 50.326562)scale(0.49)"/>
      <use xlink:href="#DejaVuSans-2c" transform="translate(214.948257 50.326562)scale(0.49)"/>
      <use xlink:href="#DejaVuSans-394" transform="translate(240.070328 50.326562)scale(0.49)"/>
      <use xlink:href="#DejaVuSans-5d" transform="translate(275.50441 61.810938)scale(0.7)"/>
      <use xlink:href="#DejaVuSans-Oblique-4c" transform="translate(98 -44.141094)scale(0.7)"/>
      <use xlink:href="#DejaVuSans-2217" transform="translate(151.45715 -17.344219)scale(0.49)"/>
      <path d="M 0 19.630313 
L 0 25.880313 
L 302.81398 25.880313 
L 302.81398 19.630313 
L 0 19.630313 
z
"/>
     </g>
    </g>
   </g>
   <g id="line2d_19">
    <path d="M 72.465625 350.363558 
L 81.411517 355.401421 
L 90.357409 360.188394 
L 99.3033 364.736248 
L 108.249192 369.05676 
L 117.195084 373.161703 
L 126.140976 377.06285 
L 137.32334 381.670635 
L 148.505705 386.001383 
L 159.68807 390.078091 
L 170.870435 393.923755 
L 182.052799 397.561372 
L 195.471637 401.682066 
L 208.890475 405.557736 
L 222.309312 409.206629 
L 235.72815 412.646983 
L 251.383461 416.420918 
L 267.038771 419.95847 
L 282.694082 423.280073 
L 300.585865 426.837905 
L 318.477649 430.166946 
L 336.369433 433.286999 
L 356.497689 436.570984 
L 376.625946 439.639146 
L 398.990675 442.818815 
L 421.355405 445.781814 
L 445.956607 448.81624 
L 472.794282 451.885536 
L 499.631958 454.730605 
L 528.706106 457.586725 
L 560.016727 460.428905 
L 593.563821 463.235501 
L 629.347389 465.988861 
L 667.367429 468.674983 
L 707.623942 471.282727 
L 750.116928 473.80397 
L 794.846387 476.233032 
L 844.048791 478.672288 
L 895.487669 480.995274 
L 951.399493 483.291669 
L 1011.784262 485.54033 
L 1076.641978 487.724836 
L 1145.972639 489.832965 
L 1188.465625 491.023557 
L 1188.465625 491.023557 
" clip-path="url(#p38c9a7dcd3)" style="fill: none; stroke: #67000d; stroke-width: 2; stroke-linecap: square"/>
   </g>
   <g id="line2d_20">
    <path d="M 72.465625 350.363558 
L 81.411517 355.388088 
L 90.357409 360.151351 
L 99.3033 364.665951 
L 108.249192 368.944494 
L 117.195084 372.999584 
L 126.140976 376.843826 
L 137.32334 381.371827 
L 148.505705 385.614693 
L 159.68807 389.597042 
L 170.870435 393.343494 
L 182.052799 396.878668 
L 195.471637 400.874225 
L 208.890475 404.623372 
L 222.309312 408.14496 
L 235.72815 411.457825 
L 251.383461 415.083568 
L 267.038771 418.474155 
L 282.694082 421.650571 
L 300.585865 425.045357 
L 318.477649 428.214998 
L 338.605906 431.536601 
L 358.734162 434.625919 
L 381.098892 437.815114 
L 403.463621 440.773683 
L 428.064823 443.791702 
L 452.666026 446.587783 
L 479.503701 449.412847 
L 508.577849 452.237413 
L 539.888471 455.036579 
L 571.199092 457.613199 
L 604.746186 460.156057 
L 640.529753 462.648942 
L 678.549793 465.07933 
L 721.042779 467.562434 
L 765.772238 469.944124 
L 812.73817 472.222107 
L 864.177048 474.489867 
L 920.088871 476.72201 
L 980.473641 478.898494 
L 1045.331356 481.004147 
L 1114.662018 483.02812 
L 1188.465625 484.963098 
L 1188.465625 484.963098 
" clip-path="url(#p38c9a7dcd3)" style="fill: none; stroke: #aa1016; stroke-width: 2; stroke-linecap: square"/>
   </g>
   <g id="line2d_21">
    <path d="M 72.465625 350.363558 
L 81.411517 355.348074 
L 90.357409 360.040203 
L 99.3033 364.455047 
L 108.249192 368.607704 
L 117.195084 372.513275 
L 126.140976 376.186857 
L 135.086867 379.643553 
L 144.032759 382.89846 
L 155.215124 386.706333 
L 166.397489 390.251996 
L 177.579853 393.564942 
L 190.998691 397.274115 
L 204.417529 400.725366 
L 217.836366 403.9399 
L 231.255204 406.938355 
L 246.910515 410.190829 
L 262.565825 413.205198 
L 278.221136 416.00435 
L 296.11292 418.968848 
L 314.004703 421.713004 
L 334.13296 424.563969 
L 354.261216 427.191892 
L 376.625946 429.881436 
L 398.990675 432.354763 
L 423.591878 434.856177 
L 450.429553 437.354142 
L 479.503701 439.822328 
L 510.814322 442.239415 
L 544.361417 444.588868 
L 580.144984 446.857907 
L 618.165024 449.03793 
L 658.421537 451.12299 
L 703.150996 453.20893 
L 750.116928 455.175811 
L 801.555805 457.106773 
L 857.467629 458.981308 
L 917.852399 460.784455 
L 984.946587 462.561865 
L 1058.750194 464.287892 
L 1139.26322 465.94413 
L 1188.465625 466.857586 
L 1188.465625 466.857586 
" clip-path="url(#p38c9a7dcd3)" style="fill: none; stroke: #d52221; stroke-width: 2; stroke-linecap: square"/>
   </g>
   <g id="line2d_22">
    <path d="M 72.465625 350.363558 
L 79.175044 353.94048 
L 85.884463 357.226046 
L 92.593882 360.23403 
L 99.3033 362.978209 
L 106.012719 365.472359 
L 112.722138 367.730255 
L 119.431557 369.765674 
L 126.140976 371.592392 
L 132.850395 373.224184 
L 139.559813 374.674827 
L 148.505705 376.35104 
L 157.451597 377.762354 
L 166.397489 378.941424 
L 175.343381 379.920903 
L 186.525745 380.914245 
L 197.70811 381.697177 
L 211.126948 382.390576 
L 224.545785 382.846728 
L 240.201096 383.123193 
L 255.856407 383.170994 
L 273.74819 382.992621 
L 293.876447 382.555268 
L 318.477649 381.772128 
L 345.315324 380.684473 
L 378.862419 379.090901 
L 423.591878 376.722022 
L 508.577849 371.942106 
L 600.27324 366.864428 
L 669.603902 363.246289 
L 736.69809 359.969296 
L 803.792278 356.919602 
L 870.886467 354.090438 
L 940.217128 351.384926 
L 1014.020735 348.729454 
L 1092.297288 346.143111 
L 1172.810314 343.705086 
L 1188.465625 343.255108 
L 1188.465625 343.255108 
" clip-path="url(#p38c9a7dcd3)" style="fill: none; stroke: #f44f39; stroke-width: 2; stroke-linecap: square"/>
   </g>
   <g id="line2d_23">
    <path d="M 72.465625 350.363558 
L 76.938571 352.571421 
L 81.411517 354.543162 
L 85.884463 356.28699 
L 90.357409 357.811114 
L 94.830354 359.123743 
L 99.3033 360.233085 
L 103.776246 361.14735 
L 108.249192 361.874745 
L 112.722138 362.423481 
L 117.195084 362.801766 
L 121.66803 363.017808 
L 126.140976 363.079817 
L 132.850395 362.901974 
L 139.559813 362.423732 
L 146.269232 361.672793 
L 152.978651 360.676864 
L 159.68807 359.463649 
L 166.397489 358.060853 
L 175.343381 355.94344 
L 184.289272 353.603918 
L 195.471637 350.450214 
L 206.654002 347.082271 
L 220.072839 342.803163 
L 235.72815 337.553449 
L 255.856407 330.525961 
L 282.694082 320.878525 
L 334.13296 302.33258 
L 360.970635 292.888727 
L 385.571837 284.456567 
L 410.17304 276.27095 
L 432.537769 269.063191 
L 454.902499 262.08384 
L 477.267228 255.335916 
L 499.631958 248.81856 
L 521.996687 242.528189 
L 544.361417 236.460395 
L 566.726146 230.608734 
L 591.327348 224.413395 
L 615.928551 218.461548 
L 640.529753 212.742993 
L 665.130956 207.247547 
L 689.732158 201.965066 
L 716.569833 196.433531 
L 743.407509 191.131174 
L 770.245184 186.045907 
L 799.319332 180.768718 
L 828.393481 175.719118 
L 857.467629 170.884226 
L 888.77825 165.903438 
L 920.088871 161.143218 
L 953.635966 156.272595 
L 987.18306 151.624681 
L 1022.966627 146.896604 
L 1058.750194 142.390175 
L 1096.770234 137.828744 
L 1134.790274 133.485332 
L 1175.046787 129.107768 
L 1188.465625 127.696245 
L 1188.465625 127.696245 
" clip-path="url(#p38c9a7dcd3)" style="fill: none; stroke: #fc8161; stroke-width: 2; stroke-linecap: square"/>
   </g>
   <g id="line2d_24">
    <path d="M 72.465625 350.363558 
L 76.938571 352.375802 
L 81.411517 354.055892 
L 85.884463 355.415904 
L 90.357409 356.467914 
L 94.830354 357.223998 
L 99.3033 357.696234 
L 103.776246 357.896696 
L 108.249192 357.837461 
L 112.722138 357.530605 
L 117.195084 356.988204 
L 121.66803 356.222336 
L 126.140976 355.245075 
L 130.613922 354.068498 
L 135.086867 352.704681 
L 139.559813 351.1657 
L 146.269232 348.555214 
L 152.978651 345.618539 
L 159.68807 342.396431 
L 166.397489 338.929648 
L 175.343381 333.997108 
L 184.289272 328.798657 
L 195.471637 322.04817 
L 208.890475 313.655933 
L 224.545785 303.558051 
L 244.674042 290.273208 
L 305.058811 250.212019 
L 325.187068 237.237906 
L 343.078851 225.960269 
L 360.970635 214.951095 
L 378.862419 204.227658 
L 394.517729 195.085312 
L 410.17304 186.172913 
L 425.82835 177.493401 
L 441.483661 169.044728 
L 457.138972 160.824139 
L 472.794282 152.828783 
L 488.449593 145.054466 
L 506.341377 136.433561 
L 524.23316 128.086853 
L 542.124944 120.006184 
L 560.016727 112.182701 
L 577.908511 104.607489 
L 595.800294 97.27169 
L 613.692078 90.166585 
L 631.583861 83.283476 
L 651.712118 75.794697 
L 671.840374 68.564542 
L 691.968631 61.581631 
L 712.096888 54.835003 
L 732.225144 48.314439 
L 752.353401 42.009826 
L 774.71813 35.246438 
L 797.082859 28.725684 
L 819.447589 22.435598 
L 841.812318 16.365266 
L 866.413521 9.929084 
L 891.014723 3.732821 
L 910.447641 -1 
L 910.447641 -1 
" clip-path="url(#p38c9a7dcd3)" style="fill: none; stroke: #fcaf93; stroke-width: 2; stroke-linecap: square"/>
   </g>
   <g id="line2d_25">
    <path d="M 72.465625 350.363558 
L 74.702098 351.106768 
L 76.938571 351.681348 
L 79.175044 352.090535 
L 81.411517 352.337567 
L 83.64799 352.425682 
L 85.884463 352.358117 
L 88.120936 352.138111 
L 90.357409 351.7689 
L 92.593882 351.253723 
L 94.830354 350.595817 
L 97.066827 349.79842 
L 99.3033 348.864769 
L 101.539773 347.798103 
L 103.776246 346.60166 
L 108.249192 343.832389 
L 112.722138 340.582859 
L 117.195084 336.878972 
L 121.66803 332.746629 
L 126.140976 328.211733 
L 130.613922 323.300184 
L 135.086867 318.037884 
L 139.559813 312.450735 
L 144.032759 306.56464 
L 148.505705 300.405498 
L 155.215124 290.711486 
L 161.924543 280.548818 
L 168.633962 270.004912 
L 177.579853 255.504429 
L 190.998691 233.214655 
L 208.890475 203.037229 
L 253.619934 127.373145 
L 269.275244 101.420906 
L 282.694082 79.55782 
L 296.11292 58.123506 
L 307.295284 40.634268 
L 318.477649 23.495644 
L 329.660014 6.711714 
L 334.880731 -1 
L 334.880731 -1 
" clip-path="url(#p38c9a7dcd3)" style="fill: none; stroke: #fedbcc; stroke-width: 2; stroke-linecap: square"/>
   </g>
   <g id="line2d_26">
    <path d="M 72.465625 350.363558 
L 74.702098 350.656911 
L 76.938571 350.666659 
L 79.175044 350.398571 
L 81.411517 349.858417 
L 83.64799 349.051965 
L 85.884463 347.984986 
L 88.120936 346.663248 
L 90.357409 345.092521 
L 92.593882 343.278574 
L 94.830354 341.227175 
L 97.066827 338.944095 
L 99.3033 336.435103 
L 101.539773 333.705967 
L 103.776246 330.762458 
L 106.012719 327.610344 
L 110.485665 320.703378 
L 114.958611 313.031225 
L 119.431557 304.640038 
L 123.904503 295.575971 
L 128.377449 285.885178 
L 132.850395 275.613813 
L 137.32334 264.80803 
L 141.796286 253.513983 
L 148.505705 235.75838 
L 155.215124 217.163798 
L 161.924543 197.886008 
L 170.870435 171.38875 
L 184.289272 130.692428 
L 215.599894 35.49855 
L 227.760926 -1 
L 227.760926 -1 
" clip-path="url(#p38c9a7dcd3)" style="fill: none; stroke: #fff5f0; stroke-width: 2; stroke-linecap: square"/>
   </g>
   <g id="patch_3">
    <path d="M 72.465625 554.599219 
L 72.465625 10.999219 
" style="fill: none; stroke: #000000; stroke-width: 0.8; stroke-linejoin: miter; stroke-linecap: square"/>
   </g>
   <g id="patch_4">
    <path d="M 1188.465625 554.599219 
L 1188.465625 10.999219 
" style="fill: none; stroke: #000000; stroke-width: 0.8; stroke-linejoin: miter; stroke-linecap: square"/>
   </g>
   <g id="patch_5">
    <path d="M 72.465625 554.599219 
L 1188.465625 554.599219 
" style="fill: none; stroke: #000000; stroke-width: 0.8; stroke-linejoin: miter; stroke-linecap: square"/>
   </g>
   <g id="patch_6">
    <path d="M 72.465625 10.999219 
L 1188.465625 10.999219 
" style="fill: none; stroke: #000000; stroke-width: 0.8; stroke-linejoin: miter; stroke-linecap: square"/>
   </g>
   <g id="legend_1">
    <g id="patch_7">
     <path d="M 82.965625 199.136719 
L 183.615625 199.136719 
Q 186.615625 199.136719 186.615625 196.136719 
L 186.615625 21.499219 
Q 186.615625 18.499219 183.615625 18.499219 
L 82.965625 18.499219 
Q 79.965625 18.499219 79.965625 21.499219 
L 79.965625 196.136719 
Q 79.965625 199.136719 82.965625 199.136719 
z
" style="fill: #ffffff; opacity: 0.8; stroke: #cccccc; stroke-linejoin: miter"/>
    </g>
    <g id="line2d_27">
     <path d="M 85.965625 30.646875 
L 100.965625 30.646875 
L 115.965625 30.646875 
" style="fill: none; stroke: #67000d; stroke-width: 2; stroke-linecap: square"/>
    </g>
    <g id="text_21">
     <!-- $\Delta = 0$ -->
     <g transform="translate(127.965625 35.896875)scale(0.15 -0.15)">
      <use xlink:href="#DejaVuSans-394" transform="translate(0 0.78125)"/>
      <use xlink:href="#DejaVuSans-3d" transform="translate(87.890625 0.78125)"/>
      <use xlink:href="#DejaVuSans-30" transform="translate(191.162109 0.78125)"/>
     </g>
    </g>
    <g id="line2d_28">
     <path d="M 85.965625 52.664063 
L 100.965625 52.664063 
L 115.965625 52.664063 
" style="fill: none; stroke: #aa1016; stroke-width: 2; stroke-linecap: square"/>
    </g>
    <g id="text_22">
     <!-- $\Delta = 0.1$ -->
     <g transform="translate(127.965625 57.914063)scale(0.15 -0.15)">
      <use xlink:href="#DejaVuSans-394" transform="translate(0 0.78125)"/>
      <use xlink:href="#DejaVuSans-3d" transform="translate(87.890625 0.78125)"/>
      <use xlink:href="#DejaVuSans-30" transform="translate(191.162109 0.78125)"/>
      <use xlink:href="#DejaVuSans-2e" transform="translate(254.785156 0.78125)"/>
      <use xlink:href="#DejaVuSans-31" transform="translate(286.572266 0.78125)"/>
     </g>
    </g>
    <g id="line2d_29">
     <path d="M 85.965625 74.68125 
L 100.965625 74.68125 
L 115.965625 74.68125 
" style="fill: none; stroke: #d52221; stroke-width: 2; stroke-linecap: square"/>
    </g>
    <g id="text_23">
     <!-- $\Delta = 0.2$ -->
     <g transform="translate(127.965625 79.93125)scale(0.15 -0.15)">
      <use xlink:href="#DejaVuSans-394" transform="translate(0 0.78125)"/>
      <use xlink:href="#DejaVuSans-3d" transform="translate(87.890625 0.78125)"/>
      <use xlink:href="#DejaVuSans-30" transform="translate(191.162109 0.78125)"/>
      <use xlink:href="#DejaVuSans-2e" transform="translate(254.785156 0.78125)"/>
      <use xlink:href="#DejaVuSans-32" transform="translate(281.072266 0.78125)"/>
     </g>
    </g>
    <g id="line2d_30">
     <path d="M 85.965625 96.698438 
L 100.965625 96.698438 
L 115.965625 96.698438 
" style="fill: none; stroke: #f44f39; stroke-width: 2; stroke-linecap: square"/>
    </g>
    <g id="text_24">
     <!-- $\Delta = 0.5$ -->
     <g transform="translate(127.965625 101.948438)scale(0.15 -0.15)">
      <use xlink:href="#DejaVuSans-394" transform="translate(0 0.78125)"/>
      <use xlink:href="#DejaVuSans-3d" transform="translate(87.890625 0.78125)"/>
      <use xlink:href="#DejaVuSans-30" transform="translate(191.162109 0.78125)"/>
      <use xlink:href="#DejaVuSans-2e" transform="translate(254.785156 0.78125)"/>
      <use xlink:href="#DejaVuSans-35" transform="translate(286.572266 0.78125)"/>
     </g>
    </g>
    <g id="line2d_31">
     <path d="M 85.965625 118.715625 
L 100.965625 118.715625 
L 115.965625 118.715625 
" style="fill: none; stroke: #fc8161; stroke-width: 2; stroke-linecap: square"/>
    </g>
    <g id="text_25">
     <!-- $\Delta = 0.8$ -->
     <g transform="translate(127.965625 123.965625)scale(0.15 -0.15)">
      <defs>
       <path id="DejaVuSans-38" d="M 2034 2216 
Q 1584 2216 1326 1975 
Q 1069 1734 1069 1313 
Q 1069 891 1326 650 
Q 1584 409 2034 409 
Q 2484 409 2743 651 
Q 3003 894 3003 1313 
Q 3003 1734 2745 1975 
Q 2488 2216 2034 2216 
z
M 1403 2484 
Q 997 2584 770 2862 
Q 544 3141 544 3541 
Q 544 4100 942 4425 
Q 1341 4750 2034 4750 
Q 2731 4750 3128 4425 
Q 3525 4100 3525 3541 
Q 3525 3141 3298 2862 
Q 3072 2584 2669 2484 
Q 3125 2378 3379 2068 
Q 3634 1759 3634 1313 
Q 3634 634 3220 271 
Q 2806 -91 2034 -91 
Q 1263 -91 848 271 
Q 434 634 434 1313 
Q 434 1759 690 2068 
Q 947 2378 1403 2484 
z
M 1172 3481 
Q 1172 3119 1398 2916 
Q 1625 2713 2034 2713 
Q 2441 2713 2670 2916 
Q 2900 3119 2900 3481 
Q 2900 3844 2670 4047 
Q 2441 4250 2034 4250 
Q 1625 4250 1398 4047 
Q 1172 3844 1172 3481 
z
" transform="scale(0.015625)"/>
      </defs>
      <use xlink:href="#DejaVuSans-394" transform="translate(0 0.78125)"/>
      <use xlink:href="#DejaVuSans-3d" transform="translate(87.890625 0.78125)"/>
      <use xlink:href="#DejaVuSans-30" transform="translate(191.162109 0.78125)"/>
      <use xlink:href="#DejaVuSans-2e" transform="translate(254.785156 0.78125)"/>
      <use xlink:href="#DejaVuSans-38" transform="translate(283.947266 0.78125)"/>
     </g>
    </g>
    <g id="line2d_32">
     <path d="M 85.965625 140.732813 
L 100.965625 140.732813 
L 115.965625 140.732813 
" style="fill: none; stroke: #fcaf93; stroke-width: 2; stroke-linecap: square"/>
    </g>
    <g id="text_26">
     <!-- $\Delta = 1$ -->
     <g transform="translate(127.965625 145.982813)scale(0.15 -0.15)">
      <use xlink:href="#DejaVuSans-394" transform="translate(0 0.09375)"/>
      <use xlink:href="#DejaVuSans-3d" transform="translate(87.890625 0.09375)"/>
      <use xlink:href="#DejaVuSans-31" transform="translate(191.162109 0.09375)"/>
     </g>
    </g>
    <g id="line2d_33">
     <path d="M 85.965625 162.75 
L 100.965625 162.75 
L 115.965625 162.75 
" style="fill: none; stroke: #fedbcc; stroke-width: 2; stroke-linecap: square"/>
    </g>
    <g id="text_27">
     <!-- $\Delta = 1.5$ -->
     <g transform="translate(127.965625 168)scale(0.15 -0.15)">
      <use xlink:href="#DejaVuSans-394" transform="translate(0 0.09375)"/>
      <use xlink:href="#DejaVuSans-3d" transform="translate(87.890625 0.09375)"/>
      <use xlink:href="#DejaVuSans-31" transform="translate(191.162109 0.09375)"/>
      <use xlink:href="#DejaVuSans-2e" transform="translate(254.785156 0.09375)"/>
      <use xlink:href="#DejaVuSans-35" transform="translate(286.572266 0.09375)"/>
     </g>
    </g>
    <g id="line2d_34">
     <path d="M 85.965625 184.767188 
L 100.965625 184.767188 
L 115.965625 184.767188 
" style="fill: none; stroke: #fff5f0; stroke-width: 2; stroke-linecap: square"/>
    </g>
    <g id="text_28">
     <!-- $\Delta = 2$ -->
     <g transform="translate(127.965625 190.017188)scale(0.15 -0.15)">
      <use xlink:href="#DejaVuSans-394" transform="translate(0 0.78125)"/>
      <use xlink:href="#DejaVuSans-3d" transform="translate(87.890625 0.78125)"/>
      <use xlink:href="#DejaVuSans-32" transform="translate(191.162109 0.78125)"/>
     </g>
    </g>
   </g>
  </g>
 </g>
 <defs>
  <clipPath id="p38c9a7dcd3">
   <rect x="72.465625" y="10.999219" width="1116" height="543.6"/>
  </clipPath>
 </defs>
</svg>
