<?xml version="1.0" encoding="utf-8" standalone="no"?>
<!DOCTYPE svg PUBLIC "-//W3C//DTD SVG 1.1//EN"
  "http://www.w3.org/Graphics/SVG/1.1/DTD/svg11.dtd">
<svg xmlns:xlink="http://www.w3.org/1999/xlink" width="1462.184063pt" height="335.323594pt" viewBox="0 0 1462.184063 335.323594" xmlns="http://www.w3.org/2000/svg" version="1.1">
 <metadata>
  <rdf:RDF xmlns:dc="http://purl.org/dc/elements/1.1/" xmlns:cc="http://creativecommons.org/ns#" xmlns:rdf="http://www.w3.org/1999/02/22-rdf-syntax-ns#">
   <cc:Work>
    <dc:type rdf:resource="http://purl.org/dc/dcmitype/StillImage"/>
    <dc:date>2022-03-15T13:39:35.165907</dc:date>
    <dc:format>image/svg+xml</dc:format>
    <dc:creator>
     <cc:Agent>
      <dc:title>Matplotlib v3.5.1, https://matplotlib.org/</dc:title>
     </cc:Agent>
    </dc:creator>
   </cc:Work>
  </rdf:RDF>
 </metadata>
 <defs>
  <style type="text/css">*{stroke-linejoin: round; stroke-linecap: butt}</style>
 </defs>
 <g id="figure_1">
  <g id="patch_1">
   <path d="M 0 335.323594 
L 1462.184063 335.323594 
L 1462.184063 0 
L 0 0 
z
" style="fill: #ffffff"/>
  </g>
  <g id="axes_1">
   <g id="patch_2">
    <path d="M 53.867031 293.589375 
L 294.384273 293.589375 
L 294.384273 21.789375 
L 53.867031 21.789375 
z
" style="fill: #eaeaf2"/>
   </g>
   <g id="matplotlib.axis_1">
    <g id="xtick_1">
     <g id="line2d_1">
      <path d="M 53.867031 293.589375 
L 53.867031 21.789375 
" clip-path="url(#p72c5f5f099)" style="fill: none; stroke: #ffffff; stroke-linecap: round"/>
     </g>
     <g id="text_1">
      <!-- 0 -->
      <g style="fill: #262626" transform="translate(50.808516 310.962969)scale(0.11 -0.11)">
       <defs>
        <path id="ArialMT-30" d="M 266 2259 
Q 266 3072 433 3567 
Q 600 4063 929 4331 
Q 1259 4600 1759 4600 
Q 2128 4600 2406 4451 
Q 2684 4303 2865 4023 
Q 3047 3744 3150 3342 
Q 3253 2941 3253 2259 
Q 3253 1453 3087 958 
Q 2922 463 2592 192 
Q 2263 -78 1759 -78 
Q 1097 -78 719 397 
Q 266 969 266 2259 
z
M 844 2259 
Q 844 1131 1108 757 
Q 1372 384 1759 384 
Q 2147 384 2411 759 
Q 2675 1134 2675 2259 
Q 2675 3391 2411 3762 
Q 2147 4134 1753 4134 
Q 1366 4134 1134 3806 
Q 844 3388 844 2259 
z
" transform="scale(0.015625)"/>
       </defs>
       <use xlink:href="#ArialMT-30"/>
      </g>
     </g>
    </g>
    <g id="xtick_2">
     <g id="line2d_2">
      <path d="M 101.97048 293.589375 
L 101.97048 21.789375 
" clip-path="url(#p72c5f5f099)" style="fill: none; stroke: #ffffff; stroke-linecap: round"/>
     </g>
     <g id="text_2">
      <!-- 10 -->
      <g style="fill: #262626" transform="translate(95.853448 310.962969)scale(0.11 -0.11)">
       <defs>
        <path id="ArialMT-31" d="M 2384 0 
L 1822 0 
L 1822 3584 
Q 1619 3391 1289 3197 
Q 959 3003 697 2906 
L 697 3450 
Q 1169 3672 1522 3987 
Q 1875 4303 2022 4600 
L 2384 4600 
L 2384 0 
z
" transform="scale(0.015625)"/>
       </defs>
       <use xlink:href="#ArialMT-31"/>
       <use xlink:href="#ArialMT-30" x="55.615234"/>
      </g>
     </g>
    </g>
    <g id="xtick_3">
     <g id="line2d_3">
      <path d="M 150.073928 293.589375 
L 150.073928 21.789375 
" clip-path="url(#p72c5f5f099)" style="fill: none; stroke: #ffffff; stroke-linecap: round"/>
     </g>
     <g id="text_3">
      <!-- 20 -->
      <g style="fill: #262626" transform="translate(143.956897 310.962969)scale(0.11 -0.11)">
       <defs>
        <path id="ArialMT-32" d="M 3222 541 
L 3222 0 
L 194 0 
Q 188 203 259 391 
Q 375 700 629 1000 
Q 884 1300 1366 1694 
Q 2113 2306 2375 2664 
Q 2638 3022 2638 3341 
Q 2638 3675 2398 3904 
Q 2159 4134 1775 4134 
Q 1369 4134 1125 3890 
Q 881 3647 878 3216 
L 300 3275 
Q 359 3922 746 4261 
Q 1134 4600 1788 4600 
Q 2447 4600 2831 4234 
Q 3216 3869 3216 3328 
Q 3216 3053 3103 2787 
Q 2991 2522 2730 2228 
Q 2469 1934 1863 1422 
Q 1356 997 1212 845 
Q 1069 694 975 541 
L 3222 541 
z
" transform="scale(0.015625)"/>
       </defs>
       <use xlink:href="#ArialMT-32"/>
       <use xlink:href="#ArialMT-30" x="55.615234"/>
      </g>
     </g>
    </g>
    <g id="xtick_4">
     <g id="line2d_4">
      <path d="M 198.177376 293.589375 
L 198.177376 21.789375 
" clip-path="url(#p72c5f5f099)" style="fill: none; stroke: #ffffff; stroke-linecap: round"/>
     </g>
     <g id="text_4">
      <!-- 30 -->
      <g style="fill: #262626" transform="translate(192.060345 310.962969)scale(0.11 -0.11)">
       <defs>
        <path id="ArialMT-33" d="M 269 1209 
L 831 1284 
Q 928 806 1161 595 
Q 1394 384 1728 384 
Q 2125 384 2398 659 
Q 2672 934 2672 1341 
Q 2672 1728 2419 1979 
Q 2166 2231 1775 2231 
Q 1616 2231 1378 2169 
L 1441 2663 
Q 1497 2656 1531 2656 
Q 1891 2656 2178 2843 
Q 2466 3031 2466 3422 
Q 2466 3731 2256 3934 
Q 2047 4138 1716 4138 
Q 1388 4138 1169 3931 
Q 950 3725 888 3313 
L 325 3413 
Q 428 3978 793 4289 
Q 1159 4600 1703 4600 
Q 2078 4600 2393 4439 
Q 2709 4278 2876 4000 
Q 3044 3722 3044 3409 
Q 3044 3113 2884 2869 
Q 2725 2625 2413 2481 
Q 2819 2388 3044 2092 
Q 3269 1797 3269 1353 
Q 3269 753 2831 336 
Q 2394 -81 1725 -81 
Q 1122 -81 723 278 
Q 325 638 269 1209 
z
" transform="scale(0.015625)"/>
       </defs>
       <use xlink:href="#ArialMT-33"/>
       <use xlink:href="#ArialMT-30" x="55.615234"/>
      </g>
     </g>
    </g>
    <g id="xtick_5">
     <g id="line2d_5">
      <path d="M 246.280824 293.589375 
L 246.280824 21.789375 
" clip-path="url(#p72c5f5f099)" style="fill: none; stroke: #ffffff; stroke-linecap: round"/>
     </g>
     <g id="text_5">
      <!-- 40 -->
      <g style="fill: #262626" transform="translate(240.163793 310.962969)scale(0.11 -0.11)">
       <defs>
        <path id="ArialMT-34" d="M 2069 0 
L 2069 1097 
L 81 1097 
L 81 1613 
L 2172 4581 
L 2631 4581 
L 2631 1613 
L 3250 1613 
L 3250 1097 
L 2631 1097 
L 2631 0 
L 2069 0 
z
M 2069 1613 
L 2069 3678 
L 634 1613 
L 2069 1613 
z
" transform="scale(0.015625)"/>
       </defs>
       <use xlink:href="#ArialMT-34"/>
       <use xlink:href="#ArialMT-30" x="55.615234"/>
      </g>
     </g>
    </g>
    <g id="xtick_6">
     <g id="line2d_6">
      <path d="M 294.384273 293.589375 
L 294.384273 21.789375 
" clip-path="url(#p72c5f5f099)" style="fill: none; stroke: #ffffff; stroke-linecap: round"/>
     </g>
     <g id="text_6">
      <!-- 50 -->
      <g style="fill: #262626" transform="translate(288.267241 310.962969)scale(0.11 -0.11)">
       <defs>
        <path id="ArialMT-35" d="M 266 1200 
L 856 1250 
Q 922 819 1161 601 
Q 1400 384 1738 384 
Q 2144 384 2425 690 
Q 2706 997 2706 1503 
Q 2706 1984 2436 2262 
Q 2166 2541 1728 2541 
Q 1456 2541 1237 2417 
Q 1019 2294 894 2097 
L 366 2166 
L 809 4519 
L 3088 4519 
L 3088 3981 
L 1259 3981 
L 1013 2750 
Q 1425 3038 1878 3038 
Q 2478 3038 2890 2622 
Q 3303 2206 3303 1553 
Q 3303 931 2941 478 
Q 2500 -78 1738 -78 
Q 1113 -78 717 272 
Q 322 622 266 1200 
z
" transform="scale(0.015625)"/>
       </defs>
       <use xlink:href="#ArialMT-35"/>
       <use xlink:href="#ArialMT-30" x="55.615234"/>
      </g>
     </g>
    </g>
    <g id="text_7">
     <!-- $m/n, n=100$ -->
     <g style="fill: #262626" transform="translate(136.745652 325.738594)scale(0.12 -0.12)">
      <defs>
       <path id="DejaVuSans-Oblique-6d" d="M 5747 2113 
L 5338 0 
L 4763 0 
L 5166 2094 
Q 5191 2228 5203 2325 
Q 5216 2422 5216 2491 
Q 5216 2772 5059 2928 
Q 4903 3084 4622 3084 
Q 4203 3084 3875 2770 
Q 3547 2456 3450 1953 
L 3066 0 
L 2491 0 
L 2900 2094 
Q 2925 2209 2937 2307 
Q 2950 2406 2950 2484 
Q 2950 2769 2794 2926 
Q 2638 3084 2363 3084 
Q 1938 3084 1609 2770 
Q 1281 2456 1184 1953 
L 800 0 
L 225 0 
L 909 3500 
L 1484 3500 
L 1375 2956 
Q 1609 3263 1923 3423 
Q 2238 3584 2597 3584 
Q 2978 3584 3223 3384 
Q 3469 3184 3519 2828 
Q 3781 3197 4126 3390 
Q 4472 3584 4856 3584 
Q 5306 3584 5551 3325 
Q 5797 3066 5797 2591 
Q 5797 2488 5784 2364 
Q 5772 2241 5747 2113 
z
" transform="scale(0.015625)"/>
       <path id="DejaVuSans-2f" d="M 1625 4666 
L 2156 4666 
L 531 -594 
L 0 -594 
L 1625 4666 
z
" transform="scale(0.015625)"/>
       <path id="DejaVuSans-Oblique-6e" d="M 3566 2113 
L 3156 0 
L 2578 0 
L 2988 2091 
Q 3016 2238 3031 2350 
Q 3047 2463 3047 2528 
Q 3047 2791 2881 2937 
Q 2716 3084 2419 3084 
Q 1956 3084 1622 2776 
Q 1288 2469 1184 1941 
L 800 0 
L 225 0 
L 903 3500 
L 1478 3500 
L 1363 2950 
Q 1603 3253 1940 3418 
Q 2278 3584 2650 3584 
Q 3113 3584 3367 3334 
Q 3622 3084 3622 2631 
Q 3622 2519 3608 2391 
Q 3594 2263 3566 2113 
z
" transform="scale(0.015625)"/>
       <path id="DejaVuSans-2c" d="M 750 794 
L 1409 794 
L 1409 256 
L 897 -744 
L 494 -744 
L 750 256 
L 750 794 
z
" transform="scale(0.015625)"/>
       <path id="DejaVuSans-3d" d="M 678 2906 
L 4684 2906 
L 4684 2381 
L 678 2381 
L 678 2906 
z
M 678 1631 
L 4684 1631 
L 4684 1100 
L 678 1100 
L 678 1631 
z
" transform="scale(0.015625)"/>
       <path id="DejaVuSans-31" d="M 794 531 
L 1825 531 
L 1825 4091 
L 703 3866 
L 703 4441 
L 1819 4666 
L 2450 4666 
L 2450 531 
L 3481 531 
L 3481 0 
L 794 0 
L 794 531 
z
" transform="scale(0.015625)"/>
       <path id="DejaVuSans-30" d="M 2034 4250 
Q 1547 4250 1301 3770 
Q 1056 3291 1056 2328 
Q 1056 1369 1301 889 
Q 1547 409 2034 409 
Q 2525 409 2770 889 
Q 3016 1369 3016 2328 
Q 3016 3291 2770 3770 
Q 2525 4250 2034 4250 
z
M 2034 4750 
Q 2819 4750 3233 4129 
Q 3647 3509 3647 2328 
Q 3647 1150 3233 529 
Q 2819 -91 2034 -91 
Q 1250 -91 836 529 
Q 422 1150 422 2328 
Q 422 3509 836 4129 
Q 1250 4750 2034 4750 
z
" transform="scale(0.015625)"/>
      </defs>
      <use xlink:href="#DejaVuSans-Oblique-6d" transform="translate(0 0.78125)"/>
      <use xlink:href="#DejaVuSans-2f" transform="translate(97.412109 0.78125)"/>
      <use xlink:href="#DejaVuSans-Oblique-6e" transform="translate(131.103516 0.78125)"/>
      <use xlink:href="#DejaVuSans-2c" transform="translate(194.482422 0.78125)"/>
      <use xlink:href="#DejaVuSans-Oblique-6e" transform="translate(245.751953 0.78125)"/>
      <use xlink:href="#DejaVuSans-3d" transform="translate(328.613281 0.78125)"/>
      <use xlink:href="#DejaVuSans-31" transform="translate(431.884766 0.78125)"/>
      <use xlink:href="#DejaVuSans-30" transform="translate(495.507812 0.78125)"/>
      <use xlink:href="#DejaVuSans-30" transform="translate(559.130859 0.78125)"/>
     </g>
    </g>
   </g>
   <g id="matplotlib.axis_2">
    <g id="ytick_1">
     <g id="line2d_7">
      <path d="M 53.867031 292.602208 
L 294.384273 292.602208 
" clip-path="url(#p72c5f5f099)" style="fill: none; stroke: #ffffff; stroke-linecap: round"/>
     </g>
     <g id="text_8">
      <!-- 0.15 -->
      <g style="fill: #262626" transform="translate(22.96 296.539005)scale(0.11 -0.11)">
       <defs>
        <path id="ArialMT-2e" d="M 581 0 
L 581 641 
L 1222 641 
L 1222 0 
L 581 0 
z
" transform="scale(0.015625)"/>
       </defs>
       <use xlink:href="#ArialMT-30"/>
       <use xlink:href="#ArialMT-2e" x="55.615234"/>
       <use xlink:href="#ArialMT-31" x="83.398438"/>
       <use xlink:href="#ArialMT-35" x="139.013672"/>
      </g>
     </g>
    </g>
    <g id="ytick_2">
     <g id="line2d_8">
      <path d="M 53.867031 232.773901 
L 294.384273 232.773901 
" clip-path="url(#p72c5f5f099)" style="fill: none; stroke: #ffffff; stroke-linecap: round"/>
     </g>
     <g id="text_9">
      <!-- 0.20 -->
      <g style="fill: #262626" transform="translate(22.96 236.710698)scale(0.11 -0.11)">
       <use xlink:href="#ArialMT-30"/>
       <use xlink:href="#ArialMT-2e" x="55.615234"/>
       <use xlink:href="#ArialMT-32" x="83.398438"/>
       <use xlink:href="#ArialMT-30" x="139.013672"/>
      </g>
     </g>
    </g>
    <g id="ytick_3">
     <g id="line2d_9">
      <path d="M 53.867031 172.945593 
L 294.384273 172.945593 
" clip-path="url(#p72c5f5f099)" style="fill: none; stroke: #ffffff; stroke-linecap: round"/>
     </g>
     <g id="text_10">
      <!-- 0.25 -->
      <g style="fill: #262626" transform="translate(22.96 176.88239)scale(0.11 -0.11)">
       <use xlink:href="#ArialMT-30"/>
       <use xlink:href="#ArialMT-2e" x="55.615234"/>
       <use xlink:href="#ArialMT-32" x="83.398438"/>
       <use xlink:href="#ArialMT-35" x="139.013672"/>
      </g>
     </g>
    </g>
    <g id="ytick_4">
     <g id="line2d_10">
      <path d="M 53.867031 113.117286 
L 294.384273 113.117286 
" clip-path="url(#p72c5f5f099)" style="fill: none; stroke: #ffffff; stroke-linecap: round"/>
     </g>
     <g id="text_11">
      <!-- 0.30 -->
      <g style="fill: #262626" transform="translate(22.96 117.054083)scale(0.11 -0.11)">
       <use xlink:href="#ArialMT-30"/>
       <use xlink:href="#ArialMT-2e" x="55.615234"/>
       <use xlink:href="#ArialMT-33" x="83.398438"/>
       <use xlink:href="#ArialMT-30" x="139.013672"/>
      </g>
     </g>
    </g>
    <g id="ytick_5">
     <g id="line2d_11">
      <path d="M 53.867031 53.288979 
L 294.384273 53.288979 
" clip-path="url(#p72c5f5f099)" style="fill: none; stroke: #ffffff; stroke-linecap: round"/>
     </g>
     <g id="text_12">
      <!-- 0.35 -->
      <g style="fill: #262626" transform="translate(22.96 57.225776)scale(0.11 -0.11)">
       <use xlink:href="#ArialMT-30"/>
       <use xlink:href="#ArialMT-2e" x="55.615234"/>
       <use xlink:href="#ArialMT-33" x="83.398438"/>
       <use xlink:href="#ArialMT-35" x="139.013672"/>
      </g>
     </g>
    </g>
    <g id="text_13">
     <!-- $L_{m, n, \alpha}$ -->
     <g style="fill: #262626" transform="translate(15.96 175.029375)rotate(-90)scale(0.12 -0.12)">
      <defs>
       <path id="DejaVuSans-Oblique-4c" d="M 1075 4666 
L 1709 4666 
L 909 525 
L 3181 525 
L 3078 0 
L 172 0 
L 1075 4666 
z
" transform="scale(0.015625)"/>
       <path id="DejaVuSans-Oblique-3b1" d="M 2619 1628 
L 2622 2350 
Q 2625 3088 2069 3091 
Q 1653 3094 1394 2747 
Q 1069 2319 959 1747 
Q 825 1059 994 731 
Q 1169 397 1547 397 
Q 1966 397 2319 1063 
L 2619 1628 
z
M 2166 3578 
Q 3141 3594 3128 2584 
Q 3128 2584 3616 3500 
L 4128 3500 
L 3119 1603 
L 3109 919 
Q 3109 766 3194 638 
Q 3291 488 3391 488 
L 3669 488 
L 3575 0 
L 3228 0 
Q 2934 0 2722 263 
Q 2622 394 2619 669 
Q 2416 334 2066 50 
Q 1900 -81 1453 -78 
Q 722 -72 456 397 
Q 184 884 353 1747 
Q 534 2675 1009 3097 
Q 1544 3569 2166 3578 
z
" transform="scale(0.015625)"/>
      </defs>
      <use xlink:href="#DejaVuSans-Oblique-4c" transform="translate(0 0.09375)"/>
      <use xlink:href="#DejaVuSans-Oblique-6d" transform="translate(55.712891 -16.3125)scale(0.7)"/>
      <use xlink:href="#DejaVuSans-2c" transform="translate(123.901367 -16.3125)scale(0.7)"/>
      <use xlink:href="#DejaVuSans-Oblique-6e" transform="translate(159.790039 -16.3125)scale(0.7)"/>
      <use xlink:href="#DejaVuSans-2c" transform="translate(204.155273 -16.3125)scale(0.7)"/>
      <use xlink:href="#DejaVuSans-Oblique-3b1" transform="translate(240.043945 -16.3125)scale(0.7)"/>
     </g>
    </g>
   </g>
   <g id="line2d_12">
    <path d="M 53.867031 39.528468 
L 77.918755 174.740443 
L 101.97048 191.492369 
L 126.022204 211.23571 
L 150.073928 215.423692 
L 174.125652 244.141279 
L 198.177376 251.320676 
L 222.2291 242.944713 
L 246.280824 267.474319 
L 270.332548 256.705224 
L 294.384273 259.696639 
" clip-path="url(#p72c5f5f099)" style="fill: none; stroke: #000000; stroke-opacity: 0.5; stroke-width: 0.7; stroke-linecap: round"/>
   </g>
   <g id="line2d_13">
    <path d="M 53.867031 74.827169 
L 77.918755 176.535292 
L 101.97048 199.868332 
L 126.022204 218.415107 
L 150.073928 214.227125 
L 174.125652 249.525827 
L 198.177376 248.329261 
L 222.2291 259.098356 
L 246.280824 252.517242 
L 270.332548 262.688054 
L 294.384273 266.277753 
" clip-path="url(#p72c5f5f099)" style="fill: none; stroke: #000000; stroke-opacity: 0.5; stroke-width: 0.7; stroke-linecap: round"/>
   </g>
   <g id="line2d_14">
    <path d="M 53.867031 64.058074 
L 77.918755 193.287218 
L 101.97048 204.654596 
L 126.022204 218.415107 
L 150.073928 208.842578 
L 174.125652 236.961882 
L 198.177376 249.525827 
L 222.2291 253.713808 
L 246.280824 266.277753 
L 270.332548 269.269168 
L 294.384273 269.867451 
" clip-path="url(#p72c5f5f099)" style="fill: none; stroke: #000000; stroke-opacity: 0.5; stroke-width: 0.7; stroke-linecap: round"/>
   </g>
   <g id="line2d_15">
    <path d="M 53.867031 82.006566 
L 77.918755 192.688935 
L 101.97048 183.714689 
L 126.022204 218.415107 
L 150.073928 217.816824 
L 174.125652 238.158448 
L 198.177376 251.918959 
L 222.2291 252.517242 
L 246.280824 257.90179 
L 270.332548 265.081187 
L 294.384273 261.491488 
" clip-path="url(#p72c5f5f099)" style="fill: none; stroke: #000000; stroke-opacity: 0.5; stroke-width: 0.7; stroke-linecap: round"/>
   </g>
   <g id="line2d_16">
    <path d="M 53.867031 50.895846 
L 77.918755 193.885501 
L 101.97048 189.697519 
L 126.022204 209.440861 
L 150.073928 219.01339 
L 174.125652 240.551581 
L 198.177376 250.722393 
L 222.2291 254.312091 
L 246.280824 273.45715 
L 270.332548 272.260583 
L 294.384273 273.45715 
" clip-path="url(#p72c5f5f099)" style="fill: none; stroke: #000000; stroke-opacity: 0.5; stroke-width: 0.7; stroke-linecap: round"/>
   </g>
   <g id="line2d_17">
    <path d="M 53.867031 76.622019 
L 77.918755 187.90267 
L 101.97048 195.082067 
L 126.022204 223.799655 
L 150.073928 220.209956 
L 174.125652 242.34643 
L 198.177376 257.90179 
L 222.2291 258.500073 
L 246.280824 263.88462 
L 270.332548 281.23483 
L 294.384273 260.893205 
" clip-path="url(#p72c5f5f099)" style="fill: none; stroke: #000000; stroke-opacity: 0.5; stroke-width: 0.7; stroke-linecap: round"/>
   </g>
   <g id="line2d_18">
    <path d="M 53.867031 47.904431 
L 77.918755 178.928424 
L 101.97048 202.859747 
L 126.022204 207.047729 
L 150.073928 222.004805 
L 174.125652 242.34643 
L 198.177376 254.312091 
L 222.2291 255.508657 
L 246.280824 256.10694 
L 270.332548 264.482904 
L 294.384273 269.867451 
" clip-path="url(#p72c5f5f099)" style="fill: none; stroke: #000000; stroke-opacity: 0.5; stroke-width: 0.7; stroke-linecap: round"/>
   </g>
   <g id="line2d_19">
    <path d="M 53.867031 34.14392 
L 77.918755 188.500953 
L 101.97048 205.851162 
L 126.022204 218.415107 
L 150.073928 223.201371 
L 174.125652 236.961882 
L 198.177376 249.525827 
L 222.2291 254.910374 
L 246.280824 263.88462 
L 270.332548 263.286337 
L 294.384273 269.867451 
" clip-path="url(#p72c5f5f099)" style="fill: none; stroke: #000000; stroke-opacity: 0.5; stroke-width: 0.7; stroke-linecap: round"/>
   </g>
   <g id="line2d_20">
    <path d="M 53.867031 51.49413 
L 77.918755 177.731858 
L 101.97048 213.030559 
L 126.022204 218.415107 
L 150.073928 232.175618 
L 174.125652 242.944713 
L 198.177376 259.098356 
L 222.2291 254.910374 
L 246.280824 251.918959 
L 270.332548 280.636546 
L 294.384273 273.45715 
" clip-path="url(#p72c5f5f099)" style="fill: none; stroke: #000000; stroke-opacity: 0.5; stroke-width: 0.7; stroke-linecap: round"/>
   </g>
   <g id="line2d_21">
    <path d="M 53.867031 72.434037 
L 77.918755 180.723273 
L 101.97048 189.099236 
L 126.022204 227.987636 
L 150.073928 219.611673 
L 174.125652 227.987636 
L 198.177376 246.534411 
L 222.2291 256.705224 
L 246.280824 255.508657 
L 270.332548 261.491488 
L 294.384273 271.6623 
" clip-path="url(#p72c5f5f099)" style="fill: none; stroke: #000000; stroke-opacity: 0.5; stroke-width: 0.7; stroke-linecap: round"/>
   </g>
   <g id="line2d_22">
    <path d="M 53.867031 59.391466 
L 77.918755 184.492457 
L 101.97048 197.535028 
L 126.022204 217.158712 
L 150.073928 219.252703 
L 174.125652 240.192611 
L 198.177376 251.918959 
L 222.2291 254.312091 
L 246.280824 260.893205 
L 270.332548 267.713632 
L 294.384273 267.653804 
" clip-path="url(#p72c5f5f099)" style="fill: none; stroke: #c44e52; stroke-width: 3; stroke-linecap: round"/>
   </g>
   <g id="LineCollection_1">
    <path d="M 53.867031 69.263137 
L 53.867031 50.474057 
" clip-path="url(#p72c5f5f099)" style="fill: none; stroke: #c44e52; stroke-width: 1.5; stroke-linecap: round"/>
    <path d="M 77.918755 188.800095 
L 77.918755 180.062171 
" clip-path="url(#p72c5f5f099)" style="fill: none; stroke: #c44e52; stroke-width: 1.5; stroke-linecap: round"/>
    <path d="M 101.97048 202.859747 
L 101.97048 192.507954 
" clip-path="url(#p72c5f5f099)" style="fill: none; stroke: #c44e52; stroke-width: 1.5; stroke-linecap: round"/>
    <path d="M 126.022204 220.749907 
L 126.022204 213.386538 
" clip-path="url(#p72c5f5f099)" style="fill: none; stroke: #c44e52; stroke-width: 1.5; stroke-linecap: round"/>
    <path d="M 150.073928 222.90223 
L 150.073928 215.721337 
" clip-path="url(#p72c5f5f099)" style="fill: none; stroke: #c44e52; stroke-width: 1.5; stroke-linecap: round"/>
    <path d="M 174.125652 243.363511 
L 174.125652 236.900558 
" clip-path="url(#p72c5f5f099)" style="fill: none; stroke: #c44e52; stroke-width: 1.5; stroke-linecap: round"/>
    <path d="M 198.177376 254.313587 
L 198.177376 249.645483 
" clip-path="url(#p72c5f5f099)" style="fill: none; stroke: #c44e52; stroke-width: 1.5; stroke-linecap: round"/>
    <path d="M 222.2291 256.525739 
L 222.2291 251.201019 
" clip-path="url(#p72c5f5f099)" style="fill: none; stroke: #c44e52; stroke-width: 1.5; stroke-linecap: round"/>
    <path d="M 246.280824 265.262167 
L 246.280824 256.645395 
" clip-path="url(#p72c5f5f099)" style="fill: none; stroke: #c44e52; stroke-width: 1.5; stroke-linecap: round"/>
    <path d="M 270.332548 272.501392 
L 270.332548 263.524155 
" clip-path="url(#p72c5f5f099)" style="fill: none; stroke: #c44e52; stroke-width: 1.5; stroke-linecap: round"/>
    <path d="M 294.384273 270.585391 
L 294.384273 264.242095 
" clip-path="url(#p72c5f5f099)" style="fill: none; stroke: #c44e52; stroke-width: 1.5; stroke-linecap: round"/>
   </g>
   <g id="line2d_23"/>
   <g id="patch_3">
    <path d="M 53.867031 293.589375 
L 53.867031 21.789375 
" style="fill: none; stroke: #ffffff; stroke-width: 1.25; stroke-linejoin: miter; stroke-linecap: square"/>
   </g>
   <g id="patch_4">
    <path d="M 294.384273 293.589375 
L 294.384273 21.789375 
" style="fill: none; stroke: #ffffff; stroke-width: 1.25; stroke-linejoin: miter; stroke-linecap: square"/>
   </g>
   <g id="patch_5">
    <path d="M 53.867031 293.589375 
L 294.384273 293.589375 
" style="fill: none; stroke: #ffffff; stroke-width: 1.25; stroke-linejoin: miter; stroke-linecap: square"/>
   </g>
   <g id="patch_6">
    <path d="M 53.867031 21.789375 
L 294.384273 21.789375 
" style="fill: none; stroke: #ffffff; stroke-width: 1.25; stroke-linejoin: miter; stroke-linecap: square"/>
   </g>
   <g id="text_14">
    <!-- $\alpha = 0$ -->
    <g style="fill: #262626" transform="translate(158.945652 15.789375)scale(0.12 -0.12)">
     <use xlink:href="#DejaVuSans-Oblique-3b1" transform="translate(0 0.78125)"/>
     <use xlink:href="#DejaVuSans-3d" transform="translate(85.400391 0.78125)"/>
     <use xlink:href="#DejaVuSans-30" transform="translate(188.671875 0.78125)"/>
    </g>
   </g>
  </g>
  <g id="axes_2">
   <g id="patch_7">
    <path d="M 342.487721 293.589375 
L 583.004962 293.589375 
L 583.004962 21.789375 
L 342.487721 21.789375 
z
" style="fill: #eaeaf2"/>
   </g>
   <g id="matplotlib.axis_3">
    <g id="xtick_7">
     <g id="line2d_24">
      <path d="M 342.487721 293.589375 
L 342.487721 21.789375 
" clip-path="url(#pb042e39f47)" style="fill: none; stroke: #ffffff; stroke-linecap: round"/>
     </g>
     <g id="text_15">
      <!-- 0 -->
      <g style="fill: #262626" transform="translate(339.429205 310.962969)scale(0.11 -0.11)">
       <use xlink:href="#ArialMT-30"/>
      </g>
     </g>
    </g>
    <g id="xtick_8">
     <g id="line2d_25">
      <path d="M 390.591169 293.589375 
L 390.591169 21.789375 
" clip-path="url(#pb042e39f47)" style="fill: none; stroke: #ffffff; stroke-linecap: round"/>
     </g>
     <g id="text_16">
      <!-- 10 -->
      <g style="fill: #262626" transform="translate(384.474138 310.962969)scale(0.11 -0.11)">
       <use xlink:href="#ArialMT-31"/>
       <use xlink:href="#ArialMT-30" x="55.615234"/>
      </g>
     </g>
    </g>
    <g id="xtick_9">
     <g id="line2d_26">
      <path d="M 438.694617 293.589375 
L 438.694617 21.789375 
" clip-path="url(#pb042e39f47)" style="fill: none; stroke: #ffffff; stroke-linecap: round"/>
     </g>
     <g id="text_17">
      <!-- 20 -->
      <g style="fill: #262626" transform="translate(432.577586 310.962969)scale(0.11 -0.11)">
       <use xlink:href="#ArialMT-32"/>
       <use xlink:href="#ArialMT-30" x="55.615234"/>
      </g>
     </g>
    </g>
    <g id="xtick_10">
     <g id="line2d_27">
      <path d="M 486.798066 293.589375 
L 486.798066 21.789375 
" clip-path="url(#pb042e39f47)" style="fill: none; stroke: #ffffff; stroke-linecap: round"/>
     </g>
     <g id="text_18">
      <!-- 30 -->
      <g style="fill: #262626" transform="translate(480.681034 310.962969)scale(0.11 -0.11)">
       <use xlink:href="#ArialMT-33"/>
       <use xlink:href="#ArialMT-30" x="55.615234"/>
      </g>
     </g>
    </g>
    <g id="xtick_11">
     <g id="line2d_28">
      <path d="M 534.901514 293.589375 
L 534.901514 21.789375 
" clip-path="url(#pb042e39f47)" style="fill: none; stroke: #ffffff; stroke-linecap: round"/>
     </g>
     <g id="text_19">
      <!-- 40 -->
      <g style="fill: #262626" transform="translate(528.784483 310.962969)scale(0.11 -0.11)">
       <use xlink:href="#ArialMT-34"/>
       <use xlink:href="#ArialMT-30" x="55.615234"/>
      </g>
     </g>
    </g>
    <g id="xtick_12">
     <g id="line2d_29">
      <path d="M 583.004962 293.589375 
L 583.004962 21.789375 
" clip-path="url(#pb042e39f47)" style="fill: none; stroke: #ffffff; stroke-linecap: round"/>
     </g>
     <g id="text_20">
      <!-- 50 -->
      <g style="fill: #262626" transform="translate(576.887931 310.962969)scale(0.11 -0.11)">
       <use xlink:href="#ArialMT-35"/>
       <use xlink:href="#ArialMT-30" x="55.615234"/>
      </g>
     </g>
    </g>
    <g id="text_21">
     <!-- $m/n, n=100$ -->
     <g style="fill: #262626" transform="translate(425.366342 325.738594)scale(0.12 -0.12)">
      <use xlink:href="#DejaVuSans-Oblique-6d" transform="translate(0 0.78125)"/>
      <use xlink:href="#DejaVuSans-2f" transform="translate(97.412109 0.78125)"/>
      <use xlink:href="#DejaVuSans-Oblique-6e" transform="translate(131.103516 0.78125)"/>
      <use xlink:href="#DejaVuSans-2c" transform="translate(194.482422 0.78125)"/>
      <use xlink:href="#DejaVuSans-Oblique-6e" transform="translate(245.751953 0.78125)"/>
      <use xlink:href="#DejaVuSans-3d" transform="translate(328.613281 0.78125)"/>
      <use xlink:href="#DejaVuSans-31" transform="translate(431.884766 0.78125)"/>
      <use xlink:href="#DejaVuSans-30" transform="translate(495.507812 0.78125)"/>
      <use xlink:href="#DejaVuSans-30" transform="translate(559.130859 0.78125)"/>
     </g>
    </g>
   </g>
   <g id="matplotlib.axis_4">
    <g id="ytick_6">
     <g id="line2d_30">
      <path d="M 342.487721 281.23483 
L 583.004962 281.23483 
" clip-path="url(#pb042e39f47)" style="fill: none; stroke: #ffffff; stroke-linecap: round"/>
     </g>
     <g id="text_22">
      <!-- 0.175 -->
      <g style="fill: #262626" transform="translate(305.463658 285.171626)scale(0.11 -0.11)">
       <defs>
        <path id="ArialMT-37" d="M 303 3981 
L 303 4522 
L 3269 4522 
L 3269 4084 
Q 2831 3619 2401 2847 
Q 1972 2075 1738 1259 
Q 1569 684 1522 0 
L 944 0 
Q 953 541 1156 1306 
Q 1359 2072 1739 2783 
Q 2119 3494 2547 3981 
L 303 3981 
z
" transform="scale(0.015625)"/>
       </defs>
       <use xlink:href="#ArialMT-30"/>
       <use xlink:href="#ArialMT-2e" x="55.615234"/>
       <use xlink:href="#ArialMT-31" x="83.398438"/>
       <use xlink:href="#ArialMT-37" x="139.013672"/>
       <use xlink:href="#ArialMT-35" x="194.628906"/>
      </g>
     </g>
    </g>
    <g id="ytick_7">
     <g id="line2d_31">
      <path d="M 342.487721 247.293771 
L 583.004962 247.293771 
" clip-path="url(#pb042e39f47)" style="fill: none; stroke: #ffffff; stroke-linecap: round"/>
     </g>
     <g id="text_23">
      <!-- 0.200 -->
      <g style="fill: #262626" transform="translate(305.463658 251.230567)scale(0.11 -0.11)">
       <use xlink:href="#ArialMT-30"/>
       <use xlink:href="#ArialMT-2e" x="55.615234"/>
       <use xlink:href="#ArialMT-32" x="83.398438"/>
       <use xlink:href="#ArialMT-30" x="139.013672"/>
       <use xlink:href="#ArialMT-30" x="194.628906"/>
      </g>
     </g>
    </g>
    <g id="ytick_8">
     <g id="line2d_32">
      <path d="M 342.487721 213.352712 
L 583.004962 213.352712 
" clip-path="url(#pb042e39f47)" style="fill: none; stroke: #ffffff; stroke-linecap: round"/>
     </g>
     <g id="text_24">
      <!-- 0.225 -->
      <g style="fill: #262626" transform="translate(305.463658 217.289509)scale(0.11 -0.11)">
       <use xlink:href="#ArialMT-30"/>
       <use xlink:href="#ArialMT-2e" x="55.615234"/>
       <use xlink:href="#ArialMT-32" x="83.398438"/>
       <use xlink:href="#ArialMT-32" x="139.013672"/>
       <use xlink:href="#ArialMT-35" x="194.628906"/>
      </g>
     </g>
    </g>
    <g id="ytick_9">
     <g id="line2d_33">
      <path d="M 342.487721 179.411653 
L 583.004962 179.411653 
" clip-path="url(#pb042e39f47)" style="fill: none; stroke: #ffffff; stroke-linecap: round"/>
     </g>
     <g id="text_25">
      <!-- 0.250 -->
      <g style="fill: #262626" transform="translate(305.463658 183.34845)scale(0.11 -0.11)">
       <use xlink:href="#ArialMT-30"/>
       <use xlink:href="#ArialMT-2e" x="55.615234"/>
       <use xlink:href="#ArialMT-32" x="83.398438"/>
       <use xlink:href="#ArialMT-35" x="139.013672"/>
       <use xlink:href="#ArialMT-30" x="194.628906"/>
      </g>
     </g>
    </g>
    <g id="ytick_10">
     <g id="line2d_34">
      <path d="M 342.487721 145.470594 
L 583.004962 145.470594 
" clip-path="url(#pb042e39f47)" style="fill: none; stroke: #ffffff; stroke-linecap: round"/>
     </g>
     <g id="text_26">
      <!-- 0.275 -->
      <g style="fill: #262626" transform="translate(305.463658 149.407391)scale(0.11 -0.11)">
       <use xlink:href="#ArialMT-30"/>
       <use xlink:href="#ArialMT-2e" x="55.615234"/>
       <use xlink:href="#ArialMT-32" x="83.398438"/>
       <use xlink:href="#ArialMT-37" x="139.013672"/>
       <use xlink:href="#ArialMT-35" x="194.628906"/>
      </g>
     </g>
    </g>
    <g id="ytick_11">
     <g id="line2d_35">
      <path d="M 342.487721 111.529535 
L 583.004962 111.529535 
" clip-path="url(#pb042e39f47)" style="fill: none; stroke: #ffffff; stroke-linecap: round"/>
     </g>
     <g id="text_27">
      <!-- 0.300 -->
      <g style="fill: #262626" transform="translate(305.463658 115.466332)scale(0.11 -0.11)">
       <use xlink:href="#ArialMT-30"/>
       <use xlink:href="#ArialMT-2e" x="55.615234"/>
       <use xlink:href="#ArialMT-33" x="83.398438"/>
       <use xlink:href="#ArialMT-30" x="139.013672"/>
       <use xlink:href="#ArialMT-30" x="194.628906"/>
      </g>
     </g>
    </g>
    <g id="ytick_12">
     <g id="line2d_36">
      <path d="M 342.487721 77.588476 
L 583.004962 77.588476 
" clip-path="url(#pb042e39f47)" style="fill: none; stroke: #ffffff; stroke-linecap: round"/>
     </g>
     <g id="text_28">
      <!-- 0.325 -->
      <g style="fill: #262626" transform="translate(305.463658 81.525273)scale(0.11 -0.11)">
       <use xlink:href="#ArialMT-30"/>
       <use xlink:href="#ArialMT-2e" x="55.615234"/>
       <use xlink:href="#ArialMT-33" x="83.398438"/>
       <use xlink:href="#ArialMT-32" x="139.013672"/>
       <use xlink:href="#ArialMT-35" x="194.628906"/>
      </g>
     </g>
    </g>
    <g id="ytick_13">
     <g id="line2d_37">
      <path d="M 342.487721 43.647417 
L 583.004962 43.647417 
" clip-path="url(#pb042e39f47)" style="fill: none; stroke: #ffffff; stroke-linecap: round"/>
     </g>
     <g id="text_29">
      <!-- 0.350 -->
      <g style="fill: #262626" transform="translate(305.463658 47.584214)scale(0.11 -0.11)">
       <use xlink:href="#ArialMT-30"/>
       <use xlink:href="#ArialMT-2e" x="55.615234"/>
       <use xlink:href="#ArialMT-33" x="83.398438"/>
       <use xlink:href="#ArialMT-35" x="139.013672"/>
       <use xlink:href="#ArialMT-30" x="194.628906"/>
      </g>
     </g>
    </g>
   </g>
   <g id="line2d_38">
    <path d="M 342.487721 34.14392 
L 366.539445 184.163401 
L 390.591169 184.163401 
L 414.642893 206.5645 
L 438.694617 223.535029 
L 462.746342 243.220844 
L 486.798066 247.293771 
L 510.84979 247.972592 
L 534.901514 262.227837 
L 558.953238 256.797267 
L 583.004962 278.519545 
" clip-path="url(#pb042e39f47)" style="fill: none; stroke: #000000; stroke-opacity: 0.5; stroke-width: 0.7; stroke-linecap: round"/>
   </g>
   <g id="line2d_39">
    <path d="M 342.487721 47.041523 
L 366.539445 171.94462 
L 390.591169 198.418646 
L 414.642893 207.922142 
L 438.694617 224.892672 
L 462.746342 225.571493 
L 486.798066 252.72434 
L 510.84979 252.045519 
L 534.901514 248.651413 
L 558.953238 261.549015 
L 583.004962 246.614949 
" clip-path="url(#pb042e39f47)" style="fill: none; stroke: #000000; stroke-opacity: 0.5; stroke-width: 0.7; stroke-linecap: round"/>
   </g>
   <g id="line2d_40">
    <path d="M 342.487721 77.588476 
L 366.539445 185.521043 
L 390.591169 199.776288 
L 414.642893 207.243321 
L 438.694617 228.965599 
L 462.746342 238.469095 
L 486.798066 245.936128 
L 510.84979 254.760804 
L 534.901514 264.2643 
L 558.953238 261.549015 
L 583.004962 273.088975 
" clip-path="url(#pb042e39f47)" style="fill: none; stroke: #000000; stroke-opacity: 0.5; stroke-width: 0.7; stroke-linecap: round"/>
   </g>
   <g id="line2d_41">
    <path d="M 342.487721 39.57449 
L 366.539445 180.769295 
L 390.591169 201.812752 
L 414.642893 207.243321 
L 438.694617 241.863201 
L 462.746342 257.476088 
L 486.798066 247.293771 
L 510.84979 246.614949 
L 534.901514 234.396168 
L 558.953238 248.651413 
L 583.004962 260.870194 
" clip-path="url(#pb042e39f47)" style="fill: none; stroke: #000000; stroke-opacity: 0.5; stroke-width: 0.7; stroke-linecap: round"/>
   </g>
   <g id="line2d_42">
    <path d="M 342.487721 44.326238 
L 366.539445 190.272792 
L 390.591169 182.805759 
L 414.642893 228.965599 
L 438.694617 205.206858 
L 462.746342 238.469095 
L 486.798066 237.790274 
L 510.84979 249.330234 
L 534.901514 237.790274 
L 558.953238 264.943121 
L 583.004962 271.052512 
" clip-path="url(#pb042e39f47)" style="fill: none; stroke: #000000; stroke-opacity: 0.5; stroke-width: 0.7; stroke-linecap: round"/>
   </g>
   <g id="line2d_43">
    <path d="M 342.487721 65.369695 
L 366.539445 196.382182 
L 390.591169 160.40466 
L 414.642893 224.213851 
L 438.694617 227.607956 
L 462.746342 247.293771 
L 486.798066 237.790274 
L 510.84979 245.257307 
L 534.901514 246.614949 
L 558.953238 264.943121 
L 583.004962 267.658406 
" clip-path="url(#pb042e39f47)" style="fill: none; stroke: #000000; stroke-opacity: 0.5; stroke-width: 0.7; stroke-linecap: round"/>
   </g>
   <g id="line2d_44">
    <path d="M 342.487721 47.041523 
L 366.539445 187.557507 
L 390.591169 190.951613 
L 414.642893 213.352712 
L 438.694617 226.250314 
L 462.746342 231.680883 
L 486.798066 253.403161 
L 510.84979 258.154909 
L 534.901514 272.410154 
L 558.953238 240.505559 
L 583.004962 256.797267 
" clip-path="url(#pb042e39f47)" style="fill: none; stroke: #000000; stroke-opacity: 0.5; stroke-width: 0.7; stroke-linecap: round"/>
   </g>
   <g id="line2d_45">
    <path d="M 342.487721 43.647417 
L 366.539445 189.59397 
L 390.591169 176.017547 
L 414.642893 214.031533 
L 438.694617 229.64442 
L 462.746342 236.432632 
L 486.798066 255.439625 
L 510.84979 281.23483 
L 534.901514 264.2643 
L 558.953238 265.621942 
L 583.004962 269.69487 
" clip-path="url(#pb042e39f47)" style="fill: none; stroke: #000000; stroke-opacity: 0.5; stroke-width: 0.7; stroke-linecap: round"/>
   </g>
   <g id="line2d_46">
    <path d="M 342.487721 38.216848 
L 366.539445 173.981083 
L 390.591169 165.156408 
L 414.642893 223.535029 
L 438.694617 221.498566 
L 462.746342 228.965599 
L 486.798066 250.009055 
L 510.84979 254.760804 
L 534.901514 247.293771 
L 558.953238 273.767797 
L 583.004962 266.300764 
" clip-path="url(#pb042e39f47)" style="fill: none; stroke: #000000; stroke-opacity: 0.5; stroke-width: 0.7; stroke-linecap: round"/>
   </g>
   <g id="line2d_47">
    <path d="M 342.487721 52.472092 
L 366.539445 174.659904 
L 390.591169 174.659904 
L 414.642893 205.885679 
L 438.694617 233.717347 
L 462.746342 234.396168 
L 486.798066 248.651413 
L 510.84979 252.72434 
L 534.901514 252.72434 
L 558.953238 263.585479 
L 583.004962 270.373691 
" clip-path="url(#pb042e39f47)" style="fill: none; stroke: #000000; stroke-opacity: 0.5; stroke-width: 0.7; stroke-linecap: round"/>
   </g>
   <g id="line2d_48">
    <path d="M 342.487721 48.942222 
L 366.539445 183.48458 
L 390.591169 183.416698 
L 414.642893 213.895769 
L 438.694617 226.318196 
L 462.746342 238.197567 
L 486.798066 247.633181 
L 510.84979 254.285629 
L 534.901514 253.063751 
L 558.953238 260.191373 
L 583.004962 266.097117 
" clip-path="url(#pb042e39f47)" style="fill: none; stroke: #c44e52; stroke-width: 3; stroke-linecap: round"/>
   </g>
   <g id="LineCollection_2">
    <path d="M 342.487721 58.109702 
L 342.487721 42.218498 
" clip-path="url(#pb042e39f47)" style="fill: none; stroke: #c44e52; stroke-width: 1.5; stroke-linecap: round"/>
    <path d="M 366.539445 188.168446 
L 366.539445 178.934781 
" clip-path="url(#pb042e39f47)" style="fill: none; stroke: #c44e52; stroke-width: 1.5; stroke-linecap: round"/>
    <path d="M 390.591169 191.358905 
L 390.591169 174.863551 
" clip-path="url(#pb042e39f47)" style="fill: none; stroke: #c44e52; stroke-width: 1.5; stroke-linecap: round"/>
    <path d="M 414.642893 218.922439 
L 414.642893 209.142323 
" clip-path="url(#pb042e39f47)" style="fill: none; stroke: #c44e52; stroke-width: 1.5; stroke-linecap: round"/>
    <path d="M 438.694617 231.818345 
L 438.694617 220.751863 
" clip-path="url(#pb042e39f47)" style="fill: none; stroke: #c44e52; stroke-width: 1.5; stroke-linecap: round"/>
    <path d="M 462.746342 244.17289 
L 462.746342 233.310054 
" clip-path="url(#pb042e39f47)" style="fill: none; stroke: #c44e52; stroke-width: 1.5; stroke-linecap: round"/>
    <path d="M 486.798066 251.095169 
L 486.798066 244.033732 
" clip-path="url(#pb042e39f47)" style="fill: none; stroke: #c44e52; stroke-width: 1.5; stroke-linecap: round"/>
    <path d="M 510.84979 261.618595 
L 510.84979 249.398116 
" clip-path="url(#pb042e39f47)" style="fill: none; stroke: #c44e52; stroke-width: 1.5; stroke-linecap: round"/>
    <path d="M 534.901514 259.987727 
L 534.901514 246.00401 
" clip-path="url(#pb042e39f47)" style="fill: none; stroke: #c44e52; stroke-width: 1.5; stroke-linecap: round"/>
    <path d="M 558.953238 265.282532 
L 558.953238 254.283932 
" clip-path="url(#pb042e39f47)" style="fill: none; stroke: #c44e52; stroke-width: 1.5; stroke-linecap: round"/>
    <path d="M 583.004962 271.054209 
L 583.004962 260.73443 
" clip-path="url(#pb042e39f47)" style="fill: none; stroke: #c44e52; stroke-width: 1.5; stroke-linecap: round"/>
   </g>
   <g id="line2d_49"/>
   <g id="patch_8">
    <path d="M 342.487721 293.589375 
L 342.487721 21.789375 
" style="fill: none; stroke: #ffffff; stroke-width: 1.25; stroke-linejoin: miter; stroke-linecap: square"/>
   </g>
   <g id="patch_9">
    <path d="M 583.004962 293.589375 
L 583.004962 21.789375 
" style="fill: none; stroke: #ffffff; stroke-width: 1.25; stroke-linejoin: miter; stroke-linecap: square"/>
   </g>
   <g id="patch_10">
    <path d="M 342.487721 293.589375 
L 583.004962 293.589375 
" style="fill: none; stroke: #ffffff; stroke-width: 1.25; stroke-linejoin: miter; stroke-linecap: square"/>
   </g>
   <g id="patch_11">
    <path d="M 342.487721 21.789375 
L 583.004962 21.789375 
" style="fill: none; stroke: #ffffff; stroke-width: 1.25; stroke-linejoin: miter; stroke-linecap: square"/>
   </g>
   <g id="text_30">
    <!-- $\alpha = 10$ -->
    <g style="fill: #262626" transform="translate(443.786342 15.789375)scale(0.12 -0.12)">
     <use xlink:href="#DejaVuSans-Oblique-3b1" transform="translate(0 0.78125)"/>
     <use xlink:href="#DejaVuSans-3d" transform="translate(85.400391 0.78125)"/>
     <use xlink:href="#DejaVuSans-31" transform="translate(188.671875 0.78125)"/>
     <use xlink:href="#DejaVuSans-30" transform="translate(252.294922 0.78125)"/>
    </g>
   </g>
  </g>
  <g id="axes_3">
   <g id="patch_12">
    <path d="M 631.108411 293.589375 
L 871.625652 293.589375 
L 871.625652 21.789375 
L 631.108411 21.789375 
z
" style="fill: #eaeaf2"/>
   </g>
   <g id="matplotlib.axis_5">
    <g id="xtick_13">
     <g id="line2d_50">
      <path d="M 631.108411 293.589375 
L 631.108411 21.789375 
" clip-path="url(#p491f7fa53c)" style="fill: none; stroke: #ffffff; stroke-linecap: round"/>
     </g>
     <g id="text_31">
      <!-- 0 -->
      <g style="fill: #262626" transform="translate(628.049895 310.962969)scale(0.11 -0.11)">
       <use xlink:href="#ArialMT-30"/>
      </g>
     </g>
    </g>
    <g id="xtick_14">
     <g id="line2d_51">
      <path d="M 679.211859 293.589375 
L 679.211859 21.789375 
" clip-path="url(#p491f7fa53c)" style="fill: none; stroke: #ffffff; stroke-linecap: round"/>
     </g>
     <g id="text_32">
      <!-- 10 -->
      <g style="fill: #262626" transform="translate(673.094828 310.962969)scale(0.11 -0.11)">
       <use xlink:href="#ArialMT-31"/>
       <use xlink:href="#ArialMT-30" x="55.615234"/>
      </g>
     </g>
    </g>
    <g id="xtick_15">
     <g id="line2d_52">
      <path d="M 727.315307 293.589375 
L 727.315307 21.789375 
" clip-path="url(#p491f7fa53c)" style="fill: none; stroke: #ffffff; stroke-linecap: round"/>
     </g>
     <g id="text_33">
      <!-- 20 -->
      <g style="fill: #262626" transform="translate(721.198276 310.962969)scale(0.11 -0.11)">
       <use xlink:href="#ArialMT-32"/>
       <use xlink:href="#ArialMT-30" x="55.615234"/>
      </g>
     </g>
    </g>
    <g id="xtick_16">
     <g id="line2d_53">
      <path d="M 775.418755 293.589375 
L 775.418755 21.789375 
" clip-path="url(#p491f7fa53c)" style="fill: none; stroke: #ffffff; stroke-linecap: round"/>
     </g>
     <g id="text_34">
      <!-- 30 -->
      <g style="fill: #262626" transform="translate(769.301724 310.962969)scale(0.11 -0.11)">
       <use xlink:href="#ArialMT-33"/>
       <use xlink:href="#ArialMT-30" x="55.615234"/>
      </g>
     </g>
    </g>
    <g id="xtick_17">
     <g id="line2d_54">
      <path d="M 823.522204 293.589375 
L 823.522204 21.789375 
" clip-path="url(#p491f7fa53c)" style="fill: none; stroke: #ffffff; stroke-linecap: round"/>
     </g>
     <g id="text_35">
      <!-- 40 -->
      <g style="fill: #262626" transform="translate(817.405172 310.962969)scale(0.11 -0.11)">
       <use xlink:href="#ArialMT-34"/>
       <use xlink:href="#ArialMT-30" x="55.615234"/>
      </g>
     </g>
    </g>
    <g id="xtick_18">
     <g id="line2d_55">
      <path d="M 871.625652 293.589375 
L 871.625652 21.789375 
" clip-path="url(#p491f7fa53c)" style="fill: none; stroke: #ffffff; stroke-linecap: round"/>
     </g>
     <g id="text_36">
      <!-- 50 -->
      <g style="fill: #262626" transform="translate(865.508621 310.962969)scale(0.11 -0.11)">
       <use xlink:href="#ArialMT-35"/>
       <use xlink:href="#ArialMT-30" x="55.615234"/>
      </g>
     </g>
    </g>
    <g id="text_37">
     <!-- $m/n, n=100$ -->
     <g style="fill: #262626" transform="translate(713.987031 325.738594)scale(0.12 -0.12)">
      <use xlink:href="#DejaVuSans-Oblique-6d" transform="translate(0 0.78125)"/>
      <use xlink:href="#DejaVuSans-2f" transform="translate(97.412109 0.78125)"/>
      <use xlink:href="#DejaVuSans-Oblique-6e" transform="translate(131.103516 0.78125)"/>
      <use xlink:href="#DejaVuSans-2c" transform="translate(194.482422 0.78125)"/>
      <use xlink:href="#DejaVuSans-Oblique-6e" transform="translate(245.751953 0.78125)"/>
      <use xlink:href="#DejaVuSans-3d" transform="translate(328.613281 0.78125)"/>
      <use xlink:href="#DejaVuSans-31" transform="translate(431.884766 0.78125)"/>
      <use xlink:href="#DejaVuSans-30" transform="translate(495.507812 0.78125)"/>
      <use xlink:href="#DejaVuSans-30" transform="translate(559.130859 0.78125)"/>
     </g>
    </g>
   </g>
   <g id="matplotlib.axis_6">
    <g id="ytick_14">
     <g id="line2d_56">
      <path d="M 631.108411 255.402598 
L 871.625652 255.402598 
" clip-path="url(#p491f7fa53c)" style="fill: none; stroke: #ffffff; stroke-linecap: round"/>
     </g>
     <g id="text_38">
      <!-- 0.26 -->
      <g style="fill: #262626" transform="translate(600.201379 259.339395)scale(0.11 -0.11)">
       <defs>
        <path id="ArialMT-36" d="M 3184 3459 
L 2625 3416 
Q 2550 3747 2413 3897 
Q 2184 4138 1850 4138 
Q 1581 4138 1378 3988 
Q 1113 3794 959 3422 
Q 806 3050 800 2363 
Q 1003 2672 1297 2822 
Q 1591 2972 1913 2972 
Q 2475 2972 2870 2558 
Q 3266 2144 3266 1488 
Q 3266 1056 3080 686 
Q 2894 316 2569 119 
Q 2244 -78 1831 -78 
Q 1128 -78 684 439 
Q 241 956 241 2144 
Q 241 3472 731 4075 
Q 1159 4600 1884 4600 
Q 2425 4600 2770 4297 
Q 3116 3994 3184 3459 
z
M 888 1484 
Q 888 1194 1011 928 
Q 1134 663 1356 523 
Q 1578 384 1822 384 
Q 2178 384 2434 671 
Q 2691 959 2691 1453 
Q 2691 1928 2437 2201 
Q 2184 2475 1800 2475 
Q 1419 2475 1153 2201 
Q 888 1928 888 1484 
z
" transform="scale(0.015625)"/>
       </defs>
       <use xlink:href="#ArialMT-30"/>
       <use xlink:href="#ArialMT-2e" x="55.615234"/>
       <use xlink:href="#ArialMT-32" x="83.398438"/>
       <use xlink:href="#ArialMT-36" x="139.013672"/>
      </g>
     </g>
    </g>
    <g id="ytick_15">
     <g id="line2d_57">
      <path d="M 631.108411 210.476978 
L 871.625652 210.476978 
" clip-path="url(#p491f7fa53c)" style="fill: none; stroke: #ffffff; stroke-linecap: round"/>
     </g>
     <g id="text_39">
      <!-- 0.28 -->
      <g style="fill: #262626" transform="translate(600.201379 214.413775)scale(0.11 -0.11)">
       <defs>
        <path id="ArialMT-38" d="M 1131 2484 
Q 781 2613 612 2850 
Q 444 3088 444 3419 
Q 444 3919 803 4259 
Q 1163 4600 1759 4600 
Q 2359 4600 2725 4251 
Q 3091 3903 3091 3403 
Q 3091 3084 2923 2848 
Q 2756 2613 2416 2484 
Q 2838 2347 3058 2040 
Q 3278 1734 3278 1309 
Q 3278 722 2862 322 
Q 2447 -78 1769 -78 
Q 1091 -78 675 323 
Q 259 725 259 1325 
Q 259 1772 486 2073 
Q 713 2375 1131 2484 
z
M 1019 3438 
Q 1019 3113 1228 2906 
Q 1438 2700 1772 2700 
Q 2097 2700 2305 2904 
Q 2513 3109 2513 3406 
Q 2513 3716 2298 3927 
Q 2084 4138 1766 4138 
Q 1444 4138 1231 3931 
Q 1019 3725 1019 3438 
z
M 838 1322 
Q 838 1081 952 856 
Q 1066 631 1291 507 
Q 1516 384 1775 384 
Q 2178 384 2440 643 
Q 2703 903 2703 1303 
Q 2703 1709 2433 1975 
Q 2163 2241 1756 2241 
Q 1359 2241 1098 1978 
Q 838 1716 838 1322 
z
" transform="scale(0.015625)"/>
       </defs>
       <use xlink:href="#ArialMT-30"/>
       <use xlink:href="#ArialMT-2e" x="55.615234"/>
       <use xlink:href="#ArialMT-32" x="83.398438"/>
       <use xlink:href="#ArialMT-38" x="139.013672"/>
      </g>
     </g>
    </g>
    <g id="ytick_16">
     <g id="line2d_58">
      <path d="M 631.108411 165.551358 
L 871.625652 165.551358 
" clip-path="url(#p491f7fa53c)" style="fill: none; stroke: #ffffff; stroke-linecap: round"/>
     </g>
     <g id="text_40">
      <!-- 0.30 -->
      <g style="fill: #262626" transform="translate(600.201379 169.488155)scale(0.11 -0.11)">
       <use xlink:href="#ArialMT-30"/>
       <use xlink:href="#ArialMT-2e" x="55.615234"/>
       <use xlink:href="#ArialMT-33" x="83.398438"/>
       <use xlink:href="#ArialMT-30" x="139.013672"/>
      </g>
     </g>
    </g>
    <g id="ytick_17">
     <g id="line2d_59">
      <path d="M 631.108411 120.625739 
L 871.625652 120.625739 
" clip-path="url(#p491f7fa53c)" style="fill: none; stroke: #ffffff; stroke-linecap: round"/>
     </g>
     <g id="text_41">
      <!-- 0.32 -->
      <g style="fill: #262626" transform="translate(600.201379 124.562536)scale(0.11 -0.11)">
       <use xlink:href="#ArialMT-30"/>
       <use xlink:href="#ArialMT-2e" x="55.615234"/>
       <use xlink:href="#ArialMT-33" x="83.398438"/>
       <use xlink:href="#ArialMT-32" x="139.013672"/>
      </g>
     </g>
    </g>
    <g id="ytick_18">
     <g id="line2d_60">
      <path d="M 631.108411 75.700119 
L 871.625652 75.700119 
" clip-path="url(#p491f7fa53c)" style="fill: none; stroke: #ffffff; stroke-linecap: round"/>
     </g>
     <g id="text_42">
      <!-- 0.34 -->
      <g style="fill: #262626" transform="translate(600.201379 79.636916)scale(0.11 -0.11)">
       <use xlink:href="#ArialMT-30"/>
       <use xlink:href="#ArialMT-2e" x="55.615234"/>
       <use xlink:href="#ArialMT-33" x="83.398438"/>
       <use xlink:href="#ArialMT-34" x="139.013672"/>
      </g>
     </g>
    </g>
    <g id="ytick_19">
     <g id="line2d_61">
      <path d="M 631.108411 30.774499 
L 871.625652 30.774499 
" clip-path="url(#p491f7fa53c)" style="fill: none; stroke: #ffffff; stroke-linecap: round"/>
     </g>
     <g id="text_43">
      <!-- 0.36 -->
      <g style="fill: #262626" transform="translate(600.201379 34.711296)scale(0.11 -0.11)">
       <use xlink:href="#ArialMT-30"/>
       <use xlink:href="#ArialMT-2e" x="55.615234"/>
       <use xlink:href="#ArialMT-33" x="83.398438"/>
       <use xlink:href="#ArialMT-36" x="139.013672"/>
      </g>
     </g>
    </g>
   </g>
   <g id="line2d_62">
    <path d="M 631.108411 85.808383 
L 655.160135 219.462102 
L 679.211859 221.708383 
L 703.263583 227.324086 
L 727.315307 231.816648 
L 751.367031 211.600119 
L 775.418755 257.648879 
L 799.47048 228.447226 
L 823.522204 237.43235 
L 847.573928 240.801772 
L 871.625652 241.924912 
" clip-path="url(#p491f7fa53c)" style="fill: none; stroke: #000000; stroke-opacity: 0.5; stroke-width: 0.7; stroke-linecap: round"/>
   </g>
   <g id="line2d_63">
    <path d="M 631.108411 70.084416 
L 655.160135 202.614995 
L 679.211859 228.447226 
L 703.263583 254.279458 
L 727.315307 244.171193 
L 751.367031 200.368714 
L 775.418755 200.368714 
L 799.47048 218.338962 
L 823.522204 229.570367 
L 847.573928 239.678631 
L 871.625652 244.171193 
" clip-path="url(#p491f7fa53c)" style="fill: none; stroke: #000000; stroke-opacity: 0.5; stroke-width: 0.7; stroke-linecap: round"/>
   </g>
   <g id="line2d_64">
    <path d="M 631.108411 57.729871 
L 655.160135 212.723259 
L 679.211859 218.338962 
L 703.263583 226.200945 
L 727.315307 266.634003 
L 751.367031 236.30921 
L 775.418755 245.294334 
L 799.47048 229.570367 
L 823.522204 248.663755 
L 847.573928 239.678631 
L 871.625652 228.447226 
" clip-path="url(#p491f7fa53c)" style="fill: none; stroke: #000000; stroke-opacity: 0.5; stroke-width: 0.7; stroke-linecap: round"/>
   </g>
   <g id="line2d_65">
    <path d="M 631.108411 52.114168 
L 655.160135 204.861276 
L 679.211859 232.939788 
L 703.263583 204.861276 
L 727.315307 222.831524 
L 751.367031 223.954664 
L 775.418755 221.708383 
L 799.47048 213.8464 
L 823.522204 250.910036 
L 847.573928 236.30921 
L 871.625652 210.476978 
" clip-path="url(#p491f7fa53c)" style="fill: none; stroke: #000000; stroke-opacity: 0.5; stroke-width: 0.7; stroke-linecap: round"/>
   </g>
   <g id="line2d_66">
    <path d="M 631.108411 125.118301 
L 655.160135 200.368714 
L 679.211859 202.614995 
L 703.263583 255.402598 
L 727.315307 261.018301 
L 751.367031 202.614995 
L 775.418755 198.122433 
L 799.47048 232.939788 
L 823.522204 235.186069 
L 847.573928 229.570367 
L 871.625652 213.8464 
" clip-path="url(#p491f7fa53c)" style="fill: none; stroke: #000000; stroke-opacity: 0.5; stroke-width: 0.7; stroke-linecap: round"/>
   </g>
   <g id="line2d_67">
    <path d="M 631.108411 62.222433 
L 655.160135 223.954664 
L 679.211859 218.338962 
L 703.263583 219.462102 
L 727.315307 232.939788 
L 751.367031 236.30921 
L 775.418755 258.77202 
L 799.47048 226.200945 
L 823.522204 198.122433 
L 847.573928 248.663755 
L 871.625652 281.23483 
" clip-path="url(#p491f7fa53c)" style="fill: none; stroke: #000000; stroke-opacity: 0.5; stroke-width: 0.7; stroke-linecap: round"/>
   </g>
   <g id="line2d_68">
    <path d="M 631.108411 34.14392 
L 655.160135 223.954664 
L 679.211859 208.230697 
L 703.263583 244.171193 
L 727.315307 268.880284 
L 751.367031 229.570367 
L 775.418755 255.402598 
L 799.47048 234.062929 
L 823.522204 204.861276 
L 847.573928 265.510863 
L 871.625652 214.96954 
" clip-path="url(#p491f7fa53c)" style="fill: none; stroke: #000000; stroke-opacity: 0.5; stroke-width: 0.7; stroke-linecap: round"/>
   </g>
   <g id="line2d_69">
    <path d="M 631.108411 83.562102 
L 655.160135 225.077805 
L 679.211859 190.260449 
L 703.263583 230.693507 
L 727.315307 226.200945 
L 751.367031 238.555491 
L 775.418755 255.402598 
L 799.47048 254.279458 
L 823.522204 236.30921 
L 847.573928 228.447226 
L 871.625652 246.417474 
" clip-path="url(#p491f7fa53c)" style="fill: none; stroke: #000000; stroke-opacity: 0.5; stroke-width: 0.7; stroke-linecap: round"/>
   </g>
   <g id="line2d_70">
    <path d="M 631.108411 71.207557 
L 655.160135 225.077805 
L 679.211859 196.999292 
L 703.263583 237.43235 
L 727.315307 241.924912 
L 751.367031 231.816648 
L 775.418755 237.43235 
L 799.47048 213.8464 
L 823.522204 253.156317 
L 847.573928 252.033177 
L 871.625652 252.033177 
" clip-path="url(#p491f7fa53c)" style="fill: none; stroke: #000000; stroke-opacity: 0.5; stroke-width: 0.7; stroke-linecap: round"/>
   </g>
   <g id="line2d_71">
    <path d="M 631.108411 52.114168 
L 655.160135 220.585243 
L 679.211859 217.215821 
L 703.263583 238.555491 
L 727.315307 223.954664 
L 751.367031 223.954664 
L 775.418755 188.014168 
L 799.47048 231.816648 
L 823.522204 237.43235 
L 847.573928 250.910036 
L 871.625652 257.648879 
" clip-path="url(#p491f7fa53c)" style="fill: none; stroke: #000000; stroke-opacity: 0.5; stroke-width: 0.7; stroke-linecap: round"/>
   </g>
   <g id="line2d_72">
    <path d="M 631.108411 69.410532 
L 655.160135 215.868053 
L 679.211859 213.509458 
L 703.263583 233.838301 
L 727.315307 242.037226 
L 751.367031 223.505408 
L 775.418755 231.816648 
L 799.47048 228.334912 
L 823.522204 233.164416 
L 847.573928 243.160367 
L 871.625652 239.117061 
" clip-path="url(#p491f7fa53c)" style="fill: none; stroke: #c44e52; stroke-width: 3; stroke-linecap: round"/>
   </g>
   <g id="LineCollection_3">
    <path d="M 631.108411 85.137307 
L 631.108411 56.157474 
" clip-path="url(#p491f7fa53c)" style="fill: none; stroke: #c44e52; stroke-width: 1.5; stroke-linecap: round"/>
    <path d="M 655.160135 221.596069 
L 655.160135 209.69078 
" clip-path="url(#p491f7fa53c)" style="fill: none; stroke: #c44e52; stroke-width: 1.5; stroke-linecap: round"/>
    <path d="M 679.211859 221.259127 
L 679.211859 204.97359 
" clip-path="url(#p491f7fa53c)" style="fill: none; stroke: #c44e52; stroke-width: 1.5; stroke-linecap: round"/>
    <path d="M 703.263583 243.050861 
L 703.263583 223.730036 
" clip-path="url(#p491f7fa53c)" style="fill: none; stroke: #c44e52; stroke-width: 1.5; stroke-linecap: round"/>
    <path d="M 727.315307 251.92367 
L 727.315307 231.701526 
" clip-path="url(#p491f7fa53c)" style="fill: none; stroke: #c44e52; stroke-width: 1.5; stroke-linecap: round"/>
    <path d="M 751.367031 231.704334 
L 751.367031 215.081854 
" clip-path="url(#p491f7fa53c)" style="fill: none; stroke: #c44e52; stroke-width: 1.5; stroke-linecap: round"/>
    <path d="M 775.418755 246.08334 
L 775.418755 215.081854 
" clip-path="url(#p491f7fa53c)" style="fill: none; stroke: #c44e52; stroke-width: 1.5; stroke-linecap: round"/>
    <path d="M 799.47048 235.635325 
L 799.47048 221.483755 
" clip-path="url(#p491f7fa53c)" style="fill: none; stroke: #c44e52; stroke-width: 1.5; stroke-linecap: round"/>
    <path d="M 823.522204 243.497309 
L 823.522204 221.483755 
" clip-path="url(#p491f7fa53c)" style="fill: none; stroke: #c44e52; stroke-width: 1.5; stroke-linecap: round"/>
    <path d="M 847.573928 250.123838 
L 847.573928 237.541856 
" clip-path="url(#p491f7fa53c)" style="fill: none; stroke: #c44e52; stroke-width: 1.5; stroke-linecap: round"/>
    <path d="M 871.625652 251.474414 
L 871.625652 226.310451 
" clip-path="url(#p491f7fa53c)" style="fill: none; stroke: #c44e52; stroke-width: 1.5; stroke-linecap: round"/>
   </g>
   <g id="line2d_73"/>
   <g id="patch_13">
    <path d="M 631.108411 293.589375 
L 631.108411 21.789375 
" style="fill: none; stroke: #ffffff; stroke-width: 1.25; stroke-linejoin: miter; stroke-linecap: square"/>
   </g>
   <g id="patch_14">
    <path d="M 871.625652 293.589375 
L 871.625652 21.789375 
" style="fill: none; stroke: #ffffff; stroke-width: 1.25; stroke-linejoin: miter; stroke-linecap: square"/>
   </g>
   <g id="patch_15">
    <path d="M 631.108411 293.589375 
L 871.625652 293.589375 
" style="fill: none; stroke: #ffffff; stroke-width: 1.25; stroke-linejoin: miter; stroke-linecap: square"/>
   </g>
   <g id="patch_16">
    <path d="M 631.108411 21.789375 
L 871.625652 21.789375 
" style="fill: none; stroke: #ffffff; stroke-width: 1.25; stroke-linejoin: miter; stroke-linecap: square"/>
   </g>
   <g id="text_44">
    <!-- $\alpha = 45$ -->
    <g style="fill: #262626" transform="translate(732.407031 15.789375)scale(0.12 -0.12)">
     <defs>
      <path id="DejaVuSans-34" d="M 2419 4116 
L 825 1625 
L 2419 1625 
L 2419 4116 
z
M 2253 4666 
L 3047 4666 
L 3047 1625 
L 3713 1625 
L 3713 1100 
L 3047 1100 
L 3047 0 
L 2419 0 
L 2419 1100 
L 313 1100 
L 313 1709 
L 2253 4666 
z
" transform="scale(0.015625)"/>
      <path id="DejaVuSans-35" d="M 691 4666 
L 3169 4666 
L 3169 4134 
L 1269 4134 
L 1269 2991 
Q 1406 3038 1543 3061 
Q 1681 3084 1819 3084 
Q 2600 3084 3056 2656 
Q 3513 2228 3513 1497 
Q 3513 744 3044 326 
Q 2575 -91 1722 -91 
Q 1428 -91 1123 -41 
Q 819 9 494 109 
L 494 744 
Q 775 591 1075 516 
Q 1375 441 1709 441 
Q 2250 441 2565 725 
Q 2881 1009 2881 1497 
Q 2881 1984 2565 2268 
Q 2250 2553 1709 2553 
Q 1456 2553 1204 2497 
Q 953 2441 691 2322 
L 691 4666 
z
" transform="scale(0.015625)"/>
     </defs>
     <use xlink:href="#DejaVuSans-Oblique-3b1" transform="translate(0 0.09375)"/>
     <use xlink:href="#DejaVuSans-3d" transform="translate(85.400391 0.09375)"/>
     <use xlink:href="#DejaVuSans-34" transform="translate(188.671875 0.09375)"/>
     <use xlink:href="#DejaVuSans-35" transform="translate(252.294922 0.09375)"/>
    </g>
   </g>
  </g>
  <g id="axes_4">
   <g id="patch_17">
    <path d="M 919.7291 293.589375 
L 1160.246342 293.589375 
L 1160.246342 21.789375 
L 919.7291 21.789375 
z
" style="fill: #eaeaf2"/>
   </g>
   <g id="matplotlib.axis_7">
    <g id="xtick_19">
     <g id="line2d_74">
      <path d="M 919.7291 293.589375 
L 919.7291 21.789375 
" clip-path="url(#pea34f85623)" style="fill: none; stroke: #ffffff; stroke-linecap: round"/>
     </g>
     <g id="text_45">
      <!-- 0 -->
      <g style="fill: #262626" transform="translate(916.670585 310.962969)scale(0.11 -0.11)">
       <use xlink:href="#ArialMT-30"/>
      </g>
     </g>
    </g>
    <g id="xtick_20">
     <g id="line2d_75">
      <path d="M 967.832548 293.589375 
L 967.832548 21.789375 
" clip-path="url(#pea34f85623)" style="fill: none; stroke: #ffffff; stroke-linecap: round"/>
     </g>
     <g id="text_46">
      <!-- 10 -->
      <g style="fill: #262626" transform="translate(961.715517 310.962969)scale(0.11 -0.11)">
       <use xlink:href="#ArialMT-31"/>
       <use xlink:href="#ArialMT-30" x="55.615234"/>
      </g>
     </g>
    </g>
    <g id="xtick_21">
     <g id="line2d_76">
      <path d="M 1015.935997 293.589375 
L 1015.935997 21.789375 
" clip-path="url(#pea34f85623)" style="fill: none; stroke: #ffffff; stroke-linecap: round"/>
     </g>
     <g id="text_47">
      <!-- 20 -->
      <g style="fill: #262626" transform="translate(1009.818966 310.962969)scale(0.11 -0.11)">
       <use xlink:href="#ArialMT-32"/>
       <use xlink:href="#ArialMT-30" x="55.615234"/>
      </g>
     </g>
    </g>
    <g id="xtick_22">
     <g id="line2d_77">
      <path d="M 1064.039445 293.589375 
L 1064.039445 21.789375 
" clip-path="url(#pea34f85623)" style="fill: none; stroke: #ffffff; stroke-linecap: round"/>
     </g>
     <g id="text_48">
      <!-- 30 -->
      <g style="fill: #262626" transform="translate(1057.922414 310.962969)scale(0.11 -0.11)">
       <use xlink:href="#ArialMT-33"/>
       <use xlink:href="#ArialMT-30" x="55.615234"/>
      </g>
     </g>
    </g>
    <g id="xtick_23">
     <g id="line2d_78">
      <path d="M 1112.142893 293.589375 
L 1112.142893 21.789375 
" clip-path="url(#pea34f85623)" style="fill: none; stroke: #ffffff; stroke-linecap: round"/>
     </g>
     <g id="text_49">
      <!-- 40 -->
      <g style="fill: #262626" transform="translate(1106.025862 310.962969)scale(0.11 -0.11)">
       <use xlink:href="#ArialMT-34"/>
       <use xlink:href="#ArialMT-30" x="55.615234"/>
      </g>
     </g>
    </g>
    <g id="xtick_24">
     <g id="line2d_79">
      <path d="M 1160.246342 293.589375 
L 1160.246342 21.789375 
" clip-path="url(#pea34f85623)" style="fill: none; stroke: #ffffff; stroke-linecap: round"/>
     </g>
     <g id="text_50">
      <!-- 50 -->
      <g style="fill: #262626" transform="translate(1154.12931 310.962969)scale(0.11 -0.11)">
       <use xlink:href="#ArialMT-35"/>
       <use xlink:href="#ArialMT-30" x="55.615234"/>
      </g>
     </g>
    </g>
    <g id="text_51">
     <!-- $m/n, n=100$ -->
     <g style="fill: #262626" transform="translate(1002.607721 325.738594)scale(0.12 -0.12)">
      <use xlink:href="#DejaVuSans-Oblique-6d" transform="translate(0 0.78125)"/>
      <use xlink:href="#DejaVuSans-2f" transform="translate(97.412109 0.78125)"/>
      <use xlink:href="#DejaVuSans-Oblique-6e" transform="translate(131.103516 0.78125)"/>
      <use xlink:href="#DejaVuSans-2c" transform="translate(194.482422 0.78125)"/>
      <use xlink:href="#DejaVuSans-Oblique-6e" transform="translate(245.751953 0.78125)"/>
      <use xlink:href="#DejaVuSans-3d" transform="translate(328.613281 0.78125)"/>
      <use xlink:href="#DejaVuSans-31" transform="translate(431.884766 0.78125)"/>
      <use xlink:href="#DejaVuSans-30" transform="translate(495.507812 0.78125)"/>
      <use xlink:href="#DejaVuSans-30" transform="translate(559.130859 0.78125)"/>
     </g>
    </g>
   </g>
   <g id="matplotlib.axis_8">
    <g id="ytick_20">
     <g id="line2d_80">
      <path d="M 919.7291 289.270306 
L 1160.246342 289.270306 
" clip-path="url(#pea34f85623)" style="fill: none; stroke: #ffffff; stroke-linecap: round"/>
     </g>
     <g id="text_52">
      <!-- 0.29 -->
      <g style="fill: #262626" transform="translate(888.822069 293.207103)scale(0.11 -0.11)">
       <defs>
        <path id="ArialMT-39" d="M 350 1059 
L 891 1109 
Q 959 728 1153 556 
Q 1347 384 1650 384 
Q 1909 384 2104 503 
Q 2300 622 2425 820 
Q 2550 1019 2634 1356 
Q 2719 1694 2719 2044 
Q 2719 2081 2716 2156 
Q 2547 1888 2255 1720 
Q 1963 1553 1622 1553 
Q 1053 1553 659 1965 
Q 266 2378 266 3053 
Q 266 3750 677 4175 
Q 1088 4600 1706 4600 
Q 2153 4600 2523 4359 
Q 2894 4119 3086 3673 
Q 3278 3228 3278 2384 
Q 3278 1506 3087 986 
Q 2897 466 2520 194 
Q 2144 -78 1638 -78 
Q 1100 -78 759 220 
Q 419 519 350 1059 
z
M 2653 3081 
Q 2653 3566 2395 3850 
Q 2138 4134 1775 4134 
Q 1400 4134 1122 3828 
Q 844 3522 844 3034 
Q 844 2597 1108 2323 
Q 1372 2050 1759 2050 
Q 2150 2050 2401 2323 
Q 2653 2597 2653 3081 
z
" transform="scale(0.015625)"/>
       </defs>
       <use xlink:href="#ArialMT-30"/>
       <use xlink:href="#ArialMT-2e" x="55.615234"/>
       <use xlink:href="#ArialMT-32" x="83.398438"/>
       <use xlink:href="#ArialMT-39" x="139.013672"/>
      </g>
     </g>
    </g>
    <g id="ytick_21">
     <g id="line2d_81">
      <path d="M 919.7291 249.092923 
L 1160.246342 249.092923 
" clip-path="url(#pea34f85623)" style="fill: none; stroke: #ffffff; stroke-linecap: round"/>
     </g>
     <g id="text_53">
      <!-- 0.30 -->
      <g style="fill: #262626" transform="translate(888.822069 253.02972)scale(0.11 -0.11)">
       <use xlink:href="#ArialMT-30"/>
       <use xlink:href="#ArialMT-2e" x="55.615234"/>
       <use xlink:href="#ArialMT-33" x="83.398438"/>
       <use xlink:href="#ArialMT-30" x="139.013672"/>
      </g>
     </g>
    </g>
    <g id="ytick_22">
     <g id="line2d_82">
      <path d="M 919.7291 208.915539 
L 1160.246342 208.915539 
" clip-path="url(#pea34f85623)" style="fill: none; stroke: #ffffff; stroke-linecap: round"/>
     </g>
     <g id="text_54">
      <!-- 0.31 -->
      <g style="fill: #262626" transform="translate(888.822069 212.852336)scale(0.11 -0.11)">
       <use xlink:href="#ArialMT-30"/>
       <use xlink:href="#ArialMT-2e" x="55.615234"/>
       <use xlink:href="#ArialMT-33" x="83.398438"/>
       <use xlink:href="#ArialMT-31" x="139.013672"/>
      </g>
     </g>
    </g>
    <g id="ytick_23">
     <g id="line2d_83">
      <path d="M 919.7291 168.738155 
L 1160.246342 168.738155 
" clip-path="url(#pea34f85623)" style="fill: none; stroke: #ffffff; stroke-linecap: round"/>
     </g>
     <g id="text_55">
      <!-- 0.32 -->
      <g style="fill: #262626" transform="translate(888.822069 172.674952)scale(0.11 -0.11)">
       <use xlink:href="#ArialMT-30"/>
       <use xlink:href="#ArialMT-2e" x="55.615234"/>
       <use xlink:href="#ArialMT-33" x="83.398438"/>
       <use xlink:href="#ArialMT-32" x="139.013672"/>
      </g>
     </g>
    </g>
    <g id="ytick_24">
     <g id="line2d_84">
      <path d="M 919.7291 128.560772 
L 1160.246342 128.560772 
" clip-path="url(#pea34f85623)" style="fill: none; stroke: #ffffff; stroke-linecap: round"/>
     </g>
     <g id="text_56">
      <!-- 0.33 -->
      <g style="fill: #262626" transform="translate(888.822069 132.497569)scale(0.11 -0.11)">
       <use xlink:href="#ArialMT-30"/>
       <use xlink:href="#ArialMT-2e" x="55.615234"/>
       <use xlink:href="#ArialMT-33" x="83.398438"/>
       <use xlink:href="#ArialMT-33" x="139.013672"/>
      </g>
     </g>
    </g>
    <g id="ytick_25">
     <g id="line2d_85">
      <path d="M 919.7291 88.383388 
L 1160.246342 88.383388 
" clip-path="url(#pea34f85623)" style="fill: none; stroke: #ffffff; stroke-linecap: round"/>
     </g>
     <g id="text_57">
      <!-- 0.34 -->
      <g style="fill: #262626" transform="translate(888.822069 92.320185)scale(0.11 -0.11)">
       <use xlink:href="#ArialMT-30"/>
       <use xlink:href="#ArialMT-2e" x="55.615234"/>
       <use xlink:href="#ArialMT-33" x="83.398438"/>
       <use xlink:href="#ArialMT-34" x="139.013672"/>
      </g>
     </g>
    </g>
    <g id="ytick_26">
     <g id="line2d_86">
      <path d="M 919.7291 48.206005 
L 1160.246342 48.206005 
" clip-path="url(#pea34f85623)" style="fill: none; stroke: #ffffff; stroke-linecap: round"/>
     </g>
     <g id="text_58">
      <!-- 0.35 -->
      <g style="fill: #262626" transform="translate(888.822069 52.142802)scale(0.11 -0.11)">
       <use xlink:href="#ArialMT-30"/>
       <use xlink:href="#ArialMT-2e" x="55.615234"/>
       <use xlink:href="#ArialMT-33" x="83.398438"/>
       <use xlink:href="#ArialMT-35" x="139.013672"/>
      </g>
     </g>
    </g>
   </g>
   <g id="line2d_87">
    <path d="M 919.7291 106.463211 
L 943.780824 231.0131 
L 967.832548 233.021969 
L 991.884273 255.11953 
L 1015.935997 229.004231 
L 1039.987721 172.755894 
L 1064.039445 206.90667 
L 1088.091169 214.942147 
L 1112.142893 216.951016 
L 1136.194617 172.755894 
L 1160.246342 253.110661 
" clip-path="url(#pea34f85623)" style="fill: none; stroke: #000000; stroke-opacity: 0.5; stroke-width: 0.7; stroke-linecap: round"/>
   </g>
   <g id="line2d_88">
    <path d="M 919.7291 60.25922 
L 943.780824 233.021969 
L 967.832548 273.199353 
L 991.884273 224.986493 
L 1015.935997 233.021969 
L 1039.987721 186.817978 
L 1064.039445 212.933277 
L 1088.091169 194.853455 
L 1112.142893 243.066315 
L 1136.194617 237.039708 
L 1160.246342 267.172745 
" clip-path="url(#pea34f85623)" style="fill: none; stroke: #000000; stroke-opacity: 0.5; stroke-width: 0.7; stroke-linecap: round"/>
   </g>
   <g id="line2d_89">
    <path d="M 919.7291 126.551903 
L 943.780824 212.933277 
L 967.832548 235.030838 
L 991.884273 261.146138 
L 1015.935997 271.190484 
L 1039.987721 180.791371 
L 1064.039445 253.110661 
L 1088.091169 216.951016 
L 1112.142893 237.039708 
L 1136.194617 206.90667 
L 1160.246342 218.959885 
" clip-path="url(#pea34f85623)" style="fill: none; stroke: #000000; stroke-opacity: 0.5; stroke-width: 0.7; stroke-linecap: round"/>
   </g>
   <g id="line2d_90">
    <path d="M 919.7291 36.15279 
L 943.780824 192.844586 
L 967.832548 273.199353 
L 991.884273 235.030838 
L 1015.935997 216.951016 
L 1039.987721 222.977623 
L 1064.039445 188.826847 
L 1088.091169 212.933277 
L 1112.142893 269.181614 
L 1136.194617 231.0131 
L 1160.246342 216.951016 
" clip-path="url(#pea34f85623)" style="fill: none; stroke: #000000; stroke-opacity: 0.5; stroke-width: 0.7; stroke-linecap: round"/>
   </g>
   <g id="line2d_91">
    <path d="M 919.7291 94.409996 
L 943.780824 243.066315 
L 967.832548 220.968754 
L 991.884273 249.092923 
L 1015.935997 176.773632 
L 1039.987721 146.640595 
L 1064.039445 222.977623 
L 1088.091169 182.80024 
L 1112.142893 156.68494 
L 1136.194617 251.101792 
L 1160.246342 249.092923 
" clip-path="url(#pea34f85623)" style="fill: none; stroke: #000000; stroke-opacity: 0.5; stroke-width: 0.7; stroke-linecap: round"/>
   </g>
   <g id="line2d_92">
    <path d="M 919.7291 34.14392 
L 943.780824 216.951016 
L 967.832548 261.146138 
L 991.884273 241.057446 
L 1015.935997 226.995362 
L 1039.987721 188.826847 
L 1064.039445 281.23483 
L 1088.091169 200.880062 
L 1112.142893 166.729286 
L 1136.194617 251.101792 
L 1160.246342 202.888932 
" clip-path="url(#pea34f85623)" style="fill: none; stroke: #000000; stroke-opacity: 0.5; stroke-width: 0.7; stroke-linecap: round"/>
   </g>
   <g id="line2d_93">
    <path d="M 919.7291 40.170528 
L 943.780824 198.871193 
L 967.832548 218.959885 
L 991.884273 224.986493 
L 1015.935997 247.084053 
L 1039.987721 166.729286 
L 1064.039445 229.004231 
L 1088.091169 166.729286 
L 1112.142893 222.977623 
L 1136.194617 186.817978 
L 1160.246342 245.075184 
" clip-path="url(#pea34f85623)" style="fill: none; stroke: #000000; stroke-opacity: 0.5; stroke-width: 0.7; stroke-linecap: round"/>
   </g>
   <g id="line2d_94">
    <path d="M 919.7291 76.330173 
L 943.780824 210.924408 
L 967.832548 241.057446 
L 991.884273 233.021969 
L 1015.935997 206.90667 
L 1039.987721 180.791371 
L 1064.039445 190.835716 
L 1088.091169 166.729286 
L 1112.142893 212.933277 
L 1136.194617 253.110661 
L 1160.246342 245.075184 
" clip-path="url(#pea34f85623)" style="fill: none; stroke: #000000; stroke-opacity: 0.5; stroke-width: 0.7; stroke-linecap: round"/>
   </g>
   <g id="line2d_95">
    <path d="M 919.7291 98.427734 
L 943.780824 202.888932 
L 967.832548 237.039708 
L 991.884273 243.066315 
L 1015.935997 200.880062 
L 1039.987721 128.560772 
L 1064.039445 174.764763 
L 1088.091169 261.146138 
L 1112.142893 253.110661 
L 1136.194617 277.217091 
L 1160.246342 180.791371 
" clip-path="url(#pea34f85623)" style="fill: none; stroke: #000000; stroke-opacity: 0.5; stroke-width: 0.7; stroke-linecap: round"/>
   </g>
   <g id="line2d_96">
    <path d="M 919.7291 108.47208 
L 943.780824 251.101792 
L 967.832548 224.986493 
L 991.884273 220.968754 
L 1015.935997 279.22596 
L 1039.987721 170.747025 
L 1064.039445 208.915539 
L 1088.091169 162.711548 
L 1112.142893 249.092923 
L 1136.194617 253.110661 
L 1160.246342 241.057446 
" clip-path="url(#pea34f85623)" style="fill: none; stroke: #000000; stroke-opacity: 0.5; stroke-width: 0.7; stroke-linecap: round"/>
   </g>
   <g id="line2d_97">
    <path d="M 919.7291 78.138155 
L 943.780824 219.361659 
L 967.832548 241.860994 
L 991.884273 238.84769 
L 1015.935997 228.803344 
L 1039.987721 174.563876 
L 1064.039445 216.951016 
L 1088.091169 198.067646 
L 1112.142893 222.776736 
L 1136.194617 232.017535 
L 1160.246342 232.017535 
" clip-path="url(#pea34f85623)" style="fill: none; stroke: #c44e52; stroke-width: 3; stroke-linecap: round"/>
   </g>
   <g id="LineCollection_4">
    <path d="M 919.7291 97.825073 
L 919.7291 58.853011 
" clip-path="url(#pea34f85623)" style="fill: none; stroke: #c44e52; stroke-width: 1.5; stroke-linecap: round"/>
    <path d="M 943.780824 230.817235 
L 943.780824 207.911104 
" clip-path="url(#pea34f85623)" style="fill: none; stroke: #c44e52; stroke-width: 1.5; stroke-linecap: round"/>
    <path d="M 967.832548 254.120118 
L 967.832548 230.209552 
" clip-path="url(#pea34f85623)" style="fill: none; stroke: #c44e52; stroke-width: 1.5; stroke-linecap: round"/>
    <path d="M 991.884273 246.68228 
L 991.884273 231.0131 
" clip-path="url(#pea34f85623)" style="fill: none; stroke: #c44e52; stroke-width: 1.5; stroke-linecap: round"/>
    <path d="M 1015.935997 247.089076 
L 1015.935997 210.522634 
" clip-path="url(#pea34f85623)" style="fill: none; stroke: #c44e52; stroke-width: 1.5; stroke-linecap: round"/>
    <path d="M 1039.987721 190.433943 
L 1039.987721 160.903566 
" clip-path="url(#pea34f85623)" style="fill: none; stroke: #c44e52; stroke-width: 1.5; stroke-linecap: round"/>
    <path d="M 1064.039445 237.039708 
L 1064.039445 198.861149 
" clip-path="url(#pea34f85623)" style="fill: none; stroke: #c44e52; stroke-width: 1.5; stroke-linecap: round"/>
    <path d="M 1088.091169 215.745694 
L 1088.091169 182.996104 
" clip-path="url(#pea34f85623)" style="fill: none; stroke: #c44e52; stroke-width: 1.5; stroke-linecap: round"/>
    <path d="M 1112.142893 243.282269 
L 1112.142893 200.071493 
" clip-path="url(#pea34f85623)" style="fill: none; stroke: #c44e52; stroke-width: 1.5; stroke-linecap: round"/>
    <path d="M 1136.194617 251.106814 
L 1136.194617 210.919386 
" clip-path="url(#pea34f85623)" style="fill: none; stroke: #c44e52; stroke-width: 1.5; stroke-linecap: round"/>
    <path d="M 1160.246342 245.883754 
L 1160.246342 215.73565 
" clip-path="url(#pea34f85623)" style="fill: none; stroke: #c44e52; stroke-width: 1.5; stroke-linecap: round"/>
   </g>
   <g id="line2d_98"/>
   <g id="patch_18">
    <path d="M 919.7291 293.589375 
L 919.7291 21.789375 
" style="fill: none; stroke: #ffffff; stroke-width: 1.25; stroke-linejoin: miter; stroke-linecap: square"/>
   </g>
   <g id="patch_19">
    <path d="M 1160.246342 293.589375 
L 1160.246342 21.789375 
" style="fill: none; stroke: #ffffff; stroke-width: 1.25; stroke-linejoin: miter; stroke-linecap: square"/>
   </g>
   <g id="patch_20">
    <path d="M 919.7291 293.589375 
L 1160.246342 293.589375 
" style="fill: none; stroke: #ffffff; stroke-width: 1.25; stroke-linejoin: miter; stroke-linecap: square"/>
   </g>
   <g id="patch_21">
    <path d="M 919.7291 21.789375 
L 1160.246342 21.789375 
" style="fill: none; stroke: #ffffff; stroke-width: 1.25; stroke-linejoin: miter; stroke-linecap: square"/>
   </g>
   <g id="text_59">
    <!-- $\alpha = 90$ -->
    <g style="fill: #262626" transform="translate(1021.027721 15.789375)scale(0.12 -0.12)">
     <defs>
      <path id="DejaVuSans-39" d="M 703 97 
L 703 672 
Q 941 559 1184 500 
Q 1428 441 1663 441 
Q 2288 441 2617 861 
Q 2947 1281 2994 2138 
Q 2813 1869 2534 1725 
Q 2256 1581 1919 1581 
Q 1219 1581 811 2004 
Q 403 2428 403 3163 
Q 403 3881 828 4315 
Q 1253 4750 1959 4750 
Q 2769 4750 3195 4129 
Q 3622 3509 3622 2328 
Q 3622 1225 3098 567 
Q 2575 -91 1691 -91 
Q 1453 -91 1209 -44 
Q 966 3 703 97 
z
M 1959 2075 
Q 2384 2075 2632 2365 
Q 2881 2656 2881 3163 
Q 2881 3666 2632 3958 
Q 2384 4250 1959 4250 
Q 1534 4250 1286 3958 
Q 1038 3666 1038 3163 
Q 1038 2656 1286 2365 
Q 1534 2075 1959 2075 
z
" transform="scale(0.015625)"/>
     </defs>
     <use xlink:href="#DejaVuSans-Oblique-3b1" transform="translate(0 0.78125)"/>
     <use xlink:href="#DejaVuSans-3d" transform="translate(85.400391 0.78125)"/>
     <use xlink:href="#DejaVuSans-39" transform="translate(188.671875 0.78125)"/>
     <use xlink:href="#DejaVuSans-30" transform="translate(252.294922 0.78125)"/>
    </g>
   </g>
  </g>
  <g id="axes_5">
   <g id="patch_22">
    <path d="M 1208.34979 293.589375 
L 1448.867031 293.589375 
L 1448.867031 21.789375 
L 1208.34979 21.789375 
z
" style="fill: #eaeaf2"/>
   </g>
   <g id="matplotlib.axis_9">
    <g id="xtick_25">
     <g id="line2d_99">
      <path d="M 1208.34979 293.589375 
L 1208.34979 21.789375 
" clip-path="url(#pda08817155)" style="fill: none; stroke: #ffffff; stroke-linecap: round"/>
     </g>
     <g id="text_60">
      <!-- 0 -->
      <g style="fill: #262626" transform="translate(1205.291274 310.962969)scale(0.11 -0.11)">
       <use xlink:href="#ArialMT-30"/>
      </g>
     </g>
    </g>
    <g id="xtick_26">
     <g id="line2d_100">
      <path d="M 1256.453238 293.589375 
L 1256.453238 21.789375 
" clip-path="url(#pda08817155)" style="fill: none; stroke: #ffffff; stroke-linecap: round"/>
     </g>
     <g id="text_61">
      <!-- 10 -->
      <g style="fill: #262626" transform="translate(1250.336207 310.962969)scale(0.11 -0.11)">
       <use xlink:href="#ArialMT-31"/>
       <use xlink:href="#ArialMT-30" x="55.615234"/>
      </g>
     </g>
    </g>
    <g id="xtick_27">
     <g id="line2d_101">
      <path d="M 1304.556686 293.589375 
L 1304.556686 21.789375 
" clip-path="url(#pda08817155)" style="fill: none; stroke: #ffffff; stroke-linecap: round"/>
     </g>
     <g id="text_62">
      <!-- 20 -->
      <g style="fill: #262626" transform="translate(1298.439655 310.962969)scale(0.11 -0.11)">
       <use xlink:href="#ArialMT-32"/>
       <use xlink:href="#ArialMT-30" x="55.615234"/>
      </g>
     </g>
    </g>
    <g id="xtick_28">
     <g id="line2d_102">
      <path d="M 1352.660135 293.589375 
L 1352.660135 21.789375 
" clip-path="url(#pda08817155)" style="fill: none; stroke: #ffffff; stroke-linecap: round"/>
     </g>
     <g id="text_63">
      <!-- 30 -->
      <g style="fill: #262626" transform="translate(1346.543103 310.962969)scale(0.11 -0.11)">
       <use xlink:href="#ArialMT-33"/>
       <use xlink:href="#ArialMT-30" x="55.615234"/>
      </g>
     </g>
    </g>
    <g id="xtick_29">
     <g id="line2d_103">
      <path d="M 1400.763583 293.589375 
L 1400.763583 21.789375 
" clip-path="url(#pda08817155)" style="fill: none; stroke: #ffffff; stroke-linecap: round"/>
     </g>
     <g id="text_64">
      <!-- 40 -->
      <g style="fill: #262626" transform="translate(1394.646552 310.962969)scale(0.11 -0.11)">
       <use xlink:href="#ArialMT-34"/>
       <use xlink:href="#ArialMT-30" x="55.615234"/>
      </g>
     </g>
    </g>
    <g id="xtick_30">
     <g id="line2d_104">
      <path d="M 1448.867031 293.589375 
L 1448.867031 21.789375 
" clip-path="url(#pda08817155)" style="fill: none; stroke: #ffffff; stroke-linecap: round"/>
     </g>
     <g id="text_65">
      <!-- 50 -->
      <g style="fill: #262626" transform="translate(1442.75 310.962969)scale(0.11 -0.11)">
       <use xlink:href="#ArialMT-35"/>
       <use xlink:href="#ArialMT-30" x="55.615234"/>
      </g>
     </g>
    </g>
    <g id="text_66">
     <!-- $m/n, n=100$ -->
     <g style="fill: #262626" transform="translate(1291.228411 325.738594)scale(0.12 -0.12)">
      <use xlink:href="#DejaVuSans-Oblique-6d" transform="translate(0 0.78125)"/>
      <use xlink:href="#DejaVuSans-2f" transform="translate(97.412109 0.78125)"/>
      <use xlink:href="#DejaVuSans-Oblique-6e" transform="translate(131.103516 0.78125)"/>
      <use xlink:href="#DejaVuSans-2c" transform="translate(194.482422 0.78125)"/>
      <use xlink:href="#DejaVuSans-Oblique-6e" transform="translate(245.751953 0.78125)"/>
      <use xlink:href="#DejaVuSans-3d" transform="translate(328.613281 0.78125)"/>
      <use xlink:href="#DejaVuSans-31" transform="translate(431.884766 0.78125)"/>
      <use xlink:href="#DejaVuSans-30" transform="translate(495.507812 0.78125)"/>
      <use xlink:href="#DejaVuSans-30" transform="translate(559.130859 0.78125)"/>
     </g>
    </g>
   </g>
   <g id="matplotlib.axis_10">
    <g id="ytick_27">
     <g id="line2d_105">
      <path d="M 1208.34979 279.609231 
L 1448.867031 279.609231 
" clip-path="url(#pda08817155)" style="fill: none; stroke: #ffffff; stroke-linecap: round"/>
     </g>
     <g id="text_67">
      <!-- 0.30 -->
      <g style="fill: #262626" transform="translate(1177.442759 283.546028)scale(0.11 -0.11)">
       <use xlink:href="#ArialMT-30"/>
       <use xlink:href="#ArialMT-2e" x="55.615234"/>
       <use xlink:href="#ArialMT-33" x="83.398438"/>
       <use xlink:href="#ArialMT-30" x="139.013672"/>
      </g>
     </g>
    </g>
    <g id="ytick_28">
     <g id="line2d_106">
      <path d="M 1208.34979 247.09727 
L 1448.867031 247.09727 
" clip-path="url(#pda08817155)" style="fill: none; stroke: #ffffff; stroke-linecap: round"/>
     </g>
     <g id="text_68">
      <!-- 0.31 -->
      <g style="fill: #262626" transform="translate(1177.442759 251.034067)scale(0.11 -0.11)">
       <use xlink:href="#ArialMT-30"/>
       <use xlink:href="#ArialMT-2e" x="55.615234"/>
       <use xlink:href="#ArialMT-33" x="83.398438"/>
       <use xlink:href="#ArialMT-31" x="139.013672"/>
      </g>
     </g>
    </g>
    <g id="ytick_29">
     <g id="line2d_107">
      <path d="M 1208.34979 214.585308 
L 1448.867031 214.585308 
" clip-path="url(#pda08817155)" style="fill: none; stroke: #ffffff; stroke-linecap: round"/>
     </g>
     <g id="text_69">
      <!-- 0.32 -->
      <g style="fill: #262626" transform="translate(1177.442759 218.522105)scale(0.11 -0.11)">
       <use xlink:href="#ArialMT-30"/>
       <use xlink:href="#ArialMT-2e" x="55.615234"/>
       <use xlink:href="#ArialMT-33" x="83.398438"/>
       <use xlink:href="#ArialMT-32" x="139.013672"/>
      </g>
     </g>
    </g>
    <g id="ytick_30">
     <g id="line2d_108">
      <path d="M 1208.34979 182.073346 
L 1448.867031 182.073346 
" clip-path="url(#pda08817155)" style="fill: none; stroke: #ffffff; stroke-linecap: round"/>
     </g>
     <g id="text_70">
      <!-- 0.33 -->
      <g style="fill: #262626" transform="translate(1177.442759 186.010143)scale(0.11 -0.11)">
       <use xlink:href="#ArialMT-30"/>
       <use xlink:href="#ArialMT-2e" x="55.615234"/>
       <use xlink:href="#ArialMT-33" x="83.398438"/>
       <use xlink:href="#ArialMT-33" x="139.013672"/>
      </g>
     </g>
    </g>
    <g id="ytick_31">
     <g id="line2d_109">
      <path d="M 1208.34979 149.561385 
L 1448.867031 149.561385 
" clip-path="url(#pda08817155)" style="fill: none; stroke: #ffffff; stroke-linecap: round"/>
     </g>
     <g id="text_71">
      <!-- 0.34 -->
      <g style="fill: #262626" transform="translate(1177.442759 153.498181)scale(0.11 -0.11)">
       <use xlink:href="#ArialMT-30"/>
       <use xlink:href="#ArialMT-2e" x="55.615234"/>
       <use xlink:href="#ArialMT-33" x="83.398438"/>
       <use xlink:href="#ArialMT-34" x="139.013672"/>
      </g>
     </g>
    </g>
    <g id="ytick_32">
     <g id="line2d_110">
      <path d="M 1208.34979 117.049423 
L 1448.867031 117.049423 
" clip-path="url(#pda08817155)" style="fill: none; stroke: #ffffff; stroke-linecap: round"/>
     </g>
     <g id="text_72">
      <!-- 0.35 -->
      <g style="fill: #262626" transform="translate(1177.442759 120.98622)scale(0.11 -0.11)">
       <use xlink:href="#ArialMT-30"/>
       <use xlink:href="#ArialMT-2e" x="55.615234"/>
       <use xlink:href="#ArialMT-33" x="83.398438"/>
       <use xlink:href="#ArialMT-35" x="139.013672"/>
      </g>
     </g>
    </g>
    <g id="ytick_33">
     <g id="line2d_111">
      <path d="M 1208.34979 84.537461 
L 1448.867031 84.537461 
" clip-path="url(#pda08817155)" style="fill: none; stroke: #ffffff; stroke-linecap: round"/>
     </g>
     <g id="text_73">
      <!-- 0.36 -->
      <g style="fill: #262626" transform="translate(1177.442759 88.474258)scale(0.11 -0.11)">
       <use xlink:href="#ArialMT-30"/>
       <use xlink:href="#ArialMT-2e" x="55.615234"/>
       <use xlink:href="#ArialMT-33" x="83.398438"/>
       <use xlink:href="#ArialMT-36" x="139.013672"/>
      </g>
     </g>
    </g>
    <g id="ytick_34">
     <g id="line2d_112">
      <path d="M 1208.34979 52.025499 
L 1448.867031 52.025499 
" clip-path="url(#pda08817155)" style="fill: none; stroke: #ffffff; stroke-linecap: round"/>
     </g>
     <g id="text_74">
      <!-- 0.37 -->
      <g style="fill: #262626" transform="translate(1177.442759 55.962296)scale(0.11 -0.11)">
       <use xlink:href="#ArialMT-30"/>
       <use xlink:href="#ArialMT-2e" x="55.615234"/>
       <use xlink:href="#ArialMT-33" x="83.398438"/>
       <use xlink:href="#ArialMT-37" x="139.013672"/>
      </g>
     </g>
    </g>
   </g>
   <g id="line2d_113">
    <path d="M 1208.34979 92.665452 
L 1232.401514 268.230045 
L 1256.453238 209.708514 
L 1280.504962 201.580523 
L 1304.556686 185.324542 
L 1328.608411 157.689375 
L 1352.660135 165.817365 
L 1376.711859 117.049423 
L 1400.763583 170.69416 
L 1424.815307 144.68459 
L 1448.867031 170.69416 
" clip-path="url(#pda08817155)" style="fill: none; stroke: #000000; stroke-opacity: 0.5; stroke-width: 0.7; stroke-linecap: round"/>
   </g>
   <g id="line2d_114">
    <path d="M 1208.34979 160.940571 
L 1232.401514 245.471672 
L 1256.453238 186.950141 
L 1280.504962 232.466887 
L 1304.556686 173.945356 
L 1328.608411 175.570954 
L 1352.660135 173.945356 
L 1376.711859 94.29105 
L 1400.763583 102.41904 
L 1424.815307 178.82215 
L 1448.867031 172.319758 
" clip-path="url(#pda08817155)" style="fill: none; stroke: #000000; stroke-opacity: 0.5; stroke-width: 0.7; stroke-linecap: round"/>
   </g>
   <g id="line2d_115">
    <path d="M 1208.34979 196.703729 
L 1232.401514 268.230045 
L 1256.453238 212.95971 
L 1280.504962 157.689375 
L 1304.556686 180.447748 
L 1328.608411 112.172629 
L 1352.660135 123.551815 
L 1376.711859 105.670236 
L 1400.763583 125.177413 
L 1424.815307 125.177413 
L 1448.867031 34.14392 
" clip-path="url(#pda08817155)" style="fill: none; stroke: #000000; stroke-opacity: 0.5; stroke-width: 0.7; stroke-linecap: round"/>
   </g>
   <g id="line2d_116">
    <path d="M 1208.34979 162.566169 
L 1232.401514 224.338897 
L 1256.453238 219.462102 
L 1280.504962 183.698944 
L 1304.556686 180.447748 
L 1328.608411 138.182198 
L 1352.660135 201.580523 
L 1376.711859 185.324542 
L 1400.763583 169.068562 
L 1424.815307 143.058992 
L 1448.867031 144.68459 
" clip-path="url(#pda08817155)" style="fill: none; stroke: #000000; stroke-opacity: 0.5; stroke-width: 0.7; stroke-linecap: round"/>
   </g>
   <g id="line2d_117">
    <path d="M 1208.34979 138.182198 
L 1232.401514 264.978849 
L 1256.453238 242.220475 
L 1280.504962 193.452533 
L 1304.556686 138.182198 
L 1328.608411 186.950141 
L 1352.660135 141.433394 
L 1376.711859 193.452533 
L 1400.763583 172.319758 
L 1424.815307 99.167844 
L 1448.867031 151.186983 
" clip-path="url(#pda08817155)" style="fill: none; stroke: #000000; stroke-opacity: 0.5; stroke-width: 0.7; stroke-linecap: round"/>
   </g>
   <g id="line2d_118">
    <path d="M 1208.34979 152.812581 
L 1232.401514 281.23483 
L 1256.453238 268.230045 
L 1280.504962 165.817365 
L 1304.556686 225.964495 
L 1328.608411 113.798227 
L 1352.660135 160.940571 
L 1376.711859 183.698944 
L 1400.763583 146.310188 
L 1424.815307 188.575739 
L 1448.867031 175.570954 
" clip-path="url(#pda08817155)" style="fill: none; stroke: #000000; stroke-opacity: 0.5; stroke-width: 0.7; stroke-linecap: round"/>
   </g>
   <g id="line2d_119">
    <path d="M 1208.34979 125.177413 
L 1232.401514 277.983633 
L 1256.453238 222.713298 
L 1280.504962 165.817365 
L 1304.556686 157.689375 
L 1328.608411 117.049423 
L 1352.660135 186.950141 
L 1376.711859 120.300619 
L 1400.763583 173.945356 
L 1424.815307 131.679806 
L 1448.867031 133.305404 
" clip-path="url(#pda08817155)" style="fill: none; stroke: #000000; stroke-opacity: 0.5; stroke-width: 0.7; stroke-linecap: round"/>
   </g>
   <g id="line2d_120">
    <path d="M 1208.34979 95.916648 
L 1232.401514 266.604447 
L 1256.453238 214.585308 
L 1280.504962 196.703729 
L 1304.556686 190.201337 
L 1328.608411 118.675021 
L 1352.660135 180.447748 
L 1376.711859 120.300619 
L 1400.763583 136.5566 
L 1424.815307 167.442964 
L 1448.867031 157.689375 
" clip-path="url(#pda08817155)" style="fill: none; stroke: #000000; stroke-opacity: 0.5; stroke-width: 0.7; stroke-linecap: round"/>
   </g>
   <g id="line2d_121">
    <path d="M 1208.34979 180.447748 
L 1232.401514 245.471672 
L 1256.453238 219.462102 
L 1280.504962 188.575739 
L 1304.556686 196.703729 
L 1328.608411 162.566169 
L 1352.660135 146.310188 
L 1376.711859 123.551815 
L 1400.763583 206.457318 
L 1424.815307 115.423825 
L 1448.867031 113.798227 
" clip-path="url(#pda08817155)" style="fill: none; stroke: #000000; stroke-opacity: 0.5; stroke-width: 0.7; stroke-linecap: round"/>
   </g>
   <g id="line2d_122">
    <path d="M 1208.34979 97.542246 
L 1232.401514 247.09727 
L 1256.453238 178.82215 
L 1280.504962 196.703729 
L 1304.556686 217.836504 
L 1328.608411 170.69416 
L 1352.660135 186.950141 
L 1376.711859 191.826935 
L 1400.763583 196.703729 
L 1424.815307 115.423825 
L 1448.867031 126.803011 
" clip-path="url(#pda08817155)" style="fill: none; stroke: #000000; stroke-opacity: 0.5; stroke-width: 0.7; stroke-linecap: round"/>
   </g>
   <g id="line2d_123">
    <path d="M 1208.34979 140.295475 
L 1232.401514 258.964136 
L 1256.453238 217.511385 
L 1280.504962 188.250619 
L 1304.556686 184.674303 
L 1328.608411 145.33483 
L 1352.660135 166.792724 
L 1376.711859 143.546672 
L 1400.763583 159.965212 
L 1424.815307 140.945715 
L 1448.867031 138.019638 
" clip-path="url(#pda08817155)" style="fill: none; stroke: #c44e52; stroke-width: 3; stroke-linecap: round"/>
   </g>
   <g id="LineCollection_5">
    <path d="M 1208.34979 161.432315 
L 1208.34979 118.670957 
" clip-path="url(#pda08817155)" style="fill: none; stroke: #c44e52; stroke-width: 1.5; stroke-linecap: round"/>
    <path d="M 1232.401514 268.392605 
L 1232.401514 248.068565 
" clip-path="url(#pda08817155)" style="fill: none; stroke: #c44e52; stroke-width: 1.5; stroke-linecap: round"/>
    <path d="M 1256.453238 233.604806 
L 1256.453238 202.38113 
" clip-path="url(#pda08817155)" style="fill: none; stroke: #c44e52; stroke-width: 1.5; stroke-linecap: round"/>
    <path d="M 1280.504962 201.105036 
L 1280.504962 175.400266 
" clip-path="url(#pda08817155)" style="fill: none; stroke: #c44e52; stroke-width: 1.5; stroke-linecap: round"/>
    <path d="M 1304.556686 199.629806 
L 1304.556686 169.068562 
" clip-path="url(#pda08817155)" style="fill: none; stroke: #c44e52; stroke-width: 1.5; stroke-linecap: round"/>
    <path d="M 1328.608411 161.277883 
L 1328.608411 128.916289 
" clip-path="url(#pda08817155)" style="fill: none; stroke: #c44e52; stroke-width: 1.5; stroke-linecap: round"/>
    <path d="M 1352.660135 180.285188 
L 1352.660135 152.641893 
" clip-path="url(#pda08817155)" style="fill: none; stroke: #c44e52; stroke-width: 1.5; stroke-linecap: round"/>
    <path d="M 1376.711859 166.959348 
L 1376.711859 121.438538 
" clip-path="url(#pda08817155)" style="fill: none; stroke: #c44e52; stroke-width: 1.5; stroke-linecap: round"/>
    <path d="M 1400.763583 178.65959 
L 1400.763583 137.857078 
" clip-path="url(#pda08817155)" style="fill: none; stroke: #c44e52; stroke-width: 1.5; stroke-linecap: round"/>
    <path d="M 1424.815307 157.689375 
L 1424.815307 123.385191 
" clip-path="url(#pda08817155)" style="fill: none; stroke: #c44e52; stroke-width: 1.5; stroke-linecap: round"/>
    <path d="M 1448.867031 158.831358 
L 1448.867031 110.047159 
" clip-path="url(#pda08817155)" style="fill: none; stroke: #c44e52; stroke-width: 1.5; stroke-linecap: round"/>
   </g>
   <g id="line2d_124"/>
   <g id="patch_23">
    <path d="M 1208.34979 293.589375 
L 1208.34979 21.789375 
" style="fill: none; stroke: #ffffff; stroke-width: 1.25; stroke-linejoin: miter; stroke-linecap: square"/>
   </g>
   <g id="patch_24">
    <path d="M 1448.867031 293.589375 
L 1448.867031 21.789375 
" style="fill: none; stroke: #ffffff; stroke-width: 1.25; stroke-linejoin: miter; stroke-linecap: square"/>
   </g>
   <g id="patch_25">
    <path d="M 1208.34979 293.589375 
L 1448.867031 293.589375 
" style="fill: none; stroke: #ffffff; stroke-width: 1.25; stroke-linejoin: miter; stroke-linecap: square"/>
   </g>
   <g id="patch_26">
    <path d="M 1208.34979 21.789375 
L 1448.867031 21.789375 
" style="fill: none; stroke: #ffffff; stroke-width: 1.25; stroke-linejoin: miter; stroke-linecap: square"/>
   </g>
   <g id="text_75">
    <!-- $\alpha = 135$ -->
    <g style="fill: #262626" transform="translate(1305.808411 15.789375)scale(0.12 -0.12)">
     <defs>
      <path id="DejaVuSans-33" d="M 2597 2516 
Q 3050 2419 3304 2112 
Q 3559 1806 3559 1356 
Q 3559 666 3084 287 
Q 2609 -91 1734 -91 
Q 1441 -91 1130 -33 
Q 819 25 488 141 
L 488 750 
Q 750 597 1062 519 
Q 1375 441 1716 441 
Q 2309 441 2620 675 
Q 2931 909 2931 1356 
Q 2931 1769 2642 2001 
Q 2353 2234 1838 2234 
L 1294 2234 
L 1294 2753 
L 1863 2753 
Q 2328 2753 2575 2939 
Q 2822 3125 2822 3475 
Q 2822 3834 2567 4026 
Q 2313 4219 1838 4219 
Q 1578 4219 1281 4162 
Q 984 4106 628 3988 
L 628 4550 
Q 988 4650 1302 4700 
Q 1616 4750 1894 4750 
Q 2613 4750 3031 4423 
Q 3450 4097 3450 3541 
Q 3450 3153 3228 2886 
Q 3006 2619 2597 2516 
z
" transform="scale(0.015625)"/>
     </defs>
     <use xlink:href="#DejaVuSans-Oblique-3b1" transform="translate(0 0.78125)"/>
     <use xlink:href="#DejaVuSans-3d" transform="translate(85.400391 0.78125)"/>
     <use xlink:href="#DejaVuSans-31" transform="translate(188.671875 0.78125)"/>
     <use xlink:href="#DejaVuSans-33" transform="translate(252.294922 0.78125)"/>
     <use xlink:href="#DejaVuSans-35" transform="translate(315.917969 0.78125)"/>
    </g>
   </g>
  </g>
 </g>
 <defs>
  <clipPath id="p72c5f5f099">
   <rect x="53.867031" y="21.789375" width="240.517241" height="271.8"/>
  </clipPath>
  <clipPath id="pb042e39f47">
   <rect x="342.487721" y="21.789375" width="240.517241" height="271.8"/>
  </clipPath>
  <clipPath id="p491f7fa53c">
   <rect x="631.108411" y="21.789375" width="240.517241" height="271.8"/>
  </clipPath>
  <clipPath id="pea34f85623">
   <rect x="919.7291" y="21.789375" width="240.517241" height="271.8"/>
  </clipPath>
  <clipPath id="pda08817155">
   <rect x="1208.34979" y="21.789375" width="240.517241" height="271.8"/>
  </clipPath>
 </defs>
</svg>
